<?xml version="1.0" encoding="UTF-8" standalone="no"?>
<!-- Created with Inkscape (http://www.inkscape.org/) -->

<svg
   xmlns:dc="http://purl.org/dc/elements/1.1/"
   xmlns:cc="http://creativecommons.org/ns#"
   xmlns:rdf="http://www.w3.org/1999/02/22-rdf-syntax-ns#"
   xmlns:svg="http://www.w3.org/2000/svg"
   xmlns="http://www.w3.org/2000/svg"
   xmlns:sodipodi="http://sodipodi.sourceforge.net/DTD/sodipodi-0.dtd"
   xmlns:inkscape="http://www.inkscape.org/namespaces/inkscape"
   width="91.240257mm"
   height="70.336823mm"
   viewBox="0 0 323.29225 249.22496"
   id="svg2"
   version="1.1"
   inkscape:version="0.91 r13725"
   sodipodi:docname="closedloopspeed.svg">
  <sodipodi:namedview
     id="base"
     pagecolor="#ffffff"
     bordercolor="#666666"
     borderopacity="1.0"
     inkscape:pageopacity="0.0"
     inkscape:pageshadow="2"
     inkscape:zoom="1.17075"
     inkscape:cx="32.533312"
     inkscape:cy="149.61258"
     inkscape:document-units="px"
     inkscape:current-layer="layer1"
     showgrid="false"
     inkscape:window-width="1600"
     inkscape:window-height="838"
     inkscape:window-x="-8"
     inkscape:window-y="-8"
     inkscape:window-maximized="1"
     fit-margin-top="0"
     fit-margin-left="0"
     fit-margin-right="0"
     fit-margin-bottom="0" />
  <defs
     id="defs4">
    <clipPath
       id="clipPath4288"
       clipPathUnits="userSpaceOnUse">
      <path
         inkscape:connector-curvature="0"
         id="path4290"
         d="m 0,2200 3000,0 L 3000,2.5 0,2.5 0,2200 Z" />
    </clipPath>
    <clipPath
       id="clipPath4490"
       clipPathUnits="userSpaceOnUse">
      <path
         inkscape:connector-curvature="0"
         id="path4492"
         d="m 480,1885 2235.83,0 0,-1641.668 -2235.83,0 0,1641.668 z" />
    </clipPath>
    <clipPath
       id="clipPath4500"
       clipPathUnits="userSpaceOnUse">
      <path
         inkscape:connector-curvature="0"
         id="path4502"
         d="m 0,2200 3000,0 L 3000,2.5 0,2.5 0,2200 Z" />
    </clipPath>
  </defs>
  <metadata
     id="metadata7">
    <rdf:RDF>
      <cc:Work
         rdf:about="">
        <dc:format>image/svg+xml</dc:format>
        <dc:type
           rdf:resource="http://purl.org/dc/dcmitype/StillImage" />
        <dc:title></dc:title>
      </cc:Work>
    </rdf:RDF>
  </metadata>
  <g
     inkscape:label="Layer 1"
     inkscape:groupmode="layer"
     id="layer1"
     transform="translate(-240.32383,-298.46412)">
    <g
       transform="matrix(0,-0.37269992,0.37269992,0,120.56346,577.34974)"
       id="g4141">
      <g
         style="font-style:normal;font-variant:normal;font-weight:normal;font-stretch:normal;letter-spacing:normal;word-spacing:normal;text-anchor:start;fill:none;fill-opacity:1;fill-rule:evenodd;stroke:#000000;stroke-linecap:butt;stroke-linejoin:miter;stroke-miterlimit:10.43299961;stroke-dasharray:none;stroke-dashoffset:0;stroke-opacity:1"
         id="content"
         transform="matrix(1.0629921,0,0,-1.0629921,-186.02362,789.27165)"
         xml:space="preserve"
         stroke-miterlimit="10.433"
         font-style="normal"
         font-variant="normal"
         font-weight="normal"
         font-stretch="normal"
         font-size-adjust="none"
         letter-spacing="normal"
         word-spacing="normal"><path
           style="fill:#000000;stroke-width:0"
           inkscape:connector-curvature="0"
           d="m 454.69,437.93 0,-1.34 c 2.58,-0.08 3.13,-0.27 4.03,-2.7 1.47,-3.85 3.17,-8.44 4.78,-13.02 l 5.18,-14.67 3.25,0 5.87,15.81 c 1.88,5.1 3.72,9.77 4.81,12.2 0.97,2.16 1.52,2.25 3.99,2.38 l 0,1.34 -10.13,0 0,-1.34 2.52,-0.22 c 1.2,-0.09 1.25,-0.55 1.01,-1.42 -0.5,-2.02 -1.92,-6.06 -3.57,-10.64 l -4.77,-13.16 -0.09,0.1 -4.27,11.78 c -1.42,3.98 -2.84,8.01 -4.03,11.68 -0.38,1.15 -0.23,1.57 0.87,1.66 l 2.38,0.22 0,1.34 z"
           id="path4144" /><path
           style="fill:#000000;stroke-width:0"
           inkscape:connector-curvature="0"
           d="m 501.54,418.26 0.09,0 0.09,0 0.09,0.01 0.09,0 0.08,0.01 0.09,0.01 0.08,0.01 0.08,0.02 0.08,0.02 0.08,0.02 0.08,0.02 0.07,0.03 0.08,0.03 0.06,0.04 0.07,0.04 0.07,0.04 0.06,0.05 0.06,0.05 0.05,0.06 0.05,0.06 0.05,0.07 0.05,0.07 0.04,0.08 0.04,0.09 0.03,0.09 0.02,0.04 0.01,0.05 0.01,0.05 0.02,0.06 0.01,0.05 0.01,0.06 0.01,0.05 0,0.06 0.01,0.06 0.01,0.07 0,0.06 0,0.07 0.01,0.07 0,0.07 c 0,2.7 -0.86,9.21 -9.25,9.21 l -0.28,-1.6 c 4.26,0 4.76,-4.35 4.76,-6.15 0,-0.87 -0.26,-1.46 -1.56,-1.46 l -8.66,0 c 0,1.89 0.69,7.61 5.46,7.61 l 0.28,1.6 c -7.16,0 -10.55,-5.09 -10.55,-11.96 0,-7.24 3.11,-11.69 10.59,-11.6 5.08,0.05 7.71,2.85 8.94,6.47 l -1.37,0.72 c -1.28,-2.66 -3.03,-4.86 -6.66,-4.86 -5.69,0 -6.83,5.52 -6.73,10.28 z"
           id="path4146" /><path
           style="fill:#000000;stroke-width:0"
           inkscape:connector-curvature="0"
           d="m 513.51,439.95 -0.33,0.26 -7.2,-1.14 0,-1.14 1.75,-0.18 c 1.19,-0.14 1.47,-0.38 1.47,-2.11 l 0,-25.46 c 0,-2.32 -0.14,-2.42 -3.44,-2.65 l 0,-1.33 11.19,0 0,1.33 c -3.27,0.23 -3.44,0.33 -3.44,2.65 z"
           id="path4148" /><path
           style="fill:#000000;stroke-width:0"
           inkscape:connector-curvature="0"
           d="m 530.88,429.21 -0.67,-0.01 -0.66,-0.04 -0.63,-0.06 -0.61,-0.09 -0.59,-0.11 -0.57,-0.14 -0.55,-0.16 -0.52,-0.18 -0.5,-0.21 -0.48,-0.23 -0.46,-0.26 -0.44,-0.28 -0.42,-0.3 -0.4,-0.32 -0.37,-0.35 -0.35,-0.36 -0.33,-0.39 -0.31,-0.41 -0.29,-0.43 -0.27,-0.46 -0.24,-0.47 -0.23,-0.5 -0.2,-0.51 -0.18,-0.53 -0.16,-0.56 -0.14,-0.57 -0.11,-0.6 -0.1,-0.61 -0.07,-0.63 -0.06,-0.65 -0.03,-0.67 -0.01,-0.69 c 0,-7.42 3.62,-11.78 10.95,-11.78 l 0,1.6 c -4.17,0 -6.18,3.86 -6.18,10.18 l 0,0 c 0,6.33 2.01,10.18 6.18,10.18 4.27,0 6.24,-3.85 6.24,-10.18 0,-6.32 -1.97,-10.18 -6.24,-10.18 l 0,-1.6 c 7.42,0 11,4.36 11,11.78 0,7.43 -3.58,11.78 -11,11.78 z"
           id="path4150" /><path
           style="fill:#000000;stroke-width:0"
           inkscape:connector-curvature="0"
           d="m 557.83,408.03 -0.25,0 -0.25,0.01 -0.24,0.02 -0.24,0.03 -0.23,0.04 -0.22,0.04 -0.22,0.05 -0.21,0.06 -0.4,0.14 -0.39,0.16 -0.36,0.19 -0.34,0.21 -0.33,0.24 -0.3,0.26 -0.28,0.28 -0.27,0.29 -0.25,0.32 -0.23,0.33 -0.21,0.35 -0.19,0.36 -0.18,0.37 -0.17,0.39 -0.15,0.39 -0.13,0.41 -0.12,0.41 -0.11,0.42 -0.1,0.42 -0.08,0.43 -0.07,0.42 -0.06,0.43 -0.05,0.43 -0.04,0.43 -0.03,0.42 -0.02,0.42 -0.01,0.42 -0.01,0.41 c 0,6.83 2.71,9.58 5.88,9.58 2.11,0 3.44,-1.52 4.34,-3.99 0.28,-0.73 0.55,-1.19 1.42,-1.19 0.93,0 2.71,0.6 2.71,2.33 0,2.11 -3.02,4.45 -7.97,4.45 -8.34,0 -11.14,-5.92 -11.14,-12.01 0,-7.66 3.75,-11.55 10.64,-11.55 3.2,0 7.51,1.69 8.8,6.6 l -1.33,0.64 c -1.42,-3.21 -3.27,-4.86 -6.61,-4.86 z"
           id="path4152" /><path
           style="fill:#000000;stroke-width:0"
           inkscape:connector-curvature="0"
           d="m 568.46,428.07 0,-1.15 1.74,-0.22 c 1.18,-0.19 1.46,-0.42 1.46,-2.06 l 0,-14.46 c 0,-2.32 -0.14,-2.42 -3.43,-2.65 l 0,-1.33 11.18,0 0,1.33 c -3.25,0.23 -3.43,0.33 -3.43,2.65 l 0,18.75 -0.33,0.28 z"
           id="path4154" /><path
           style="fill:#000000;stroke-width:0"
           inkscape:connector-curvature="0"
           d="m 573.77,438.98 -0.15,0 -0.15,-0.01 -0.15,-0.02 -0.14,-0.02 -0.14,-0.03 -0.14,-0.04 -0.13,-0.04 -0.13,-0.05 -0.13,-0.06 -0.12,-0.06 -0.12,-0.06 -0.11,-0.07 -0.11,-0.08 -0.1,-0.08 -0.1,-0.09 -0.1,-0.09 -0.09,-0.1 -0.08,-0.1 -0.08,-0.11 -0.07,-0.11 -0.07,-0.11 -0.07,-0.12 -0.06,-0.12 -0.05,-0.13 -0.05,-0.13 -0.04,-0.14 -0.03,-0.13 -0.03,-0.15 -0.02,-0.14 -0.02,-0.15 -0.01,-0.15 0,-0.15 c 0,-1.61 1.14,-2.75 2.79,-2.75 1.71,0 2.75,1.14 2.8,2.75 0,1.65 -1.09,2.84 -2.8,2.84 z"
           id="path4156" /><path
           style="fill:#000000;stroke-width:0"
           inkscape:connector-curvature="0"
           d="m 606.81,406.2 0,1.33 c -3.27,0.23 -3.44,0.33 -3.44,2.65 l 0,29.77 -0.33,0.26 -7.2,-1.14 0,-1.14 1.75,-0.18 c 1.19,-0.14 1.47,-0.38 1.47,-2.11 l 0,-7.52 c -1.28,0.69 -2.99,1.09 -5.09,1.09 l -0.05,-1.6 c 2.15,0 3.9,-1 4.72,-2.9 0.37,-0.76 0.42,-1.42 0.42,-2.65 l 0,-8.06 c 0,-1.02 -0.05,-1.8 -0.33,-2.57 -0.91,-2.39 -2.94,-3.31 -5.31,-3.31 -4.22,0 -6.33,4.13 -6.33,9.41 0,5.95 2.16,10.08 6.83,10.08 l 0.05,1.6 c -3.77,0 -6.57,-1.18 -8.49,-3.15 -1.97,-2.08 -3.16,-5.1 -3.16,-9.08 0,-6.8 3.53,-11.33 9.58,-11.33 2.47,0 4.63,1.1 7.11,3.11 l 0,-2.23 0.36,-0.33 z"
           id="path4158" /><path
           style="fill:#000000;stroke-width:0"
           inkscape:connector-curvature="0"
           d="m 627.29,423.12 -0.01,0.51 -0.01,0.26 -0.02,0.26 -0.02,0.26 -0.04,0.26 -0.04,0.26 -0.06,0.26 -0.07,0.26 -0.08,0.26 -0.09,0.26 -0.11,0.25 -0.13,0.24 -0.14,0.24 -0.17,0.24 -0.18,0.22 -0.2,0.22 -0.22,0.21 -0.25,0.21 -0.26,0.19 -0.3,0.18 -0.15,0.08 -0.16,0.09 -0.17,0.08 -0.18,0.07 -0.18,0.08 -0.19,0.07 -0.2,0.06 -0.2,0.07 -0.21,0.05 -0.22,0.06 -0.23,0.05 -0.23,0.05 -0.25,0.04 -0.25,0.04 -0.26,0.04 -0.26,0.03 -0.28,0.02 -0.28,0.03 -0.3,0.01 -0.3,0.02 -0.31,0 -0.32,0 c -5.17,0 -9.25,-2.7 -9.25,-5.23 0,-1.45 1.69,-2.14 2.56,-2.14 0.97,0 1.24,0.5 1.47,1.28 1,3.39 2.89,4.49 4.72,4.49 1.78,0 3.89,-0.91 3.89,-4.58 l 0,-1.92 0,-1.9 0,-6.45 c 0,-3.72 -2.83,-4.69 -4.62,-4.69 -2.85,0 -4.22,2.02 -4.22,4.74 0,2.14 1.01,3.25 3.58,4.2 1.83,0.7 4.26,1.56 5.26,2.2 l 0,1.9 c -1.14,-1.21 -5.59,-2.35 -9.2,-3.49 -3.31,-1.01 -4.27,-3.31 -4.27,-5.47 0,-3.44 2.29,-6.5 6.6,-6.5 2.84,0.1 5.37,1.78 6.84,2.75 0.64,-1.7 1.38,-2.75 2.97,-2.75 1.7,0 3.67,0.5 5.41,1.38 l -0.27,1.09 c -0.64,-0.14 -1.66,-0.22 -2.34,-0.05 -0.83,0.19 -1.6,1.07 -1.6,3.96 z"
           id="path4160" /><path
           style="fill:#000000;stroke-width:0"
           inkscape:connector-curvature="0"
           d="m 658.16,406.2 0,1.33 c -3.26,0.23 -3.43,0.33 -3.43,2.65 l 0,29.77 -0.33,0.26 -7.2,-1.14 0,-1.14 1.75,-0.18 c 1.18,-0.14 1.46,-0.38 1.46,-2.11 l 0,-7.52 c -1.28,0.69 -2.98,1.09 -5.09,1.09 l -0.05,-1.6 c 2.16,0 3.91,-1 4.72,-2.9 0.38,-0.76 0.42,-1.42 0.42,-2.65 l 0,-8.06 c 0,-1.02 -0.04,-1.8 -0.32,-2.57 -0.91,-2.39 -2.94,-3.31 -5.32,-3.31 -4.22,0 -6.32,4.13 -6.32,9.41 0,5.95 2.15,10.08 6.82,10.08 l 0.05,1.6 c -3.77,0 -6.56,-1.18 -8.48,-3.15 -1.97,-2.08 -3.16,-5.1 -3.16,-9.08 0,-6.8 3.53,-11.33 9.58,-11.33 2.47,0 4.62,1.1 7.11,3.11 l 0,-2.23 0.36,-0.33 z"
           id="path4162" /><path
           style="fill:#000000;stroke-width:0"
           inkscape:connector-curvature="0"
           d="m 677.36,419.12 0.01,0.61 0,0.59 0.02,0.59 0.02,0.57 0.05,1.09 0.08,1.05 0.1,1 0.11,0.95 0.13,0.91 0.15,0.85 0.17,0.82 0.18,0.76 0.19,0.73 0.21,0.68 0.22,0.64 0.23,0.6 0.24,0.56 0.25,0.53 0.26,0.49 0.27,0.45 0.27,0.42 0.28,0.38 0.29,0.35 0.28,0.32 0.3,0.29 0.29,0.26 0.29,0.24 0.29,0.2 0.3,0.18 0.29,0.16 0.29,0.13 0.28,0.11 0.28,0.08 0.27,0.07 0,1.15 c -8.03,-0.32 -10.09,-10.28 -10.09,-18.81 0,-8.51 2.06,-18.47 10.09,-18.8 l 0,1.16 c -2.67,0.55 -6.89,4.44 -6.89,17.64 z"
           id="path4164" /><path
           style="fill:#000000;stroke-width:0"
           inkscape:connector-curvature="0"
           d="m 687.13,428.07 0,-1.15 1.73,-0.22 c 1.19,-0.19 1.47,-0.42 1.47,-2.06 l 0,-14.46 c 0,-2.32 -0.14,-2.42 -3.43,-2.65 l 0,-1.33 11.18,0 0,1.33 c -3.25,0.23 -3.43,0.33 -3.43,2.65 l 0,10.74 c 0,1.14 0.04,1.78 0.35,2.42 0.88,1.84 2.9,3.41 5.43,3.41 3.93,0 4.39,-2.89 4.39,-5.74 l 0,-10.83 c 0,-2.32 -0.14,-2.42 -3.44,-2.65 l 0,-1.33 11.19,0 0,1.33 c -3.25,0.23 -3.44,0.33 -3.44,2.65 l 0,10.74 c 0,1.14 0.05,1.78 0.33,2.51 0.69,1.85 2.65,3.32 5.22,3.32 2.89,0.07 4.62,-1.75 4.62,-5.74 l 0,-10.83 c 0,-2.32 -0.12,-2.42 -3.44,-2.65 l 0,-1.33 11.19,0 0,1.33 c -3.25,0.23 -3.44,0.33 -3.44,2.65 l 0,11.74 c 0,4.64 -2.46,7.29 -6.83,7.29 -3.76,0 -6.46,-2.51 -8.06,-3.53 -1.11,2.16 -2.84,3.53 -6.06,3.53 -3.53,0 -6.42,-2.29 -8.01,-3.48 l -0.43,3.48 z"
           id="path4166" /><polygon
           style="fill:#000000;stroke-width:0"
           points="731.88,405.51 734.96,405.51 744.59,438.62 741.51,438.62 "
           id="polygon4168" /><path
           style="fill:#000000;stroke-width:0"
           inkscape:connector-curvature="0"
           d="m 765.61,422.29 0,5.36 c -1.52,1.11 -3.86,1.56 -5.92,1.56 -4.96,0 -8.3,-2.34 -8.35,-6.68 0.05,-3.82 3.13,-5.52 6.93,-6.66 2.06,-0.64 4.95,-1.69 4.95,-4.81 0,-2.35 -1.83,-3.81 -4.27,-3.81 -3.7,0 -5.76,2.71 -6.68,6.61 l -1.33,0 0.45,-6 c 1.66,-1.47 4.45,-2.21 7.16,-2.21 5.45,0 8.58,2.89 8.58,6.78 0,4.03 -2.49,5.88 -7.21,7.35 -1.87,0.59 -4.9,1.54 -4.9,4.12 0.04,2.38 1.82,3.71 4.12,3.71 3.25,0 4.81,-2.52 5.14,-5.32 z"
           id="path4170" /><path
           style="fill:#000000;stroke-width:0"
           inkscape:connector-curvature="0"
           d="m 776.84,419.12 -0.01,-0.61 -0.01,-0.6 -0.01,-0.58 -0.02,-0.58 -0.03,-0.56 -0.03,-0.54 -0.08,-1.06 -0.1,-1 -0.12,-0.95 -0.14,-0.91 -0.15,-0.86 -0.17,-0.81 -0.19,-0.77 -0.2,-0.73 -0.21,-0.68 -0.23,-0.64 -0.24,-0.6 -0.24,-0.56 -0.26,-0.53 -0.26,-0.48 -0.27,-0.45 -0.28,-0.42 -0.28,-0.38 -0.28,-0.35 -0.29,-0.32 -0.29,-0.28 -0.29,-0.26 -0.29,-0.23 -0.28,-0.2 -0.29,-0.18 -0.28,-0.15 -0.27,-0.12 -0.27,-0.11 -0.26,-0.08 -0.26,-0.06 0,-1.16 c 8.03,0.33 10.09,10.29 10.09,18.8 0,8.53 -2.06,18.49 -10.09,18.81 l 0,-1.15 c 2.89,-0.6 6.88,-4.53 6.88,-17.66 z"
           id="path4172" /></g>    </g>
    <g
       id="g4216"
       transform="matrix(0.37269992,0,0,0.37269992,270.97012,410.27505)">
      <g
         word-spacing="normal"
         letter-spacing="normal"
         font-size-adjust="none"
         font-stretch="normal"
         font-weight="normal"
         font-variant="normal"
         font-style="normal"
         stroke-miterlimit="10.433"
         xml:space="preserve"
         transform="matrix(1.0629921,0,0,-1.0629921,-186.02362,789.27165)"
         id="g4218"
         style="font-style:normal;font-variant:normal;font-weight:normal;font-stretch:normal;letter-spacing:normal;word-spacing:normal;text-anchor:start;fill:none;fill-opacity:1;fill-rule:evenodd;stroke:#000000;stroke-linecap:butt;stroke-linejoin:miter;stroke-miterlimit:10.43299961;stroke-dasharray:none;stroke-dashoffset:0;stroke-opacity:1"><path
           id="path4220"
           d="m 472.02,436.32 2.7,0 c 5.38,0 6.33,-1.01 6.89,-6.01 l 1.38,0 0,7.62 -26.45,0 0,-7.62 1.37,0 c 0.55,5 1.5,6.01 6.88,6.01 l 2.7,0 0,-25.86 c 0,-2.56 -0.14,-2.65 -5.05,-2.93 l 0,-1.33 14.63,0 0,1.33 c -4.91,0.28 -5.05,0.37 -5.05,2.93 z"
           inkscape:connector-curvature="0"
           style="fill:#000000;stroke-width:0" /><path
           id="path4222"
           d="m 484.1,428.07 0,-1.15 1.74,-0.22 c 1.18,-0.19 1.46,-0.42 1.46,-2.06 l 0,-14.46 c 0,-2.32 -0.14,-2.42 -3.43,-2.65 l 0,-1.33 11.18,0 0,1.33 c -3.25,0.23 -3.43,0.33 -3.43,2.65 l 0,18.75 -0.33,0.28 z"
           inkscape:connector-curvature="0"
           style="fill:#000000;stroke-width:0" /><path
           id="path4224"
           d="m 489.41,438.98 -0.15,0 -0.15,-0.01 -0.15,-0.02 -0.14,-0.02 -0.14,-0.03 -0.14,-0.04 -0.13,-0.04 -0.13,-0.05 -0.13,-0.06 -0.12,-0.06 -0.12,-0.06 -0.11,-0.07 -0.11,-0.08 -0.1,-0.08 -0.1,-0.09 -0.1,-0.09 -0.09,-0.1 -0.08,-0.1 -0.08,-0.11 -0.07,-0.11 -0.07,-0.11 -0.07,-0.12 -0.06,-0.12 -0.05,-0.13 -0.05,-0.13 -0.04,-0.14 -0.03,-0.13 -0.03,-0.15 -0.02,-0.14 -0.02,-0.15 -0.01,-0.15 0,-0.15 c 0,-1.61 1.14,-2.75 2.79,-2.75 1.71,0 2.75,1.14 2.8,2.75 0,1.65 -1.09,2.84 -2.8,2.84 z"
           inkscape:connector-curvature="0"
           style="fill:#000000;stroke-width:0" /><path
           id="path4226"
           d="m 515.93,418.26 0.09,0 0.09,0 0.09,0.01 0.09,0 0.09,0.01 0.08,0.01 0.09,0.01 0.08,0.02 0.08,0.02 0.08,0.02 0.07,0.02 0.08,0.03 0.07,0.03 0.07,0.04 0.07,0.04 0.06,0.04 0.06,0.05 0.06,0.05 0.06,0.06 0.05,0.06 0.05,0.07 0.04,0.07 0.04,0.08 0.04,0.09 0.04,0.09 0.01,0.04 0.02,0.05 0.01,0.05 0.01,0.06 0.01,0.05 0.01,0.06 0.01,0.05 0.01,0.06 0.01,0.06 0,0.07 0.01,0.06 0,0.07 0,0.07 0,0.07 c 0,2.7 -0.86,9.21 -9.25,9.21 l -0.28,-1.6 c 4.27,0 4.77,-4.35 4.77,-6.15 0,-0.87 -0.27,-1.46 -1.57,-1.46 l -8.65,0 c 0,1.89 0.68,7.61 5.45,7.61 l 0.28,1.6 c -7.15,0 -10.55,-5.09 -10.55,-11.96 0,-7.24 3.11,-11.69 10.6,-11.6 5.08,0.05 7.7,2.85 8.94,6.47 l -1.38,0.72 c -1.28,-2.66 -3.03,-4.86 -6.66,-4.86 -5.68,0 -6.82,5.52 -6.73,10.28 z"
           inkscape:connector-curvature="0"
           style="fill:#000000;stroke-width:0" /><path
           id="path4228"
           d="m 520.94,428.07 0,-1.15 1.73,-0.22 c 1.19,-0.19 1.47,-0.42 1.47,-2.06 l 0,-14.46 c 0,-2.32 -0.14,-2.42 -3.44,-2.65 l 0,-1.33 11.19,0 0,1.33 c -3.25,0.23 -3.44,0.33 -3.44,2.65 l 0,10.74 c 0,1.14 0.05,1.78 0.36,2.42 0.88,1.84 2.89,3.41 5.42,3.41 3.94,0 4.4,-2.89 4.4,-5.74 l 0,-10.83 c 0,-2.32 -0.15,-2.42 -3.44,-2.65 l 0,-1.33 11.19,0 0,1.33 c -3.25,0.23 -3.44,0.33 -3.44,2.65 l 0,10.74 c 0,1.14 0.04,1.78 0.33,2.51 0.68,1.85 2.65,3.32 5.21,3.32 2.9,0.07 4.63,-1.75 4.63,-5.74 l 0,-10.83 c 0,-2.32 -0.13,-2.42 -3.44,-2.65 l 0,-1.33 11.19,0 0,1.33 c -3.25,0.23 -3.44,0.33 -3.44,2.65 l 0,11.74 c 0,4.64 -2.47,7.29 -6.83,7.29 -3.76,0 -6.46,-2.51 -8.06,-3.53 -1.11,2.16 -2.84,3.53 -6.06,3.53 -3.53,0 -6.42,-2.29 -8.02,-3.48 l -0.42,3.48 z"
           inkscape:connector-curvature="0"
           style="fill:#000000;stroke-width:0" /><path
           id="path4230"
           d="m 562.85,428.07 0,-1.15 1.75,-0.22 c 1.18,-0.19 1.45,-0.42 1.45,-2.06 l 0,-25 c 0,-2.33 -0.22,-2.43 -3.44,-2.66 l 0,-1.33 11.88,0 0,1.33 c -3.84,0.23 -4.13,0.33 -4.13,2.66 l 0,7.06 c 0.97,-0.55 3.13,-1.05 5.24,-1.05 l 0.05,1.6 c -2.4,0 -4.22,1.25 -4.96,3.36 -0.28,0.82 -0.33,1.73 -0.33,2.79 l 0,7.52 c 0,1.14 0.19,1.78 0.6,2.61 1.06,2.11 3.03,3.22 5.47,3.22 1.82,0 5.9,-1.21 5.9,-9.08 0,-6.75 -2.11,-10.42 -6.68,-10.42 l -0.05,-1.6 c 6.18,0 11.5,2.85 11.5,12.28 0,3.27 -0.6,11.28 -8.94,11.28 -3.34,0 -6,-2.25 -7.8,-3.39 l -0.59,3.39 z"
           inkscape:connector-curvature="0"
           style="fill:#000000;stroke-width:0" /><path
           id="path4232"
           d="m 602.52,429.21 -0.68,-0.01 -0.65,-0.04 -0.64,-0.06 -0.61,-0.09 -0.59,-0.11 -0.57,-0.14 -0.54,-0.16 -0.53,-0.18 -0.5,-0.21 -0.48,-0.23 -0.46,-0.26 -0.44,-0.28 -0.42,-0.3 -0.39,-0.32 -0.38,-0.35 -0.35,-0.36 -0.33,-0.39 -0.31,-0.41 -0.29,-0.43 -0.26,-0.46 -0.25,-0.47 -0.22,-0.5 -0.21,-0.51 -0.18,-0.53 -0.16,-0.56 -0.13,-0.57 -0.12,-0.6 -0.1,-0.61 -0.07,-0.63 -0.05,-0.65 -0.04,-0.67 -0.01,-0.69 c 0,-7.42 3.63,-11.78 10.96,-11.78 l 0,1.6 c -4.18,0 -6.19,3.86 -6.19,10.18 l 0,0 c 0,6.33 2.01,10.18 6.19,10.18 4.26,0 6.23,-3.85 6.23,-10.18 0,-6.32 -1.97,-10.18 -6.23,-10.18 l 0,-1.6 c 7.42,0 11,4.36 11,11.78 0,7.43 -3.58,11.78 -11,11.78 z"
           inkscape:connector-curvature="0"
           style="fill:#000000;stroke-width:0" /><path
           id="path4234"
           d="m 634.28,419.12 0.01,0.61 0.01,0.59 0.01,0.59 0.02,0.57 0.06,1.09 0.07,1.05 0.1,1 0.11,0.95 0.14,0.91 0.15,0.85 0.16,0.82 0.18,0.76 0.2,0.73 0.2,0.68 0.22,0.64 0.23,0.6 0.25,0.56 0.25,0.53 0.26,0.49 0.26,0.45 0.28,0.42 0.28,0.38 0.28,0.35 0.29,0.32 0.29,0.29 0.29,0.26 0.29,0.24 0.3,0.2 0.29,0.18 0.29,0.16 0.29,0.13 0.28,0.11 0.28,0.08 0.28,0.07 0,1.15 c -8.03,-0.32 -10.1,-10.28 -10.1,-18.81 0,-8.51 2.07,-18.47 10.1,-18.8 l 0,1.16 c -2.68,0.55 -6.9,4.44 -6.9,17.64 z"
           inkscape:connector-curvature="0"
           style="fill:#000000;stroke-width:0" /><path
           id="path4236"
           d="m 659.18,422.29 0,5.36 c -1.52,1.11 -3.86,1.56 -5.93,1.56 -4.95,0 -8.29,-2.34 -8.34,-6.68 0.05,-3.82 3.12,-5.52 6.92,-6.66 2.07,-0.64 4.95,-1.69 4.95,-4.81 0,-2.35 -1.82,-3.81 -4.26,-3.81 -3.7,0 -5.77,2.71 -6.69,6.61 l -1.33,0 0.46,-6 c 1.65,-1.47 4.45,-2.21 7.15,-2.21 5.46,0 8.58,2.89 8.58,6.78 0,4.03 -2.48,5.88 -7.2,7.35 -1.88,0.59 -4.91,1.54 -4.91,4.12 0.05,2.38 1.83,3.71 4.13,3.71 3.25,0 4.81,-2.52 5.14,-5.32 z"
           inkscape:connector-curvature="0"
           style="fill:#000000;stroke-width:0" /><path
           id="path4238"
           d="m 670.4,419.12 0,-0.61 -0.01,-0.6 -0.02,-0.58 -0.02,-0.58 -0.02,-0.56 -0.03,-0.54 -0.08,-1.06 -0.1,-1 -0.12,-0.95 -0.14,-0.91 -0.16,-0.86 -0.17,-0.81 -0.18,-0.77 -0.21,-0.73 -0.21,-0.68 -0.22,-0.64 -0.24,-0.6 -0.25,-0.56 -0.25,-0.53 -0.27,-0.48 -0.27,-0.45 -0.27,-0.42 -0.28,-0.38 -0.29,-0.35 -0.28,-0.32 -0.29,-0.28 -0.29,-0.26 -0.29,-0.23 -0.29,-0.2 -0.28,-0.18 -0.28,-0.15 -0.28,-0.12 -0.27,-0.11 -0.26,-0.08 -0.25,-0.06 0,-1.16 c 8.03,0.33 10.09,10.29 10.09,18.8 0,8.53 -2.06,18.49 -10.09,18.81 l 0,-1.15 c 2.89,-0.6 6.87,-4.53 6.87,-17.66 z"
           inkscape:connector-curvature="0"
           style="fill:#000000;stroke-width:0" /></g>    </g>
    <path
       inkscape:connector-curvature="0"
       id="path4294"
       style="fill:#ffffff;fill-opacity:1;fill-rule:evenodd;stroke:none"
       d="m 283.92857,508.06886 279.375,0 0,-205.10375 -279.375,0 0,205.10375 z" />
    <path
       inkscape:connector-curvature="0"
       id="path4296"
       style="fill:none;stroke:#ffffff;stroke-width:0.625;stroke-linecap:butt;stroke-linejoin:round;stroke-miterlimit:10;stroke-dasharray:none;stroke-opacity:1"
       d="m 283.92857,508.06886 0,-205.104 279.375,0 0,205.104 -279.375,0" />
    <path
       inkscape:connector-curvature="0"
       id="path4298"
       style="fill:none;stroke:#666666;stroke-width:0.41666624;stroke-linecap:butt;stroke-linejoin:round;stroke-miterlimit:10;stroke-dasharray:0.625, 5;stroke-dashoffset:0;stroke-opacity:1"
       d="m 283.92857,508.06886 0,-205.20775" />
    <path
       inkscape:connector-curvature="0"
       id="path4300"
       style="fill:none;stroke:#666666;stroke-width:0.41666624;stroke-linecap:butt;stroke-linejoin:round;stroke-miterlimit:10;stroke-dasharray:0.625, 5;stroke-dashoffset:0;stroke-opacity:1"
       d="m 283.92857,302.86111 0,0" />
    <path
       inkscape:connector-curvature="0"
       id="path4302"
       style="fill:none;stroke:#666666;stroke-width:0.41666624;stroke-linecap:butt;stroke-linejoin:round;stroke-miterlimit:10;stroke-dasharray:0.625, 5;stroke-dashoffset:0;stroke-opacity:1"
       d="m 346.01207,508.06886 0,-205.20775" />
    <path
       inkscape:connector-curvature="0"
       id="path4304"
       style="fill:none;stroke:#666666;stroke-width:0.41666624;stroke-linecap:butt;stroke-linejoin:round;stroke-miterlimit:10;stroke-dasharray:0.625, 5;stroke-dashoffset:0;stroke-opacity:1"
       d="m 346.01207,302.86111 0,0" />
    <path
       inkscape:connector-curvature="0"
       id="path4306"
       style="fill:none;stroke:#666666;stroke-width:0.41666624;stroke-linecap:butt;stroke-linejoin:round;stroke-miterlimit:10;stroke-dasharray:0.625, 5;stroke-dashoffset:0;stroke-opacity:1"
       d="m 408.09482,508.06886 0,-205.20775" />
    <path
       inkscape:connector-curvature="0"
       id="path4308"
       style="fill:none;stroke:#666666;stroke-width:0.41666624;stroke-linecap:butt;stroke-linejoin:round;stroke-miterlimit:10;stroke-dasharray:0.625, 5;stroke-dashoffset:0;stroke-opacity:1"
       d="m 408.09482,302.86111 0,0" />
    <path
       inkscape:connector-curvature="0"
       id="path4310"
       style="fill:none;stroke:#666666;stroke-width:0.41666624;stroke-linecap:butt;stroke-linejoin:round;stroke-miterlimit:10;stroke-dasharray:0.625, 5;stroke-dashoffset:0;stroke-opacity:1"
       d="m 470.17857,508.06886 0,-205.20775" />
    <path
       inkscape:connector-curvature="0"
       id="path4312"
       style="fill:none;stroke:#666666;stroke-width:0.41666624;stroke-linecap:butt;stroke-linejoin:round;stroke-miterlimit:10;stroke-dasharray:0.625, 5;stroke-dashoffset:0;stroke-opacity:1"
       d="m 470.17857,302.86111 0,0" />
    <path
       inkscape:connector-curvature="0"
       id="path4314"
       style="fill:none;stroke:#666666;stroke-width:0.41666624;stroke-linecap:butt;stroke-linejoin:round;stroke-miterlimit:10;stroke-dasharray:0.625, 5;stroke-dashoffset:0;stroke-opacity:1"
       d="m 532.26232,508.06886 0,-205.20775" />
    <path
       inkscape:connector-curvature="0"
       id="path4316"
       style="fill:none;stroke:#666666;stroke-width:0.41666624;stroke-linecap:butt;stroke-linejoin:round;stroke-miterlimit:10;stroke-dasharray:0.625, 5;stroke-dashoffset:0;stroke-opacity:1"
       d="m 532.26232,302.86111 0,0" />
    <path
       inkscape:connector-curvature="0"
       id="path4318"
       style="fill:none;stroke:#666666;stroke-width:0.41666624;stroke-linecap:butt;stroke-linejoin:round;stroke-miterlimit:10;stroke-dasharray:0.625, 5;stroke-dashoffset:0;stroke-opacity:1"
       d="m 283.92857,508.06886 279.375,0" />
    <path
       inkscape:connector-curvature="0"
       id="path4320"
       style="fill:none;stroke:#666666;stroke-width:0.41666624;stroke-linecap:butt;stroke-linejoin:round;stroke-miterlimit:10;stroke-dasharray:0.625, 5;stroke-dashoffset:0;stroke-opacity:1"
       d="m 563.30357,508.06886 0,0" />
    <path
       inkscape:connector-curvature="0"
       id="path4322"
       style="fill:none;stroke:#666666;stroke-width:0.41666624;stroke-linecap:butt;stroke-linejoin:round;stroke-miterlimit:10;stroke-dasharray:0.625, 5;stroke-dashoffset:0;stroke-opacity:1"
       d="m 283.92857,473.79836 279.375,0" />
    <path
       inkscape:connector-curvature="0"
       id="path4324"
       style="fill:none;stroke:#666666;stroke-width:0.41666624;stroke-linecap:butt;stroke-linejoin:round;stroke-miterlimit:10;stroke-dasharray:0.625, 5;stroke-dashoffset:0;stroke-opacity:1"
       d="m 563.30357,473.79836 0,0" />
    <path
       inkscape:connector-curvature="0"
       id="path4326"
       style="fill:none;stroke:#666666;stroke-width:0.41666624;stroke-linecap:butt;stroke-linejoin:round;stroke-miterlimit:10;stroke-dasharray:0.625, 5;stroke-dashoffset:0;stroke-opacity:1"
       d="m 283.92857,439.63136 279.375,0" />
    <path
       inkscape:connector-curvature="0"
       id="path4328"
       style="fill:none;stroke:#666666;stroke-width:0.41666624;stroke-linecap:butt;stroke-linejoin:round;stroke-miterlimit:10;stroke-dasharray:0.625, 5;stroke-dashoffset:0;stroke-opacity:1"
       d="m 563.30357,439.63136 0,0" />
    <path
       inkscape:connector-curvature="0"
       id="path4330"
       style="fill:none;stroke:#666666;stroke-width:0.41666624;stroke-linecap:butt;stroke-linejoin:round;stroke-miterlimit:10;stroke-dasharray:0.625, 5;stroke-dashoffset:0;stroke-opacity:1"
       d="m 283.92857,405.46486 279.375,0" />
    <path
       inkscape:connector-curvature="0"
       id="path4332"
       style="fill:none;stroke:#666666;stroke-width:0.41666624;stroke-linecap:butt;stroke-linejoin:round;stroke-miterlimit:10;stroke-dasharray:0.625, 5;stroke-dashoffset:0;stroke-opacity:1"
       d="m 563.30357,405.46486 0,0" />
    <path
       inkscape:connector-curvature="0"
       id="path4334"
       style="fill:none;stroke:#666666;stroke-width:0.41666624;stroke-linecap:butt;stroke-linejoin:round;stroke-miterlimit:10;stroke-dasharray:0.625, 5;stroke-dashoffset:0;stroke-opacity:1"
       d="m 283.92857,371.29861 279.375,0" />
    <path
       inkscape:connector-curvature="0"
       id="path4336"
       style="fill:none;stroke:#666666;stroke-width:0.41666624;stroke-linecap:butt;stroke-linejoin:round;stroke-miterlimit:10;stroke-dasharray:0.625, 5;stroke-dashoffset:0;stroke-opacity:1"
       d="m 563.30357,371.29861 0,0" />
    <path
       inkscape:connector-curvature="0"
       id="path4338"
       style="fill:none;stroke:#666666;stroke-width:0.41666624;stroke-linecap:butt;stroke-linejoin:round;stroke-miterlimit:10;stroke-dasharray:0.625, 5;stroke-dashoffset:0;stroke-opacity:1"
       d="m 283.92857,337.13111 279.375,0" />
    <path
       inkscape:connector-curvature="0"
       id="path4340"
       style="fill:none;stroke:#666666;stroke-width:0.41666624;stroke-linecap:butt;stroke-linejoin:round;stroke-miterlimit:10;stroke-dasharray:0.625, 5;stroke-dashoffset:0;stroke-opacity:1"
       d="m 563.30357,337.13111 0,0" />
    <path
       inkscape:connector-curvature="0"
       id="path4342"
       style="fill:none;stroke:#666666;stroke-width:0.41666624;stroke-linecap:butt;stroke-linejoin:round;stroke-miterlimit:10;stroke-dasharray:0.625, 5;stroke-dashoffset:0;stroke-opacity:1"
       d="m 283.92857,302.86111 279.375,0" />
    <path
       inkscape:connector-curvature="0"
       id="path4344"
       style="fill:none;stroke:#666666;stroke-width:0.41666624;stroke-linecap:butt;stroke-linejoin:round;stroke-miterlimit:10;stroke-dasharray:0.625, 5;stroke-dashoffset:0;stroke-opacity:1"
       d="m 563.30357,302.86111 0,0" />
    <path
       inkscape:connector-curvature="0"
       id="path4346"
       style="fill:none;stroke:#666666;stroke-width:0.625;stroke-linecap:butt;stroke-linejoin:round;stroke-miterlimit:10;stroke-dasharray:none;stroke-opacity:1"
       d="m 283.92857,302.96486 279.375,0" />
    <path
       inkscape:connector-curvature="0"
       id="path4348"
       style="fill:none;stroke:#666666;stroke-width:0.625;stroke-linecap:butt;stroke-linejoin:round;stroke-miterlimit:10;stroke-dasharray:none;stroke-opacity:1"
       d="m 283.92857,508.06886 279.375,0" />
    <path
       inkscape:connector-curvature="0"
       id="path4350"
       style="fill:none;stroke:#666666;stroke-width:0.625;stroke-linecap:butt;stroke-linejoin:round;stroke-miterlimit:10;stroke-dasharray:none;stroke-opacity:1"
       d="m 563.30357,508.06886 0,-205.104" />
    <path
       inkscape:connector-curvature="0"
       id="path4352"
       style="fill:none;stroke:#666666;stroke-width:0.625;stroke-linecap:butt;stroke-linejoin:round;stroke-miterlimit:10;stroke-dasharray:none;stroke-opacity:1"
       d="m 283.92857,508.06886 0,-205.104" />
    <path
       inkscape:connector-curvature="0"
       id="path4354"
       style="fill:none;stroke:#666666;stroke-width:0.625;stroke-linecap:butt;stroke-linejoin:round;stroke-miterlimit:10;stroke-dasharray:none;stroke-opacity:1"
       d="m 283.92857,508.06886 279.375,0" />
    <path
       inkscape:connector-curvature="0"
       id="path4356"
       style="fill:none;stroke:#666666;stroke-width:0.625;stroke-linecap:butt;stroke-linejoin:round;stroke-miterlimit:10;stroke-dasharray:none;stroke-opacity:1"
       d="m 283.92857,508.06886 0,-205.104" />
    <path
       inkscape:connector-curvature="0"
       id="path4358"
       style="fill:none;stroke:#666666;stroke-width:0.625;stroke-linecap:butt;stroke-linejoin:round;stroke-miterlimit:10;stroke-dasharray:none;stroke-opacity:1"
       d="m 283.92857,508.06886 0,-2.8125" />
    <path
       inkscape:connector-curvature="0"
       id="path4360"
       style="fill:none;stroke:#666666;stroke-width:0.625;stroke-linecap:butt;stroke-linejoin:round;stroke-miterlimit:10;stroke-dasharray:none;stroke-opacity:1"
       d="m 283.92857,302.86111 0,2.8125" />
    <g
       transform="matrix(1.25,0,0,-1.25,223.92857,538.58986)"
       id="g4362">
      <text
         id="text4364"
         style="font-variant:normal;font-weight:normal;font-size:11px;font-family:'Times New Roman';-inkscape-font-specification:Times-Roman;writing-mode:lr-tb;fill:#666666;fill-opacity:1;fill-rule:nonzero;stroke:none"
         transform="matrix(1,0,0,-1,45.25,11.75)">
        <tspan
           id="tspan4366"
           y="0"
           x="0">0</tspan>
      </text>
    </g>
    <path
       inkscape:connector-curvature="0"
       id="path4368"
       style="fill:none;stroke:#666666;stroke-width:0.625;stroke-linecap:butt;stroke-linejoin:round;stroke-miterlimit:10;stroke-dasharray:none;stroke-opacity:1"
       d="m 346.01207,508.06886 0,-2.8125" />
    <path
       inkscape:connector-curvature="0"
       id="path4370"
       style="fill:none;stroke:#666666;stroke-width:0.625;stroke-linecap:butt;stroke-linejoin:round;stroke-miterlimit:10;stroke-dasharray:none;stroke-opacity:1"
       d="m 346.01207,302.86111 0,2.8125" />
    <g
       transform="matrix(1.25,0,0,-1.25,223.92857,538.58986)"
       id="g4372">
      <text
         id="text4374"
         style="font-variant:normal;font-weight:normal;font-size:11px;font-family:'Times New Roman';-inkscape-font-specification:Times-Roman;writing-mode:lr-tb;fill:#666666;fill-opacity:1;fill-rule:nonzero;stroke:none"
         transform="matrix(1,0,0,-1,94.9168,11.75)">
        <tspan
           id="tspan4376"
           y="0"
           x="0">1</tspan>
      </text>
    </g>
    <path
       inkscape:connector-curvature="0"
       id="path4378"
       style="fill:none;stroke:#666666;stroke-width:0.625;stroke-linecap:butt;stroke-linejoin:round;stroke-miterlimit:10;stroke-dasharray:none;stroke-opacity:1"
       d="m 408.09482,508.06886 0,-2.8125" />
    <path
       inkscape:connector-curvature="0"
       id="path4380"
       style="fill:none;stroke:#666666;stroke-width:0.625;stroke-linecap:butt;stroke-linejoin:round;stroke-miterlimit:10;stroke-dasharray:none;stroke-opacity:1"
       d="m 408.09482,302.86111 0,2.8125" />
    <g
       transform="matrix(1.25,0,0,-1.25,223.92857,538.58986)"
       id="g4382">
      <text
         id="text4384"
         style="font-variant:normal;font-weight:normal;font-size:11px;font-family:'Times New Roman';-inkscape-font-specification:Times-Roman;writing-mode:lr-tb;fill:#666666;fill-opacity:1;fill-rule:nonzero;stroke:none"
         transform="matrix(1,0,0,-1,144.583,11.75)">
        <tspan
           id="tspan4386"
           y="0"
           x="0">2</tspan>
      </text>
    </g>
    <path
       inkscape:connector-curvature="0"
       id="path4388"
       style="fill:none;stroke:#666666;stroke-width:0.625;stroke-linecap:butt;stroke-linejoin:round;stroke-miterlimit:10;stroke-dasharray:none;stroke-opacity:1"
       d="m 470.17857,508.06886 0,-2.8125" />
    <path
       inkscape:connector-curvature="0"
       id="path4390"
       style="fill:none;stroke:#666666;stroke-width:0.625;stroke-linecap:butt;stroke-linejoin:round;stroke-miterlimit:10;stroke-dasharray:none;stroke-opacity:1"
       d="m 470.17857,302.86111 0,2.8125" />
    <g
       transform="matrix(1.25,0,0,-1.25,223.92857,538.58986)"
       id="g4392">
      <text
         id="text4394"
         style="font-variant:normal;font-weight:normal;font-size:11px;font-family:'Times New Roman';-inkscape-font-specification:Times-Roman;writing-mode:lr-tb;fill:#666666;fill-opacity:1;fill-rule:nonzero;stroke:none"
         transform="matrix(1,0,0,-1,194.25,11.75)">
        <tspan
           id="tspan4396"
           y="0"
           x="0">3</tspan>
      </text>
    </g>
    <path
       inkscape:connector-curvature="0"
       id="path4398"
       style="fill:none;stroke:#666666;stroke-width:0.625;stroke-linecap:butt;stroke-linejoin:round;stroke-miterlimit:10;stroke-dasharray:none;stroke-opacity:1"
       d="m 532.26232,508.06886 0,-2.8125" />
    <path
       inkscape:connector-curvature="0"
       id="path4400"
       style="fill:none;stroke:#666666;stroke-width:0.625;stroke-linecap:butt;stroke-linejoin:round;stroke-miterlimit:10;stroke-dasharray:none;stroke-opacity:1"
       d="m 532.26232,302.86111 0,2.8125" />
    <g
       transform="matrix(1.25,0,0,-1.25,223.92857,538.58986)"
       id="g4402">
      <text
         id="text4404"
         style="font-variant:normal;font-weight:normal;font-size:11px;font-family:'Times New Roman';-inkscape-font-specification:Times-Roman;writing-mode:lr-tb;fill:#666666;fill-opacity:1;fill-rule:nonzero;stroke:none"
         transform="matrix(1,0,0,-1,243.917,11.75)">
        <tspan
           id="tspan4406"
           y="0"
           x="0">4</tspan>
      </text>
    </g>
    <path
       inkscape:connector-curvature="0"
       id="path4408"
       style="fill:none;stroke:#666666;stroke-width:0.625;stroke-linecap:butt;stroke-linejoin:round;stroke-miterlimit:10;stroke-dasharray:none;stroke-opacity:1"
       d="m 283.92857,508.06886 2.7085,0" />
    <path
       inkscape:connector-curvature="0"
       id="path4410"
       style="fill:none;stroke:#666666;stroke-width:0.625;stroke-linecap:butt;stroke-linejoin:round;stroke-miterlimit:10;stroke-dasharray:none;stroke-opacity:1"
       d="m 563.30357,508.06886 -2.8125,0" />
    <g
       transform="matrix(1.25,0,0,-1.25,223.92857,538.58986)"
       id="g4412">
      <text
         id="text4414"
         style="font-variant:normal;font-weight:normal;font-size:11px;font-family:'Times New Roman';-inkscape-font-specification:Times-Roman;writing-mode:lr-tb;fill:#666666;fill-opacity:1;fill-rule:nonzero;stroke:none"
         transform="matrix(1,0,0,-1,39.5832,20.5)">
        <tspan
           id="tspan4416"
           y="0"
           x="0">0</tspan>
      </text>
    </g>
    <path
       inkscape:connector-curvature="0"
       id="path4418"
       style="fill:none;stroke:#666666;stroke-width:0.625;stroke-linecap:butt;stroke-linejoin:round;stroke-miterlimit:10;stroke-dasharray:none;stroke-opacity:1"
       d="m 283.92857,473.79836 2.7085,0" />
    <path
       inkscape:connector-curvature="0"
       id="path4420"
       style="fill:none;stroke:#666666;stroke-width:0.625;stroke-linecap:butt;stroke-linejoin:round;stroke-miterlimit:10;stroke-dasharray:none;stroke-opacity:1"
       d="m 563.30357,473.79836 -2.8125,0" />
    <g
       transform="matrix(1.25,0,0,-1.25,223.92857,538.58986)"
       id="g4422">
      <text
         id="text4424"
         style="font-variant:normal;font-weight:normal;font-size:11px;font-family:'Times New Roman';-inkscape-font-specification:Times-Roman;writing-mode:lr-tb;fill:#666666;fill-opacity:1;fill-rule:nonzero;stroke:none"
         transform="matrix(1,0,0,-1,31.3332,47.9168)">
        <tspan
           id="tspan4426"
           sodipodi:role="line"
           y="0"
           x="0 5.5 8.25">0.2</tspan>
      </text>
    </g>
    <path
       inkscape:connector-curvature="0"
       id="path4428"
       style="fill:none;stroke:#666666;stroke-width:0.625;stroke-linecap:butt;stroke-linejoin:round;stroke-miterlimit:10;stroke-dasharray:none;stroke-opacity:1"
       d="m 283.92857,439.63136 2.7085,0" />
    <path
       inkscape:connector-curvature="0"
       id="path4430"
       style="fill:none;stroke:#666666;stroke-width:0.625;stroke-linecap:butt;stroke-linejoin:round;stroke-miterlimit:10;stroke-dasharray:none;stroke-opacity:1"
       d="m 563.30357,439.63136 -2.8125,0" />
    <g
       transform="matrix(1.25,0,0,-1.25,223.92857,538.58986)"
       id="g4432">
      <text
         id="text4434"
         style="font-variant:normal;font-weight:normal;font-size:11px;font-family:'Times New Roman';-inkscape-font-specification:Times-Roman;writing-mode:lr-tb;fill:#666666;fill-opacity:1;fill-rule:nonzero;stroke:none"
         transform="matrix(1,0,0,-1,31.3332,75.25)">
        <tspan
           id="tspan4436"
           sodipodi:role="line"
           y="0"
           x="0 5.5 8.25">0.4</tspan>
      </text>
    </g>
    <path
       inkscape:connector-curvature="0"
       id="path4438"
       style="fill:none;stroke:#666666;stroke-width:0.625;stroke-linecap:butt;stroke-linejoin:round;stroke-miterlimit:10;stroke-dasharray:none;stroke-opacity:1"
       d="m 283.92857,405.46486 2.7085,0" />
    <path
       inkscape:connector-curvature="0"
       id="path4440"
       style="fill:none;stroke:#666666;stroke-width:0.625;stroke-linecap:butt;stroke-linejoin:round;stroke-miterlimit:10;stroke-dasharray:none;stroke-opacity:1"
       d="m 563.30357,405.46486 -2.8125,0" />
    <g
       transform="matrix(1.25,0,0,-1.25,223.92857,538.58986)"
       id="g4442">
      <text
         id="text4444"
         style="font-variant:normal;font-weight:normal;font-size:11px;font-family:'Times New Roman';-inkscape-font-specification:Times-Roman;writing-mode:lr-tb;fill:#666666;fill-opacity:1;fill-rule:nonzero;stroke:none"
         transform="matrix(1,0,0,-1,31.3332,102.583)">
        <tspan
           id="tspan4446"
           sodipodi:role="line"
           y="0"
           x="0 5.5 8.25">0.6</tspan>
      </text>
    </g>
    <path
       inkscape:connector-curvature="0"
       id="path4448"
       style="fill:none;stroke:#666666;stroke-width:0.625;stroke-linecap:butt;stroke-linejoin:round;stroke-miterlimit:10;stroke-dasharray:none;stroke-opacity:1"
       d="m 283.92857,371.29861 2.7085,0" />
    <path
       inkscape:connector-curvature="0"
       id="path4450"
       style="fill:none;stroke:#666666;stroke-width:0.625;stroke-linecap:butt;stroke-linejoin:round;stroke-miterlimit:10;stroke-dasharray:none;stroke-opacity:1"
       d="m 563.30357,371.29861 -2.8125,0" />
    <g
       transform="matrix(1.25,0,0,-1.25,223.92857,538.58986)"
       id="g4452">
      <text
         id="text4454"
         style="font-variant:normal;font-weight:normal;font-size:11px;font-family:'Times New Roman';-inkscape-font-specification:Times-Roman;writing-mode:lr-tb;fill:#666666;fill-opacity:1;fill-rule:nonzero;stroke:none"
         transform="matrix(1,0,0,-1,31.3332,129.917)">
        <tspan
           id="tspan4456"
           sodipodi:role="line"
           y="0"
           x="0 5.5 8.25">0.8</tspan>
      </text>
    </g>
    <path
       inkscape:connector-curvature="0"
       id="path4458"
       style="fill:none;stroke:#666666;stroke-width:0.625;stroke-linecap:butt;stroke-linejoin:round;stroke-miterlimit:10;stroke-dasharray:none;stroke-opacity:1"
       d="m 283.92857,337.13111 2.7085,0" />
    <path
       inkscape:connector-curvature="0"
       id="path4460"
       style="fill:none;stroke:#666666;stroke-width:0.625;stroke-linecap:butt;stroke-linejoin:round;stroke-miterlimit:10;stroke-dasharray:none;stroke-opacity:1"
       d="m 563.30357,337.13111 -2.8125,0" />
    <g
       transform="matrix(1.25,0,0,-1.25,223.92857,538.58986)"
       id="g4462">
      <text
         id="text4464"
         style="font-variant:normal;font-weight:normal;font-size:11px;font-family:'Times New Roman';-inkscape-font-specification:Times-Roman;writing-mode:lr-tb;fill:#666666;fill-opacity:1;fill-rule:nonzero;stroke:none"
         transform="matrix(1,0,0,-1,39.5832,157.25)">
        <tspan
           id="tspan4466"
           y="0"
           x="0">1</tspan>
      </text>
    </g>
    <path
       inkscape:connector-curvature="0"
       id="path4468"
       style="fill:none;stroke:#666666;stroke-width:0.625;stroke-linecap:butt;stroke-linejoin:round;stroke-miterlimit:10;stroke-dasharray:none;stroke-opacity:1"
       d="m 283.92857,302.86111 2.7085,0" />
    <path
       inkscape:connector-curvature="0"
       id="path4470"
       style="fill:none;stroke:#666666;stroke-width:0.625;stroke-linecap:butt;stroke-linejoin:round;stroke-miterlimit:10;stroke-dasharray:none;stroke-opacity:1"
       d="m 563.30357,302.86111 -2.8125,0" />
    <g
       transform="matrix(1.25,0,0,-1.25,223.92857,538.58986)"
       id="g4472">
      <text
         id="text4474"
         style="font-variant:normal;font-weight:normal;font-size:11px;font-family:'Times New Roman';-inkscape-font-specification:Times-Roman;writing-mode:lr-tb;fill:#666666;fill-opacity:1;fill-rule:nonzero;stroke:none"
         transform="matrix(1,0,0,-1,31.3332,184.667)">
        <tspan
           id="tspan4476"
           sodipodi:role="line"
           y="0"
           x="0 5.5 8.25">1.2</tspan>
      </text>
    </g>
    <path
       inkscape:connector-curvature="0"
       id="path4478"
       style="fill:none;stroke:#666666;stroke-width:0.625;stroke-linecap:butt;stroke-linejoin:round;stroke-miterlimit:10;stroke-dasharray:none;stroke-opacity:1"
       d="m 283.92857,302.96486 279.375,0" />
    <path
       inkscape:connector-curvature="0"
       id="path4480"
       style="fill:none;stroke:#666666;stroke-width:0.625;stroke-linecap:butt;stroke-linejoin:round;stroke-miterlimit:10;stroke-dasharray:none;stroke-opacity:1"
       d="m 283.92857,508.06886 279.375,0" />
    <path
       inkscape:connector-curvature="0"
       id="path4482"
       style="fill:none;stroke:#666666;stroke-width:0.625;stroke-linecap:butt;stroke-linejoin:round;stroke-miterlimit:10;stroke-dasharray:none;stroke-opacity:1"
       d="m 563.30357,508.06886 0,-205.104" />
    <path
       inkscape:connector-curvature="0"
       id="path4484"
       style="fill:none;stroke:#666666;stroke-width:0.625;stroke-linecap:butt;stroke-linejoin:round;stroke-miterlimit:10;stroke-dasharray:none;stroke-opacity:1"
       d="m 283.92857,508.06886 0,-205.104" />
    <g
       id="g4486"
       transform="matrix(0.125,0,0,-0.125,223.92857,538.58986)">
      <g
         clip-path="url(#clipPath4490)"
         id="g4488">
        <path
           inkscape:connector-curvature="0"
           id="path4494"
           style="fill:none;stroke:#0000ff;stroke-width:5;stroke-linecap:butt;stroke-linejoin:round;stroke-miterlimit:10;stroke-dasharray:none;stroke-opacity:1"
           d="M 480,244.168 490.832,305.832 502.5,365 514.168,420.832 525,475 536.668,525.832 548.332,575 560,621.668 l 10.832,44.164 11.668,42.5 11.668,40.836 10.832,39.164 11.668,36.668 11.664,35.832 11.668,33.336 10.832,32.5 11.668,30.832 11.668,29.168 11.664,28.332 10.836,26.67 11.664,25.83 11.668,25 10.832,23.33 11.668,21.67 11.668,21.67 11.664,20 10.836,20 11.664,18.33 11.668,17.5 10.832,17.5 11.668,15.83 11.668,15.84 11.664,14.16 10.836,14.17 11.664,14.17 11.668,12.5 11.668,12.5 10.832,11.66 11.668,10.84 11.664,10.83 10.836,10 11.664,10 11.668,9.17 11.668,9.16 10.832,8.34 11.668,8.33 11.662,7.5 11.67,7.5 10.83,6.67 11.67,7.5 11.67,5.83 10.83,6.67 11.67,5.83 11.66,5 11.67,5.83 10.83,5 11.67,5 11.67,4.17 10.83,5 11.67,4.17 11.66,4.16 11.67,3.34 10.83,4.16 11.67,3.34 11.67,3.33 11.66,3.33 10.84,3.34 11.66,2.5 11.67,3.33 10.83,2.5 11.67,2.5 11.67,2.5 11.66,2.5 10.84,1.67 11.66,2.5 11.67,1.66 10.83,2.5 11.67,1.67 11.67,1.67 11.66,1.66 10.84,1.67 11.66,1.67 11.67,1.66 11.67,0.84 10.83,1.66 11.67,1.67 11.66,0.83 10.84,0.84 11.66,1.66 11.67,0.84 11.67,0.83 10.83,0.83 11.67,1.67 11.66,0.83 11.67,0.84 10.83,0.83 11.67,0.83 11.67,0 10.83,0.84 11.67,0.83 11.66,0.83 11.67,0.84 10.83,0 11.67,0.83 11.67,0.83 10.83,0 11.67,0.84 11.66,0 11.67,0.83 10.83,0 11.67,0.83 11.67,0 11.66,0.84 10.84,0 11.66,0.83 22.5,0 11.67,0.83 23.33,0 10.84,0.84 23.33,0 10.83,0.83 35,0 10.84,0.83 45.83,0 11.67,0.84 68.33,0 11.67,0.83 91.66,0 11.67,0.83 182.5,0 11.67,0.84 349.16,0" />
      </g>
    </g>
  </g>
</svg>
