<?xml version="1.0" encoding="UTF-8" standalone="no"?>
<!-- Created with Inkscape (http://www.inkscape.org/) -->

<svg
   xmlns:dc="http://purl.org/dc/elements/1.1/"
   xmlns:cc="http://creativecommons.org/ns#"
   xmlns:rdf="http://www.w3.org/1999/02/22-rdf-syntax-ns#"
   xmlns:svg="http://www.w3.org/2000/svg"
   xmlns="http://www.w3.org/2000/svg"
   xmlns:sodipodi="http://sodipodi.sourceforge.net/DTD/sodipodi-0.dtd"
   xmlns:inkscape="http://www.inkscape.org/namespaces/inkscape"
   width="210mm"
   height="297mm"
   viewBox="0 0 744.09448819 1052.3622047"
   id="svg2"
   version="1.1"
   inkscape:version="0.91 r13725"
   sodipodi:docname="constantid.svg">
  <sodipodi:namedview
     id="base"
     pagecolor="#ffffff"
     bordercolor="#666666"
     borderopacity="1.0"
     inkscape:pageopacity="0.0"
     inkscape:pageshadow="2"
     inkscape:zoom="0.97035431"
     inkscape:cx="377.07424"
     inkscape:cy="686.45833"
     inkscape:document-units="px"
     inkscape:current-layer="layer1"
     showgrid="true"
     inkscape:window-width="1600"
     inkscape:window-height="838"
     inkscape:window-x="-8"
     inkscape:window-y="-8"
     inkscape:window-maximized="1">
    <inkscape:grid
       type="xygrid"
       id="grid4657" />
  </sodipodi:namedview>
  <defs
     id="defs4">
    <marker
       inkscape:stockid="Arrow2Lend"
       orient="auto"
       refY="0.0"
       refX="0.0"
       id="Arrow2Lend"
       style="overflow:visible;"
       inkscape:isstock="true">
      <path
         id="path4688"
         style="fill-rule:evenodd;stroke-width:0.625;stroke-linejoin:round;stroke:#000000;stroke-opacity:1;fill:#000000;fill-opacity:1"
         d="M 8.7185878,4.0337352 L -2.2072895,0.016013256 L 8.7185884,-4.0017078 C 6.9730900,-1.6296469 6.9831476,1.6157441 8.7185878,4.0337352 z "
         transform="scale(1.1) rotate(180) translate(1,0)" />
    </marker>
  </defs>
  <metadata
     id="metadata7">
    <rdf:RDF>
      <cc:Work
         rdf:about="">
        <dc:format>image/svg+xml</dc:format>
        <dc:type
           rdf:resource="http://purl.org/dc/dcmitype/StillImage" />
        <dc:title></dc:title>
      </cc:Work>
    </rdf:RDF>
  </metadata>
  <g
     inkscape:label="Layer 1"
     inkscape:groupmode="layer"
     id="layer1">
    <g
       id="g4141"
       transform="translate(48.853299,-101.28123)">
      <g
         id="content"
         transform="matrix(1.0629921,0,0,-1.0629921,-186.02362,789.27165)"
         xml:space="preserve"
         stroke-miterlimit="10.433"
         font-style="normal"
         font-variant="normal"
         font-weight="normal"
         font-stretch="normal"
         font-size-adjust="none"
         letter-spacing="normal"
         word-spacing="normal"
         style="font-style:normal;font-variant:normal;font-weight:normal;font-stretch:normal;letter-spacing:normal;word-spacing:normal;text-anchor:start;fill:none;fill-opacity:1;fill-rule:evenodd;stroke:#000000;stroke-linecap:butt;stroke-linejoin:miter;stroke-miterlimit:10.43299961;stroke-dasharray:none;stroke-dashoffset:0;stroke-opacity:1"><path
           d="m 477.75,412.25 -1.28,0.23 c -0.97,-2.47 -1.87,-2.8 -3.72,-2.8 l -11.73,0 c 0.73,2.39 3.44,5.64 7.7,8.72 4.41,3.21 7.8,5.27 7.8,10.41 0,6.36 -4.22,8.56 -9.03,8.56 -6.28,0 -9.53,-3.8 -9.53,-6.19 0,-1.56 1.73,-2.29 2.51,-2.29 0.83,0 1.14,0.47 1.33,1.25 0.74,3.11 2.52,5.64 5.36,5.64 3.53,0 4.55,-2.99 4.55,-6.33 0,-4.91 -2.49,-7.66 -6.47,-11.19 -5.64,-4.9 -7.61,-8.03 -8.49,-11.61 l 0.47,-0.45 18.97,0 z"
           id="path4144"
           inkscape:connector-curvature="0"
           style="fill:#000000;stroke-width:0" /><path
           d="m 520,406.2 0,1.33 c -2.66,0.23 -3.16,0.37 -3.99,2.75 l -9.72,27.65 -3.39,0 -4.81,-13.57 c -1.42,-3.99 -3.36,-9.49 -4.95,-13.66 -0.97,-2.49 -1.38,-3.03 -4.27,-3.17 l 0,-1.33 10.08,0 0,1.33 -2.38,0.23 c -1.37,0.14 -1.51,0.6 -1.14,1.83 0.77,2.75 1.74,5.59 2.78,8.84 l 10.29,0 -0.55,1.75 -9.13,0 c 1.47,4.58 3.07,9.08 4.44,13.11 l 0.14,0 4.55,-13.11 0.55,-1.75 3.06,-8.75 c 0.47,-1.32 0.23,-1.82 -1.24,-1.97 l -2.06,-0.18 0,-1.33 z"
           id="path4146"
           inkscape:connector-curvature="0"
           style="fill:#000000;stroke-width:0" /></g>    </g>
    <g
       id="g4164"
       transform="translate(303.84369,-103.66432)">
      <g
         word-spacing="normal"
         letter-spacing="normal"
         font-size-adjust="none"
         font-stretch="normal"
         font-weight="normal"
         font-variant="normal"
         font-style="normal"
         stroke-miterlimit="10.433"
         xml:space="preserve"
         transform="matrix(1.0629921,0,0,-1.0629921,-186.02362,789.27165)"
         id="g4166"
         style="font-style:normal;font-variant:normal;font-weight:normal;font-stretch:normal;letter-spacing:normal;word-spacing:normal;text-anchor:start;fill:none;fill-opacity:1;fill-rule:evenodd;stroke:#000000;stroke-linecap:butt;stroke-linejoin:miter;stroke-miterlimit:10.43299961;stroke-dasharray:none;stroke-dashoffset:0;stroke-opacity:1"><path
           id="path4168"
           d="m 461.57,427.93 -0.27,-1.11 2.61,-0.21 c 1.23,-0.1 1.38,-0.52 0.97,-2.11 l -3.86,-14.36 c -0.69,-2.61 -0.09,-4.49 2.39,-4.49 3.3,0 5.86,3.11 7.42,6.6 l -1.09,0.64 c -0.83,-1.6 -2.85,-4.86 -4.13,-4.86 -0.92,0 -0.87,1.06 -0.47,2.53 l 5,18.42 -0.23,0.23 z"
           inkscape:connector-curvature="0"
           style="fill:#000000;stroke-width:0" /><path
           id="path4170"
           d="m 469.69,438.98 -0.18,0 -0.18,-0.02 -0.17,-0.02 -0.16,-0.03 -0.16,-0.04 -0.16,-0.04 -0.14,-0.06 -0.15,-0.06 -0.13,-0.06 -0.13,-0.08 -0.13,-0.08 -0.12,-0.08 -0.11,-0.09 -0.11,-0.1 -0.1,-0.1 -0.1,-0.1 -0.09,-0.11 -0.08,-0.12 -0.08,-0.12 -0.08,-0.12 -0.07,-0.12 -0.06,-0.13 -0.05,-0.13 -0.05,-0.13 -0.05,-0.13 -0.04,-0.14 -0.03,-0.13 -0.03,-0.14 -0.02,-0.14 -0.01,-0.13 -0.01,-0.14 0,-0.14 c 0,-1.69 1.14,-2.56 2.51,-2.56 1.8,0 2.94,1.23 2.94,3.07 0,1.79 -1.19,2.52 -2.47,2.52 z"
           inkscape:connector-curvature="0"
           style="fill:#000000;stroke-width:0" /><path
           id="path4172"
           d="m 488.97,422.7 -0.22,-0.8 2.1,-0.22 c 0.84,-0.06 0.9,-0.31 0.62,-1.42 l -1.31,-5.61 -0.08,-0.06 c -0.65,0.34 -1.73,0.57 -2.92,0.57 l 0.2,-1.21 c 1.08,0 1.99,-0.32 2.41,-0.69 -0.52,-2.69 -1.67,-5.97 -3.45,-8.86 -1.68,-2.72 -3.97,-5.33 -5.82,-5.33 -1.12,0 -1.75,0.94 -1.75,2.52 l 0,0 c 0,3.76 3.04,12.36 8.61,12.36 l -0.2,1.21 c -8.12,0 -11.84,-9.09 -11.84,-13.29 0,-2.27 0.65,-4.61 3.48,-4.61 4,0 7.09,4.29 9.16,8.01 l 0.08,0 -1.16,-4.14 c -0.7,-2.48 -0.17,-3.9 1.61,-3.87 2.53,0 4.48,2.37 5.67,5.01 l -0.84,0.5 c -0.63,-1.22 -2.16,-3.7 -3.13,-3.7 -0.7,0 -0.62,0.8 -0.36,1.92 l 5.52,22.38 -0.17,0.17 z"
           inkscape:connector-curvature="0"
           style="fill:#000000;stroke-width:0" /><path
           id="path4174"
           d="m 503.3,397.68 0.12,0.43 0.11,0.44 0.11,0.45 0.12,0.46 0.23,0.93 0.23,0.94 0.12,0.46 0.11,0.46 0.12,0.45 0.11,0.45 0.11,0.43 0.11,0.42 0.11,0.4 0.11,0.39 c 1.25,4.56 2.98,7.56 4.31,7.56 1.08,0 1.33,-0.87 2.44,-0.87 0.87,0 1.64,1.15 1.64,2.15 0.03,0.96 -0.46,1.53 -1.56,1.53 -1.96,0 -4.36,-2.18 -6.24,-5.95 l -0.08,0 1.57,5.78 -0.18,0.17 -5.98,-0.96 -0.22,-0.83 2.17,-0.19 c 0.83,-0.06 0.77,-0.55 0.52,-1.67 l -3.21,-14.25 z"
           inkscape:connector-curvature="0"
           style="fill:#000000;stroke-width:0" /><path
           id="path4176"
           d="m 529.95,402.95 -0.12,-0.16 -0.12,-0.16 -0.26,-0.33 -0.27,-0.33 -0.29,-0.34 -0.3,-0.33 -0.32,-0.33 -0.16,-0.16 -0.17,-0.16 -0.17,-0.15 -0.18,-0.15 -0.18,-0.15 -0.19,-0.14 -0.19,-0.13 -0.19,-0.13 -0.2,-0.12 -0.2,-0.11 -0.2,-0.11 -0.21,-0.09 -0.22,-0.09 -0.21,-0.08 -0.23,-0.06 -0.22,-0.06 -0.23,-0.04 -0.24,-0.04 -0.23,-0.02 -0.25,0 c -2.43,0 -3.17,2.07 -3.17,4.82 0,0.19 0,0.33 0.03,0.57 l 0.08,1.18 c 0.59,4.22 3.2,8.4 5.99,8.4 1.21,0 2.03,-0.83 2.03,-2.05 0,-2.44 -2.13,-5.1 -8.02,-6.35 l 0,0 -0.08,-1.18 c 5.86,1.18 8.41,2.58 9.91,3.97 1.22,1.21 1.45,2.37 1.45,3.34 0,1.86 -1.45,3.48 -4.31,3.48 -3.14,0 -5.72,-1.59 -7.64,-3.96 -1.84,-2.27 -2.89,-5.3 -2.89,-8.22 0,-4.88 3.17,-5.72 5.2,-5.72 2.53,0 5.61,1.12 7.97,4.98 z"
           inkscape:connector-curvature="0"
           style="fill:#000000;stroke-width:0" /><path
           id="path4178"
           d="m 551.92,414.76 -4.53,0 0.99,3.94 c 0.65,2.64 1.32,3.62 2.29,3.62 0.94,0 1.56,-0.77 2.35,-2.44 0.17,-0.36 0.4,-0.59 0.93,-0.59 0.69,0 1.71,0.66 1.71,1.53 0,1.5 -1.88,2.72 -3.97,2.72 -2.27,0 -3.74,-0.95 -4.88,-2.41 -1.09,-1.36 -1.78,-3.25 -2.26,-5.09 l -0.36,-1.28 -3.03,0 -0.38,-1.33 3.1,0 -4.04,-20.53 c -0.42,-2.16 -0.78,-2.36 -1.12,-2.36 -0.38,0 -0.91,0.28 -1.84,1.7 -0.25,0.35 -0.49,0.77 -0.94,0.77 -0.77,0 -1.58,-0.88 -1.58,-1.74 0.05,-1.15 1.55,-2.03 3.17,-2.03 3.49,0 4.95,2.83 6.42,9.52 l 3.24,14.67 4.39,0 z"
           inkscape:connector-curvature="0"
           style="fill:#000000;stroke-width:0" /></g>    </g>
    <g
       id="g4212"
       transform="translate(295.50288,36.93786)">
      <g
         id="g4214"
         transform="matrix(1.0629921,0,0,-1.0629921,-186.02362,789.27165)"
         xml:space="preserve"
         stroke-miterlimit="10.433"
         font-style="normal"
         font-variant="normal"
         font-weight="normal"
         font-stretch="normal"
         font-size-adjust="none"
         letter-spacing="normal"
         word-spacing="normal"
         style="font-style:normal;font-variant:normal;font-weight:normal;font-stretch:normal;letter-spacing:normal;word-spacing:normal;text-anchor:start;fill:none;fill-opacity:1;fill-rule:evenodd;stroke:#000000;stroke-linecap:butt;stroke-linejoin:miter;stroke-miterlimit:10.43299961;stroke-dasharray:none;stroke-dashoffset:0;stroke-opacity:1"><path
           d="m 461.57,427.93 -0.27,-1.11 2.61,-0.21 c 1.23,-0.1 1.38,-0.52 0.97,-2.11 l -3.86,-14.36 c -0.69,-2.61 -0.09,-4.49 2.39,-4.49 3.3,0 5.86,3.11 7.42,6.6 l -1.09,0.64 c -0.83,-1.6 -2.85,-4.86 -4.13,-4.86 -0.92,0 -0.87,1.06 -0.47,2.53 l 5,18.42 -0.23,0.23 z"
           id="path4216"
           inkscape:connector-curvature="0"
           style="fill:#000000;stroke-width:0" /><path
           d="m 469.69,438.98 -0.18,0 -0.18,-0.02 -0.17,-0.02 -0.16,-0.03 -0.16,-0.04 -0.16,-0.04 -0.14,-0.06 -0.15,-0.06 -0.13,-0.06 -0.13,-0.08 -0.13,-0.08 -0.12,-0.08 -0.11,-0.09 -0.11,-0.1 -0.1,-0.1 -0.1,-0.1 -0.09,-0.11 -0.08,-0.12 -0.08,-0.12 -0.08,-0.12 -0.07,-0.12 -0.06,-0.13 -0.05,-0.13 -0.05,-0.13 -0.05,-0.13 -0.04,-0.14 -0.03,-0.13 -0.03,-0.14 -0.02,-0.14 -0.01,-0.13 -0.01,-0.14 0,-0.14 c 0,-1.69 1.14,-2.56 2.51,-2.56 1.8,0 2.94,1.23 2.94,3.07 0,1.79 -1.19,2.52 -2.47,2.52 z"
           id="path4218"
           inkscape:connector-curvature="0"
           style="fill:#000000;stroke-width:0" /><path
           d="m 488.3,389.95 6.19,26.03 -1.31,0 -1.5,-1.58 c -0.57,0.31 -1.79,0.76 -3.43,0.76 l 0.05,-1.21 c 1.11,0 1.91,-0.35 2.44,-0.72 -0.85,-4.02 -2.38,-7.61 -4.25,-10.11 -1.92,-2.52 -3.88,-4.05 -5.3,-4.05 -1.26,0 -1.67,1.25 -1.67,2.89 l 0,0 c 0,3.42 2.98,11.99 8.78,11.99 l -0.05,1.21 c -8.67,0 -12.18,-8.98 -12.18,-13.75 0,-3.03 1.59,-4.15 3.31,-4.15 2.89,0 6.44,2.72 9.01,7.04 l 0.11,0 -3.45,-15.06 z"
           id="path4220"
           inkscape:connector-curvature="0"
           style="fill:#000000;stroke-width:0" /><path
           d="m 502.46,397.68 0.11,0.43 0.12,0.44 0.11,0.45 0.12,0.46 0.23,0.93 0.23,0.94 0.11,0.46 0.12,0.46 0.11,0.45 0.12,0.45 0.11,0.43 0.11,0.42 0.11,0.4 0.1,0.39 c 1.25,4.56 2.99,7.56 4.32,7.56 1.07,0 1.32,-0.87 2.43,-0.87 0.88,0 1.64,1.15 1.64,2.15 0.04,0.96 -0.45,1.53 -1.56,1.53 -1.95,0 -4.36,-2.18 -6.23,-5.95 l -0.08,0 1.56,5.78 -0.17,0.17 -5.98,-0.96 -0.22,-0.83 2.17,-0.19 c 0.83,-0.06 0.76,-0.55 0.51,-1.67 l -3.2,-14.25 z"
           id="path4222"
           inkscape:connector-curvature="0"
           style="fill:#000000;stroke-width:0" /><path
           d="m 529.11,402.95 -0.12,-0.16 -0.12,-0.16 -0.26,-0.33 -0.27,-0.33 -0.29,-0.34 -0.3,-0.33 -0.32,-0.33 -0.16,-0.16 -0.17,-0.16 -0.17,-0.15 -0.18,-0.15 -0.18,-0.15 -0.19,-0.14 -0.19,-0.13 -0.19,-0.13 -0.2,-0.12 -0.2,-0.11 -0.2,-0.11 -0.21,-0.09 -0.22,-0.09 -0.21,-0.08 -0.23,-0.06 -0.22,-0.06 -0.23,-0.04 -0.24,-0.04 -0.23,-0.02 -0.25,0 c -2.43,0 -3.17,2.07 -3.17,4.82 0,0.19 0,0.33 0.03,0.57 l 0.08,1.18 c 0.6,4.22 3.2,8.4 5.98,8.4 1.22,0 2.04,-0.83 2.04,-2.05 0,-2.44 -2.13,-5.1 -8.02,-6.35 l 0,0 -0.08,-1.18 c 5.86,1.18 8.41,2.58 9.91,3.97 1.22,1.21 1.45,2.37 1.45,3.34 0,1.86 -1.45,3.48 -4.31,3.48 -3.14,0 -5.72,-1.59 -7.64,-3.96 -1.85,-2.27 -2.89,-5.3 -2.89,-8.22 0,-4.88 3.17,-5.72 5.2,-5.72 2.53,0 5.61,1.12 7.97,4.98 z"
           id="path4224"
           inkscape:connector-curvature="0"
           style="fill:#000000;stroke-width:0" /><path
           d="m 551.08,414.76 -4.53,0 0.98,3.94 c 0.66,2.64 1.33,3.62 2.3,3.62 0.94,0 1.57,-0.77 2.35,-2.44 0.17,-0.36 0.4,-0.59 0.93,-0.59 0.69,0 1.71,0.66 1.71,1.53 0,1.5 -1.88,2.72 -3.97,2.72 -2.27,0 -3.74,-0.95 -4.88,-2.41 -1.09,-1.36 -1.78,-3.25 -2.26,-5.09 l -0.36,-1.28 -3.03,0 -0.38,-1.33 3.09,0 L 539,392.9 c -0.42,-2.16 -0.78,-2.36 -1.12,-2.36 -0.38,0 -0.91,0.28 -1.85,1.7 -0.25,0.35 -0.48,0.77 -0.93,0.77 -0.77,0 -1.58,-0.88 -1.58,-1.74 0.05,-1.15 1.55,-2.03 3.17,-2.03 3.49,0 4.96,2.83 6.42,9.52 l 3.24,14.67 4.39,0 z"
           id="path4226"
           inkscape:connector-curvature="0"
           style="fill:#000000;stroke-width:0" /></g>    </g>
    <g
       id="g4276"
       transform="translate(-319.33376,21.44779)">
      <g
         word-spacing="normal"
         letter-spacing="normal"
         font-size-adjust="none"
         font-stretch="normal"
         font-weight="normal"
         font-variant="normal"
         font-style="normal"
         stroke-miterlimit="10.433"
         xml:space="preserve"
         transform="matrix(1.0629921,0,0,-1.0629921,-186.02362,789.27165)"
         id="g4278"
         style="font-style:normal;font-variant:normal;font-weight:normal;font-stretch:normal;letter-spacing:normal;word-spacing:normal;text-anchor:start;fill:none;fill-opacity:1;fill-rule:evenodd;stroke:#000000;stroke-linecap:butt;stroke-linejoin:miter;stroke-miterlimit:10.43299961;stroke-dasharray:none;stroke-dashoffset:0;stroke-opacity:1"><path
           id="path4280"
           d="m 462.21,427.93 -0.28,-1.11 2.85,-0.21 c 1.06,-0.1 1.01,-0.69 0.68,-2.21 l -2.79,-12.75 c -0.92,-4.17 0.54,-6 3.17,-6 3.94,0 7.92,3.67 11.09,7.92 3.11,4.22 5.32,9.22 5.36,12.07 0,1.79 -1.04,3.57 -1.42,3.57 -1.09,0 -2.39,-0.35 -3.34,-0.96 0.45,-1.6 0.54,-3.35 0.54,-5.72 -0.36,-6.28 -6.28,-14.63 -10.04,-14.5 -1.14,0 -1.97,1.01 -1.46,3.22 l 3.99,17.73 -0.24,0.23 z"
           inkscape:connector-curvature="0"
           style="fill:#000000;stroke-width:0" /><path
           id="path4282"
           d="m 489.02,397.68 0.12,0.43 0.11,0.44 0.11,0.45 0.12,0.46 0.23,0.93 0.23,0.94 0.12,0.46 0.11,0.46 0.12,0.45 0.11,0.45 0.11,0.43 0.11,0.42 0.11,0.4 0.11,0.39 c 1.25,4.56 2.98,7.56 4.31,7.56 1.08,0 1.33,-0.87 2.44,-0.87 0.87,0 1.64,1.15 1.64,2.15 0.03,0.96 -0.46,1.53 -1.57,1.53 -1.95,0 -4.36,-2.18 -6.23,-5.95 l -0.08,0 1.56,5.78 -0.17,0.17 -5.98,-0.96 -0.22,-0.83 2.17,-0.19 c 0.83,-0.06 0.77,-0.55 0.52,-1.67 l -3.21,-14.25 z"
           inkscape:connector-curvature="0"
           style="fill:#000000;stroke-width:0" /><path
           id="path4284"
           d="m 515.68,402.95 -0.12,-0.16 -0.13,-0.16 -0.25,-0.33 -0.28,-0.33 -0.28,-0.34 -0.31,-0.33 -0.31,-0.33 -0.17,-0.16 -0.17,-0.16 -0.17,-0.15 -0.18,-0.15 -0.18,-0.15 -0.19,-0.14 -0.18,-0.13 -0.2,-0.13 -0.19,-0.12 -0.21,-0.11 -0.2,-0.11 -0.21,-0.09 -0.21,-0.09 -0.22,-0.08 -0.22,-0.06 -0.23,-0.06 -0.23,-0.04 -0.23,-0.04 -0.24,-0.02 -0.24,0 c -2.44,0 -3.18,2.07 -3.18,4.82 0,0.19 0,0.33 0.04,0.57 l 0.07,1.18 c 0.6,4.22 3.21,8.4 5.99,8.4 1.22,0 2.03,-0.83 2.03,-2.05 0,-2.44 -2.13,-5.1 -8.02,-6.35 l 0,0 -0.07,-1.18 c 5.86,1.18 8.4,2.58 9.9,3.97 1.22,1.21 1.46,2.37 1.46,3.34 0,1.86 -1.46,3.48 -4.32,3.48 -3.14,0 -5.72,-1.59 -7.64,-3.96 -1.84,-2.27 -2.89,-5.3 -2.89,-8.22 0,-4.88 3.17,-5.72 5.2,-5.72 2.54,0 5.61,1.12 7.97,4.98 z"
           inkscape:connector-curvature="0"
           style="fill:#000000;stroke-width:0" /><path
           id="path4286"
           d="m 537.65,414.76 -4.54,0 0.99,3.94 c 0.65,2.64 1.33,3.62 2.3,3.62 0.93,0 1.56,-0.77 2.34,-2.44 0.17,-0.36 0.41,-0.59 0.94,-0.59 0.68,0 1.7,0.66 1.7,1.53 0,1.5 -1.88,2.72 -3.97,2.72 -2.26,0 -3.73,-0.95 -4.88,-2.41 -1.09,-1.36 -1.78,-3.25 -2.26,-5.09 l -0.36,-1.28 -3.03,0 -0.38,-1.33 3.1,0 -4.03,-20.53 c -0.42,-2.16 -0.79,-2.36 -1.13,-2.36 -0.37,0 -0.91,0.28 -1.84,1.7 -0.25,0.35 -0.49,0.77 -0.94,0.77 -0.76,0 -1.58,-0.88 -1.58,-1.74 0.05,-1.15 1.55,-2.03 3.17,-2.03 3.49,0 4.96,2.83 6.43,9.52 l 3.23,14.67 4.39,0 z"
           inkscape:connector-curvature="0"
           style="fill:#000000;stroke-width:0" /></g>    </g>
    <g
       id="g4348"
       transform="translate(-138.21909,181.11467)">
      <g
         id="g4350"
         transform="matrix(1.0629921,0,0,-1.0629921,-186.02362,789.27165)"
         xml:space="preserve"
         stroke-miterlimit="10.433"
         font-style="normal"
         font-variant="normal"
         font-weight="normal"
         font-stretch="normal"
         font-size-adjust="none"
         letter-spacing="normal"
         word-spacing="normal"
         style="font-style:normal;font-variant:normal;font-weight:normal;font-stretch:normal;letter-spacing:normal;word-spacing:normal;text-anchor:start;fill:none;fill-opacity:1;fill-rule:evenodd;stroke:#000000;stroke-linecap:butt;stroke-linejoin:miter;stroke-miterlimit:10.43299961;stroke-dasharray:none;stroke-dashoffset:0;stroke-opacity:1"><path
           d="m 462.21,427.93 -0.28,-1.11 2.85,-0.21 c 1.06,-0.1 1.01,-0.69 0.68,-2.21 l -2.79,-12.75 c -0.92,-4.17 0.54,-6 3.17,-6 3.94,0 7.92,3.67 11.09,7.92 3.11,4.22 5.32,9.22 5.36,12.07 0,1.79 -1.04,3.57 -1.42,3.57 -1.09,0 -2.39,-0.35 -3.34,-0.96 0.45,-1.6 0.54,-3.35 0.54,-5.72 -0.36,-6.28 -6.28,-14.63 -10.04,-14.5 -1.14,0 -1.97,1.01 -1.46,3.22 l 3.99,17.73 -0.24,0.23 z"
           id="path4352"
           inkscape:connector-curvature="0"
           style="fill:#000000;stroke-width:0" /></g>    </g>
    <g
       id="g4420"
       transform="translate(-1.1915439,146.5599)">
      <g
         word-spacing="normal"
         letter-spacing="normal"
         font-size-adjust="none"
         font-stretch="normal"
         font-weight="normal"
         font-variant="normal"
         font-style="normal"
         stroke-miterlimit="10.433"
         xml:space="preserve"
         transform="matrix(1.0629921,0,0,-1.0629921,-186.02362,789.27165)"
         id="g4422"
         style="font-style:normal;font-variant:normal;font-weight:normal;font-stretch:normal;letter-spacing:normal;word-spacing:normal;text-anchor:start;fill:none;fill-opacity:1;fill-rule:evenodd;stroke:#000000;stroke-linecap:butt;stroke-linejoin:miter;stroke-miterlimit:10.43299961;stroke-dasharray:none;stroke-dashoffset:0;stroke-opacity:1"><path
           id="path4424"
           d="m 483.83,414.73 -0.24,-0.43 -0.23,-0.41 -0.24,-0.41 -0.23,-0.4 -0.24,-0.38 -0.24,-0.38 -0.24,-0.36 -0.25,-0.36 -0.25,-0.34 -0.26,-0.33 -0.26,-0.32 -0.26,-0.31 -0.28,-0.29 -0.28,-0.28 -0.28,-0.27 -0.3,-0.26 -0.31,-0.24 -0.31,-0.23 -0.33,-0.21 -0.33,-0.2 -0.35,-0.19 -0.36,-0.17 -0.38,-0.16 -0.39,-0.14 -0.4,-0.12 -0.41,-0.11 -0.44,-0.09 -0.44,-0.08 -0.47,-0.06 -0.48,-0.04 -0.5,-0.03 -0.52,-0.01 c -5.31,0 -9.13,3.44 -9.13,10.5 0,4.13 1.11,9.2 3.32,12.88 2.28,3.86 5.9,6.51 10.81,6.51 5.73,0 7.7,-2.7 7.48,-7.7 l 1.38,0 1.64,6.87 c -2.61,1.66 -6.92,2.44 -10.13,2.44 -8.62,0 -13.62,-4.05 -16.28,-8.36 -2.51,-4.08 -3.11,-8.3 -3.11,-11.45 0,-6.05 2.97,-13.3 14.35,-13.3 3.25,0 6.37,0.45 9.31,1.92 l 2.23,7.3 z"
           inkscape:connector-curvature="0"
           style="fill:#000000;stroke-width:0" /><path
           id="path4426"
           d="m 491.92,415.28 -0.22,-0.83 2.17,-0.19 c 0.8,-0.06 0.77,-0.51 0.52,-1.67 l -2.13,-9.69 c -0.7,-3.17 0.42,-4.56 2.41,-4.56 3,0 6.03,2.8 8.44,6.03 2.35,3.2 4.03,7 4.07,9.17 0,1.36 -0.81,2.71 -1.09,2.71 -0.83,0 -1.81,-0.27 -2.53,-0.72 0.34,-1.22 0.4,-2.55 0.4,-4.36 -0.26,-4.78 -4.76,-11.11 -7.62,-11.02 -0.88,0 -1.5,0.77 -1.11,2.44 l 3.03,13.48 -0.19,0.18 z"
           inkscape:connector-curvature="0"
           style="fill:#000000;stroke-width:0" /><path
           id="path4428"
           d="m 519.22,419.12 0,0.61 0.01,0.59 0.01,0.59 0.02,0.57 0.06,1.09 0.07,1.05 0.1,1 0.11,0.95 0.14,0.91 0.15,0.85 0.16,0.82 0.18,0.76 0.2,0.73 0.2,0.68 0.22,0.64 0.23,0.6 0.25,0.56 0.25,0.53 0.26,0.49 0.26,0.45 0.28,0.42 0.27,0.38 0.29,0.35 0.29,0.32 0.29,0.29 0.29,0.26 0.29,0.24 0.3,0.2 0.29,0.18 0.29,0.16 0.29,0.13 0.28,0.11 0.28,0.08 0.27,0.07 0,1.15 c -8.03,-0.32 -10.09,-10.28 -10.09,-18.81 0,-8.51 2.06,-18.47 10.09,-18.8 l 0,1.16 c -2.67,0.55 -6.88,4.44 -6.88,17.64 z"
           inkscape:connector-curvature="0"
           style="fill:#000000;stroke-width:0" /><path
           id="path4430"
           d="m 542.22,429.21 -0.43,0 -0.42,-0.03 -0.41,-0.04 -0.4,-0.06 -0.38,-0.08 -0.38,-0.09 -0.36,-0.11 -0.35,-0.12 -0.33,-0.13 -0.33,-0.15 -0.31,-0.16 -0.3,-0.18 -0.28,-0.19 -0.28,-0.2 -0.25,-0.21 -0.25,-0.22 -0.23,-0.24 -0.22,-0.24 -0.2,-0.26 -0.19,-0.26 -0.18,-0.27 -0.16,-0.29 -0.14,-0.29 -0.14,-0.3 -0.11,-0.3 -0.1,-0.31 -0.09,-0.32 -0.07,-0.33 -0.06,-0.33 -0.04,-0.33 -0.02,-0.34 -0.01,-0.35 c 0,-2.39 1.64,-4.5 4.03,-6.42 1.97,-1.56 3.16,-3.58 3.16,-5.36 0,-2.16 -1.38,-3.45 -3.3,-3.45 -1.7,0 -3.39,1.42 -4.12,3.86 -0.29,0.87 -0.69,1.37 -1.47,1.37 -1.38,0 -2.39,-1.23 -2.39,-2.47 0,-1.98 2.53,-4.36 6.89,-4.36 4.93,0 7.92,3.16 7.92,6.92 0,2.52 -1.14,4.49 -4.22,7.02 -2.75,2.25 -3.25,3.75 -3.25,5.05 0,1.45 1.14,2.97 2.85,2.97 1.51,0 2.7,-1 3.67,-3.16 0.21,-0.55 0.59,-0.92 1.28,-0.92 0.9,0 2.2,0.68 2.2,2.11 0,1.42 -1.75,3.57 -5.83,3.57 z"
           inkscape:connector-curvature="0"
           style="fill:#000000;stroke-width:0" /><path
           id="path4432"
           d="m 556.9,419.12 -0.01,-0.61 -0.01,-0.6 -0.01,-0.58 -0.02,-0.58 -0.03,-0.56 -0.03,-0.54 -0.08,-1.06 -0.1,-1 -0.12,-0.95 -0.14,-0.91 -0.15,-0.86 -0.17,-0.81 -0.19,-0.77 -0.2,-0.73 -0.22,-0.68 -0.22,-0.64 -0.24,-0.6 -0.25,-0.56 -0.25,-0.53 -0.26,-0.48 -0.27,-0.45 -0.28,-0.42 -0.28,-0.38 -0.29,-0.35 -0.28,-0.32 -0.29,-0.28 -0.29,-0.26 -0.29,-0.23 -0.28,-0.2 -0.29,-0.18 -0.28,-0.15 -0.27,-0.12 -0.27,-0.11 -0.27,-0.08 -0.25,-0.06 0,-1.16 c 8.03,0.33 10.09,10.29 10.09,18.8 0,8.53 -2.06,18.49 -10.09,18.81 l 0,-1.15 c 2.89,-0.6 6.88,-4.53 6.88,-17.66 z"
           inkscape:connector-curvature="0"
           style="fill:#000000;stroke-width:0" /></g>    </g>
    <g
       id="g4514"
       transform="matrix(0.87048367,0,0,0.87048367,-112.16997,73.76535)"
       style="stroke:#000000;stroke-opacity:1;stroke-width:1.14878663;stroke-miterlimit:4;stroke-dasharray:none">
      <g
         id="g4516"
         transform="matrix(1.0629921,0,0,-1.0629921,-186.02362,789.27165)"
         xml:space="preserve"
         stroke-miterlimit="10.433"
         font-style="normal"
         font-variant="normal"
         font-weight="normal"
         font-stretch="normal"
         font-size-adjust="none"
         letter-spacing="normal"
         word-spacing="normal"
         style="font-style:normal;font-variant:normal;font-weight:normal;font-stretch:normal;letter-spacing:normal;word-spacing:normal;text-anchor:start;fill:none;fill-opacity:1;fill-rule:evenodd;stroke:#000000;stroke-linecap:butt;stroke-linejoin:miter;stroke-miterlimit:4;stroke-dasharray:none;stroke-dashoffset:0;stroke-opacity:1;stroke-width:1.08071041"><polygon
           points="470.69,406.53 473.35,406.53 473.35,417.79 484.63,417.79 484.63,420.46 473.35,420.46 473.35,431.73 470.69,431.73 470.69,420.46 459.41,420.46 459.41,417.79 470.69,417.79 "
           id="polygon4518"
           style="fill:#000000;stroke-width:1.08071041;stroke:#000000;stroke-opacity:1;stroke-miterlimit:4;stroke-dasharray:none" /></g>    </g>
    <g
       id="g4606"
       transform="matrix(0.87048367,0,0,0.87048367,-93.500019,97.621398)"
       style="stroke:#000000;stroke-opacity:1;stroke-width:1.14878663;stroke-miterlimit:4;stroke-dasharray:none">
      <g
         word-spacing="normal"
         letter-spacing="normal"
         font-size-adjust="none"
         font-stretch="normal"
         font-weight="normal"
         font-variant="normal"
         font-style="normal"
         stroke-miterlimit="10.433"
         xml:space="preserve"
         transform="matrix(1.0629921,0,0,-1.0629921,-186.02362,789.27165)"
         id="g4608"
         style="font-style:normal;font-variant:normal;font-weight:normal;font-stretch:normal;letter-spacing:normal;word-spacing:normal;text-anchor:start;fill:none;fill-opacity:1;fill-rule:evenodd;stroke:#000000;stroke-linecap:butt;stroke-linejoin:miter;stroke-miterlimit:4;stroke-dasharray:none;stroke-dashoffset:0;stroke-opacity:1;stroke-width:1.08071041"><polygon
           id="polygon4610"
           points="484.63,417.79 484.63,420.46 459.41,420.46 459.41,417.79 "
           style="fill:#000000;stroke-width:1.08071041;stroke:#000000;stroke-opacity:1;stroke-miterlimit:4;stroke-dasharray:none" /></g>    </g>
    <circle
       style="opacity:1;fill:none;fill-opacity:1;stroke:#000000;stroke-width:3.34116626;stroke-miterlimit:4;stroke-dasharray:none;stroke-dashoffset:0;stroke-opacity:1"
       id="path4659"
       cx="180.2558"
       cy="372.69266"
       r="37.58812" />
    <path
       style="fill:none;fill-rule:evenodd;stroke:#000000;stroke-width:2;stroke-linecap:butt;stroke-linejoin:miter;stroke-opacity:1;marker-end:url(#Arrow2Lend);stroke-miterlimit:4;stroke-dasharray:none"
       d="m 80,372.36218 60,0"
       id="path4661"
       inkscape:connector-curvature="0" />
  </g>
</svg>
