<?xml version="1.0" encoding="UTF-8" standalone="no"?>
<!-- Created with Inkscape (http://www.inkscape.org/) -->

<svg
   xmlns:dc="http://purl.org/dc/elements/1.1/"
   xmlns:cc="http://creativecommons.org/ns#"
   xmlns:rdf="http://www.w3.org/1999/02/22-rdf-syntax-ns#"
   xmlns:svg="http://www.w3.org/2000/svg"
   xmlns="http://www.w3.org/2000/svg"
   xmlns:sodipodi="http://sodipodi.sourceforge.net/DTD/sodipodi-0.dtd"
   xmlns:inkscape="http://www.inkscape.org/namespaces/inkscape"
   width="192.47556mm"
   height="49.095753mm"
   viewBox="0 0 682 173.96133"
   id="svg5878"
   version="1.1"
   inkscape:version="0.91 r13725"
   sodipodi:docname="displacement.svg">
  <sodipodi:namedview
     id="base"
     pagecolor="#ffffff"
     bordercolor="#666666"
     borderopacity="1.0"
     inkscape:pageopacity="0.0"
     inkscape:pageshadow="2"
     inkscape:zoom="0.52"
     inkscape:cx="252.46223"
     inkscape:cy="213.99998"
     inkscape:document-units="px"
     inkscape:current-layer="layer1"
     showgrid="false"
     inkscape:window-width="1600"
     inkscape:window-height="838"
     inkscape:window-x="-8"
     inkscape:window-y="-8"
     inkscape:window-maximized="1"
     fit-margin-top="0"
     fit-margin-left="0"
     fit-margin-right="0"
     fit-margin-bottom="0" />
  <defs
     id="defs5880">
    <marker
       inkscape:stockid="Arrow2Lend"
       orient="auto"
       refY="0"
       refX="0"
       id="marker8058"
       style="overflow:visible"
       inkscape:isstock="true">
      <path
         id="path8060"
         style="fill:#000000;fill-opacity:1;fill-rule:evenodd;stroke:#000000;stroke-width:0.625;stroke-linejoin:round;stroke-opacity:1"
         d="M 8.7185878,4.0337352 -2.2072895,0.01601326 8.7185884,-4.0017078 c -1.7454984,2.3720609 -1.7354408,5.6174519 -6e-7,8.035443 z"
         transform="matrix(-1.1,0,0,-1.1,-1.1,0)"
         inkscape:connector-curvature="0" />
    </marker>
    <marker
       inkscape:stockid="Arrow2Lend"
       orient="auto"
       refY="0"
       refX="0"
       id="Arrow2Lend"
       style="overflow:visible"
       inkscape:isstock="true">
      <path
         id="path5537"
         style="fill:#000000;fill-opacity:1;fill-rule:evenodd;stroke:#000000;stroke-width:0.625;stroke-linejoin:round;stroke-opacity:1"
         d="M 8.7185878,4.0337352 -2.2072895,0.01601326 8.7185884,-4.0017078 c -1.7454984,2.3720609 -1.7354408,5.6174519 -6e-7,8.035443 z"
         transform="matrix(-1.1,0,0,-1.1,-1.1,0)"
         inkscape:connector-curvature="0" />
    </marker>
  </defs>
  <metadata
     id="metadata5883">
    <rdf:RDF>
      <cc:Work
         rdf:about="">
        <dc:format>image/svg+xml</dc:format>
        <dc:type
           rdf:resource="http://purl.org/dc/dcmitype/StillImage" />
        <dc:title></dc:title>
      </cc:Work>
    </rdf:RDF>
  </metadata>
  <g
     id="layer1"
     inkscape:groupmode="layer"
     inkscape:label="Layer 1"
     transform="translate(-22,-438.40085)">
    <g
       id="g6431"
       transform="translate(-238.22421,156.78027)">
      <g
         word-spacing="normal"
         letter-spacing="normal"
         font-size-adjust="none"
         font-stretch="normal"
         font-weight="normal"
         font-variant="normal"
         font-style="normal"
         stroke-miterlimit="10.433"
         xml:space="preserve"
         transform="matrix(1.0629921,0,0,-1.0629921,-186.02362,789.27165)"
         id="content"
         style="font-style:normal;font-variant:normal;font-weight:normal;font-stretch:normal;letter-spacing:normal;word-spacing:normal;text-anchor:start;fill:none;fill-opacity:1;fill-rule:evenodd;stroke:#000000;stroke-linecap:butt;stroke-linejoin:miter;stroke-miterlimit:10.43299961;stroke-dasharray:none;stroke-dashoffset:0;stroke-opacity:1"><path
           id="path6434"
           d="m 464.05,437.93 -0.28,-1.34 2.7,-0.27 c 1.07,-0.09 1.33,-0.73 1.02,-2.06 l -5.5,-24.39 c -0.33,-1.37 -0.78,-2.01 -1.89,-2.11 l -2.56,-0.23 -0.27,-1.33 13.33,0 0.28,1.33 -3.44,0.23 c -1.11,0.1 -1.37,0.74 -1.06,2.11 l 2.58,11.33 6.04,0 c 4.04,0 4.18,-0.97 3.99,-3.95 l 1.37,0 2.11,9.62 -1.37,0 c -1.19,-3.2 -1.69,-3.94 -5.72,-3.94 l -6.06,0 2.75,12.02 c 0.28,1.14 0.51,1.37 1.32,1.37 l 5.65,0 c 5.78,0 5.64,-1.92 5.23,-5.96 l 1.37,0 1.74,7.57 z"
           inkscape:connector-curvature="0"
           style="fill:#000000;stroke-width:0" /><path
           id="path6436"
           d="m 501.51,403.57 -0.16,-0.29 -0.16,-0.31 -0.16,-0.3 -0.17,-0.3 -0.17,-0.29 -0.16,-0.28 -0.09,-0.14 -0.09,-0.13 -0.08,-0.13 -0.09,-0.13 -0.09,-0.12 -0.08,-0.12 -0.09,-0.11 -0.09,-0.1 -0.09,-0.1 -0.09,-0.09 -0.09,-0.09 -0.09,-0.08 -0.09,-0.07 -0.09,-0.06 -0.09,-0.05 -0.09,-0.05 -0.09,-0.03 -0.09,-0.03 -0.09,-0.01 -0.09,-0.01 c -0.66,0 -0.94,0.8 -1.71,3.91 l -1.11,4.56 c 1.25,2.24 3.03,5.02 4.05,5.02 0.31,0 0.58,-0.07 0.97,-0.28 0.34,-0.15 0.7,-0.27 1.11,-0.27 0.76,0 1.5,0.72 1.5,1.67 0,1.08 -0.8,1.49 -1.78,1.49 -1.85,0 -3.41,-1.68 -4.63,-3.61 l -1.53,-2.38 -0.08,0 -1.39,5.86 -0.2,0.13 -5.75,-1.74 0.09,-0.84 2.63,0.19 c 0.62,0.03 0.86,-0.15 1.25,-1.75 l 1.25,-5.05 -0.97,-1.67 c -1.5,-2.55 -2.8,-4.36 -3.63,-4.36 -0.34,0 -0.7,0.14 -1.01,0.31 -0.35,0.17 -0.8,0.52 -1.39,0.52 -0.91,0 -1.5,-0.91 -1.5,-1.74 0,-1.01 0.84,-1.78 2.23,-1.78 2.36,0 3.72,2.37 5.16,4.7 l 1.39,2.3 0.08,0 0.62,-2.7 c 0.66,-2.8 1.31,-4.3 3.1,-4.3 2.54,0 3.87,2.61 4.92,4.75 z"
           inkscape:connector-curvature="0"
           style="fill:#000000;stroke-width:0" /></g>    </g>
    <g
       id="g6454"
       transform="translate(84,160)">
      <g
         id="g6456"
         transform="matrix(1.0629921,0,0,-1.0629921,-186.02362,789.27165)"
         xml:space="preserve"
         stroke-miterlimit="10.433"
         font-style="normal"
         font-variant="normal"
         font-weight="normal"
         font-stretch="normal"
         font-size-adjust="none"
         letter-spacing="normal"
         word-spacing="normal"
         style="font-style:normal;font-variant:normal;font-weight:normal;font-stretch:normal;letter-spacing:normal;word-spacing:normal;text-anchor:start;fill:none;fill-opacity:1;fill-rule:evenodd;stroke:#000000;stroke-linecap:butt;stroke-linejoin:miter;stroke-miterlimit:10.43299961;stroke-dasharray:none;stroke-dashoffset:0;stroke-opacity:1"><path
           d="m 464,406.2 0.13,0.43 0.12,0.42 0.11,0.41 0.12,0.4 0.11,0.39 0.1,0.38 0.11,0.36 0.1,0.36 0.1,0.35 0.1,0.34 0.1,0.34 0.09,0.32 0.09,0.32 0.1,0.3 0.17,0.6 0.18,0.57 0.17,0.55 0.17,0.52 0.17,0.51 0.17,0.49 0.17,0.48 0.18,0.46 0.18,0.46 c 1.54,3.99 6.04,10.86 9.84,10.86 1.37,0 2.11,-1 1.37,-3.84 l -3.39,-12.84 -1.18,-4.49 3.98,0.55 c 1.33,4.67 2.06,7.33 3.27,10.12 1.68,3.91 5.86,10.5 9.71,10.5 1.5,0 2.16,-1.23 1.55,-3.2 l -3.94,-13.48 c -0.82,-2.85 0.1,-4.49 2.39,-4.49 3.35,0 5.91,3.11 7.47,6.6 l -1.09,0.64 c -0.83,-1.6 -2.84,-4.86 -4.14,-4.86 -0.91,0 -0.86,1.06 -0.45,2.53 l 3.53,12.01 c 1.06,3.61 0.45,6.64 -3.35,6.64 -4.12,0 -8.29,-3.81 -11.61,-9.71 l -0.17,0 0.91,2.89 c 1.37,4.39 0.47,6.82 -2.75,6.82 -4.22,0 -8.47,-3.93 -11.64,-9.71 l -0.14,0 2.89,9.48 -0.24,0.23 -8.29,-1.28 -0.27,-1.11 2.8,-0.21 c 1.09,-0.1 1,-0.74 0.64,-2.21 l -4.72,-18.75 z"
           id="path6458"
           inkscape:connector-curvature="0"
           style="fill:#000000;stroke-width:0" /></g>    </g>
    <g
       id="g6482"
       transform="translate(308.92294,105.37605)">
      <g
         word-spacing="normal"
         letter-spacing="normal"
         font-size-adjust="none"
         font-stretch="normal"
         font-weight="normal"
         font-variant="normal"
         font-style="normal"
         stroke-miterlimit="10.433"
         xml:space="preserve"
         transform="matrix(1.0629921,0,0,-1.0629921,-186.02362,789.27165)"
         id="g6484"
         style="font-style:normal;font-variant:normal;font-weight:normal;font-stretch:normal;letter-spacing:normal;word-spacing:normal;text-anchor:start;fill:none;fill-opacity:1;fill-rule:evenodd;stroke:#000000;stroke-linecap:butt;stroke-linejoin:miter;stroke-miterlimit:10.43299961;stroke-dasharray:none;stroke-dashoffset:0;stroke-opacity:1"><path
           id="path6486"
           d="m 479.73,412.53 -0.21,-0.39 -0.21,-0.4 -0.22,-0.39 -0.21,-0.4 -0.22,-0.38 -0.23,-0.37 -0.11,-0.18 -0.11,-0.18 -0.11,-0.17 -0.12,-0.17 -0.11,-0.16 -0.12,-0.15 -0.11,-0.14 -0.12,-0.14 -0.11,-0.13 -0.12,-0.12 -0.12,-0.12 -0.11,-0.1 -0.12,-0.09 -0.12,-0.08 -0.12,-0.08 -0.12,-0.05 -0.12,-0.05 -0.12,-0.04 -0.11,-0.02 -0.12,0 c -0.88,0 -1.24,1.06 -2.25,5.14 l -1.47,6 c 1.65,2.94 3.98,6.61 5.32,6.61 0.41,0 0.77,-0.1 1.29,-0.38 0.45,-0.17 0.9,-0.36 1.46,-0.36 1,0 1.97,0.97 1.97,2.21 0,1.42 -1.06,1.96 -2.34,1.96 -2.42,0 -4.48,-2.2 -6.09,-4.76 l -2.02,-3.13 -0.09,0 -1.83,7.71 -0.28,0.18 -7.57,-2.29 0.15,-1.1 3.43,0.24 c 0.82,0.03 1.14,-0.19 1.64,-2.3 l 1.66,-6.65 -1.28,-2.19 c -1.97,-3.36 -3.67,-5.74 -4.77,-5.74 -0.47,0 -0.92,0.18 -1.33,0.41 -0.46,0.23 -1.06,0.69 -1.84,0.69 -1.19,0 -1.97,-1.19 -1.97,-2.3 0,-1.33 1.1,-2.33 2.94,-2.33 3.11,0 4.91,3.11 6.78,6.19 l 1.83,3.03 0.09,0 0.83,-3.58 c 0.88,-3.67 1.75,-5.64 4.08,-5.64 3.34,0 5.09,3.44 6.47,6.24 z"
           inkscape:connector-curvature="0"
           style="fill:#000000;stroke-width:0" /></g>    </g>
    <rect
       style="opacity:0.8;fill:none;fill-opacity:1;stroke:#000000;stroke-width:5;stroke-miterlimit:4;stroke-dasharray:none;stroke-dashoffset:0;stroke-opacity:1"
       id="rect6501"
       width="362"
       height="62"
       x="234"
       y="474.36218" />
    <rect
       style="opacity:0.8;fill:#000000;fill-opacity:0.32903227;stroke:none;stroke-width:5;stroke-miterlimit:4;stroke-dasharray:none;stroke-dashoffset:0;stroke-opacity:1"
       id="rect6503"
       width="682"
       height="70"
       x="22"
       y="542.36218" />
    <path
       style="fill:none;fill-rule:evenodd;stroke:#000000;stroke-width:2;stroke-linecap:butt;stroke-linejoin:miter;stroke-miterlimit:4;stroke-dasharray:none;stroke-opacity:1;marker-end:url(#Arrow2Lend)"
       d="m 120.60987,508.88236 108.84304,0"
       id="path7986"
       inkscape:connector-curvature="0" />
    <path
       style="fill:none;fill-rule:evenodd;stroke:#000000;stroke-width:2;stroke-linecap:butt;stroke-linejoin:miter;stroke-miterlimit:4;stroke-dasharray:none;stroke-opacity:1;marker-end:url(#marker8058)"
       d="m 505.26463,450.728 90.96565,0"
       id="path8056"
       inkscape:connector-curvature="0" />
  </g>
</svg>
