<?xml version="1.0" encoding="UTF-8" standalone="no"?>
<!-- Created with Inkscape (http://www.inkscape.org/) -->

<svg
   xmlns:dc="http://purl.org/dc/elements/1.1/"
   xmlns:cc="http://creativecommons.org/ns#"
   xmlns:rdf="http://www.w3.org/1999/02/22-rdf-syntax-ns#"
   xmlns:svg="http://www.w3.org/2000/svg"
   xmlns="http://www.w3.org/2000/svg"
   xmlns:sodipodi="http://sodipodi.sourceforge.net/DTD/sodipodi-0.dtd"
   xmlns:inkscape="http://www.inkscape.org/namespaces/inkscape"
   width="94.48996mm"
   height="73.391815mm"
   viewBox="0 0 334.80694 260.04974"
   id="svg2"
   version="1.1"
   inkscape:version="0.91 r13725"
   sodipodi:docname="finalresponse.svg">
  <sodipodi:namedview
     id="base"
     pagecolor="#ffffff"
     bordercolor="#666666"
     borderopacity="1.0"
     inkscape:pageopacity="0.0"
     inkscape:pageshadow="2"
     inkscape:zoom="1.04"
     inkscape:cx="183.82203"
     inkscape:cy="191.89798"
     inkscape:document-units="px"
     inkscape:current-layer="layer2"
     showgrid="false"
     inkscape:window-width="1600"
     inkscape:window-height="838"
     inkscape:window-x="-8"
     inkscape:window-y="-8"
     inkscape:window-maximized="1"
     fit-margin-top="0"
     fit-margin-left="0"
     fit-margin-right="0"
     fit-margin-bottom="0" />
  <defs
     id="defs4">
    <clipPath
       id="clipPath4449"
       clipPathUnits="userSpaceOnUse">
      <path
         inkscape:connector-curvature="0"
         id="path4451"
         d="m 0,2200 3000,0 L 3000,2.5 0,2.5 0,2200 Z" />
    </clipPath>
    <clipPath
       id="clipPath4611"
       clipPathUnits="userSpaceOnUse">
      <path
         inkscape:connector-curvature="0"
         id="path4613"
         d="m 390,2018.33 2325.83,0 0,-1744.998 -2325.83,0 0,1744.998 z" />
    </clipPath>
    <clipPath
       id="clipPath4661"
       clipPathUnits="userSpaceOnUse">
      <path
         inkscape:connector-curvature="0"
         id="path4663"
         d="m 0,2200 3000,0 L 3000,2.5 0,2.5 0,2200 Z" />
    </clipPath>
    <clipPath
       id="clipPath4715"
       clipPathUnits="userSpaceOnUse">
      <path
         inkscape:connector-curvature="0"
         id="path4717"
         d="m 2077.5,1968.33 588.33,0 0,-340.83 -588.33,0 0,340.83 z" />
    </clipPath>
    <clipPath
       id="clipPath4725"
       clipPathUnits="userSpaceOnUse">
      <path
         inkscape:connector-curvature="0"
         id="path4727"
         d="m 0,2200 3000,0 L 3000,2.5 0,2.5 0,2200 Z" />
    </clipPath>
    <clipPath
       id="clipPath4739"
       clipPathUnits="userSpaceOnUse">
      <path
         inkscape:connector-curvature="0"
         id="path4741"
         d="m 2077.5,1968.33 588.33,0 0,-340.83 -588.33,0 0,340.83 z" />
    </clipPath>
  </defs>
  <metadata
     id="metadata7">
    <rdf:RDF>
      <cc:Work
         rdf:about="">
        <dc:format>image/svg+xml</dc:format>
        <dc:type
           rdf:resource="http://purl.org/dc/dcmitype/StillImage" />
        <dc:title></dc:title>
      </cc:Work>
    </rdf:RDF>
  </metadata>
  <g
     inkscape:label="Layer 1"
     inkscape:groupmode="layer"
     id="layer1"
     transform="translate(-219.71332,-410.47307)">
    <g
       id="g4141"
       transform="matrix(0.32752323,0,0,0.32752323,274.37769,549.76538)">
      <g
         id="content"
         transform="matrix(1.0629921,0,0,-1.0629921,-186.02362,789.27165)"
         xml:space="preserve"
         stroke-miterlimit="10.433"
         font-style="normal"
         font-variant="normal"
         font-weight="normal"
         font-stretch="normal"
         font-size-adjust="none"
         letter-spacing="normal"
         word-spacing="normal"
         style="font-style:normal;font-variant:normal;font-weight:normal;font-stretch:normal;letter-spacing:normal;word-spacing:normal;text-anchor:start;fill:none;fill-opacity:1;fill-rule:evenodd;stroke:#000000;stroke-linecap:butt;stroke-linejoin:miter;stroke-miterlimit:10.43299961;stroke-dasharray:none;stroke-dashoffset:0;stroke-opacity:1"><path
           d="m 472.02,436.32 2.7,0 c 5.38,0 6.33,-1.01 6.89,-6.01 l 1.38,0 0,7.62 -26.45,0 0,-7.62 1.37,0 c 0.55,5 1.5,6.01 6.88,6.01 l 2.7,0 0,-25.86 c 0,-2.56 -0.14,-2.65 -5.05,-2.93 l 0,-1.33 14.63,0 0,1.33 c -4.91,0.28 -5.05,0.37 -5.05,2.93 z"
           id="path4144"
           inkscape:connector-curvature="0"
           style="fill:#000000;stroke-width:0" /><path
           d="m 484.1,428.07 0,-1.15 1.74,-0.22 c 1.18,-0.19 1.46,-0.42 1.46,-2.06 l 0,-14.46 c 0,-2.32 -0.14,-2.42 -3.43,-2.65 l 0,-1.33 11.18,0 0,1.33 c -3.25,0.23 -3.43,0.33 -3.43,2.65 l 0,18.75 -0.33,0.28 z"
           id="path4146"
           inkscape:connector-curvature="0"
           style="fill:#000000;stroke-width:0" /><path
           d="m 489.41,438.98 -0.15,0 -0.15,-0.01 -0.15,-0.02 -0.14,-0.02 -0.14,-0.03 -0.14,-0.04 -0.13,-0.04 -0.13,-0.05 -0.13,-0.06 -0.12,-0.06 -0.12,-0.06 -0.11,-0.07 -0.11,-0.08 -0.1,-0.08 -0.1,-0.09 -0.1,-0.09 -0.09,-0.1 -0.08,-0.1 -0.08,-0.11 -0.07,-0.11 -0.07,-0.11 -0.07,-0.12 -0.06,-0.12 -0.05,-0.13 -0.05,-0.13 -0.04,-0.14 -0.03,-0.13 -0.03,-0.15 -0.02,-0.14 -0.02,-0.15 -0.01,-0.15 0,-0.15 c 0,-1.61 1.14,-2.75 2.79,-2.75 1.71,0 2.75,1.14 2.8,2.75 0,1.65 -1.09,2.84 -2.8,2.84 z"
           id="path4148"
           inkscape:connector-curvature="0"
           style="fill:#000000;stroke-width:0" /><path
           d="m 515.93,418.26 0.09,0 0.09,0 0.09,0.01 0.09,0 0.09,0.01 0.08,0.01 0.09,0.01 0.08,0.02 0.08,0.02 0.08,0.02 0.07,0.02 0.08,0.03 0.07,0.03 0.07,0.04 0.07,0.04 0.06,0.04 0.06,0.05 0.06,0.05 0.06,0.06 0.05,0.06 0.05,0.07 0.04,0.07 0.04,0.08 0.04,0.09 0.04,0.09 0.01,0.04 0.02,0.05 0.01,0.05 0.01,0.06 0.01,0.05 0.01,0.06 0.01,0.05 0.01,0.06 0.01,0.06 0,0.07 0.01,0.06 0,0.07 0,0.07 0,0.07 c 0,2.7 -0.86,9.21 -9.25,9.21 l -0.28,-1.6 c 4.27,0 4.77,-4.35 4.77,-6.15 0,-0.87 -0.27,-1.46 -1.57,-1.46 l -8.65,0 c 0,1.89 0.68,7.61 5.45,7.61 l 0.28,1.6 c -7.15,0 -10.55,-5.09 -10.55,-11.96 0,-7.24 3.11,-11.69 10.6,-11.6 5.08,0.05 7.7,2.85 8.94,6.47 l -1.38,0.72 c -1.28,-2.66 -3.03,-4.86 -6.66,-4.86 -5.68,0 -6.82,5.52 -6.73,10.28 z"
           id="path4150"
           inkscape:connector-curvature="0"
           style="fill:#000000;stroke-width:0" /><path
           d="m 520.94,428.07 0,-1.15 1.73,-0.22 c 1.19,-0.19 1.47,-0.42 1.47,-2.06 l 0,-14.46 c 0,-2.32 -0.14,-2.42 -3.44,-2.65 l 0,-1.33 11.19,0 0,1.33 c -3.25,0.23 -3.44,0.33 -3.44,2.65 l 0,10.74 c 0,1.14 0.05,1.78 0.36,2.42 0.88,1.84 2.89,3.41 5.42,3.41 3.94,0 4.4,-2.89 4.4,-5.74 l 0,-10.83 c 0,-2.32 -0.15,-2.42 -3.44,-2.65 l 0,-1.33 11.19,0 0,1.33 c -3.25,0.23 -3.44,0.33 -3.44,2.65 l 0,10.74 c 0,1.14 0.04,1.78 0.33,2.51 0.68,1.85 2.65,3.32 5.21,3.32 2.9,0.07 4.63,-1.75 4.63,-5.74 l 0,-10.83 c 0,-2.32 -0.13,-2.42 -3.44,-2.65 l 0,-1.33 11.19,0 0,1.33 c -3.25,0.23 -3.44,0.33 -3.44,2.65 l 0,11.74 c 0,4.64 -2.47,7.29 -6.83,7.29 -3.76,0 -6.46,-2.51 -8.06,-3.53 -1.11,2.16 -2.84,3.53 -6.06,3.53 -3.53,0 -6.42,-2.29 -8.02,-3.48 l -0.42,3.48 z"
           id="path4152"
           inkscape:connector-curvature="0"
           style="fill:#000000;stroke-width:0" /><path
           d="m 562.85,428.07 0,-1.15 1.75,-0.22 c 1.18,-0.19 1.45,-0.42 1.45,-2.06 l 0,-25 c 0,-2.33 -0.22,-2.43 -3.44,-2.66 l 0,-1.33 11.88,0 0,1.33 c -3.84,0.23 -4.13,0.33 -4.13,2.66 l 0,7.06 c 0.97,-0.55 3.13,-1.05 5.24,-1.05 l 0.05,1.6 c -2.4,0 -4.22,1.25 -4.96,3.36 -0.28,0.82 -0.33,1.73 -0.33,2.79 l 0,7.52 c 0,1.14 0.19,1.78 0.6,2.61 1.06,2.11 3.03,3.22 5.47,3.22 1.82,0 5.9,-1.21 5.9,-9.08 0,-6.75 -2.11,-10.42 -6.68,-10.42 l -0.05,-1.6 c 6.18,0 11.5,2.85 11.5,12.28 0,3.27 -0.6,11.28 -8.94,11.28 -3.34,0 -6,-2.25 -7.8,-3.39 l -0.59,3.39 z"
           id="path4154"
           inkscape:connector-curvature="0"
           style="fill:#000000;stroke-width:0" /><path
           d="m 602.52,429.21 -0.68,-0.01 -0.65,-0.04 -0.64,-0.06 -0.61,-0.09 -0.59,-0.11 -0.57,-0.14 -0.54,-0.16 -0.53,-0.18 -0.5,-0.21 -0.48,-0.23 -0.46,-0.26 -0.44,-0.28 -0.42,-0.3 -0.39,-0.32 -0.38,-0.35 -0.35,-0.36 -0.33,-0.39 -0.31,-0.41 -0.29,-0.43 -0.26,-0.46 -0.25,-0.47 -0.22,-0.5 -0.21,-0.51 -0.18,-0.53 -0.16,-0.56 -0.13,-0.57 -0.12,-0.6 -0.1,-0.61 -0.07,-0.63 -0.05,-0.65 -0.04,-0.67 -0.01,-0.69 c 0,-7.42 3.63,-11.78 10.96,-11.78 l 0,1.6 c -4.18,0 -6.19,3.86 -6.19,10.18 l 0,0 c 0,6.33 2.01,10.18 6.19,10.18 4.26,0 6.23,-3.85 6.23,-10.18 0,-6.32 -1.97,-10.18 -6.23,-10.18 l 0,-1.6 c 7.42,0 11,4.36 11,11.78 0,7.43 -3.58,11.78 -11,11.78 z"
           id="path4156"
           inkscape:connector-curvature="0"
           style="fill:#000000;stroke-width:0" /><path
           d="m 634.28,419.12 0.01,0.61 0.01,0.59 0.01,0.59 0.02,0.57 0.06,1.09 0.07,1.05 0.1,1 0.11,0.95 0.14,0.91 0.15,0.85 0.16,0.82 0.18,0.76 0.2,0.73 0.2,0.68 0.22,0.64 0.23,0.6 0.25,0.56 0.25,0.53 0.26,0.49 0.26,0.45 0.28,0.42 0.28,0.38 0.28,0.35 0.29,0.32 0.29,0.29 0.29,0.26 0.29,0.24 0.3,0.2 0.29,0.18 0.29,0.16 0.29,0.13 0.28,0.11 0.28,0.08 0.28,0.07 0,1.15 c -8.03,-0.32 -10.1,-10.28 -10.1,-18.81 0,-8.51 2.07,-18.47 10.1,-18.8 l 0,1.16 c -2.68,0.55 -6.9,4.44 -6.9,17.64 z"
           id="path4158"
           inkscape:connector-curvature="0"
           style="fill:#000000;stroke-width:0" /><path
           d="m 659.18,422.29 0,5.36 c -1.52,1.11 -3.86,1.56 -5.93,1.56 -4.95,0 -8.29,-2.34 -8.34,-6.68 0.05,-3.82 3.12,-5.52 6.92,-6.66 2.07,-0.64 4.95,-1.69 4.95,-4.81 0,-2.35 -1.82,-3.81 -4.26,-3.81 -3.7,0 -5.77,2.71 -6.69,6.61 l -1.33,0 0.46,-6 c 1.65,-1.47 4.45,-2.21 7.15,-2.21 5.46,0 8.58,2.89 8.58,6.78 0,4.03 -2.48,5.88 -7.2,7.35 -1.88,0.59 -4.91,1.54 -4.91,4.12 0.05,2.38 1.83,3.71 4.13,3.71 3.25,0 4.81,-2.52 5.14,-5.32 z"
           id="path4160"
           inkscape:connector-curvature="0"
           style="fill:#000000;stroke-width:0" /><path
           d="m 670.4,419.12 0,-0.61 -0.01,-0.6 -0.02,-0.58 -0.02,-0.58 -0.02,-0.56 -0.03,-0.54 -0.08,-1.06 -0.1,-1 -0.12,-0.95 -0.14,-0.91 -0.16,-0.86 -0.17,-0.81 -0.18,-0.77 -0.21,-0.73 -0.21,-0.68 -0.22,-0.64 -0.24,-0.6 -0.25,-0.56 -0.25,-0.53 -0.27,-0.48 -0.27,-0.45 -0.27,-0.42 -0.28,-0.38 -0.29,-0.35 -0.28,-0.32 -0.29,-0.28 -0.29,-0.26 -0.29,-0.23 -0.29,-0.2 -0.28,-0.18 -0.28,-0.15 -0.28,-0.12 -0.27,-0.11 -0.26,-0.08 -0.25,-0.06 0,-1.16 c 8.03,0.33 10.09,10.29 10.09,18.8 0,8.53 -2.06,18.49 -10.09,18.81 l 0,-1.15 c 2.89,-0.6 6.87,-4.53 6.87,-17.66 z"
           id="path4162"
           inkscape:connector-curvature="0"
           style="fill:#000000;stroke-width:0" /></g>    </g>
    <g
       id="g4196"
       transform="matrix(0,-0.32752323,0.32752323,0,114.46966,679.08676)">
      <g
         word-spacing="normal"
         letter-spacing="normal"
         font-size-adjust="none"
         font-stretch="normal"
         font-weight="normal"
         font-variant="normal"
         font-style="normal"
         stroke-miterlimit="10.433"
         xml:space="preserve"
         transform="matrix(1.0629921,0,0,-1.0629921,-186.02362,789.27165)"
         id="g4198"
         style="font-style:normal;font-variant:normal;font-weight:normal;font-stretch:normal;letter-spacing:normal;word-spacing:normal;text-anchor:start;fill:none;fill-opacity:1;fill-rule:evenodd;stroke:#000000;stroke-linecap:butt;stroke-linejoin:miter;stroke-miterlimit:10.43299961;stroke-dasharray:none;stroke-dashoffset:0;stroke-opacity:1"><path
           id="path4200"
           d="m 454.69,437.93 0,-1.34 c 2.58,-0.08 3.13,-0.27 4.03,-2.7 1.47,-3.85 3.17,-8.44 4.78,-13.02 l 5.18,-14.67 3.25,0 5.87,15.81 c 1.88,5.1 3.72,9.77 4.81,12.2 0.97,2.16 1.52,2.25 3.99,2.38 l 0,1.34 -10.13,0 0,-1.34 2.52,-0.22 c 1.2,-0.09 1.25,-0.55 1.01,-1.42 -0.5,-2.02 -1.92,-6.06 -3.57,-10.64 l -4.77,-13.16 -0.09,0.1 -4.27,11.78 c -1.42,3.98 -2.84,8.01 -4.03,11.68 -0.38,1.15 -0.23,1.57 0.87,1.66 l 2.38,0.22 0,1.34 z"
           inkscape:connector-curvature="0"
           style="fill:#000000;stroke-width:0" /><path
           id="path4202"
           d="m 501.54,418.26 0.09,0 0.09,0 0.09,0.01 0.09,0 0.08,0.01 0.09,0.01 0.08,0.01 0.08,0.02 0.08,0.02 0.08,0.02 0.08,0.02 0.07,0.03 0.08,0.03 0.06,0.04 0.07,0.04 0.07,0.04 0.06,0.05 0.06,0.05 0.05,0.06 0.05,0.06 0.05,0.07 0.05,0.07 0.04,0.08 0.04,0.09 0.03,0.09 0.02,0.04 0.01,0.05 0.01,0.05 0.02,0.06 0.01,0.05 0.01,0.06 0.01,0.05 0,0.06 0.01,0.06 0.01,0.07 0,0.06 0,0.07 0.01,0.07 0,0.07 c 0,2.7 -0.86,9.21 -9.25,9.21 l -0.28,-1.6 c 4.26,0 4.76,-4.35 4.76,-6.15 0,-0.87 -0.26,-1.46 -1.56,-1.46 l -8.66,0 c 0,1.89 0.69,7.61 5.46,7.61 l 0.28,1.6 c -7.16,0 -10.55,-5.09 -10.55,-11.96 0,-7.24 3.11,-11.69 10.59,-11.6 5.08,0.05 7.71,2.85 8.94,6.47 l -1.37,0.72 c -1.28,-2.66 -3.03,-4.86 -6.66,-4.86 -5.69,0 -6.83,5.52 -6.73,10.28 z"
           inkscape:connector-curvature="0"
           style="fill:#000000;stroke-width:0" /><path
           id="path4204"
           d="m 513.51,439.95 -0.33,0.26 -7.2,-1.14 0,-1.14 1.75,-0.18 c 1.19,-0.14 1.47,-0.38 1.47,-2.11 l 0,-25.46 c 0,-2.32 -0.14,-2.42 -3.44,-2.65 l 0,-1.33 11.19,0 0,1.33 c -3.27,0.23 -3.44,0.33 -3.44,2.65 z"
           inkscape:connector-curvature="0"
           style="fill:#000000;stroke-width:0" /><path
           id="path4206"
           d="m 530.88,429.21 -0.67,-0.01 -0.66,-0.04 -0.63,-0.06 -0.61,-0.09 -0.59,-0.11 -0.57,-0.14 -0.55,-0.16 -0.52,-0.18 -0.5,-0.21 -0.48,-0.23 -0.46,-0.26 -0.44,-0.28 -0.42,-0.3 -0.4,-0.32 -0.37,-0.35 -0.35,-0.36 -0.33,-0.39 -0.31,-0.41 -0.29,-0.43 -0.27,-0.46 -0.24,-0.47 -0.23,-0.5 -0.2,-0.51 -0.18,-0.53 -0.16,-0.56 -0.14,-0.57 -0.11,-0.6 -0.1,-0.61 -0.07,-0.63 -0.06,-0.65 -0.03,-0.67 -0.01,-0.69 c 0,-7.42 3.62,-11.78 10.95,-11.78 l 0,1.6 c -4.17,0 -6.18,3.86 -6.18,10.18 l 0,0 c 0,6.33 2.01,10.18 6.18,10.18 4.27,0 6.24,-3.85 6.24,-10.18 0,-6.32 -1.97,-10.18 -6.24,-10.18 l 0,-1.6 c 7.42,0 11,4.36 11,11.78 0,7.43 -3.58,11.78 -11,11.78 z"
           inkscape:connector-curvature="0"
           style="fill:#000000;stroke-width:0" /><path
           id="path4208"
           d="m 557.83,408.03 -0.25,0 -0.25,0.01 -0.24,0.02 -0.24,0.03 -0.23,0.04 -0.22,0.04 -0.22,0.05 -0.21,0.06 -0.4,0.14 -0.39,0.16 -0.36,0.19 -0.34,0.21 -0.33,0.24 -0.3,0.26 -0.28,0.28 -0.27,0.29 -0.25,0.32 -0.23,0.33 -0.21,0.35 -0.19,0.36 -0.18,0.37 -0.17,0.39 -0.15,0.39 -0.13,0.41 -0.12,0.41 -0.11,0.42 -0.1,0.42 -0.08,0.43 -0.07,0.42 -0.06,0.43 -0.05,0.43 -0.04,0.43 -0.03,0.42 -0.02,0.42 -0.01,0.42 -0.01,0.41 c 0,6.83 2.71,9.58 5.88,9.58 2.11,0 3.44,-1.52 4.34,-3.99 0.28,-0.73 0.55,-1.19 1.42,-1.19 0.93,0 2.71,0.6 2.71,2.33 0,2.11 -3.02,4.45 -7.97,4.45 -8.34,0 -11.14,-5.92 -11.14,-12.01 0,-7.66 3.75,-11.55 10.64,-11.55 3.2,0 7.51,1.69 8.8,6.6 l -1.33,0.64 c -1.42,-3.21 -3.27,-4.86 -6.61,-4.86 z"
           inkscape:connector-curvature="0"
           style="fill:#000000;stroke-width:0" /><path
           id="path4210"
           d="m 568.46,428.07 0,-1.15 1.74,-0.22 c 1.18,-0.19 1.46,-0.42 1.46,-2.06 l 0,-14.46 c 0,-2.32 -0.14,-2.42 -3.43,-2.65 l 0,-1.33 11.18,0 0,1.33 c -3.25,0.23 -3.43,0.33 -3.43,2.65 l 0,18.75 -0.33,0.28 z"
           inkscape:connector-curvature="0"
           style="fill:#000000;stroke-width:0" /><path
           id="path4212"
           d="m 573.77,438.98 -0.15,0 -0.15,-0.01 -0.15,-0.02 -0.14,-0.02 -0.14,-0.03 -0.14,-0.04 -0.13,-0.04 -0.13,-0.05 -0.13,-0.06 -0.12,-0.06 -0.12,-0.06 -0.11,-0.07 -0.11,-0.08 -0.1,-0.08 -0.1,-0.09 -0.1,-0.09 -0.09,-0.1 -0.08,-0.1 -0.08,-0.11 -0.07,-0.11 -0.07,-0.11 -0.07,-0.12 -0.06,-0.12 -0.05,-0.13 -0.05,-0.13 -0.04,-0.14 -0.03,-0.13 -0.03,-0.15 -0.02,-0.14 -0.02,-0.15 -0.01,-0.15 0,-0.15 c 0,-1.61 1.14,-2.75 2.79,-2.75 1.71,0 2.75,1.14 2.8,2.75 0,1.65 -1.09,2.84 -2.8,2.84 z"
           inkscape:connector-curvature="0"
           style="fill:#000000;stroke-width:0" /><path
           id="path4214"
           d="m 606.81,406.2 0,1.33 c -3.27,0.23 -3.44,0.33 -3.44,2.65 l 0,29.77 -0.33,0.26 -7.2,-1.14 0,-1.14 1.75,-0.18 c 1.19,-0.14 1.47,-0.38 1.47,-2.11 l 0,-7.52 c -1.28,0.69 -2.99,1.09 -5.09,1.09 l -0.05,-1.6 c 2.15,0 3.9,-1 4.72,-2.9 0.37,-0.76 0.42,-1.42 0.42,-2.65 l 0,-8.06 c 0,-1.02 -0.05,-1.8 -0.33,-2.57 -0.91,-2.39 -2.94,-3.31 -5.31,-3.31 -4.22,0 -6.33,4.13 -6.33,9.41 0,5.95 2.16,10.08 6.83,10.08 l 0.05,1.6 c -3.77,0 -6.57,-1.18 -8.49,-3.15 -1.97,-2.08 -3.16,-5.1 -3.16,-9.08 0,-6.8 3.53,-11.33 9.58,-11.33 2.47,0 4.63,1.1 7.11,3.11 l 0,-2.23 0.36,-0.33 z"
           inkscape:connector-curvature="0"
           style="fill:#000000;stroke-width:0" /><path
           id="path4216"
           d="m 627.29,423.12 -0.01,0.51 -0.01,0.26 -0.02,0.26 -0.02,0.26 -0.04,0.26 -0.04,0.26 -0.06,0.26 -0.07,0.26 -0.08,0.26 -0.09,0.26 -0.11,0.25 -0.13,0.24 -0.14,0.24 -0.17,0.24 -0.18,0.22 -0.2,0.22 -0.22,0.21 -0.25,0.21 -0.26,0.19 -0.3,0.18 -0.15,0.08 -0.16,0.09 -0.17,0.08 -0.18,0.07 -0.18,0.08 -0.19,0.07 -0.2,0.06 -0.2,0.07 -0.21,0.05 -0.22,0.06 -0.23,0.05 -0.23,0.05 -0.25,0.04 -0.25,0.04 -0.26,0.04 -0.26,0.03 -0.28,0.02 -0.28,0.03 -0.3,0.01 -0.3,0.02 -0.31,0 -0.32,0 c -5.17,0 -9.25,-2.7 -9.25,-5.23 0,-1.45 1.69,-2.14 2.56,-2.14 0.97,0 1.24,0.5 1.47,1.28 1,3.39 2.89,4.49 4.72,4.49 1.78,0 3.89,-0.91 3.89,-4.58 l 0,-1.92 0,-1.9 0,-6.45 c 0,-3.72 -2.83,-4.69 -4.62,-4.69 -2.85,0 -4.22,2.02 -4.22,4.74 0,2.14 1.01,3.25 3.58,4.2 1.83,0.7 4.26,1.56 5.26,2.2 l 0,1.9 c -1.14,-1.21 -5.59,-2.35 -9.2,-3.49 -3.31,-1.01 -4.27,-3.31 -4.27,-5.47 0,-3.44 2.29,-6.5 6.6,-6.5 2.84,0.1 5.37,1.78 6.84,2.75 0.64,-1.7 1.38,-2.75 2.97,-2.75 1.7,0 3.67,0.5 5.41,1.38 l -0.27,1.09 c -0.64,-0.14 -1.66,-0.22 -2.34,-0.05 -0.83,0.19 -1.6,1.07 -1.6,3.96 z"
           inkscape:connector-curvature="0"
           style="fill:#000000;stroke-width:0" /><path
           id="path4218"
           d="m 658.16,406.2 0,1.33 c -3.26,0.23 -3.43,0.33 -3.43,2.65 l 0,29.77 -0.33,0.26 -7.2,-1.14 0,-1.14 1.75,-0.18 c 1.18,-0.14 1.46,-0.38 1.46,-2.11 l 0,-7.52 c -1.28,0.69 -2.98,1.09 -5.09,1.09 l -0.05,-1.6 c 2.16,0 3.91,-1 4.72,-2.9 0.38,-0.76 0.42,-1.42 0.42,-2.65 l 0,-8.06 c 0,-1.02 -0.04,-1.8 -0.32,-2.57 -0.91,-2.39 -2.94,-3.31 -5.32,-3.31 -4.22,0 -6.32,4.13 -6.32,9.41 0,5.95 2.15,10.08 6.82,10.08 l 0.05,1.6 c -3.77,0 -6.56,-1.18 -8.48,-3.15 -1.97,-2.08 -3.16,-5.1 -3.16,-9.08 0,-6.8 3.53,-11.33 9.58,-11.33 2.47,0 4.62,1.1 7.11,3.11 l 0,-2.23 0.36,-0.33 z"
           inkscape:connector-curvature="0"
           style="fill:#000000;stroke-width:0" /><path
           id="path4220"
           d="m 677.36,419.12 0.01,0.61 0,0.59 0.02,0.59 0.02,0.57 0.05,1.09 0.08,1.05 0.1,1 0.11,0.95 0.13,0.91 0.15,0.85 0.17,0.82 0.18,0.76 0.19,0.73 0.21,0.68 0.22,0.64 0.23,0.6 0.24,0.56 0.25,0.53 0.26,0.49 0.27,0.45 0.27,0.42 0.28,0.38 0.29,0.35 0.28,0.32 0.3,0.29 0.29,0.26 0.29,0.24 0.29,0.2 0.3,0.18 0.29,0.16 0.29,0.13 0.28,0.11 0.28,0.08 0.27,0.07 0,1.15 c -8.03,-0.32 -10.09,-10.28 -10.09,-18.81 0,-8.51 2.06,-18.47 10.09,-18.8 l 0,1.16 c -2.67,0.55 -6.89,4.44 -6.89,17.64 z"
           inkscape:connector-curvature="0"
           style="fill:#000000;stroke-width:0" /><path
           id="path4222"
           d="m 687.13,428.07 0,-1.15 1.73,-0.22 c 1.19,-0.19 1.47,-0.42 1.47,-2.06 l 0,-14.46 c 0,-2.32 -0.14,-2.42 -3.43,-2.65 l 0,-1.33 11.18,0 0,1.33 c -3.25,0.23 -3.43,0.33 -3.43,2.65 l 0,10.74 c 0,1.14 0.04,1.78 0.35,2.42 0.88,1.84 2.9,3.41 5.43,3.41 3.93,0 4.39,-2.89 4.39,-5.74 l 0,-10.83 c 0,-2.32 -0.14,-2.42 -3.44,-2.65 l 0,-1.33 11.19,0 0,1.33 c -3.25,0.23 -3.44,0.33 -3.44,2.65 l 0,10.74 c 0,1.14 0.05,1.78 0.33,2.51 0.69,1.85 2.65,3.32 5.22,3.32 2.89,0.07 4.62,-1.75 4.62,-5.74 l 0,-10.83 c 0,-2.32 -0.12,-2.42 -3.44,-2.65 l 0,-1.33 11.19,0 0,1.33 c -3.25,0.23 -3.44,0.33 -3.44,2.65 l 0,11.74 c 0,4.64 -2.46,7.29 -6.83,7.29 -3.76,0 -6.46,-2.51 -8.06,-3.53 -1.11,2.16 -2.84,3.53 -6.06,3.53 -3.53,0 -6.42,-2.29 -8.01,-3.48 l -0.43,3.48 z"
           inkscape:connector-curvature="0"
           style="fill:#000000;stroke-width:0" /><polygon
           id="polygon4224"
           points="731.88,405.51 734.96,405.51 744.59,438.62 741.51,438.62 "
           style="fill:#000000;stroke-width:0" /><path
           id="path4226"
           d="m 765.61,422.29 0,5.36 c -1.52,1.11 -3.86,1.56 -5.92,1.56 -4.96,0 -8.3,-2.34 -8.35,-6.68 0.05,-3.82 3.13,-5.52 6.93,-6.66 2.06,-0.64 4.95,-1.69 4.95,-4.81 0,-2.35 -1.83,-3.81 -4.27,-3.81 -3.7,0 -5.76,2.71 -6.68,6.61 l -1.33,0 0.45,-6 c 1.66,-1.47 4.45,-2.21 7.16,-2.21 5.45,0 8.58,2.89 8.58,6.78 0,4.03 -2.49,5.88 -7.21,7.35 -1.87,0.59 -4.9,1.54 -4.9,4.12 0.04,2.38 1.82,3.71 4.12,3.71 3.25,0 4.81,-2.52 5.14,-5.32 z"
           inkscape:connector-curvature="0"
           style="fill:#000000;stroke-width:0" /><path
           id="path4228"
           d="m 776.84,419.12 -0.01,-0.61 -0.01,-0.6 -0.01,-0.58 -0.02,-0.58 -0.03,-0.56 -0.03,-0.54 -0.08,-1.06 -0.1,-1 -0.12,-0.95 -0.14,-0.91 -0.15,-0.86 -0.17,-0.81 -0.19,-0.77 -0.2,-0.73 -0.21,-0.68 -0.23,-0.64 -0.24,-0.6 -0.24,-0.56 -0.26,-0.53 -0.26,-0.48 -0.27,-0.45 -0.28,-0.42 -0.28,-0.38 -0.28,-0.35 -0.29,-0.32 -0.29,-0.28 -0.29,-0.26 -0.29,-0.23 -0.28,-0.2 -0.29,-0.18 -0.28,-0.15 -0.27,-0.12 -0.27,-0.11 -0.26,-0.08 -0.26,-0.06 0,-1.16 c 8.03,0.33 10.09,10.29 10.09,18.8 0,8.53 -2.06,18.49 -10.09,18.81 l 0,-1.15 c 2.89,-0.6 6.88,-4.53 6.88,-17.66 z"
           inkscape:connector-curvature="0"
           style="fill:#000000;stroke-width:0" /></g>    </g>
    <path
       inkscape:connector-curvature="0"
       id="path4455"
       style="fill:#ffffff;fill-opacity:1;fill-rule:evenodd;stroke:none"
       d="m 261.25,632.89031 290.625,0 0,-218.02 -290.625,0 0,218.02 z" />
    <path
       inkscape:connector-curvature="0"
       id="path4457"
       style="fill:none;stroke:#ffffff;stroke-width:0.625;stroke-linecap:butt;stroke-linejoin:round;stroke-miterlimit:10;stroke-dasharray:none;stroke-opacity:1"
       d="m 261.25,632.89031 0,-218.02025 290.625,0 0,218.02025 -290.625,0" />
    <path
       inkscape:connector-curvature="0"
       id="path4459"
       style="fill:none;stroke:#000000;stroke-width:0.41666624;stroke-linecap:butt;stroke-linejoin:round;stroke-miterlimit:10;stroke-dasharray:0.625, 5;stroke-dashoffset:0;stroke-opacity:1"
       d="m 261.25,632.89031 0,-218.02025" />
    <path
       inkscape:connector-curvature="0"
       id="path4461"
       style="fill:none;stroke:#000000;stroke-width:0.41666624;stroke-linecap:butt;stroke-linejoin:round;stroke-miterlimit:10;stroke-dasharray:0.625, 5;stroke-dashoffset:0;stroke-opacity:1"
       d="m 261.25,414.87006 0,0" />
    <path
       inkscape:connector-curvature="0"
       id="path4463"
       style="fill:none;stroke:#000000;stroke-width:0.41666624;stroke-linecap:butt;stroke-linejoin:round;stroke-miterlimit:10;stroke-dasharray:0.625, 5;stroke-dashoffset:0;stroke-opacity:1"
       d="m 333.854,632.89031 0,-218.02025" />
    <path
       inkscape:connector-curvature="0"
       id="path4465"
       style="fill:none;stroke:#000000;stroke-width:0.41666624;stroke-linecap:butt;stroke-linejoin:round;stroke-miterlimit:10;stroke-dasharray:0.625, 5;stroke-dashoffset:0;stroke-opacity:1"
       d="m 333.854,414.87006 0,0" />
    <path
       inkscape:connector-curvature="0"
       id="path4467"
       style="fill:none;stroke:#000000;stroke-width:0.41666624;stroke-linecap:butt;stroke-linejoin:round;stroke-miterlimit:10;stroke-dasharray:0.625, 5;stroke-dashoffset:0;stroke-opacity:1"
       d="m 406.5625,632.89031 0,-218.02025" />
    <path
       inkscape:connector-curvature="0"
       id="path4469"
       style="fill:none;stroke:#000000;stroke-width:0.41666624;stroke-linecap:butt;stroke-linejoin:round;stroke-miterlimit:10;stroke-dasharray:0.625, 5;stroke-dashoffset:0;stroke-opacity:1"
       d="m 406.5625,414.87006 0,0" />
    <path
       inkscape:connector-curvature="0"
       id="path4471"
       style="fill:none;stroke:#000000;stroke-width:0.41666624;stroke-linecap:butt;stroke-linejoin:round;stroke-miterlimit:10;stroke-dasharray:0.625, 5;stroke-dashoffset:0;stroke-opacity:1"
       d="m 479.16625,632.89031 0,-218.02025" />
    <path
       inkscape:connector-curvature="0"
       id="path4473"
       style="fill:none;stroke:#000000;stroke-width:0.41666624;stroke-linecap:butt;stroke-linejoin:round;stroke-miterlimit:10;stroke-dasharray:0.625, 5;stroke-dashoffset:0;stroke-opacity:1"
       d="m 479.16625,414.87006 0,0" />
    <path
       inkscape:connector-curvature="0"
       id="path4475"
       style="fill:none;stroke:#000000;stroke-width:0.41666624;stroke-linecap:butt;stroke-linejoin:round;stroke-miterlimit:10;stroke-dasharray:0.625, 5;stroke-dashoffset:0;stroke-opacity:1"
       d="m 551.875,632.89031 0,-218.02025" />
    <path
       inkscape:connector-curvature="0"
       id="path4477"
       style="fill:none;stroke:#000000;stroke-width:0.41666624;stroke-linecap:butt;stroke-linejoin:round;stroke-miterlimit:10;stroke-dasharray:0.625, 5;stroke-dashoffset:0;stroke-opacity:1"
       d="m 551.875,414.87006 0,0" />
    <path
       inkscape:connector-curvature="0"
       id="path4479"
       style="fill:none;stroke:#000000;stroke-width:0.41666624;stroke-linecap:butt;stroke-linejoin:round;stroke-miterlimit:10;stroke-dasharray:0.625, 5;stroke-dashoffset:0;stroke-opacity:1"
       d="m 261.25,632.89031 290.625,0" />
    <path
       inkscape:connector-curvature="0"
       id="path4481"
       style="fill:none;stroke:#000000;stroke-width:0.41666624;stroke-linecap:butt;stroke-linejoin:round;stroke-miterlimit:10;stroke-dasharray:0.625, 5;stroke-dashoffset:0;stroke-opacity:1"
       d="m 551.875,632.89031 0,0" />
    <path
       inkscape:connector-curvature="0"
       id="path4483"
       style="fill:none;stroke:#000000;stroke-width:0.41666624;stroke-linecap:butt;stroke-linejoin:round;stroke-miterlimit:10;stroke-dasharray:0.625, 5;stroke-dashoffset:0;stroke-opacity:1"
       d="m 261.25,596.53631 290.625,0" />
    <path
       inkscape:connector-curvature="0"
       id="path4485"
       style="fill:none;stroke:#000000;stroke-width:0.41666624;stroke-linecap:butt;stroke-linejoin:round;stroke-miterlimit:10;stroke-dasharray:0.625, 5;stroke-dashoffset:0;stroke-opacity:1"
       d="m 551.875,596.53631 0,0" />
    <path
       inkscape:connector-curvature="0"
       id="path4487"
       style="fill:none;stroke:#000000;stroke-width:0.41666624;stroke-linecap:butt;stroke-linejoin:round;stroke-miterlimit:10;stroke-dasharray:0.625, 5;stroke-dashoffset:0;stroke-opacity:1"
       d="m 261.25,560.18231 290.625,0" />
    <path
       inkscape:connector-curvature="0"
       id="path4489"
       style="fill:none;stroke:#000000;stroke-width:0.41666624;stroke-linecap:butt;stroke-linejoin:round;stroke-miterlimit:10;stroke-dasharray:0.625, 5;stroke-dashoffset:0;stroke-opacity:1"
       d="m 551.875,560.18231 0,0" />
    <path
       inkscape:connector-curvature="0"
       id="path4491"
       style="fill:none;stroke:#000000;stroke-width:0.41666624;stroke-linecap:butt;stroke-linejoin:round;stroke-miterlimit:10;stroke-dasharray:0.625, 5;stroke-dashoffset:0;stroke-opacity:1"
       d="m 261.25,523.82756 290.625,0" />
    <path
       inkscape:connector-curvature="0"
       id="path4493"
       style="fill:none;stroke:#000000;stroke-width:0.41666624;stroke-linecap:butt;stroke-linejoin:round;stroke-miterlimit:10;stroke-dasharray:0.625, 5;stroke-dashoffset:0;stroke-opacity:1"
       d="m 551.875,523.82756 0,0" />
    <path
       inkscape:connector-curvature="0"
       id="path4495"
       style="fill:none;stroke:#000000;stroke-width:0.41666624;stroke-linecap:butt;stroke-linejoin:round;stroke-miterlimit:10;stroke-dasharray:0.625, 5;stroke-dashoffset:0;stroke-opacity:1"
       d="m 261.25,487.47381 290.625,0" />
    <path
       inkscape:connector-curvature="0"
       id="path4497"
       style="fill:none;stroke:#000000;stroke-width:0.41666624;stroke-linecap:butt;stroke-linejoin:round;stroke-miterlimit:10;stroke-dasharray:0.625, 5;stroke-dashoffset:0;stroke-opacity:1"
       d="m 551.875,487.47381 0,0" />
    <path
       inkscape:connector-curvature="0"
       id="path4499"
       style="fill:none;stroke:#000000;stroke-width:0.41666624;stroke-linecap:butt;stroke-linejoin:round;stroke-miterlimit:10;stroke-dasharray:0.625, 5;stroke-dashoffset:0;stroke-opacity:1"
       d="m 261.25,451.12006 290.625,0" />
    <path
       inkscape:connector-curvature="0"
       id="path4501"
       style="fill:none;stroke:#000000;stroke-width:0.41666624;stroke-linecap:butt;stroke-linejoin:round;stroke-miterlimit:10;stroke-dasharray:0.625, 5;stroke-dashoffset:0;stroke-opacity:1"
       d="m 551.875,451.12006 0,0" />
    <path
       inkscape:connector-curvature="0"
       id="path4503"
       style="fill:none;stroke:#000000;stroke-width:0.41666624;stroke-linecap:butt;stroke-linejoin:round;stroke-miterlimit:10;stroke-dasharray:0.625, 5;stroke-dashoffset:0;stroke-opacity:1"
       d="m 261.25,414.87006 290.625,0" />
    <path
       inkscape:connector-curvature="0"
       id="path4505"
       style="fill:none;stroke:#000000;stroke-width:0.41666624;stroke-linecap:butt;stroke-linejoin:round;stroke-miterlimit:10;stroke-dasharray:0.625, 5;stroke-dashoffset:0;stroke-opacity:1"
       d="m 551.875,414.87006 0,0" />
    <path
       inkscape:connector-curvature="0"
       id="path4507"
       style="fill:none;stroke:#000000;stroke-width:0.625;stroke-linecap:butt;stroke-linejoin:round;stroke-miterlimit:10;stroke-dasharray:none;stroke-opacity:1"
       d="m 261.25,632.89031 290.625,0" />
    <path
       inkscape:connector-curvature="0"
       id="path4509"
       style="fill:none;stroke:#000000;stroke-width:0.625;stroke-linecap:butt;stroke-linejoin:round;stroke-miterlimit:10;stroke-dasharray:none;stroke-opacity:1"
       d="m 261.25,632.89031 0,-218.02025" />
    <path
       inkscape:connector-curvature="0"
       id="path4511"
       style="fill:none;stroke:#000000;stroke-width:0.625;stroke-linecap:butt;stroke-linejoin:round;stroke-miterlimit:10;stroke-dasharray:none;stroke-opacity:1"
       d="m 261.25,632.89031 0,-2.9165" />
    <g
       transform="matrix(1.25,0,0,-1.25,212.5,667.16131)"
       id="g4513">
      <text
         id="text4515"
         style="font-variant:normal;font-weight:normal;font-size:11px;font-family:'Times New Roman';-inkscape-font-specification:Times-Roman;writing-mode:lr-tb;fill:#000000;fill-opacity:1;fill-rule:nonzero;stroke:none"
         transform="matrix(1,0,0,-1,36.25,14.75)">
        <tspan
           id="tspan4517"
           y="0"
           x="0">0</tspan>
      </text>
    </g>
    <path
       inkscape:connector-curvature="0"
       id="path4519"
       style="fill:none;stroke:#000000;stroke-width:0.625;stroke-linecap:butt;stroke-linejoin:round;stroke-miterlimit:10;stroke-dasharray:none;stroke-opacity:1"
       d="m 333.854,632.89031 0,-2.9165" />
    <g
       transform="matrix(1.25,0,0,-1.25,212.5,667.16131)"
       id="g4521">
      <text
         id="text4523"
         style="font-variant:normal;font-weight:normal;font-size:11px;font-family:'Times New Roman';-inkscape-font-specification:Times-Roman;writing-mode:lr-tb;fill:#000000;fill-opacity:1;fill-rule:nonzero;stroke:none"
         transform="matrix(1,0,0,-1,94.3332,14.75)">
        <tspan
           id="tspan4525"
           y="0"
           x="0">2</tspan>
      </text>
    </g>
    <path
       inkscape:connector-curvature="0"
       id="path4527"
       style="fill:none;stroke:#000000;stroke-width:0.625;stroke-linecap:butt;stroke-linejoin:round;stroke-miterlimit:10;stroke-dasharray:none;stroke-opacity:1"
       d="m 406.5625,632.89031 0,-2.9165" />
    <g
       transform="matrix(1.25,0,0,-1.25,212.5,667.16131)"
       id="g4529">
      <text
         id="text4531"
         style="font-variant:normal;font-weight:normal;font-size:11px;font-family:'Times New Roman';-inkscape-font-specification:Times-Roman;writing-mode:lr-tb;fill:#000000;fill-opacity:1;fill-rule:nonzero;stroke:none"
         transform="matrix(1,0,0,-1,152.5,14.75)">
        <tspan
           id="tspan4533"
           y="0"
           x="0">4</tspan>
      </text>
    </g>
    <path
       inkscape:connector-curvature="0"
       id="path4535"
       style="fill:none;stroke:#000000;stroke-width:0.625;stroke-linecap:butt;stroke-linejoin:round;stroke-miterlimit:10;stroke-dasharray:none;stroke-opacity:1"
       d="m 479.16625,632.89031 0,-2.9165" />
    <g
       transform="matrix(1.25,0,0,-1.25,212.5,667.16131)"
       id="g4537">
      <text
         id="text4539"
         style="font-variant:normal;font-weight:normal;font-size:11px;font-family:'Times New Roman';-inkscape-font-specification:Times-Roman;writing-mode:lr-tb;fill:#000000;fill-opacity:1;fill-rule:nonzero;stroke:none"
         transform="matrix(1,0,0,-1,210.583,14.75)">
        <tspan
           id="tspan4541"
           y="0"
           x="0">6</tspan>
      </text>
    </g>
    <path
       inkscape:connector-curvature="0"
       id="path4543"
       style="fill:none;stroke:#000000;stroke-width:0.625;stroke-linecap:butt;stroke-linejoin:round;stroke-miterlimit:10;stroke-dasharray:none;stroke-opacity:1"
       d="m 551.875,632.89031 0,-2.9165" />
    <g
       transform="matrix(1.25,0,0,-1.25,212.5,667.16131)"
       id="g4545">
      <text
         id="text4547"
         style="font-variant:normal;font-weight:normal;font-size:11px;font-family:'Times New Roman';-inkscape-font-specification:Times-Roman;writing-mode:lr-tb;fill:#000000;fill-opacity:1;fill-rule:nonzero;stroke:none"
         transform="matrix(1,0,0,-1,268.75,14.75)">
        <tspan
           id="tspan4549"
           y="0"
           x="0">8</tspan>
      </text>
    </g>
    <path
       inkscape:connector-curvature="0"
       id="path4551"
       style="fill:none;stroke:#000000;stroke-width:0.625;stroke-linecap:butt;stroke-linejoin:round;stroke-miterlimit:10;stroke-dasharray:none;stroke-opacity:1"
       d="m 261.25,632.89031 2.8125,0" />
    <g
       transform="matrix(1.25,0,0,-1.25,212.5,667.16131)"
       id="g4553">
      <text
         id="text4555"
         style="font-variant:normal;font-weight:normal;font-size:11px;font-family:'Times New Roman';-inkscape-font-specification:Times-Roman;writing-mode:lr-tb;fill:#000000;fill-opacity:1;fill-rule:nonzero;stroke:none"
         transform="matrix(1,0,0,-1,22.3332,23.5)">
        <tspan
           id="tspan4557"
           sodipodi:role="line"
           y="0"
           x="0 5.5 8.25">5.5</tspan>
      </text>
    </g>
    <path
       inkscape:connector-curvature="0"
       id="path4559"
       style="fill:none;stroke:#000000;stroke-width:0.625;stroke-linecap:butt;stroke-linejoin:round;stroke-miterlimit:10;stroke-dasharray:none;stroke-opacity:1"
       d="m 261.25,596.53631 2.8125,0" />
    <g
       transform="matrix(1.25,0,0,-1.25,212.5,667.16131)"
       id="g4561">
      <text
         id="text4563"
         style="font-variant:normal;font-weight:normal;font-size:11px;font-family:'Times New Roman';-inkscape-font-specification:Times-Roman;writing-mode:lr-tb;fill:#000000;fill-opacity:1;fill-rule:nonzero;stroke:none"
         transform="matrix(1,0,0,-1,30.5832,52.5832)">
        <tspan
           id="tspan4565"
           y="0"
           x="0">6</tspan>
      </text>
    </g>
    <path
       inkscape:connector-curvature="0"
       id="path4567"
       style="fill:none;stroke:#000000;stroke-width:0.625;stroke-linecap:butt;stroke-linejoin:round;stroke-miterlimit:10;stroke-dasharray:none;stroke-opacity:1"
       d="m 261.25,560.18231 2.8125,0" />
    <g
       transform="matrix(1.25,0,0,-1.25,212.5,667.16131)"
       id="g4569">
      <text
         id="text4571"
         style="font-variant:normal;font-weight:normal;font-size:11px;font-family:'Times New Roman';-inkscape-font-specification:Times-Roman;writing-mode:lr-tb;fill:#000000;fill-opacity:1;fill-rule:nonzero;stroke:none"
         transform="matrix(1,0,0,-1,22.3332,81.6668)">
        <tspan
           id="tspan4573"
           sodipodi:role="line"
           y="0"
           x="0 5.5 8.25">6.5</tspan>
      </text>
    </g>
    <path
       inkscape:connector-curvature="0"
       id="path4575"
       style="fill:none;stroke:#000000;stroke-width:0.625;stroke-linecap:butt;stroke-linejoin:round;stroke-miterlimit:10;stroke-dasharray:none;stroke-opacity:1"
       d="m 261.25,523.82756 2.8125,0" />
    <g
       transform="matrix(1.25,0,0,-1.25,212.5,667.16131)"
       id="g4577">
      <text
         id="text4579"
         style="font-variant:normal;font-weight:normal;font-size:11px;font-family:'Times New Roman';-inkscape-font-specification:Times-Roman;writing-mode:lr-tb;fill:#000000;fill-opacity:1;fill-rule:nonzero;stroke:none"
         transform="matrix(1,0,0,-1,30.5832,110.75)">
        <tspan
           id="tspan4581"
           y="0"
           x="0">7</tspan>
      </text>
    </g>
    <path
       inkscape:connector-curvature="0"
       id="path4583"
       style="fill:none;stroke:#000000;stroke-width:0.625;stroke-linecap:butt;stroke-linejoin:round;stroke-miterlimit:10;stroke-dasharray:none;stroke-opacity:1"
       d="m 261.25,487.47381 2.8125,0" />
    <g
       transform="matrix(1.25,0,0,-1.25,212.5,667.16131)"
       id="g4585">
      <text
         id="text4587"
         style="font-variant:normal;font-weight:normal;font-size:11px;font-family:'Times New Roman';-inkscape-font-specification:Times-Roman;writing-mode:lr-tb;fill:#000000;fill-opacity:1;fill-rule:nonzero;stroke:none"
         transform="matrix(1,0,0,-1,22.3332,139.833)">
        <tspan
           id="tspan4589"
           sodipodi:role="line"
           y="0"
           x="0 5.5 8.25">7.5</tspan>
      </text>
    </g>
    <path
       inkscape:connector-curvature="0"
       id="path4591"
       style="fill:none;stroke:#000000;stroke-width:0.625;stroke-linecap:butt;stroke-linejoin:round;stroke-miterlimit:10;stroke-dasharray:none;stroke-opacity:1"
       d="m 261.25,451.12006 2.8125,0" />
    <g
       transform="matrix(1.25,0,0,-1.25,212.5,667.16131)"
       id="g4593">
      <text
         id="text4595"
         style="font-variant:normal;font-weight:normal;font-size:11px;font-family:'Times New Roman';-inkscape-font-specification:Times-Roman;writing-mode:lr-tb;fill:#000000;fill-opacity:1;fill-rule:nonzero;stroke:none"
         transform="matrix(1,0,0,-1,30.5832,168.917)">
        <tspan
           id="tspan4597"
           y="0"
           x="0">8</tspan>
      </text>
    </g>
    <path
       inkscape:connector-curvature="0"
       id="path4599"
       style="fill:none;stroke:#000000;stroke-width:0.625;stroke-linecap:butt;stroke-linejoin:round;stroke-miterlimit:10;stroke-dasharray:none;stroke-opacity:1"
       d="m 261.25,414.87006 2.8125,0" />
    <g
       transform="matrix(1.25,0,0,-1.25,212.5,667.16131)"
       id="g4601">
      <text
         id="text4603"
         style="font-variant:normal;font-weight:normal;font-size:11px;font-family:'Times New Roman';-inkscape-font-specification:Times-Roman;writing-mode:lr-tb;fill:#000000;fill-opacity:1;fill-rule:nonzero;stroke:none"
         transform="matrix(1,0,0,-1,22.3332,197.917)">
        <tspan
           id="tspan4605"
           sodipodi:role="line"
           y="0"
           x="0 5.5 8.25">8.5</tspan>
      </text>
    </g>
    <g
       id="g4607"
       transform="matrix(0.125,0,0,-0.125,212.5,667.16131)">
      <g
         clip-path="url(#clipPath4611)"
         id="g4609">
        <path
           inkscape:connector-curvature="0"
           id="path4615"
           style="fill:none;stroke:#0000ff;stroke-width:5;stroke-linecap:butt;stroke-linejoin:round;stroke-miterlimit:10;stroke-dasharray:60;stroke-dashoffset:0;stroke-opacity:1"
           d="m 2465.83,1146.67 248.34,0 0.83,-72.5" />
        <path
           inkscape:connector-curvature="0"
           id="path4617"
           style="fill:none;stroke:#0000ff;stroke-width:5;stroke-linecap:butt;stroke-linejoin:round;stroke-miterlimit:10;stroke-dasharray:60;stroke-dashoffset:0;stroke-opacity:1"
           d="m 2216.67,1146.67 249.16,0" />
        <path
           inkscape:connector-curvature="0"
           id="path4619"
           style="fill:none;stroke:#0000ff;stroke-width:5;stroke-linecap:butt;stroke-linejoin:round;stroke-miterlimit:10;stroke-dasharray:60;stroke-dashoffset:0;stroke-opacity:1"
           d="m 1968.33,565 134.17,0 0,581.67 114.17,0" />
        <path
           inkscape:connector-curvature="0"
           id="path4621"
           style="fill:none;stroke:#0000ff;stroke-width:5;stroke-linecap:butt;stroke-linejoin:round;stroke-miterlimit:10;stroke-dasharray:60;stroke-dashoffset:0;stroke-opacity:1"
           d="m 1719.17,565 249.16,0" />
        <path
           inkscape:connector-curvature="0"
           id="path4623"
           style="fill:none;stroke:#0000ff;stroke-width:5;stroke-linecap:butt;stroke-linejoin:round;stroke-miterlimit:10;stroke-dasharray:60;stroke-dashoffset:0;stroke-opacity:1"
           d="m 1470.83,1728.33 16.67,0 0,-1163.33 231.67,0" />
        <path
           inkscape:connector-curvature="0"
           id="path4625"
           style="fill:none;stroke:#0000ff;stroke-width:5;stroke-linecap:butt;stroke-linejoin:round;stroke-miterlimit:10;stroke-dasharray:60;stroke-dashoffset:0;stroke-opacity:1"
           d="m 1221.67,1728.33 249.16,0" />
        <path
           inkscape:connector-curvature="0"
           id="path4627"
           style="fill:none;stroke:#0000ff;stroke-width:5;stroke-linecap:butt;stroke-linejoin:round;stroke-miterlimit:10;stroke-dasharray:60;stroke-dashoffset:0;stroke-opacity:1"
           d="m 972.5,1728.33 249.17,0" />
        <path
           inkscape:connector-curvature="0"
           id="path4629"
           style="fill:none;stroke:#0000ff;stroke-width:5;stroke-linecap:butt;stroke-linejoin:round;stroke-miterlimit:10;stroke-dasharray:60;stroke-dashoffset:0;stroke-opacity:1"
           d="m 724.168,1074.17 148.332,0 0,654.16 100,0" />
        <path
           inkscape:connector-curvature="0"
           id="path4631"
           style="fill:none;stroke:#0000ff;stroke-width:5;stroke-linecap:butt;stroke-linejoin:round;stroke-miterlimit:10;stroke-dasharray:60;stroke-dashoffset:0;stroke-opacity:1"
           d="m 475,1074.17 249.168,0" />
        <path
           inkscape:connector-curvature="0"
           id="path4633"
           style="fill:none;stroke:#0000ff;stroke-width:5;stroke-linecap:butt;stroke-linejoin:round;stroke-miterlimit:10;stroke-dasharray:60;stroke-dashoffset:0;stroke-opacity:1"
           d="m 390,1074.17 85,0" />
        <path
           inkscape:connector-curvature="0"
           id="path4635"
           style="fill:none;stroke:#000000;stroke-width:5;stroke-linecap:butt;stroke-linejoin:round;stroke-miterlimit:10;stroke-dasharray:none;stroke-opacity:1"
           d="m 2465.83,1146.67 249.17,0" />
        <path
           inkscape:connector-curvature="0"
           id="path4637"
           style="fill:none;stroke:#000000;stroke-width:5;stroke-linecap:butt;stroke-linejoin:round;stroke-miterlimit:10;stroke-dasharray:none;stroke-opacity:1"
           d="m 2216.67,1147.5 29.16,0 0.84,-0.83 219.16,0" />
        <path
           inkscape:connector-curvature="0"
           id="path4639"
           style="fill:none;stroke:#000000;stroke-width:5;stroke-linecap:butt;stroke-linejoin:round;stroke-miterlimit:10;stroke-dasharray:none;stroke-opacity:1"
           d="m 2018.33,565 106.67,0 0.83,0.832 0.84,0.836 0.83,0.832 0,2.5 0.83,0.832 0,4.168 0.84,0.832 0,5.836 0.83,0.832 0,6.668 0.83,0.832 0,9.168 0.84,0.832 0,9.168 0.83,0.832 0,10.832 0.83,0.836 0,11.664 0.84,0.836 0,11.664 0.83,0.836 0,13.332 0.83,0.832 0,12.5 0.84,0.836 0,14.164 0.83,0.836 0,13.332 0.83,0.832 0,14.168 0.84,0.832 0,13.336 0.83,0.832 0,14.168 0.83,0.832 0,14.168 0.84,0.832 0,14.168 0.83,0.832 0,13.332 0.83,0.836 0,14.164 0.84,0.836 0,13.332 0.83,0.832 0,14.168 0.83,0.832 0,12.5 0.84,0.836 0,13.332 0.83,0.832 0,12.5 0.83,0.836 0,12.5 0.84,0.832 0,11.668 0.83,0.832 0,11.668 0.83,0.832 0,10.832 0.84,0.836 0,11.664 0.83,0.836 0,10 0.83,0.832 0,10 0.84,0.832 0,9.168 0.83,0.832 0,10 0.83,0.836 0,8.332 0.84,0.832 0,9.168 0.83,0.83 0,7.5 0.83,0.84 0,7.5 0.84,0.83 0,7.5 0.83,0.83 0,6.67 0.83,0.83 0,6.67 0.84,0.83 0,5.84 0.83,0.83 0,5.83 0.83,0.84 0,5.83 0.84,0.83 0,5 0.83,0.84 0,5 0.83,0.83 0,3.33 0.84,0.84 0,5 0.83,0.83 0,3.33 0.83,0.84 0,4.16 0.84,0.84 0,3.33 0.83,0.83 0,2.5 0.83,0.84 0,3.33 0.84,0.83 0,2.5 0.83,0.84 0,2.5 0.83,0.83 0,2.5 0.84,0.83 0,1.67 0.83,0.83 0,1.67 0.83,0.83 0,1.67 0.84,0.83 0,1.67 0.83,0.83 0,1.67 1.67,1.67 0,1.66 1.66,1.67 0,1.67 1.67,1.66 0,0.84 1.67,1.66 0,0.84 1.66,1.66 0,0.84 0.84,0.83 0.83,0.83 0.83,0.84 0.84,0.83 0.83,0 0.83,0.83 0.84,0.84 0.83,0 0.83,0.83 0.84,0 0.83,0.83 1.67,0 0.83,0.84 3.33,0 0.84,0.83 15,0" />
        <path
           inkscape:connector-curvature="0"
           id="path4641"
           style="fill:none;stroke:#000000;stroke-width:5;stroke-linecap:butt;stroke-linejoin:round;stroke-miterlimit:10;stroke-dasharray:none;stroke-opacity:1"
           d="m 1769.17,565 249.16,0" />
        <path
           inkscape:connector-curvature="0"
           id="path4643"
           style="fill:none;stroke:#000000;stroke-width:5;stroke-linecap:butt;stroke-linejoin:round;stroke-miterlimit:10;stroke-dasharray:none;stroke-opacity:1"
           d="m 1549.17,888.332 0.83,-0.832 0,-17.5 0.83,-0.832 0,-15.836 0.84,-0.832 0,-15.832 0.83,-0.836 0,-15 0.83,-0.832 0,-13.332 0.84,-0.836 0,-13.332 0.83,-0.832 0,-12.5 0.83,-0.836 0,-13.332 0.84,-0.832 0,-10.836 0.83,-0.832 0,-11.668 0.83,-0.832 0,-10 0.84,-0.832 0,-10.836 0.83,-0.832 0,-8.332 0.83,-0.836 0,-9.164 0.84,-0.836 0,-8.332 0.83,-0.832 0,-8.336 0.83,-0.832 0,-6.668 0.84,-0.832 0,-7.5 0.83,-0.832 0,-5.836 0.83,-0.832 0,-6.668 0.84,-0.832 0,-5 0.83,-0.832 0,-5.836 0.83,-0.832 0,-4.168 0.84,-0.832 0,-5 0.83,-0.832 0,-4.168 0.83,-0.832 0,-3.336 0.84,-0.832 0,-4.168 0.83,-0.832 0,-3.332 0.83,-0.836 0,-2.5 0.84,-0.832 0,-2.5 0.83,-0.832 0,-2.5 0.83,-0.836 0,-2.5 0.84,-0.832 0,-1.668 0.83,-0.832 0,-2.5 0.83,-0.832 0,-1.668 1.67,-1.668 0,-2.5 1.67,-1.664 0,-1.668 1.66,-1.668 0,-1.664 1.67,-1.668 0,-0.832 1.67,-1.668 0,-0.832 0.83,-0.836 0.83,-0.832 0.84,-0.832 0.83,-0.836 0.83,-0.832 0.84,-0.832 0.83,0 0.83,-0.836 0.84,0 0.83,-0.832 0.83,0 0.84,-0.832 2.5,0 0.83,-0.836 5.83,0 0.84,-0.832 5,0 0.83,0.832 13.33,0 0.84,0.836 16.66,0 0.84,0.832 125,0" />
        <path
           inkscape:connector-curvature="0"
           id="path4645"
           style="fill:none;stroke:#000000;stroke-width:5;stroke-linecap:butt;stroke-linejoin:round;stroke-miterlimit:10;stroke-dasharray:none;stroke-opacity:1"
           d="m 1335.83,1728.33 174.17,0 0.83,-0.83 0.84,0 1.66,-1.67 0,-4.16 0.84,-0.84 0,-5.83 0.83,-0.83 0,-8.34 0.83,-0.83 0,-11.67 0.84,-0.83 0,-14.17 0.83,-0.83 0,-16.67 0.83,-0.83 0,-18.33 0.84,-0.84 0,-19.16 0.83,-0.84 0,-20 0.83,-0.83 0,-19.17 0.84,-0.83 0,-20 0.83,-1.67 0,-18.33 0.83,-1.67 0,-20 0.84,-0.83 0,-19.17 0.83,-0.83 0,-20 0.83,-0.83 0,-19.17 0.84,-0.83 0,-20 0.83,-0.84 0,-19.16 0.83,-0.84 0,-20 0.84,-0.83 0,-19.17 0.83,-0.83 0,-20 0.83,-0.83 0,-18.34 0.84,-1.66 0,-20 0.83,-0.84 0,-18.33 0.83,-1.67 0,-19.16 0.84,-1.67 0,-18.33 0.83,-1.67 0,-19.17 0.83,-1.66 0,-18.34 0.84,-1.66 0,-20 0.83,-0.84 0,-19.16 0.83,-0.84 0,-20 0.84,-0.83 0,-19.17 0.83,-0.83 0,-20 0.83,-1.67 0,-18.33 0.84,-1.67 0,-20 0.83,-0.83 0,-19.17 0.83,-0.83 0,-20.83 0.84,-0.84 0,-19.16 0.83,-0.84 0,-19.998 0.83,-1.664 0,-17.5 0.84,-0.836 0,-20 0.83,-1.664 0,-18.336 0.83,-0.832 0,-18.332 0.84,-0.836 0,-17.5" />
        <path
           inkscape:connector-curvature="0"
           id="path4647"
           style="fill:none;stroke:#000000;stroke-width:5;stroke-linecap:butt;stroke-linejoin:round;stroke-miterlimit:10;stroke-dasharray:none;stroke-opacity:1"
           d="m 1086.67,1728.33 249.16,0" />
        <path
           inkscape:connector-curvature="0"
           id="path4649"
           style="fill:none;stroke:#000000;stroke-width:5;stroke-linecap:butt;stroke-linejoin:round;stroke-miterlimit:10;stroke-dasharray:none;stroke-opacity:1"
           d="m 890,1074.17 5,0 0.832,0.83 0.836,0.83 0.832,0.84 0,1.66 0.832,0.84 0,3.33 0.836,0.83 0,5 0.832,0.84 0,6.66 0.832,0.84 0,8.33 0.836,0.83 0,10.84 0.832,0.83 0,10.83 0.832,0.84 0,12.5 0.836,0.83 0,12.5 0.832,0.83 0,14.17 0.832,0.83 0,14.17 0.836,0.83 0,15.84 0.832,0.83 0,14.17 0.832,0.83 0,16.67 0.836,0.83 0,15 0.832,0.83 0,16.67 0.832,0.83 0,15 0.836,0.84 0,16.66 0.832,0.84 0,15 0.832,1.66 0,15.84 0.836,0.83 0,15 0.832,0.83 0,15.84 0.832,0.83 0,15 0.836,0.83 0,15 0.832,0.84 0,14.16 0.832,0.84 0,15 0.836,0.83 0,13.33 0.832,0.84 0,13.33 0.832,0.83 0,12.5 0.836,0.84 0,13.33 0.832,0.83 0,11.67 0.832,0.83 0,11.67 0.836,0.83 0,11.67 0.832,0.83 0,10.84 0.832,0.83 0,10 0.836,0.83 0,10 0.832,0.84 0,9.16 0.832,0.84 0,9.16 0.836,0.84 0,8.33 0.832,0.83 0,8.34 0.832,0.83 0,7.5 0.836,0.83 0,7.5 0.832,0.84 0,6.66 0.832,0.84 0,6.66 0.836,0.84 0,5.83 0.832,0.83 0,5.84 0.832,0.83 0,5 0.836,0.83 0,5 0.832,0.84 0,5 0.832,0.83 0,4.17 0.836,0.83 0,4.17 0.832,0.83 0,3.33 0.832,0.84 0,4.16 0.836,0.84 0,2.5 0.832,0.83 0,3.33 0.832,0.84 0,2.5 0.836,0.83 0,2.5 0.832,0.83 0,2.5 0.832,0.84 0,1.66 0.836,0.84 0,2.5 0.832,0.83 0,1.67 0.832,0.83 0,0.83 0.836,0.84 0,1.66 1.664,1.67 0,2.5 1.668,1.67 0,1.66 0.832,0.84 1.668,1.66 0,0.84 1.668,1.66 0,0.84 0.832,0.83 0.832,0.83 0.836,0.84 0.832,0.83 0.832,0.83 0.836,0.84 0.832,0.83 0.832,0 0.836,0.83 0.832,0 0.832,0.84 0.836,0 0.832,0.83 2.5,0 0.832,0.83 3.336,0 0.832,0.84 35.83,0 0.84,-0.84 75,0" />
        <path
           inkscape:connector-curvature="0"
           id="path4651"
           style="fill:none;stroke:#000000;stroke-width:5;stroke-linecap:butt;stroke-linejoin:round;stroke-miterlimit:10;stroke-dasharray:none;stroke-opacity:1"
           d="m 640.832,1074.17 249.168,0" />
        <path
           inkscape:connector-curvature="0"
           id="path4653"
           style="fill:none;stroke:#000000;stroke-width:5;stroke-linecap:butt;stroke-linejoin:round;stroke-miterlimit:10;stroke-dasharray:none;stroke-opacity:1"
           d="m 391.668,1074.17 249.164,0" />
        <path
           inkscape:connector-curvature="0"
           id="path4655"
           style="fill:none;stroke:#000000;stroke-width:5;stroke-linecap:butt;stroke-linejoin:round;stroke-miterlimit:10;stroke-dasharray:none;stroke-opacity:1"
           d="m 390,1074.17 1.668,0" />
      </g>
    </g>
    <path
       inkscape:connector-curvature="0"
       id="path4677"
       style="fill:#ffffff;fill-opacity:1;fill-rule:evenodd;stroke:none"
       d="m 472.1875,463.62006 73.4375,0 0,-42.5 -73.4375,0 0,42.5 z" />
    <path
       inkscape:connector-curvature="0"
       id="path4679"
       style="fill:none;stroke:#ffffff;stroke-width:0.625;stroke-linecap:butt;stroke-linejoin:round;stroke-miterlimit:10;stroke-dasharray:none;stroke-opacity:1"
       d="m 472.1875,463.62006 0,-42.5 73.4375,0 0,42.5 -73.4375,0" />
    <path
       inkscape:connector-curvature="0"
       id="path4681"
       style="fill:none;stroke:#000000;stroke-width:0.625;stroke-linecap:butt;stroke-linejoin:round;stroke-miterlimit:10;stroke-dasharray:none;stroke-opacity:1"
       d="m 472.1875,421.12006 73.4375,0" />
    <path
       inkscape:connector-curvature="0"
       id="path4683"
       style="fill:none;stroke:#000000;stroke-width:0.625;stroke-linecap:butt;stroke-linejoin:round;stroke-miterlimit:10;stroke-dasharray:none;stroke-opacity:1"
       d="m 472.1875,463.62006 73.4375,0" />
    <path
       inkscape:connector-curvature="0"
       id="path4685"
       style="fill:none;stroke:#000000;stroke-width:0.625;stroke-linecap:butt;stroke-linejoin:round;stroke-miterlimit:10;stroke-dasharray:none;stroke-opacity:1"
       d="m 545.625,463.62006 0,-42.5" />
    <path
       inkscape:connector-curvature="0"
       id="path4687"
       style="fill:none;stroke:#000000;stroke-width:0.625;stroke-linecap:butt;stroke-linejoin:round;stroke-miterlimit:10;stroke-dasharray:none;stroke-opacity:1"
       d="m 472.1875,463.62006 0,-42.5" />
    <path
       inkscape:connector-curvature="0"
       id="path4689"
       style="fill:none;stroke:#000000;stroke-width:0.625;stroke-linecap:butt;stroke-linejoin:round;stroke-miterlimit:10;stroke-dasharray:none;stroke-opacity:1"
       d="m 472.1875,463.62006 73.4375,0" />
    <path
       inkscape:connector-curvature="0"
       id="path4691"
       style="fill:none;stroke:#000000;stroke-width:0.625;stroke-linecap:butt;stroke-linejoin:round;stroke-miterlimit:10;stroke-dasharray:none;stroke-opacity:1"
       d="m 472.1875,463.62006 0,-42.5" />
    <path
       inkscape:connector-curvature="0"
       id="path4693"
       style="fill:none;stroke:#000000;stroke-width:0.625;stroke-linecap:butt;stroke-linejoin:round;stroke-miterlimit:10;stroke-dasharray:none;stroke-opacity:1"
       d="m 472.1875,421.12006 73.4375,0" />
    <path
       inkscape:connector-curvature="0"
       id="path4695"
       style="fill:none;stroke:#000000;stroke-width:0.625;stroke-linecap:butt;stroke-linejoin:round;stroke-miterlimit:10;stroke-dasharray:none;stroke-opacity:1"
       d="m 472.1875,463.62006 73.4375,0" />
    <path
       inkscape:connector-curvature="0"
       id="path4697"
       style="fill:none;stroke:#000000;stroke-width:0.625;stroke-linecap:butt;stroke-linejoin:round;stroke-miterlimit:10;stroke-dasharray:none;stroke-opacity:1"
       d="m 545.625,463.62006 0,-42.5" />
    <path
       inkscape:connector-curvature="0"
       id="path4699"
       style="fill:none;stroke:#000000;stroke-width:0.625;stroke-linecap:butt;stroke-linejoin:round;stroke-miterlimit:10;stroke-dasharray:none;stroke-opacity:1"
       d="m 472.1875,463.62006 0,-42.5" />
    <g
       id="g4711"
       transform="matrix(0.09609415,0,0,-0.125,272.18999,667.16131)">
      <g
         clip-path="url(#clipPath4715)"
         id="g4713">
        <path
           inkscape:connector-curvature="0"
           id="path4719"
           style="fill:none;stroke:#0000ff;stroke-width:5;stroke-linecap:butt;stroke-linejoin:round;stroke-miterlimit:10;stroke-dasharray:60;stroke-dashoffset:0;stroke-opacity:1"
           d="m 2134.17,1865.83 286.66,0" />
      </g>
    </g>
    <g
       id="g4735"
       transform="matrix(0.09609415,0,0,-0.125,272.18999,667.16131)">
      <g
         clip-path="url(#clipPath4739)"
         id="g4737">
        <path
           inkscape:connector-curvature="0"
           id="path4743"
           style="fill:none;stroke:#000000;stroke-width:5;stroke-linecap:butt;stroke-linejoin:round;stroke-miterlimit:10;stroke-dasharray:none;stroke-opacity:1"
           d="m 2134.17,1711.67 286.66,0" />
      </g>
    </g>
  </g>
  <g
     inkscape:groupmode="layer"
     id="layer2"
     inkscape:label="Layer 2"
     transform="translate(-219.71332,-410.47307)">
    <g
       id="g4296"
       transform="matrix(0.33004297,0,0,0.33004297,411.59347,316.71499)">
      <g
         id="g4298"
         transform="matrix(1.0629921,0,0,-1.0629921,-186.02362,789.27165)"
         xml:space="preserve"
         stroke-miterlimit="10.433"
         font-style="normal"
         font-variant="normal"
         font-weight="normal"
         font-stretch="normal"
         font-size-adjust="none"
         letter-spacing="normal"
         word-spacing="normal"
         style="font-style:normal;font-variant:normal;font-weight:normal;font-stretch:normal;letter-spacing:normal;word-spacing:normal;text-anchor:start;fill:none;fill-opacity:1;fill-rule:evenodd;stroke:#000000;stroke-linecap:butt;stroke-linejoin:miter;stroke-miterlimit:10.43299961;stroke-dasharray:none;stroke-dashoffset:0;stroke-opacity:1"><path
           d="m 462.21,427.93 -0.28,-1.11 2.85,-0.21 c 1.06,-0.1 1.01,-0.69 0.68,-2.21 l -2.79,-12.75 c -0.92,-4.17 0.54,-6 3.17,-6 3.94,0 7.92,3.67 11.09,7.92 3.11,4.22 5.32,9.22 5.36,12.07 0,1.79 -1.04,3.57 -1.42,3.57 -1.09,0 -2.39,-0.35 -3.34,-0.96 0.45,-1.6 0.54,-3.35 0.54,-5.72 -0.36,-6.28 -6.28,-14.63 -10.04,-14.5 -1.14,0 -1.97,1.01 -1.46,3.22 l 3.99,17.73 -0.24,0.23 z"
           id="path4300"
           inkscape:connector-curvature="0"
           style="fill:#000000;stroke-width:0" /><path
           d="m 489.02,397.68 0.12,0.43 0.11,0.44 0.11,0.45 0.12,0.46 0.23,0.93 0.23,0.94 0.12,0.46 0.11,0.46 0.12,0.45 0.11,0.45 0.11,0.43 0.11,0.42 0.11,0.4 0.11,0.39 c 1.25,4.56 2.98,7.56 4.31,7.56 1.08,0 1.33,-0.87 2.44,-0.87 0.87,0 1.64,1.15 1.64,2.15 0.03,0.96 -0.46,1.53 -1.57,1.53 -1.95,0 -4.36,-2.18 -6.23,-5.95 l -0.08,0 1.56,5.78 -0.17,0.17 -5.98,-0.96 -0.22,-0.83 2.17,-0.19 c 0.83,-0.06 0.77,-0.55 0.52,-1.67 l -3.21,-14.25 z"
           id="path4302"
           inkscape:connector-curvature="0"
           style="fill:#000000;stroke-width:0" /><path
           d="m 515.68,402.95 -0.12,-0.16 -0.13,-0.16 -0.25,-0.33 -0.28,-0.33 -0.28,-0.34 -0.31,-0.33 -0.31,-0.33 -0.17,-0.16 -0.17,-0.16 -0.17,-0.15 -0.18,-0.15 -0.18,-0.15 -0.19,-0.14 -0.18,-0.13 -0.2,-0.13 -0.19,-0.12 -0.21,-0.11 -0.2,-0.11 -0.21,-0.09 -0.21,-0.09 -0.22,-0.08 -0.22,-0.06 -0.23,-0.06 -0.23,-0.04 -0.23,-0.04 -0.24,-0.02 -0.24,0 c -2.44,0 -3.18,2.07 -3.18,4.82 0,0.19 0,0.33 0.04,0.57 l 0.07,1.18 c 0.6,4.22 3.21,8.4 5.99,8.4 1.22,0 2.03,-0.83 2.03,-2.05 0,-2.44 -2.13,-5.1 -8.02,-6.35 l 0,0 -0.07,-1.18 c 5.86,1.18 8.4,2.58 9.9,3.97 1.22,1.21 1.46,2.37 1.46,3.34 0,1.86 -1.46,3.48 -4.32,3.48 -3.14,0 -5.72,-1.59 -7.64,-3.96 -1.84,-2.27 -2.89,-5.3 -2.89,-8.22 0,-4.88 3.17,-5.72 5.2,-5.72 2.54,0 5.61,1.12 7.97,4.98 z"
           id="path4304"
           inkscape:connector-curvature="0"
           style="fill:#000000;stroke-width:0" /><path
           d="m 537.65,414.76 -4.54,0 0.99,3.94 c 0.65,2.64 1.33,3.62 2.3,3.62 0.93,0 1.56,-0.77 2.34,-2.44 0.17,-0.36 0.41,-0.59 0.94,-0.59 0.68,0 1.7,0.66 1.7,1.53 0,1.5 -1.88,2.72 -3.97,2.72 -2.26,0 -3.73,-0.95 -4.88,-2.41 -1.09,-1.36 -1.78,-3.25 -2.26,-5.09 l -0.36,-1.28 -3.03,0 -0.38,-1.33 3.1,0 -4.03,-20.53 c -0.42,-2.16 -0.79,-2.36 -1.13,-2.36 -0.37,0 -0.91,0.28 -1.84,1.7 -0.25,0.35 -0.49,0.77 -0.94,0.77 -0.76,0 -1.58,-0.88 -1.58,-1.74 0.05,-1.15 1.55,-2.03 3.17,-2.03 3.49,0 4.96,2.83 6.43,9.52 l 3.23,14.67 4.39,0 z"
           id="path4306"
           inkscape:connector-curvature="0"
           style="fill:#000000;stroke-width:0" /></g>    </g>
    <g
       id="g4386"
       transform="matrix(0.33004297,0,0,0.33004297,411.49353,338.99595)">
      <g
         word-spacing="normal"
         letter-spacing="normal"
         font-size-adjust="none"
         font-stretch="normal"
         font-weight="normal"
         font-variant="normal"
         font-style="normal"
         stroke-miterlimit="10.433"
         xml:space="preserve"
         transform="matrix(1.0629921,0,0,-1.0629921,-186.02362,789.27165)"
         id="g4388"
         style="font-style:normal;font-variant:normal;font-weight:normal;font-stretch:normal;letter-spacing:normal;word-spacing:normal;text-anchor:start;fill:none;fill-opacity:1;fill-rule:evenodd;stroke:#000000;stroke-linecap:butt;stroke-linejoin:miter;stroke-miterlimit:10.43299961;stroke-dasharray:none;stroke-dashoffset:0;stroke-opacity:1"><path
           id="path4390"
           d="m 462.21,427.93 -0.28,-1.11 2.85,-0.21 c 1.06,-0.1 1.01,-0.69 0.68,-2.21 l -2.79,-12.75 c -0.92,-4.17 0.54,-6 3.17,-6 3.94,0 7.92,3.67 11.09,7.92 3.11,4.22 5.32,9.22 5.36,12.07 0,1.79 -1.04,3.57 -1.42,3.57 -1.09,0 -2.39,-0.35 -3.34,-0.96 0.45,-1.6 0.54,-3.35 0.54,-5.72 -0.36,-6.28 -6.28,-14.63 -10.04,-14.5 -1.14,0 -1.97,1.01 -1.46,3.22 l 3.99,17.73 -0.24,0.23 z"
           inkscape:connector-curvature="0"
           style="fill:#000000;stroke-width:0" /></g>    </g>
  </g>
</svg>
