<?xml version="1.0" encoding="UTF-8" standalone="no"?>
<!-- Created with Inkscape (http://www.inkscape.org/) -->

<svg
   xmlns:dc="http://purl.org/dc/elements/1.1/"
   xmlns:cc="http://creativecommons.org/ns#"
   xmlns:rdf="http://www.w3.org/1999/02/22-rdf-syntax-ns#"
   xmlns:svg="http://www.w3.org/2000/svg"
   xmlns="http://www.w3.org/2000/svg"
   xmlns:sodipodi="http://sodipodi.sourceforge.net/DTD/sodipodi-0.dtd"
   xmlns:inkscape="http://www.inkscape.org/namespaces/inkscape"
   width="190.1757mm"
   height="99.203339mm"
   viewBox="0 0 673.85092 351.50789"
   id="svg4507"
   version="1.1"
   inkscape:version="0.91 r13725"
   sodipodi:docname="fuzzymf.svg">
  <sodipodi:namedview
     id="base"
     pagecolor="#ffffff"
     bordercolor="#666666"
     borderopacity="1.0"
     inkscape:pageopacity="0.0"
     inkscape:pageshadow="2"
     inkscape:zoom="1.0563158"
     inkscape:cx="338.61111"
     inkscape:cy="139.1245"
     inkscape:document-units="px"
     inkscape:current-layer="layer1"
     showgrid="true"
     inkscape:window-width="1600"
     inkscape:window-height="838"
     inkscape:window-x="-8"
     inkscape:window-y="-8"
     inkscape:window-maximized="1"
     fit-margin-top="0"
     fit-margin-left="0"
     fit-margin-right="0"
     fit-margin-bottom="0">
    <inkscape:grid
       type="xygrid"
       id="grid5506"
       originx="-34.999998"
       originy="-127.54216" />
  </sodipodi:namedview>
  <defs
     id="defs4509">
    <marker
       inkscape:stockid="Arrow2Lend"
       orient="auto"
       refY="0"
       refX="0"
       id="marker5786"
       style="overflow:visible"
       inkscape:isstock="true">
      <path
         id="path5788"
         style="fill:#000000;fill-opacity:1;fill-rule:evenodd;stroke:#000000;stroke-width:0.625;stroke-linejoin:round;stroke-opacity:1"
         d="M 8.7185878,4.0337352 -2.2072895,0.01601326 8.7185884,-4.0017078 c -1.7454984,2.3720609 -1.7354408,5.6174519 -6e-7,8.035443 z"
         transform="matrix(-1.1,0,0,-1.1,-1.1,0)"
         inkscape:connector-curvature="0" />
    </marker>
    <marker
       inkscape:stockid="Arrow2Lend"
       orient="auto"
       refY="0"
       refX="0"
       id="Arrow2Lend"
       style="overflow:visible"
       inkscape:isstock="true">
      <path
         id="path5537"
         style="fill:#000000;fill-opacity:1;fill-rule:evenodd;stroke:#000000;stroke-width:0.625;stroke-linejoin:round;stroke-opacity:1"
         d="M 8.7185878,4.0337352 -2.2072895,0.01601326 8.7185884,-4.0017078 c -1.7454984,2.3720609 -1.7354408,5.6174519 -6e-7,8.035443 z"
         transform="matrix(-1.1,0,0,-1.1,-1.1,0)"
         inkscape:connector-curvature="0" />
    </marker>
  </defs>
  <metadata
     id="metadata4512">
    <rdf:RDF>
      <cc:Work
         rdf:about="">
        <dc:format>image/svg+xml</dc:format>
        <dc:type
           rdf:resource="http://purl.org/dc/dcmitype/StillImage" />
        <dc:title></dc:title>
      </cc:Work>
    </rdf:RDF>
  </metadata>
  <g
     inkscape:label="Layer 1"
     inkscape:groupmode="layer"
     id="layer1"
     transform="translate(-35,-573.31214)">
    <g
       id="g5060"
       transform="matrix(0.78214748,0,0,0.78214748,-149.8727,403.80149)">
      <g
         id="content"
         transform="matrix(1.0629921,0,0,-1.0629921,-186.02362,789.27165)"
         xml:space="preserve"
         stroke-miterlimit="10.433"
         font-style="normal"
         font-variant="normal"
         font-weight="normal"
         font-stretch="normal"
         font-size-adjust="none"
         letter-spacing="normal"
         word-spacing="normal"
         style="font-style:normal;font-variant:normal;font-weight:normal;font-stretch:normal;letter-spacing:normal;word-spacing:normal;text-anchor:start;fill:none;fill-opacity:1;fill-rule:evenodd;stroke:#000000;stroke-linecap:butt;stroke-linejoin:miter;stroke-miterlimit:10.43299961;stroke-dasharray:none;stroke-dashoffset:0;stroke-opacity:1"><path
           d="m 464.74,426.82 5.59,0 0,1.85 -5.59,0 -0.19,5.12 c -0.14,4.36 1.47,4.83 2.2,4.83 0.97,0 1.97,-0.47 3.11,-3.12 0.24,-0.46 0.57,-0.79 1.25,-0.79 0.91,0 2.24,0.79 2.24,2.16 0,1.52 -1.92,3.34 -5.6,3.34 -2.51,0 -4.67,-1.14 -5.81,-2.89 -1.06,-1.59 -1.51,-4.03 -1.51,-7.06 l 0,-1.59 -3.54,0 0,-1.85 3.54,0 0,-16.64 c 0,-2.32 -0.14,-2.42 -3.44,-2.65 l 0,-1.33 12.11,0 0,1.33 c -4.17,0.18 -4.36,0.28 -4.36,2.61 z"
           id="path5063"
           inkscape:connector-curvature="0"
           style="fill:#000000;stroke-width:0" /><path
           d="m 478.83,429.21 -6.97,-1.14 0,-1.15 1.73,-0.22 c 1.19,-0.19 1.47,-0.42 1.47,-2.06 l 0,-14.46 c 0,-2.32 -0.23,-2.42 -3.43,-2.65 l 0,-1.33 12.1,0 0,1.33 c -4.09,0.23 -4.35,0.33 -4.35,2.65 l 0,10.74 c 0,3.53 1.56,4.72 2.6,4.72 0.74,0 1.52,-0.27 2.85,-1 0.33,-0.19 0.69,-0.24 0.92,-0.24 1.09,0 2.11,1.14 2.11,2.56 0,1.02 -0.64,2.25 -2.44,2.25 -1.65,0 -3.03,-1.01 -6.04,-3.67 z"
           id="path5065"
           inkscape:connector-curvature="0"
           style="fill:#000000;stroke-width:0" /><path
           d="m 489.74,428.07 0,-1.15 1.73,-0.22 c 1.19,-0.19 1.47,-0.42 1.47,-2.06 l 0,-14.46 c 0,-2.32 -0.14,-2.42 -3.44,-2.65 l 0,-1.33 11.19,0 0,1.33 c -3.25,0.23 -3.44,0.33 -3.44,2.65 l 0,18.75 -0.32,0.28 z"
           id="path5067"
           inkscape:connector-curvature="0"
           style="fill:#000000;stroke-width:0" /><path
           d="m 491.24,431.04 6.92,3.86 c 1.39,0.74 2.58,1.52 2.58,2.47 0,0.92 -1.11,1.97 -1.8,1.97 -0.78,0 -1.55,-0.45 -2.92,-1.88 l -5.47,-5.5 z"
           id="path5069"
           inkscape:connector-curvature="0"
           style="fill:#000000;stroke-width:0" /><path
           d="m 514.55,429.21 -0.67,-0.01 -0.66,-0.04 -0.63,-0.06 -0.61,-0.09 -0.59,-0.11 -0.57,-0.14 -0.54,-0.16 -0.53,-0.18 -0.5,-0.21 -0.48,-0.23 -0.46,-0.26 -0.44,-0.28 -0.42,-0.3 -0.39,-0.32 -0.38,-0.35 -0.35,-0.36 -0.33,-0.39 -0.31,-0.41 -0.29,-0.43 -0.26,-0.46 -0.25,-0.47 -0.22,-0.5 -0.21,-0.51 -0.18,-0.53 -0.16,-0.56 -0.14,-0.57 -0.11,-0.6 -0.1,-0.61 -0.07,-0.63 -0.06,-0.65 -0.03,-0.67 -0.01,-0.69 c 0,-7.42 3.63,-11.78 10.95,-11.78 l 0,1.6 c -4.17,0 -6.18,3.86 -6.18,10.18 l 0,0 c 0,6.33 2.01,10.18 6.18,10.18 4.27,0 6.24,-3.85 6.24,-10.18 0,-6.32 -1.97,-10.18 -6.24,-10.18 l 0,-1.6 c 7.43,0 11,4.36 11,11.78 0,7.43 -3.57,11.78 -11,11.78 z"
           id="path5071"
           inkscape:connector-curvature="0"
           style="fill:#000000;stroke-width:0" /></g>    </g>
    <g
       id="g5095"
       transform="matrix(0.78214748,0,0,0.78214748,85.424996,403.80149)">
      <g
         word-spacing="normal"
         letter-spacing="normal"
         font-size-adjust="none"
         font-stretch="normal"
         font-weight="normal"
         font-variant="normal"
         font-style="normal"
         stroke-miterlimit="10.433"
         xml:space="preserve"
         transform="matrix(1.0629921,0,0,-1.0629921,-186.02362,789.27165)"
         id="g5097"
         style="font-style:normal;font-variant:normal;font-weight:normal;font-stretch:normal;letter-spacing:normal;word-spacing:normal;text-anchor:start;fill:none;fill-opacity:1;fill-rule:evenodd;stroke:#000000;stroke-linecap:butt;stroke-linejoin:miter;stroke-miterlimit:10.43299961;stroke-dasharray:none;stroke-dashoffset:0;stroke-opacity:1"><path
           id="path5099"
           d="m 470.47,426.82 0,1.85 -5.92,0 0,5.78 -1.33,0 -2.79,-5.78 -3.49,0 0,-1.85 3.3,0 0,-15.95 c 0,-4.67 3.48,-5.22 5.09,-5.22 2.35,0 4.53,1.19 5.88,2.02 l -0.38,0.97 c -1.09,-0.47 -2.11,-0.61 -3.25,-0.61 -1.56,0 -3.03,1.11 -3.03,4.59 l 0,14.2 z"
           inkscape:connector-curvature="0"
           style="fill:#000000;stroke-width:0" /><path
           id="path5101"
           d="m 472.94,428.07 0,-1.15 1.74,-0.22 c 1.18,-0.19 1.46,-0.42 1.46,-2.06 l 0,-14.46 c 0,-2.32 -0.14,-2.42 -3.43,-2.65 l 0,-1.33 11.18,0 0,1.33 c -3.25,0.23 -3.43,0.33 -3.43,2.65 l 0,18.75 -0.33,0.28 z"
           inkscape:connector-curvature="0"
           style="fill:#000000;stroke-width:0" /><path
           id="path5103"
           d="m 478.25,438.98 -0.15,0 -0.15,-0.01 -0.15,-0.02 -0.14,-0.02 -0.14,-0.03 -0.14,-0.04 -0.13,-0.04 -0.13,-0.05 -0.13,-0.06 -0.12,-0.06 -0.12,-0.06 -0.11,-0.07 -0.11,-0.08 -0.1,-0.08 -0.1,-0.09 -0.1,-0.09 -0.09,-0.1 -0.08,-0.1 -0.08,-0.11 -0.07,-0.11 -0.07,-0.11 -0.07,-0.12 -0.06,-0.12 -0.05,-0.13 -0.05,-0.13 -0.04,-0.14 -0.03,-0.13 -0.03,-0.15 -0.02,-0.14 -0.02,-0.15 -0.01,-0.15 0,-0.15 c 0,-1.61 1.14,-2.75 2.79,-2.75 1.71,0 2.75,1.14 2.8,2.75 0,1.65 -1.09,2.84 -2.8,2.84 z"
           inkscape:connector-curvature="0"
           style="fill:#000000;stroke-width:0" /><path
           id="path5105"
           d="m 489.51,405.65 1.83,1.78 c 1.61,-0.9 3.53,-1.78 6.96,-1.78 l 0.05,1.6 c -2.42,0 -4.22,1.25 -5.05,3.53 -0.26,0.83 -0.31,1.79 -0.31,2.89 l 0,7.25 c 0,1.14 0.1,1.87 0.46,2.61 1.1,2.2 3.03,3.22 5.59,3.22 1.89,0 5.92,-1.11 5.92,-9.08 0,-6.75 -2.06,-10.42 -6.61,-10.42 l -0.05,-1.6 c 6.11,0 11.43,2.94 11.43,12.28 0,2.85 -0.6,11.28 -8.85,11.28 -3.48,0 -6.2,-2.25 -7.89,-3.25 l 0,13.99 -0.33,0.26 -7.18,-1.14 0,-1.14 1.73,-0.18 c 1.19,-0.14 1.47,-0.38 1.47,-2.11 l 0,-29.63 z"
           inkscape:connector-curvature="0"
           style="fill:#000000;stroke-width:0" /><path
           id="path5107"
           d="m 513.62,428.07 0,-1.15 1.73,-0.22 c 1.19,-0.19 1.47,-0.42 1.47,-2.06 l 0,-14.46 c 0,-2.32 -0.14,-2.42 -3.44,-2.65 l 0,-1.33 11.19,0 0,1.33 c -3.25,0.23 -3.44,0.33 -3.44,2.65 l 0,18.75 -0.33,0.28 z"
           inkscape:connector-curvature="0"
           style="fill:#000000;stroke-width:0" /><path
           id="path5109"
           d="m 518.93,438.98 -0.15,0 -0.15,-0.01 -0.15,-0.02 -0.15,-0.02 -0.14,-0.03 -0.13,-0.04 -0.14,-0.04 -0.13,-0.05 -0.12,-0.06 -0.12,-0.06 -0.12,-0.06 -0.11,-0.07 -0.11,-0.08 -0.11,-0.08 -0.1,-0.09 -0.09,-0.09 -0.09,-0.1 -0.08,-0.1 -0.08,-0.11 -0.08,-0.11 -0.07,-0.11 -0.06,-0.12 -0.06,-0.12 -0.05,-0.13 -0.05,-0.13 -0.04,-0.14 -0.04,-0.13 -0.02,-0.15 -0.03,-0.14 -0.01,-0.15 -0.01,-0.15 -0.01,-0.15 c 0,-1.61 1.14,-2.75 2.8,-2.75 1.7,0 2.75,1.14 2.8,2.75 0,1.65 -1.1,2.84 -2.8,2.84 z"
           inkscape:connector-curvature="0"
           style="fill:#000000;stroke-width:0" /><path
           id="path5111"
           d="m 538.43,429.21 -0.67,-0.01 -0.66,-0.04 -0.63,-0.06 -0.61,-0.09 -0.59,-0.11 -0.57,-0.14 -0.54,-0.16 -0.53,-0.18 -0.5,-0.21 -0.48,-0.23 -0.46,-0.26 -0.44,-0.28 -0.42,-0.3 -0.4,-0.32 -0.37,-0.35 -0.35,-0.36 -0.33,-0.39 -0.31,-0.41 -0.29,-0.43 -0.27,-0.46 -0.24,-0.47 -0.23,-0.5 -0.2,-0.51 -0.18,-0.53 -0.16,-0.56 -0.14,-0.57 -0.11,-0.6 -0.1,-0.61 -0.07,-0.63 -0.06,-0.65 -0.03,-0.67 -0.01,-0.69 c 0,-7.42 3.62,-11.78 10.95,-11.78 l 0,1.6 c -4.17,0 -6.18,3.86 -6.18,10.18 l 0,0 c 0,6.33 2.01,10.18 6.18,10.18 4.27,0 6.24,-3.85 6.24,-10.18 0,-6.32 -1.97,-10.18 -6.24,-10.18 l 0,-1.6 c 7.42,0 11,4.36 11,11.78 0,7.43 -3.58,11.78 -11,11.78 z"
           inkscape:connector-curvature="0"
           style="fill:#000000;stroke-width:0" /></g>    </g>
    <g
       id="g5153"
       transform="matrix(0.78214748,0,0,0.78214748,340.57492,403.80093)">
      <g
         id="g5155"
         transform="matrix(1.0629921,0,0,-1.0629921,-186.02362,789.27165)"
         xml:space="preserve"
         stroke-miterlimit="10.433"
         font-style="normal"
         font-variant="normal"
         font-weight="normal"
         font-stretch="normal"
         font-size-adjust="none"
         letter-spacing="normal"
         word-spacing="normal"
         style="font-style:normal;font-variant:normal;font-weight:normal;font-stretch:normal;letter-spacing:normal;word-spacing:normal;text-anchor:start;fill:none;fill-opacity:1;fill-rule:evenodd;stroke:#000000;stroke-linecap:butt;stroke-linejoin:miter;stroke-miterlimit:10.43299961;stroke-dasharray:none;stroke-dashoffset:0;stroke-opacity:1"><path
           d="m 469.27,408.03 -0.25,0 -0.25,0.01 -0.24,0.02 -0.23,0.03 -0.23,0.04 -0.23,0.04 -0.21,0.05 -0.22,0.06 -0.4,0.14 -0.39,0.16 -0.36,0.19 -0.34,0.21 -0.33,0.24 -0.3,0.26 -0.28,0.28 -0.27,0.29 -0.24,0.32 -0.23,0.33 -0.22,0.35 -0.19,0.36 -0.18,0.37 -0.17,0.39 -0.15,0.39 -0.13,0.41 -0.12,0.41 -0.11,0.42 -0.1,0.42 -0.08,0.43 -0.07,0.42 -0.06,0.43 -0.05,0.43 -0.04,0.43 -0.03,0.42 -0.02,0.42 -0.01,0.42 0,0.41 c 0,6.83 2.7,9.58 5.87,9.58 2.11,0 3.44,-1.52 4.34,-3.99 0.29,-0.73 0.55,-1.19 1.43,-1.19 0.92,0 2.7,0.6 2.7,2.33 0,2.11 -3.02,4.45 -7.97,4.45 -8.34,0 -11.14,-5.92 -11.14,-12.01 0,-7.66 3.75,-11.55 10.64,-11.55 3.2,0 7.52,1.69 8.8,6.6 l -1.33,0.64 c -1.42,-3.21 -3.27,-4.86 -6.61,-4.86 z"
           id="path5157"
           inkscape:connector-curvature="0"
           style="fill:#000000;stroke-width:0" /><path
           d="m 498.06,423.12 -0.01,0.51 -0.01,0.26 -0.02,0.26 -0.03,0.26 -0.03,0.26 -0.05,0.26 -0.05,0.26 -0.07,0.26 -0.08,0.26 -0.1,0.26 -0.11,0.25 -0.13,0.24 -0.14,0.24 -0.16,0.24 -0.18,0.22 -0.2,0.22 -0.22,0.21 -0.25,0.21 -0.27,0.19 -0.29,0.18 -0.16,0.08 -0.16,0.09 -0.17,0.08 -0.17,0.07 -0.19,0.08 -0.19,0.07 -0.19,0.06 -0.21,0.07 -0.21,0.05 -0.22,0.06 -0.22,0.05 -0.24,0.05 -0.24,0.04 -0.25,0.04 -0.26,0.04 -0.27,0.03 -0.27,0.02 -0.29,0.03 -0.29,0.01 -0.3,0.02 -0.31,0 -0.32,0 c -5.17,0 -9.25,-2.7 -9.25,-5.23 0,-1.45 1.68,-2.14 2.56,-2.14 0.97,0 1.23,0.5 1.47,1.28 1,3.39 2.89,4.49 4.72,4.49 1.78,0 3.89,-0.91 3.89,-4.58 l 0,-1.92 0,-1.9 0,-6.45 c 0,-3.72 -2.83,-4.69 -4.63,-4.69 -2.84,0 -4.22,2.02 -4.22,4.74 0,2.14 1.02,3.25 3.58,4.2 1.83,0.7 4.27,1.56 5.27,2.2 l 0,1.9 c -1.14,-1.21 -5.6,-2.35 -9.21,-3.49 -3.31,-1.01 -4.26,-3.31 -4.26,-5.47 0,-3.44 2.28,-6.5 6.59,-6.5 2.85,0.1 5.38,1.78 6.85,2.75 0.64,-1.7 1.37,-2.75 2.97,-2.75 1.7,0 3.67,0.5 5.4,1.38 l -0.26,1.09 c -0.64,-0.14 -1.66,-0.22 -2.35,-0.05 -0.83,0.19 -1.59,1.07 -1.59,3.96 z"
           id="path5159"
           inkscape:connector-curvature="0"
           style="fill:#000000;stroke-width:0" /><path
           d="m 510.87,439.95 -0.33,0.26 -7.2,-1.14 0,-1.14 1.75,-0.18 c 1.18,-0.14 1.46,-0.38 1.46,-2.11 l 0,-25.46 c 0,-2.32 -0.14,-2.42 -3.43,-2.65 l 0,-1.33 11.18,0 0,1.33 c -3.26,0.23 -3.43,0.33 -3.43,2.65 z"
           id="path5161"
           inkscape:connector-curvature="0"
           style="fill:#000000;stroke-width:0" /><path
           d="m 516.74,428.07 0,-1.15 1.73,-0.22 c 1.19,-0.19 1.47,-0.42 1.47,-2.06 l 0,-14.46 c 0,-2.32 -0.14,-2.42 -3.44,-2.65 l 0,-1.33 11.19,0 0,1.33 c -3.25,0.23 -3.44,0.33 -3.44,2.65 l 0,18.75 -0.32,0.28 z"
           id="path5163"
           inkscape:connector-curvature="0"
           style="fill:#000000;stroke-width:0" /><path
           d="m 522.05,438.98 -0.15,0 -0.15,-0.01 -0.15,-0.02 -0.14,-0.02 -0.15,-0.03 -0.13,-0.04 -0.14,-0.04 -0.12,-0.05 -0.13,-0.06 -0.12,-0.06 -0.12,-0.06 -0.11,-0.07 -0.11,-0.08 -0.1,-0.08 -0.1,-0.09 -0.1,-0.09 -0.09,-0.1 -0.08,-0.1 -0.08,-0.11 -0.08,-0.11 -0.07,-0.11 -0.06,-0.12 -0.06,-0.12 -0.05,-0.13 -0.05,-0.13 -0.04,-0.14 -0.03,-0.13 -0.03,-0.15 -0.03,-0.14 -0.01,-0.15 -0.01,-0.15 -0.01,-0.15 c 0,-1.61 1.15,-2.75 2.8,-2.75 1.7,0 2.75,1.14 2.8,2.75 0,1.65 -1.1,2.84 -2.8,2.84 z"
           id="path5165"
           inkscape:connector-curvature="0"
           style="fill:#000000;stroke-width:0" /><path
           d="m 548.57,418.26 0.09,0 0.09,0 0.09,0.01 0.09,0 0.08,0.01 0.09,0.01 0.08,0.01 0.08,0.02 0.08,0.02 0.08,0.02 0.08,0.02 0.07,0.03 0.08,0.03 0.07,0.04 0.06,0.04 0.07,0.04 0.06,0.05 0.06,0.05 0.05,0.06 0.06,0.06 0.04,0.07 0.05,0.07 0.04,0.08 0.04,0.09 0.03,0.09 0.02,0.04 0.01,0.05 0.02,0.05 0.01,0.06 0.01,0.05 0.01,0.06 0.01,0.05 0.01,0.06 0,0.06 0.01,0.07 0,0.06 0.01,0.07 0,0.07 0,0.07 c 0,2.7 -0.86,9.21 -9.25,9.21 l -0.28,-1.6 c 4.26,0 4.76,-4.35 4.76,-6.15 0,-0.87 -0.26,-1.46 -1.56,-1.46 l -8.66,0 c 0,1.89 0.69,7.61 5.46,7.61 l 0.28,1.6 c -7.16,0 -10.55,-5.09 -10.55,-11.96 0,-7.24 3.11,-11.69 10.6,-11.6 5.07,0.05 7.7,2.85 8.93,6.47 l -1.37,0.72 c -1.28,-2.66 -3.03,-4.86 -6.66,-4.86 -5.69,0 -6.83,5.52 -6.73,10.28 z"
           id="path5167"
           inkscape:connector-curvature="0"
           style="fill:#000000;stroke-width:0" /><path
           d="m 576.12,421.92 -0.01,0.43 -0.02,0.41 -0.03,0.41 -0.06,0.39 -0.06,0.39 -0.08,0.36 -0.09,0.36 -0.11,0.35 -0.12,0.33 -0.13,0.32 -0.15,0.3 -0.16,0.3 -0.17,0.28 -0.19,0.26 -0.19,0.26 -0.21,0.24 -0.23,0.22 -0.23,0.22 -0.25,0.19 -0.26,0.19 -0.27,0.17 -0.28,0.16 -0.3,0.14 -0.3,0.13 -0.32,0.11 -0.33,0.1 -0.33,0.08 -0.35,0.07 -0.36,0.06 -0.37,0.03 -0.38,0.03 -0.39,0 c -3.39,0 -5.5,-1.65 -8.35,-3.48 l -0.64,3.48 -6.83,-1.14 0,-1.15 1.74,-0.22 c 1.19,-0.19 1.47,-0.42 1.47,-2.06 l 0,-14.46 c 0,-2.32 -0.14,-2.42 -3.44,-2.65 l 0,-1.33 11.19,0 0,1.33 c -3.25,0.23 -3.44,0.33 -3.44,2.65 l 0,10.74 c 0,1.14 0.09,1.78 0.45,2.51 0.97,1.8 3.03,3.32 5.46,3.32 3.12,0 4.81,-1.75 4.81,-5.74 l 0,-10.83 c 0,-2.32 -0.13,-2.42 -3.44,-2.65 l 0,-1.33 11.19,0 0,1.33 c -3.25,0.23 -3.44,0.33 -3.44,2.65 z"
           id="path5169"
           inkscape:connector-curvature="0"
           style="fill:#000000;stroke-width:0" /><path
           d="m 595.14,426.82 0,1.85 -5.92,0 0,5.78 -1.33,0 -2.8,-5.78 -3.48,0 0,-1.85 3.3,0 0,-15.95 c 0,-4.67 3.48,-5.22 5.09,-5.22 2.34,0 4.53,1.19 5.88,2.02 l -0.38,0.97 c -1.09,-0.47 -2.11,-0.61 -3.25,-0.61 -1.56,0 -3.03,1.11 -3.03,4.59 l 0,14.2 z"
           id="path5171"
           inkscape:connector-curvature="0"
           style="fill:#000000;stroke-width:0" /><path
           d="m 616.13,418.26 0.09,0 0.09,0 0.08,0.01 0.09,0 0.09,0.01 0.08,0.01 0.09,0.01 0.08,0.02 0.08,0.02 0.08,0.02 0.07,0.02 0.08,0.03 0.07,0.03 0.07,0.04 0.07,0.04 0.06,0.04 0.06,0.05 0.06,0.05 0.06,0.06 0.05,0.06 0.05,0.07 0.04,0.07 0.05,0.08 0.03,0.09 0.04,0.09 0.01,0.04 0.02,0.05 0.01,0.05 0.01,0.06 0.01,0.05 0.01,0.06 0.01,0.05 0.01,0.06 0.01,0.06 0,0.07 0.01,0.06 0,0.07 0,0.07 0,0.07 c 0,2.7 -0.86,9.21 -9.25,9.21 l -0.28,-1.6 c 4.27,0 4.77,-4.35 4.77,-6.15 0,-0.87 -0.27,-1.46 -1.56,-1.46 l -8.66,0 c 0,1.89 0.69,7.61 5.45,7.61 l 0.28,1.6 c -7.15,0 -10.54,-5.09 -10.54,-11.96 0,-7.24 3.11,-11.69 10.59,-11.6 5.08,0.05 7.7,2.85 8.94,6.47 l -1.38,0.72 c -1.28,-2.66 -3.03,-4.86 -6.65,-4.86 -5.69,0 -6.83,5.52 -6.74,10.28 z"
           id="path5173"
           inkscape:connector-curvature="0"
           style="fill:#000000;stroke-width:0" /></g>    </g>
    <g
       id="g5237"
       transform="matrix(0.70611043,0,0,0.70611043,292.62415,664.47795)">
      <g
         word-spacing="normal"
         letter-spacing="normal"
         font-size-adjust="none"
         font-stretch="normal"
         font-weight="normal"
         font-variant="normal"
         font-style="normal"
         stroke-miterlimit="10.433"
         xml:space="preserve"
         transform="matrix(1.0629921,0,0,-1.0629921,-186.02362,789.27165)"
         id="g5239"
         style="font-style:normal;font-variant:normal;font-weight:normal;font-stretch:normal;letter-spacing:normal;word-spacing:normal;text-anchor:start;fill:none;fill-opacity:1;fill-rule:evenodd;stroke:#000000;stroke-linecap:butt;stroke-linejoin:miter;stroke-miterlimit:10.43299961;stroke-dasharray:none;stroke-dashoffset:0;stroke-opacity:1"><path
           id="path5241"
           d="m 470.47,426.82 0,1.85 -5.92,0 0,5.78 -1.33,0 -2.79,-5.78 -3.49,0 0,-1.85 3.3,0 0,-15.95 c 0,-4.67 3.48,-5.22 5.09,-5.22 2.35,0 4.53,1.19 5.88,2.02 l -0.38,0.97 c -1.09,-0.47 -2.11,-0.61 -3.25,-0.61 -1.56,0 -3.03,1.11 -3.03,4.59 l 0,14.2 z"
           inkscape:connector-curvature="0"
           style="fill:#000000;stroke-width:0" /><path
           id="path5243"
           d="m 491.46,418.26 0.09,0 0.09,0 0.09,0.01 0.08,0 0.09,0.01 0.09,0.01 0.08,0.01 0.08,0.02 0.08,0.02 0.08,0.02 0.08,0.02 0.07,0.03 0.07,0.03 0.07,0.04 0.07,0.04 0.06,0.04 0.07,0.05 0.05,0.05 0.06,0.06 0.05,0.06 0.05,0.07 0.05,0.07 0.04,0.08 0.04,0.09 0.03,0.09 0.01,0.04 0.02,0.05 0.01,0.05 0.01,0.06 0.02,0.05 0.01,0.06 0.01,0.05 0,0.06 0.01,0.06 0.01,0.07 0,0.06 0,0.07 0,0.07 0.01,0.07 c 0,2.7 -0.86,9.21 -9.25,9.21 l -0.29,-1.6 c 4.27,0 4.77,-4.35 4.77,-6.15 0,-0.87 -0.27,-1.46 -1.56,-1.46 l -8.66,0 c 0,1.89 0.69,7.61 5.45,7.61 l 0.29,1.6 c -7.16,0 -10.55,-5.09 -10.55,-11.96 0,-7.24 3.11,-11.69 10.59,-11.6 5.08,0.05 7.71,2.85 8.94,6.47 l -1.38,0.72 c -1.28,-2.66 -3.03,-4.86 -6.65,-4.86 -5.69,0 -6.83,5.52 -6.74,10.28 z"
           inkscape:connector-curvature="0"
           style="fill:#000000;stroke-width:0" /><path
           id="path5245"
           d="m 496.46,428.07 0,-1.15 1.74,-0.22 c 1.18,-0.19 1.46,-0.42 1.46,-2.06 l 0,-14.46 c 0,-2.32 -0.14,-2.42 -3.43,-2.65 l 0,-1.33 11.18,0 0,1.33 c -3.25,0.23 -3.43,0.33 -3.43,2.65 l 0,10.74 c 0,1.14 0.04,1.78 0.36,2.42 0.87,1.84 2.89,3.41 5.42,3.41 3.94,0 4.39,-2.89 4.39,-5.74 l 0,-10.83 c 0,-2.32 -0.14,-2.42 -3.44,-2.65 l 0,-1.33 11.19,0 0,1.33 c -3.25,0.23 -3.44,0.33 -3.44,2.65 l 0,10.74 c 0,1.14 0.05,1.78 0.33,2.51 0.69,1.85 2.66,3.32 5.22,3.32 2.89,0.07 4.62,-1.75 4.62,-5.74 l 0,-10.83 c 0,-2.32 -0.12,-2.42 -3.43,-2.65 l 0,-1.33 11.18,0 0,1.33 c -3.25,0.23 -3.43,0.33 -3.43,2.65 l 0,11.74 c 0,4.64 -2.47,7.29 -6.83,7.29 -3.77,0 -6.47,-2.51 -8.07,-3.53 -1.1,2.16 -2.84,3.53 -6.06,3.53 -3.53,0 -6.42,-2.29 -8.01,-3.48 l -0.43,3.48 z"
           inkscape:connector-curvature="0"
           style="fill:#000000;stroke-width:0" /><path
           id="path5247"
           d="m 538.37,428.07 0,-1.15 1.75,-0.22 c 1.19,-0.19 1.45,-0.42 1.45,-2.06 l 0,-25 c 0,-2.33 -0.22,-2.43 -3.43,-2.66 l 0,-1.33 11.87,0 0,1.33 c -3.84,0.23 -4.12,0.33 -4.12,2.66 l 0,7.06 c 0.96,-0.55 3.12,-1.05 5.23,-1.05 l 0.05,1.6 c -2.39,0 -4.22,1.25 -4.95,3.36 -0.29,0.82 -0.33,1.73 -0.33,2.79 l 0,7.52 c 0,1.14 0.18,1.78 0.59,2.61 1.06,2.11 3.03,3.22 5.47,3.22 1.83,0 5.9,-1.21 5.9,-9.08 0,-6.75 -2.1,-10.42 -6.68,-10.42 l -0.05,-1.6 c 6.19,0 11.5,2.85 11.5,12.28 0,3.27 -0.59,11.28 -8.94,11.28 -3.34,0 -6,-2.25 -7.79,-3.39 l -0.6,3.39 z"
           inkscape:connector-curvature="0"
           style="fill:#000000;stroke-width:0" /><path
           id="path5249"
           d="m 585.05,418.26 0.1,0 0.09,0 0.08,0.01 0.09,0 0.09,0.01 0.08,0.01 0.09,0.01 0.08,0.02 0.08,0.02 0.08,0.02 0.07,0.02 0.08,0.03 0.07,0.03 0.07,0.04 0.07,0.04 0.06,0.04 0.06,0.05 0.06,0.05 0.06,0.06 0.05,0.06 0.05,0.07 0.04,0.07 0.05,0.08 0.03,0.09 0.04,0.09 0.01,0.04 0.02,0.05 0.01,0.05 0.01,0.06 0.01,0.05 0.01,0.06 0.01,0.05 0.01,0.06 0.01,0.06 0,0.07 0.01,0.06 0,0.07 0,0.07 0,0.07 c 0,2.7 -0.86,9.21 -9.25,9.21 l -0.28,-1.6 c 4.27,0 4.77,-4.35 4.77,-6.15 0,-0.87 -0.27,-1.46 -1.57,-1.46 l -8.65,0 c 0,1.89 0.69,7.61 5.45,7.61 l 0.28,1.6 c -7.15,0 -10.54,-5.09 -10.54,-11.96 0,-7.24 3.11,-11.69 10.59,-11.6 5.08,0.05 7.7,2.85 8.94,6.47 l -1.38,0.72 c -1.28,-2.66 -3.03,-4.86 -6.65,-4.86 -5.69,0 -6.83,5.52 -6.74,10.28 z"
           inkscape:connector-curvature="0"
           style="fill:#000000;stroke-width:0" /><path
           id="path5251"
           d="m 597.03,429.21 -6.97,-1.14 0,-1.15 1.73,-0.22 c 1.19,-0.19 1.47,-0.42 1.47,-2.06 l 0,-14.46 c 0,-2.32 -0.23,-2.42 -3.44,-2.65 l 0,-1.33 12.11,0 0,1.33 c -4.09,0.23 -4.36,0.33 -4.36,2.65 l 0,10.74 c 0,3.53 1.57,4.72 2.61,4.72 0.74,0 1.52,-0.27 2.85,-1 0.32,-0.19 0.69,-0.24 0.92,-0.24 1.09,0 2.11,1.14 2.11,2.56 0,1.02 -0.64,2.25 -2.44,2.25 -1.65,0 -3.03,-1.01 -6.05,-3.67 z"
           inkscape:connector-curvature="0"
           style="fill:#000000;stroke-width:0" /><path
           id="path5253"
           d="m 625.61,423.12 -0.01,0.51 -0.01,0.26 -0.02,0.26 -0.02,0.26 -0.04,0.26 -0.04,0.26 -0.06,0.26 -0.07,0.26 -0.08,0.26 -0.09,0.26 -0.11,0.25 -0.13,0.24 -0.14,0.24 -0.17,0.24 -0.18,0.22 -0.2,0.22 -0.22,0.21 -0.25,0.21 -0.26,0.19 -0.3,0.18 -0.15,0.08 -0.16,0.09 -0.17,0.08 -0.18,0.07 -0.18,0.08 -0.19,0.07 -0.2,0.06 -0.2,0.07 -0.21,0.05 -0.22,0.06 -0.23,0.05 -0.23,0.05 -0.25,0.04 -0.25,0.04 -0.26,0.04 -0.26,0.03 -0.28,0.02 -0.28,0.03 -0.3,0.01 -0.3,0.02 -0.31,0 -0.32,0 c -5.17,0 -9.25,-2.7 -9.25,-5.23 0,-1.45 1.69,-2.14 2.57,-2.14 0.96,0 1.23,0.5 1.46,1.28 1,3.39 2.89,4.49 4.72,4.49 1.78,0 3.89,-0.91 3.89,-4.58 l 0,-1.92 0,-1.9 0,-6.45 c 0,-3.72 -2.82,-4.69 -4.62,-4.69 -2.85,0 -4.22,2.02 -4.22,4.74 0,2.14 1.02,3.25 3.58,4.2 1.82,0.7 4.26,1.56 5.26,2.2 l 0,1.9 c -1.14,-1.21 -5.59,-2.35 -9.2,-3.49 -3.31,-1.01 -4.27,-3.31 -4.27,-5.47 0,-3.44 2.28,-6.5 6.6,-6.5 2.84,0.1 5.37,1.78 6.84,2.75 0.64,-1.7 1.38,-2.75 2.97,-2.75 1.7,0 3.67,0.5 5.41,1.38 l -0.27,1.09 c -0.64,-0.14 -1.65,-0.22 -2.34,-0.05 -0.83,0.19 -1.6,1.07 -1.6,3.96 z"
           inkscape:connector-curvature="0"
           style="fill:#000000;stroke-width:0" /><path
           id="path5255"
           d="m 644.7,426.82 0,1.85 -5.92,0 0,5.78 -1.33,0 -2.79,-5.78 -3.49,0 0,-1.85 3.3,0 0,-15.95 c 0,-4.67 3.48,-5.22 5.09,-5.22 2.35,0 4.53,1.19 5.88,2.02 l -0.38,0.97 c -1.09,-0.47 -2.11,-0.61 -3.25,-0.61 -1.56,0 -3.03,1.11 -3.03,4.59 l 0,14.2 z"
           inkscape:connector-curvature="0"
           style="fill:#000000;stroke-width:0" /><path
           id="path5257"
           d="m 672.56,406.2 0,1.33 c -3.15,0.23 -3.43,0.33 -3.43,2.65 l 0,18.75 -0.32,0.28 -7.2,-1.14 0,-1.15 1.73,-0.22 c 1.21,-0.19 1.47,-0.42 1.47,-2.06 l 0,-10.33 c 0,-1.28 -0.14,-2.28 -0.36,-2.75 -1.06,-2.11 -3.26,-3.44 -5.64,-3.44 -2.65,0 -4.62,1.66 -4.62,5.24 l 0,15.57 -0.33,0.28 -7.2,-1.14 0,-1.15 1.75,-0.22 c 1.18,-0.19 1.47,-0.42 1.47,-2.06 l 0,-12.11 c 0,-5.28 3.1,-6.88 6.5,-6.88 3.9,0 7.06,2.66 8.39,3.3 l 0.46,-2.75 z"
           inkscape:connector-curvature="0"
           style="fill:#000000;stroke-width:0" /><path
           id="path5259"
           d="m 681.86,429.21 -6.97,-1.14 0,-1.15 1.74,-0.22 c 1.18,-0.19 1.46,-0.42 1.46,-2.06 l 0,-14.46 c 0,-2.32 -0.23,-2.42 -3.43,-2.65 l 0,-1.33 12.11,0 0,1.33 c -4.1,0.23 -4.36,0.33 -4.36,2.65 l 0,10.74 c 0,3.53 1.56,4.72 2.61,4.72 0.73,0 1.51,-0.27 2.84,-1 0.33,-0.19 0.69,-0.24 0.92,-0.24 1.1,0 2.11,1.14 2.11,2.56 0,1.02 -0.64,2.25 -2.44,2.25 -1.65,0 -3.03,-1.01 -6.04,-3.67 z"
           inkscape:connector-curvature="0"
           style="fill:#000000;stroke-width:0" /><path
           id="path5261"
           d="m 710.45,423.12 -0.01,0.51 -0.02,0.26 -0.01,0.26 -0.03,0.26 -0.04,0.26 -0.04,0.26 -0.06,0.26 -0.07,0.26 -0.08,0.26 -0.09,0.26 -0.11,0.25 -0.13,0.24 -0.14,0.24 -0.16,0.24 -0.18,0.22 -0.21,0.22 -0.22,0.21 -0.24,0.21 -0.27,0.19 -0.29,0.18 -0.16,0.08 -0.16,0.09 -0.17,0.08 -0.18,0.07 -0.18,0.08 -0.19,0.07 -0.2,0.06 -0.2,0.07 -0.21,0.05 -0.22,0.06 -0.23,0.05 -0.23,0.05 -0.24,0.04 -0.26,0.04 -0.25,0.04 -0.27,0.03 -0.28,0.02 -0.28,0.03 -0.29,0.01 -0.31,0.02 -0.31,0 -0.32,0 c -5.17,0 -9.25,-2.7 -9.25,-5.23 0,-1.45 1.69,-2.14 2.57,-2.14 0.97,0 1.23,0.5 1.47,1.28 1,3.39 2.89,4.49 4.71,4.49 1.79,0 3.89,-0.91 3.89,-4.58 l 0,-1.92 0,-1.9 0,-6.45 c 0,-3.72 -2.82,-4.69 -4.62,-4.69 -2.84,0 -4.22,2.02 -4.22,4.74 0,2.14 1.02,3.25 3.58,4.2 1.83,0.7 4.26,1.56 5.26,2.2 l 0,1.9 c -1.14,-1.21 -5.59,-2.35 -9.2,-3.49 -3.31,-1.01 -4.26,-3.31 -4.26,-5.47 0,-3.44 2.28,-6.5 6.59,-6.5 2.84,0.1 5.37,1.78 6.84,2.75 0.64,-1.7 1.38,-2.75 2.97,-2.75 1.71,0 3.67,0.5 5.41,1.38 l -0.27,1.09 c -0.64,-0.14 -1.65,-0.22 -2.34,-0.05 -0.83,0.19 -1.59,1.07 -1.59,3.96 z"
           inkscape:connector-curvature="0"
           style="fill:#000000;stroke-width:0" /></g>    </g>
    <g
       id="g5351"
       transform="matrix(0.64275074,0,0,0.64275074,-146.36254,678.78578)">
      <g
         id="g5353"
         transform="matrix(1.0629921,0,0,-1.0629921,-186.02362,789.27165)"
         xml:space="preserve"
         stroke-miterlimit="10.433"
         font-style="normal"
         font-variant="normal"
         font-weight="normal"
         font-stretch="normal"
         font-size-adjust="none"
         letter-spacing="normal"
         word-spacing="normal"
         style="font-style:normal;font-variant:normal;font-weight:normal;font-stretch:normal;letter-spacing:normal;word-spacing:normal;text-anchor:start;fill:none;fill-opacity:1;fill-rule:evenodd;stroke:#000000;stroke-linecap:butt;stroke-linejoin:miter;stroke-miterlimit:10.43299961;stroke-dasharray:none;stroke-dashoffset:0;stroke-opacity:1"><path
           d="m 467.68,437.37 0,-1.59 c 4.34,0 5.59,-6.8 5.59,-14.27 0,-7.47 -1.25,-14.26 -5.59,-14.26 -4.36,0 -5.6,6.79 -5.6,14.26 0,7.47 1.24,14.27 5.6,14.27 l 0,0 0,1.59 c -7.58,0 -10.29,-6.69 -10.29,-15.86 0,-9.17 2.71,-15.86 10.29,-15.86 7.56,0 10.26,6.69 10.26,15.86 0,9.17 -2.7,15.86 -10.26,15.86 z"
           id="path5355"
           inkscape:connector-curvature="0"
           style="fill:#000000;stroke-width:0" /></g>    </g>
    <g
       id="g5451"
       transform="matrix(0.64275074,0,0,0.64275074,-143.44095,463.59795)">
      <g
         word-spacing="normal"
         letter-spacing="normal"
         font-size-adjust="none"
         font-stretch="normal"
         font-weight="normal"
         font-variant="normal"
         font-style="normal"
         stroke-miterlimit="10.433"
         xml:space="preserve"
         transform="matrix(1.0629921,0,0,-1.0629921,-186.02362,789.27165)"
         id="g5453"
         style="font-style:normal;font-variant:normal;font-weight:normal;font-stretch:normal;letter-spacing:normal;word-spacing:normal;text-anchor:start;fill:none;fill-opacity:1;fill-rule:evenodd;stroke:#000000;stroke-linecap:butt;stroke-linejoin:miter;stroke-miterlimit:10.43299961;stroke-dasharray:none;stroke-dashoffset:0;stroke-opacity:1"><path
           id="path5455"
           d="m 475.55,406.2 0,1.33 -3.84,0.33 c -0.97,0.09 -1.52,0.45 -1.52,2.23 l 0,27.02 -0.23,0.26 -9.44,-1.59 0,-1.16 4.27,-0.5 c 0.78,-0.09 1.09,-0.45 1.09,-1.78 l 0,-22.25 c 0,-0.86 -0.14,-1.42 -0.41,-1.73 -0.23,-0.33 -0.59,-0.46 -1.11,-0.5 l -3.84,-0.33 0,-1.33 z"
           inkscape:connector-curvature="0"
           style="fill:#000000;stroke-width:0" /></g>    </g>
    <path
       style="fill:none;fill-rule:evenodd;stroke:#000000;stroke-width:2;stroke-linecap:butt;stroke-linejoin:miter;stroke-miterlimit:4;stroke-dasharray:none;stroke-opacity:1;marker-end:url(#Arrow2Lend)"
       d="m 35,877.36218 665,0"
       id="path5508"
       inkscape:connector-curvature="0" />
    <path
       style="fill:none;fill-rule:evenodd;stroke:#000000;stroke-width:1.71912622;stroke-linecap:butt;stroke-linejoin:miter;stroke-miterlimit:4;stroke-dasharray:none;stroke-opacity:1;marker-end:url(#marker5786)"
       d="M 70,912.36217 70,576.18601"
       id="path5510"
       inkscape:connector-curvature="0" />
    <path
       style="opacity:0.8;fill:none;fill-rule:evenodd;stroke:#0003ff;stroke-width:5;stroke-linecap:butt;stroke-linejoin:miter;stroke-miterlimit:4;stroke-dasharray:none;stroke-opacity:1"
       d="m 35,702.36218 140,0 70,175 420,0"
       id="path5872"
       inkscape:connector-curvature="0" />
    <path
       style="opacity:0.8;fill:none;fill-rule:evenodd;stroke:#ffc300;stroke-width:5;stroke-linecap:butt;stroke-linejoin:miter;stroke-miterlimit:4;stroke-dasharray:none;stroke-opacity:1"
       d="m 35,877.36218 140,0 70,-175 210,0 70,175 140,0"
       id="path5874"
       inkscape:connector-curvature="0" />
    <path
       style="opacity:0.8;fill:none;fill-rule:evenodd;stroke:#ff0500;stroke-width:5;stroke-linecap:butt;stroke-linejoin:miter;stroke-miterlimit:4;stroke-dasharray:none;stroke-opacity:1"
       d="m 35,877.36218 490,0 70,-175 70,0"
       id="path5876"
       inkscape:connector-curvature="0" />
  </g>
</svg>
