<?xml version="1.0" encoding="UTF-8" standalone="no"?>
<!-- Created with Inkscape (http://www.inkscape.org/) -->

<svg
   xmlns:osb="http://www.openswatchbook.org/uri/2009/osb"
   xmlns:dc="http://purl.org/dc/elements/1.1/"
   xmlns:cc="http://creativecommons.org/ns#"
   xmlns:rdf="http://www.w3.org/1999/02/22-rdf-syntax-ns#"
   xmlns:svg="http://www.w3.org/2000/svg"
   xmlns="http://www.w3.org/2000/svg"
   xmlns:sodipodi="http://sodipodi.sourceforge.net/DTD/sodipodi-0.dtd"
   xmlns:inkscape="http://www.inkscape.org/namespaces/inkscape"
   width="110.74009mm"
   height="198.16389mm"
   viewBox="0 0 392.38614 702.15553"
   id="svg20105"
   version="1.1"
   inkscape:version="0.91 r13725"
   sodipodi:docname="bs2taus.svg">
  <sodipodi:namedview
     id="base"
     pagecolor="#ffffff"
     bordercolor="#666666"
     borderopacity="1.0"
     inkscape:pageopacity="0.0"
     inkscape:pageshadow="2"
     inkscape:zoom="1"
     inkscape:cx="80.169632"
     inkscape:cy="337.46132"
     inkscape:document-units="px"
     inkscape:current-layer="layer1"
     showgrid="false"
     inkscape:window-width="1600"
     inkscape:window-height="838"
     inkscape:window-x="-8"
     inkscape:window-y="-8"
     inkscape:window-maximized="1"
     fit-margin-top="0"
     fit-margin-left="0"
     fit-margin-right="0"
     fit-margin-bottom="0">
    <inkscape:grid
       originy="-299.36708"
       originx="-200.2641"
       id="grid20653"
       type="xygrid" />
  </sodipodi:namedview>
  <defs
     id="defs20107">
    <marker
       inkscape:isstock="true"
       style="overflow:visible"
       id="Arrow2Mend"
       refX="0"
       refY="0"
       orient="auto"
       inkscape:stockid="Arrow2Mend">
      <path
         transform="scale(-0.6,-0.6)"
         d="M 8.7185878,4.0337352 -2.2072895,0.01601326 8.7185884,-4.0017078 c -1.7454984,2.3720609 -1.7354408,5.6174519 -6e-7,8.035443 z"
         style="fill:#000000;fill-opacity:1;fill-rule:evenodd;stroke:#000000;stroke-width:0.625;stroke-linejoin:round;stroke-opacity:1"
         id="path8508"
         inkscape:connector-curvature="0" />
    </marker>
    <marker
       inkscape:stockid="Arrow2Lend"
       orient="auto"
       refY="0"
       refX="0"
       id="marker23635"
       style="overflow:visible"
       inkscape:isstock="true">
      <path
         id="path23637"
         style="fill:#000000;fill-opacity:1;fill-rule:evenodd;stroke:#000000;stroke-width:0.625;stroke-linejoin:round;stroke-opacity:1"
         d="M 8.7185878,4.0337352 -2.2072895,0.01601326 8.7185884,-4.0017078 c -1.7454984,2.3720609 -1.7354408,5.6174519 -6e-7,8.035443 z"
         transform="matrix(-1.1,0,0,-1.1,-1.1,0)"
         inkscape:connector-curvature="0" />
    </marker>
    <marker
       inkscape:stockid="Arrow2Lend"
       orient="auto"
       refY="0"
       refX="0"
       id="marker23619"
       style="overflow:visible"
       inkscape:isstock="true">
      <path
         id="path23621"
         style="fill:#000000;fill-opacity:1;fill-rule:evenodd;stroke:#000000;stroke-width:0.625;stroke-linejoin:round;stroke-opacity:1"
         d="M 8.7185878,4.0337352 -2.2072895,0.01601326 8.7185884,-4.0017078 c -1.7454984,2.3720609 -1.7354408,5.6174519 -6e-7,8.035443 z"
         transform="matrix(-1.1,0,0,-1.1,-1.1,0)"
         inkscape:connector-curvature="0" />
    </marker>
    <marker
       inkscape:stockid="Arrow2Lstart"
       orient="auto"
       refY="0"
       refX="0"
       id="marker23575"
       style="overflow:visible"
       inkscape:isstock="true">
      <path
         id="path23577"
         style="fill:#000000;fill-opacity:1;fill-rule:evenodd;stroke:#000000;stroke-width:0.625;stroke-linejoin:round;stroke-opacity:1"
         d="M 8.7185878,4.0337352 -2.2072895,0.01601326 8.7185884,-4.0017078 c -1.7454984,2.3720609 -1.7354408,5.6174519 -6e-7,8.035443 z"
         transform="matrix(1.1,0,0,1.1,1.1,0)"
         inkscape:connector-curvature="0" />
    </marker>
    <marker
       inkscape:stockid="Arrow2Lstart"
       orient="auto"
       refY="0"
       refX="0"
       id="marker23565"
       style="overflow:visible"
       inkscape:isstock="true">
      <path
         id="path23567"
         style="fill:#000000;fill-opacity:1;fill-rule:evenodd;stroke:#000000;stroke-width:0.625;stroke-linejoin:round;stroke-opacity:1"
         d="M 8.7185878,4.0337352 -2.2072895,0.01601326 8.7185884,-4.0017078 c -1.7454984,2.3720609 -1.7354408,5.6174519 -6e-7,8.035443 z"
         transform="matrix(1.1,0,0,1.1,1.1,0)"
         inkscape:connector-curvature="0" />
    </marker>
    <marker
       inkscape:stockid="Arrow2Lstart"
       orient="auto"
       refY="0"
       refX="0"
       id="marker23555"
       style="overflow:visible"
       inkscape:isstock="true">
      <path
         id="path23557"
         style="fill:#000000;fill-opacity:1;fill-rule:evenodd;stroke:#000000;stroke-width:0.625;stroke-linejoin:round;stroke-opacity:1"
         d="M 8.7185878,4.0337352 -2.2072895,0.01601326 8.7185884,-4.0017078 c -1.7454984,2.3720609 -1.7354408,5.6174519 -6e-7,8.035443 z"
         transform="matrix(1.1,0,0,1.1,1.1,0)"
         inkscape:connector-curvature="0" />
    </marker>
    <marker
       inkscape:collect="always"
       inkscape:isstock="true"
       style="overflow:visible"
       id="Arrow2Lstart"
       refX="0"
       refY="0"
       orient="auto"
       inkscape:stockid="Arrow2Lstart">
      <path
         inkscape:connector-curvature="0"
         transform="matrix(1.1,0,0,1.1,1.1,0)"
         d="M 8.7185878,4.0337352 -2.2072895,0.01601326 8.7185884,-4.0017078 c -1.7454984,2.3720609 -1.7354408,5.6174519 -6e-7,8.035443 z"
         style="fill:#000000;fill-opacity:1;fill-rule:evenodd;stroke:#000000;stroke-width:0.625;stroke-linejoin:round;stroke-opacity:1"
         id="path8499" />
    </marker>
    <marker
       inkscape:collect="always"
       inkscape:isstock="true"
       style="overflow:visible"
       id="Arrow2Lend"
       refX="0"
       refY="0"
       orient="auto"
       inkscape:stockid="Arrow2Lend">
      <path
         inkscape:connector-curvature="0"
         transform="matrix(-1.1,0,0,-1.1,-1.1,0)"
         d="M 8.7185878,4.0337352 -2.2072895,0.01601326 8.7185884,-4.0017078 c -1.7454984,2.3720609 -1.7354408,5.6174519 -6e-7,8.035443 z"
         style="fill:#000000;fill-opacity:1;fill-rule:evenodd;stroke:#000000;stroke-width:0.625;stroke-linejoin:round;stroke-opacity:1"
         id="path8502" />
    </marker>
    <marker
       inkscape:isstock="true"
       style="overflow:visible"
       id="Arrow2Mstart"
       refX="0"
       refY="0"
       orient="auto"
       inkscape:stockid="Arrow2Mstart">
      <path
         inkscape:connector-curvature="0"
         transform="scale(0.6,0.6)"
         d="M 8.7185878,4.0337352 -2.2072895,0.01601326 8.7185884,-4.0017078 c -1.7454984,2.3720609 -1.7354408,5.6174519 -6e-7,8.035443 z"
         style="fill:#000000;fill-opacity:1;fill-rule:evenodd;stroke:#000000;stroke-width:0.625;stroke-linejoin:round;stroke-opacity:1"
         id="path8505" />
    </marker>
    <linearGradient
       osb:paint="solid"
       id="linearGradient22169">
      <stop
         id="stop22171"
         offset="0"
         style="stop-color:#000000;stop-opacity:1;" />
    </linearGradient>
    <pattern
       id="pattern22191"
       patternTransform="translate(534.6,132.0622)"
       height="80.6"
       width="60.8"
       patternUnits="userSpaceOnUse">
      <path
         style="fill:none;fill-rule:evenodd;stroke:#000000;stroke-width:1px;stroke-linecap:butt;stroke-linejoin:miter;stroke-opacity:1"
         d="m 0.4,80.3 60,-80"
         id="path22189"
         inkscape:connector-curvature="0" />
    </pattern>
    <pattern
       id="pattern22204"
       patternTransform="translate(494.61923,207.03814)"
       height="235.64812"
       width="200.76278"
       patternUnits="userSpaceOnUse">
      <g
         transform="translate(-494.61923,-207.03814)"
         id="g22200">
        <path
           inkscape:connector-curvature="0"
           id="path22196"
           d="m 495,442.3622 200,-235"
           style="fill:none;fill-rule:evenodd;stroke:#000000;stroke-width:1px;stroke-linecap:butt;stroke-linejoin:miter;stroke-opacity:1" />
        <path
           inkscape:connector-curvature="0"
           id="path22198"
           d="m 505,442.3622 190,-225"
           style="fill:none;fill-rule:evenodd;stroke:#000000;stroke-width:1px;stroke-linecap:butt;stroke-linejoin:miter;stroke-opacity:1" />
      </g>
    </pattern>
    <marker
       inkscape:isstock="true"
       style="overflow:visible"
       id="Arrow2Lstart-5"
       refX="0"
       refY="0"
       orient="auto"
       inkscape:stockid="Arrow2Lstart">
      <path
         inkscape:connector-curvature="0"
         transform="matrix(1.1,0,0,1.1,1.1,0)"
         d="M 8.7185878,4.0337352 -2.2072895,0.01601326 8.7185884,-4.0017078 c -1.7454984,2.3720609 -1.7354408,5.6174519 -6e-7,8.035443 z"
         style="fill:#000000;fill-opacity:1;fill-rule:evenodd;stroke:#000000;stroke-width:0.625;stroke-linejoin:round;stroke-opacity:1"
         id="path8499-5" />
    </marker>
    <marker
       inkscape:isstock="true"
       style="overflow:visible"
       id="Arrow2Lend-7"
       refX="0"
       refY="0"
       orient="auto"
       inkscape:stockid="Arrow2Lend">
      <path
         inkscape:connector-curvature="0"
         transform="matrix(-1.1,0,0,-1.1,-1.1,0)"
         d="M 8.7185878,4.0337352 -2.2072895,0.01601326 8.7185884,-4.0017078 c -1.7454984,2.3720609 -1.7354408,5.6174519 -6e-7,8.035443 z"
         style="fill:#000000;fill-opacity:1;fill-rule:evenodd;stroke:#000000;stroke-width:0.625;stroke-linejoin:round;stroke-opacity:1"
         id="path8502-1" />
    </marker>
  </defs>
  <metadata
     id="metadata20110">
    <rdf:RDF>
      <cc:Work
         rdf:about="">
        <dc:format>image/svg+xml</dc:format>
        <dc:type
           rdf:resource="http://purl.org/dc/dcmitype/StillImage" />
        <dc:title></dc:title>
      </cc:Work>
    </rdf:RDF>
  </metadata>
  <g
     transform="translate(-200.26411,-50.839604)"
     id="layer1"
     inkscape:groupmode="layer"
     inkscape:label="Layer 1">
    <path
       sodipodi:nodetypes="ccccccccccccccccccccc"
       inkscape:connector-curvature="0"
       id="path20697"
       d="m 256.32476,515.52084 0,-199.96028 270.31304,0 0,199.96028 -54.65635,0 0,-24.99504 21.62505,-19.99603 0,-124.97516 -79.90644,0 0,124.97516 21.62505,19.99603 0,24.99504 -93.09391,0 0,-24.99504 21.62504,-19.99603 0,-124.97516 -79.90643,0 0,124.97516 27.0313,19.99603 0,24.99504 z"
       style="fill:#000000;fill-opacity:0.19205298;fill-rule:evenodd;stroke:#000000;stroke-width:1.03972948px;stroke-linecap:butt;stroke-linejoin:miter;stroke-opacity:1" />
    <path
       sodipodi:nodetypes="ccccccccccccccccccccc"
       inkscape:connector-curvature="0"
       id="path20697-5"
       d="m 255.72237,730.89752 0,-199.96027 270.31303,0 0,199.96027 -40.65635,0 0,-24.99504 21.62505,-19.99603 0,-124.97515 -107.90644,0 0,124.97515 21.62505,19.99603 0,24.99504 -65.0939,0 0,-24.99504 21.62503,-19.99603 0,-124.97515 -107.90642,0 0,124.97515 27.0313,19.99603 0,24.99504 z"
       style="fill:#000000;fill-opacity:0.19205298;fill-rule:evenodd;stroke:#000000;stroke-width:1.03972948px;stroke-linecap:butt;stroke-linejoin:miter;stroke-opacity:1" />
    <path
       sodipodi:nodetypes="ccccccccccccccccccccc"
       inkscape:connector-curvature="0"
       id="path20697-2"
       d="m 256.97349,290.46403 0,-199.960271 270.31304,0 0,199.960271 -66.2444,0 0,-24.99504 21.62505,-19.99603 0,-124.97515 -55.31013,0 0,124.97515 21.62505,19.99603 0,24.99504 -114.15176,0 0,-24.99504 21.62504,-19.99603 0,-124.97515 -62.15436,0 0,124.97515 27.0313,19.99603 0,24.99504 z"
       style="fill:#000000;fill-opacity:0.19205298;fill-rule:evenodd;stroke:#000000;stroke-width:1.03972948px;stroke-linecap:butt;stroke-linejoin:miter;stroke-opacity:1" />
    <path
       inkscape:connector-curvature="0"
       id="path22240"
       d="m 327.63658,62.995116 0,689.999994"
       style="fill:none;fill-rule:evenodd;stroke:#000000;stroke-width:1;stroke-linecap:butt;stroke-linejoin:miter;stroke-miterlimit:4;stroke-dasharray:12, 12;stroke-dashoffset:0;stroke-opacity:1" />
    <path
       inkscape:connector-curvature="0"
       id="path22242"
       d="m 454.81013,62.995116 0,689.999994"
       style="fill:none;fill-rule:evenodd;stroke:#000000;stroke-width:1;stroke-linecap:butt;stroke-linejoin:miter;stroke-miterlimit:4;stroke-dasharray:12, 12;stroke-dashoffset:0;stroke-opacity:1" />
    <path
       inkscape:connector-curvature="0"
       id="path22244"
       d="m 329.70911,72.95549 123.55701,0"
       style="fill:none;fill-rule:evenodd;stroke:#000000;stroke-width:0.98503143;stroke-linecap:butt;stroke-linejoin:miter;stroke-miterlimit:4;stroke-dasharray:none;stroke-opacity:1;marker-start:url(#Arrow2Lstart);marker-end:url(#Arrow2Lend)" />
    <g
       id="g22614"
       transform="matrix(0.49181263,0,0,0.49181263,236.87091,-112.9462)">
      <g
         word-spacing="normal"
         letter-spacing="normal"
         font-size-adjust="none"
         font-stretch="normal"
         font-weight="normal"
         font-variant="normal"
         font-style="normal"
         stroke-miterlimit="10.433"
         xml:space="preserve"
         transform="matrix(1.0629921,0,0,-1.0629921,-186.02362,789.27165)"
         id="content"
         style="font-style:normal;font-variant:normal;font-weight:normal;font-stretch:normal;letter-spacing:normal;word-spacing:normal;text-anchor:start;fill:none;fill-opacity:1;fill-rule:evenodd;stroke:#000000;stroke-linecap:butt;stroke-linejoin:miter;stroke-miterlimit:10.43299961;stroke-dasharray:none;stroke-dashoffset:0;stroke-opacity:1"><path
           id="path22617"
           d="m 463.22,425.73 2.99,0 -3.17,-15.64 c -0.05,-0.41 -0.1,-0.86 -0.1,-1.28 0,-1.74 0.6,-3.16 2.35,-3.16 3.34,0 5.92,2.56 7.51,6.42 l -1.09,0.64 c -1.19,-2.34 -3.03,-4.73 -4.03,-4.73 -0.61,0 -0.79,0.52 -0.79,1.2 0,0.6 0.15,1.28 0.27,1.97 l 3.08,14.58 6.42,0 1.83,3.48 c -1.24,-0.32 -2.8,-0.54 -4.77,-0.54 l -9.81,0 c -2.34,0 -4.72,-0.92 -6.56,-3.72 l 0.73,-0.83 c 1.61,1.06 3.49,1.61 5.14,1.61 z"
           inkscape:connector-curvature="0"
           style="fill:#000000;stroke-width:0" /><path
           id="path22619"
           d="m 492.18,416.25 -0.32,-0.01 -0.32,-0.02 -0.31,-0.03 -0.31,-0.05 -0.29,-0.06 -0.28,-0.06 -0.28,-0.09 -0.26,-0.09 -0.26,-0.1 -0.25,-0.11 -0.23,-0.13 -0.23,-0.13 -0.22,-0.14 -0.2,-0.15 -0.2,-0.16 -0.19,-0.17 -0.17,-0.18 -0.17,-0.19 -0.15,-0.19 -0.15,-0.2 -0.13,-0.21 -0.12,-0.21 -0.11,-0.22 -0.1,-0.23 -0.09,-0.23 -0.08,-0.24 -0.07,-0.24 -0.05,-0.25 -0.04,-0.25 -0.03,-0.25 -0.02,-0.26 -0.01,-0.26 c 0,-1.82 1.25,-3.43 3.07,-4.89 1.5,-1.18 2.4,-2.71 2.4,-4.07 0,-1.64 -1.05,-2.62 -2.51,-2.62 -1.29,0 -2.58,1.08 -3.13,2.94 -0.22,0.65 -0.53,1.04 -1.12,1.04 -1.05,0 -1.82,-0.95 -1.82,-1.89 0,-1.5 1.93,-3.31 5.24,-3.31 3.76,0 6.03,2.41 6.03,5.27 0,1.92 -0.88,3.42 -3.2,5.32 -2.1,1.71 -2.49,2.86 -2.49,3.83 0,1.13 0.88,2.27 2.16,2.27 1.15,0 2.06,-0.77 2.79,-2.39 0.18,-0.43 0.46,-0.71 0.97,-0.71 0.71,0 1.68,0.52 1.68,1.61 0,1.08 -1.32,2.71 -4.43,2.71 z"
           inkscape:connector-curvature="0"
           style="fill:#000000;stroke-width:0" /></g>    </g>
    <path
       inkscape:connector-curvature="0"
       id="path22244-9"
       d="m 560.4938,122.58574 0,576.83701"
       style="fill:none;fill-rule:evenodd;stroke:#000000;stroke-width:1;stroke-linecap:butt;stroke-linejoin:miter;stroke-miterlimit:4;stroke-dasharray:none;stroke-opacity:1;marker-start:url(#Arrow2Lstart-5);marker-end:url(#Arrow2Lend-7)" />
    <g
       transform="matrix(0.49181263,0,0,0.49181263,407.45341,-67.646771)"
       id="g23307">
      <g
         style="font-style:normal;font-variant:normal;font-weight:normal;font-stretch:normal;letter-spacing:normal;word-spacing:normal;text-anchor:start;fill:none;fill-opacity:1;fill-rule:evenodd;stroke:#000000;stroke-linecap:butt;stroke-linejoin:miter;stroke-miterlimit:10.43299961;stroke-dasharray:none;stroke-dashoffset:0;stroke-opacity:1"
         id="g23309"
         transform="matrix(1.0629921,0,0,-1.0629921,-186.02362,789.27165)"
         xml:space="preserve"
         stroke-miterlimit="10.433"
         font-style="normal"
         font-variant="normal"
         font-weight="normal"
         font-stretch="normal"
         font-size-adjust="none"
         letter-spacing="normal"
         word-spacing="normal"><path
           style="fill:#000000;stroke-width:0"
           inkscape:connector-curvature="0"
           d="m 467.68,437.37 0,-1.59 c 4.34,0 5.59,-6.8 5.59,-14.27 0,-7.47 -1.25,-14.26 -5.59,-14.26 -4.36,0 -5.6,6.79 -5.6,14.26 0,7.47 1.24,14.27 5.6,14.27 l 0,0 0,1.59 c -7.58,0 -10.29,-6.69 -10.29,-15.86 0,-9.17 2.71,-15.86 10.29,-15.86 7.56,0 10.26,6.69 10.26,15.86 0,9.17 -2.7,15.86 -10.26,15.86 z"
           id="path23311" /></g>    </g>
    <g
       id="g23387"
       transform="matrix(0.49181263,0,0,0.49181263,406.84624,555.57306)">
      <g
         word-spacing="normal"
         letter-spacing="normal"
         font-size-adjust="none"
         font-stretch="normal"
         font-weight="normal"
         font-variant="normal"
         font-style="normal"
         stroke-miterlimit="10.433"
         xml:space="preserve"
         transform="matrix(1.0629921,0,0,-1.0629921,-186.02362,789.27165)"
         id="g23389"
         style="font-style:normal;font-variant:normal;font-weight:normal;font-stretch:normal;letter-spacing:normal;word-spacing:normal;text-anchor:start;fill:none;fill-opacity:1;fill-rule:evenodd;stroke:#000000;stroke-linecap:butt;stroke-linejoin:miter;stroke-miterlimit:10.43299961;stroke-dasharray:none;stroke-dashoffset:0;stroke-opacity:1"><path
           id="path23391"
           d="m 475.55,406.2 0,1.33 -3.84,0.33 c -0.97,0.09 -1.52,0.45 -1.52,2.23 l 0,27.02 -0.23,0.26 -9.44,-1.59 0,-1.16 4.27,-0.5 c 0.78,-0.09 1.09,-0.45 1.09,-1.78 l 0,-22.25 c 0,-0.86 -0.14,-1.42 -0.41,-1.73 -0.23,-0.33 -0.59,-0.46 -1.11,-0.5 l -3.84,-0.33 0,-1.33 z"
           inkscape:connector-curvature="0"
           style="fill:#000000;stroke-width:0" /></g>    </g>
    <g
       transform="matrix(0.49181263,0,0,0.49181263,422.00542,247.7376)"
       id="g23473">
      <g
         style="font-style:normal;font-variant:normal;font-weight:normal;font-stretch:normal;letter-spacing:normal;word-spacing:normal;text-anchor:start;fill:none;fill-opacity:1;fill-rule:evenodd;stroke:#000000;stroke-linecap:butt;stroke-linejoin:miter;stroke-miterlimit:10.43299961;stroke-dasharray:none;stroke-dashoffset:0;stroke-opacity:1"
         id="g23475"
         transform="matrix(1.0629921,0,0,-1.0629921,-186.02362,789.27165)"
         xml:space="preserve"
         stroke-miterlimit="10.433"
         font-style="normal"
         font-variant="normal"
         font-weight="normal"
         font-stretch="normal"
         font-size-adjust="none"
         letter-spacing="normal"
         word-spacing="normal"><path
           style="fill:#000000;stroke-width:0"
           inkscape:connector-curvature="0"
           d="m 476.52,440.21 -0.58,-0.02 -0.57,-0.06 -0.56,-0.09 -0.55,-0.14 -0.54,-0.17 -0.53,-0.2 -0.51,-0.24 -0.51,-0.26 -0.49,-0.3 -0.48,-0.32 -0.47,-0.35 -0.46,-0.37 -0.44,-0.4 -0.43,-0.42 -0.41,-0.44 -0.4,-0.46 -0.39,-0.47 -0.37,-0.49 -0.35,-0.5 -0.34,-0.52 -0.32,-0.53 -0.31,-0.54 -0.29,-0.54 -0.27,-0.56 -0.26,-0.55 -0.24,-0.57 -0.22,-0.56 -0.2,-0.56 -0.18,-0.57 -0.17,-0.56 -0.14,-0.56 -0.13,-0.55 -6.92,-32.23 4.36,1.28 2.56,11.87 c 1.16,-1.7 3.67,-2.61 5.73,-2.61 7.57,0 13.35,6.83 13.35,14.39 0,3.44 -1.66,7.11 -6.97,7.39 l -1.42,0.77 c -1.71,0 -2.61,0.47 -3.17,0.47 -0.86,0 -1.29,-0.5 -1.46,-1.38 -0.04,-0.23 -0.09,-0.42 -0.09,-0.59 0,-0.56 0.31,-0.78 0.95,-0.78 0.64,0 1.71,0.45 3.36,0.45 2.88,0 4.35,-3.39 4.35,-6.51 0,-0.65 -0.05,-1.33 -0.18,-1.93 l 0,0 c -1.47,-6.82 -3.45,-10.59 -8.48,-10.59 -2.11,0 -4.45,2.06 -4.45,6.47 0,1.01 0.14,2.15 0.4,3.39 l 2.44,11.19 c 0.78,3.72 2.39,10.14 7.25,10.14 2.52,0 3.53,-1.61 3.53,-3.82 0,-2.37 -0.83,-6.51 -4.45,-6.51 l 1.42,-0.77 c 3.94,0.91 6.87,3.8 6.87,7.83 0,1.42 -0.54,2.63 -1.56,3.58 -1.23,1.16 -3.53,1.37 -5.31,1.37 z"
           id="path23477" /><path
           style="fill:#000000;stroke-width:0"
           inkscape:connector-curvature="0"
           d="m 496.98,416.25 -0.32,-0.01 -0.32,-0.02 -0.31,-0.03 -0.31,-0.05 -0.29,-0.06 -0.28,-0.06 -0.28,-0.09 -0.26,-0.09 -0.26,-0.1 -0.25,-0.11 -0.23,-0.13 -0.23,-0.13 -0.22,-0.14 -0.2,-0.15 -0.2,-0.16 -0.19,-0.17 -0.17,-0.18 -0.17,-0.19 -0.15,-0.19 -0.15,-0.2 -0.13,-0.21 -0.12,-0.21 -0.11,-0.22 -0.1,-0.23 -0.09,-0.23 -0.08,-0.24 -0.07,-0.24 -0.05,-0.25 -0.04,-0.25 -0.03,-0.25 -0.02,-0.26 -0.01,-0.26 c 0,-1.82 1.25,-3.43 3.07,-4.89 1.5,-1.18 2.4,-2.71 2.4,-4.07 0,-1.64 -1.04,-2.62 -2.51,-2.62 -1.28,0 -2.58,1.08 -3.13,2.94 -0.22,0.65 -0.53,1.04 -1.12,1.04 -1.05,0 -1.82,-0.95 -1.82,-1.89 0,-1.5 1.93,-3.31 5.24,-3.31 3.76,0 6.03,2.41 6.03,5.27 0,1.92 -0.87,3.42 -3.2,5.32 -2.1,1.71 -2.49,2.86 -2.49,3.83 0,1.13 0.88,2.27 2.16,2.27 1.16,0 2.06,-0.77 2.8,-2.39 0.17,-0.43 0.45,-0.71 0.96,-0.71 0.71,0 1.68,0.52 1.68,1.61 0,1.08 -1.32,2.71 -4.43,2.71 z"
           id="path23479" /></g>    </g>
    <path
       inkscape:connector-curvature="0"
       id="path23524"
       d="m 400.51977,612.26545 104.96773,0"
       style="fill:none;fill-rule:evenodd;stroke:#000000;stroke-width:0.98154521px;stroke-linecap:butt;stroke-linejoin:miter;stroke-opacity:1;marker-start:url(#marker23565);marker-end:url(#marker23619)" />
    <path
       inkscape:connector-curvature="0"
       id="path23526"
       d="m 303.77694,729.64718 0,-166.86573"
       style="fill:none;fill-rule:evenodd;stroke:#000000;stroke-width:0.99004734px;stroke-linecap:butt;stroke-linejoin:miter;stroke-opacity:1;marker-start:url(#marker23555);marker-end:url(#marker23635)" />
    <path
       inkscape:connector-curvature="0"
       id="path23530"
       d="m 251.57078,531.00542 -27.69197,0"
       style="fill:none;fill-rule:evenodd;stroke:#000000;stroke-width:1px;stroke-linecap:butt;stroke-linejoin:miter;stroke-opacity:1" />
    <path
       inkscape:connector-curvature="0"
       id="path23530-4"
       d="m 251.61363,560.61167 -27.69197,0"
       style="fill:none;fill-rule:evenodd;stroke:#000000;stroke-width:1px;stroke-linecap:butt;stroke-linejoin:miter;stroke-opacity:1" />
    <path
       inkscape:connector-curvature="0"
       id="path23547"
       d="m 229.32641,531.00541 0,29.05387"
       style="fill:none;fill-rule:evenodd;stroke:#000000;stroke-width:1px;stroke-linecap:butt;stroke-linejoin:miter;stroke-opacity:1;marker-start:url(#Arrow2Mstart);marker-end:url(#Arrow2Mend)" />
    <g
       id="g24077"
       transform="translate(289,267)">
      <g
         word-spacing="normal"
         letter-spacing="normal"
         font-size-adjust="none"
         font-stretch="normal"
         font-weight="normal"
         font-variant="normal"
         font-style="normal"
         stroke-miterlimit="10.433"
         xml:space="preserve"
         transform="matrix(0.48206825,0,0,-0.48206825,-84.361943,532.61662)"
         id="g24079"
         style="font-style:normal;font-variant:normal;font-weight:normal;font-stretch:normal;letter-spacing:normal;word-spacing:normal;text-anchor:start;fill:none;fill-opacity:1;fill-rule:evenodd;stroke:#000000;stroke-linecap:butt;stroke-linejoin:miter;stroke-miterlimit:10.43299961;stroke-dasharray:none;stroke-dashoffset:0;stroke-opacity:1"><path
           id="path24081"
           d="m 471.21,440 -0.24,0.21 -8.2,-1.09 -0.28,-1.06 2.61,-0.31 c 1.15,-0.14 1.33,-0.47 0.92,-2.25 l -6.73,-29.3 1.64,0 1.42,2.66 c 0.83,-1.93 3.17,-3.21 5.78,-3.21 5.36,0 9.26,3.58 11.5,7.61 2.3,4.03 3.03,8.11 3.03,10.17 0,3.39 -1.52,5.78 -4.91,5.78 -3.48,0 -8.01,-3.15 -11.54,-9.43 l 1.14,-0.57 c 2.06,3.68 5.5,7.61 8.34,7.61 1.7,0 2.49,-1.18 2.49,-3.79 l 0,0 c 0,-3.3 -2.77,-15.78 -9.5,-15.78 -2.35,0 -3.75,1.65 -3.75,3.95 0,2.2 0.95,5.36 2.42,8.01 l -1.14,0.57 -0.1,0 z"
           inkscape:connector-curvature="0"
           style="fill:#000000;stroke-width:0" /><path
           id="path24083"
           d="m 493.86,416.25 -0.33,-0.01 -0.31,-0.02 -0.32,-0.03 -0.3,-0.05 -0.29,-0.06 -0.28,-0.06 -0.28,-0.09 -0.26,-0.09 -0.26,-0.1 -0.25,-0.11 -0.23,-0.13 -0.23,-0.13 -0.22,-0.14 -0.2,-0.15 -0.2,-0.16 -0.19,-0.17 -0.17,-0.18 -0.17,-0.19 -0.15,-0.19 -0.15,-0.2 -0.13,-0.21 -0.12,-0.21 -0.11,-0.22 -0.1,-0.23 -0.09,-0.23 -0.08,-0.24 -0.07,-0.24 -0.05,-0.25 -0.04,-0.25 -0.03,-0.25 -0.02,-0.26 -0.01,-0.26 c 0,-1.82 1.25,-3.43 3.07,-4.89 1.5,-1.18 2.4,-2.71 2.4,-4.07 0,-1.64 -1.05,-2.62 -2.51,-2.62 -1.29,0 -2.58,1.08 -3.13,2.94 -0.22,0.65 -0.53,1.04 -1.12,1.04 -1.05,0 -1.82,-0.95 -1.82,-1.89 0,-1.5 1.93,-3.31 5.24,-3.31 3.76,0 6.03,2.41 6.03,5.27 0,1.92 -0.88,3.42 -3.2,5.32 -2.1,1.71 -2.49,2.86 -2.49,3.83 0,1.13 0.88,2.27 2.16,2.27 1.15,0 2.06,-0.77 2.79,-2.39 0.18,-0.43 0.46,-0.71 0.97,-0.71 0.71,0 1.68,0.52 1.68,1.61 0,1.08 -1.32,2.71 -4.43,2.71 z"
           inkscape:connector-curvature="0"
           style="fill:#000000;stroke-width:0" /></g>    </g>
    <g
       id="g24215"
       transform="translate(142,310)">
      <g
         id="g24217"
         transform="matrix(0.48206825,0,0,-0.48206825,-84.361943,532.61662)"
         xml:space="preserve"
         stroke-miterlimit="10.433"
         font-style="normal"
         font-variant="normal"
         font-weight="normal"
         font-stretch="normal"
         font-size-adjust="none"
         letter-spacing="normal"
         word-spacing="normal"
         style="font-style:normal;font-variant:normal;font-weight:normal;font-stretch:normal;letter-spacing:normal;word-spacing:normal;text-anchor:start;fill:none;fill-opacity:1;fill-rule:evenodd;stroke:#000000;stroke-linecap:butt;stroke-linejoin:miter;stroke-miterlimit:10.43299961;stroke-dasharray:none;stroke-dashoffset:0;stroke-opacity:1"><path
           d="m 471.66,440 -0.23,0.21 -8.25,-1.09 -0.29,-1.06 2.63,-0.31 c 1.14,-0.14 1.33,-0.47 0.91,-2.25 l -6.69,-29.85 3.98,0.55 c 1.24,4.67 1.92,7.2 3.08,10.09 1.38,3.57 5.91,10.53 9.91,10.53 1.47,0 2.01,-1.32 1.47,-3.2 l -3.77,-13.01 c -0.87,-3.04 -0.23,-4.96 2.38,-4.96 3.17,0 5.73,3.11 7.29,6.6 l -1.09,0.64 c -0.83,-1.6 -2.85,-4.86 -4.13,-4.86 -0.92,0 -0.92,1.06 -0.47,2.53 l 3.63,12.01 c 1.09,3.61 0.5,6.64 -3.2,6.64 -4.36,0 -9.22,-4.71 -12.16,-10.21 l -0.14,0 z"
           id="path24219"
           inkscape:connector-curvature="0"
           style="fill:#000000;stroke-width:0" /><path
           d="m 496.14,416.25 -0.32,-0.01 -0.32,-0.02 -0.31,-0.03 -0.31,-0.05 -0.29,-0.06 -0.28,-0.06 -0.28,-0.09 -0.26,-0.09 -0.26,-0.1 -0.25,-0.11 -0.23,-0.13 -0.23,-0.13 -0.22,-0.14 -0.2,-0.15 -0.2,-0.16 -0.19,-0.17 -0.17,-0.18 -0.17,-0.19 -0.15,-0.19 -0.15,-0.2 -0.13,-0.21 -0.12,-0.21 -0.11,-0.22 -0.1,-0.23 -0.09,-0.23 -0.08,-0.24 -0.07,-0.24 -0.05,-0.25 -0.04,-0.25 -0.03,-0.25 -0.02,-0.26 -0.01,-0.26 c 0,-1.82 1.25,-3.43 3.07,-4.89 1.5,-1.18 2.4,-2.71 2.4,-4.07 0,-1.64 -1.04,-2.62 -2.51,-2.62 -1.28,0 -2.58,1.08 -3.13,2.94 -0.22,0.65 -0.53,1.04 -1.12,1.04 -1.05,0 -1.82,-0.95 -1.82,-1.89 0,-1.5 1.93,-3.31 5.24,-3.31 3.76,0 6.03,2.41 6.03,5.27 0,1.92 -0.87,3.42 -3.2,5.32 -2.1,1.71 -2.49,2.86 -2.49,3.83 0,1.13 0.88,2.27 2.16,2.27 1.16,0 2.06,-0.77 2.8,-2.39 0.17,-0.43 0.45,-0.71 0.96,-0.71 0.71,0 1.68,0.52 1.68,1.61 0,1.08 -1.32,2.71 -4.43,2.71 z"
           id="path24221"
           inkscape:connector-curvature="0"
           style="fill:#000000;stroke-width:0" /></g>    </g>
    <g
       id="g24361"
       transform="translate(63,216)">
      <g
         word-spacing="normal"
         letter-spacing="normal"
         font-size-adjust="none"
         font-stretch="normal"
         font-weight="normal"
         font-variant="normal"
         font-style="normal"
         stroke-miterlimit="10.433"
         xml:space="preserve"
         transform="matrix(0.48206825,0,0,-0.48206825,-84.361943,532.61662)"
         id="g24363"
         style="font-style:normal;font-variant:normal;font-weight:normal;font-stretch:normal;letter-spacing:normal;word-spacing:normal;text-anchor:start;fill:none;fill-opacity:1;fill-rule:evenodd;stroke:#000000;stroke-linecap:butt;stroke-linejoin:miter;stroke-miterlimit:10.43299961;stroke-dasharray:none;stroke-dashoffset:0;stroke-opacity:1"><path
           id="path24365"
           d="m 471.66,440 -0.23,0.21 -8.25,-1.09 -0.29,-1.06 2.63,-0.31 c 1.14,-0.14 1.33,-0.47 0.91,-2.25 l -6.69,-29.85 3.98,0.55 c 1.24,4.67 1.92,7.2 3.08,10.09 1.38,3.57 5.91,10.53 9.91,10.53 1.47,0 2.01,-1.32 1.47,-3.2 l -3.77,-13.01 c -0.87,-3.04 -0.23,-4.96 2.38,-4.96 3.17,0 5.73,3.11 7.29,6.6 l -1.09,0.64 c -0.83,-1.6 -2.85,-4.86 -4.13,-4.86 -0.92,0 -0.92,1.06 -0.47,2.53 l 3.63,12.01 c 1.09,3.61 0.5,6.64 -3.2,6.64 -4.36,0 -9.22,-4.71 -12.16,-10.21 l -0.14,0 z"
           inkscape:connector-curvature="0"
           style="fill:#000000;stroke-width:0" /><path
           id="path24367"
           d="m 499.71,404.12 -0.12,-0.15 -0.11,-0.16 -0.13,-0.16 -0.12,-0.16 -0.14,-0.17 -0.13,-0.17 -0.29,-0.34 -0.3,-0.34 -0.32,-0.33 -0.34,-0.33 -0.17,-0.16 -0.18,-0.16 -0.18,-0.15 -0.18,-0.14 -0.19,-0.14 -0.19,-0.14 -0.19,-0.12 -0.2,-0.12 -0.2,-0.11 -0.2,-0.1 -0.2,-0.09 -0.21,-0.08 -0.21,-0.07 -0.21,-0.06 -0.21,-0.05 -0.21,-0.03 -0.22,-0.02 -0.22,-0.01 c -2.54,0 -3.07,2.08 -3.07,4.56 0,4.53 2.62,10.41 5.82,10.41 1.11,0 1.88,-0.69 2.1,-2.78 0.06,-0.63 0.37,-1.05 1,-1.05 0.84,0 2.23,0.8 2.23,1.95 0,1.78 -1.87,3.1 -4.5,3.1 -6.2,0 -10.09,-6.61 -10.09,-12.33 0,-4.25 2.53,-5.58 4.98,-5.58 2.58,0 5.53,1.12 7.94,5.12 z"
           inkscape:connector-curvature="0"
           style="fill:#000000;stroke-width:0" /></g>    </g>
  </g>
</svg>
