<?xml version="1.0" encoding="UTF-8" standalone="no"?>
<!-- Created with Inkscape (http://www.inkscape.org/) -->

<svg
   xmlns:dc="http://purl.org/dc/elements/1.1/"
   xmlns:cc="http://creativecommons.org/ns#"
   xmlns:rdf="http://www.w3.org/1999/02/22-rdf-syntax-ns#"
   xmlns:svg="http://www.w3.org/2000/svg"
   xmlns="http://www.w3.org/2000/svg"
   xmlns:sodipodi="http://sodipodi.sourceforge.net/DTD/sodipodi-0.dtd"
   xmlns:inkscape="http://www.inkscape.org/namespaces/inkscape"
   width="96.628586mm"
   height="73.225937mm"
   viewBox="0 0 342.38475 259.46198"
   id="svg2"
   version="1.1"
   inkscape:version="0.91 r13725"
   sodipodi:docname="gaevolution.svg">
  <sodipodi:namedview
     id="base"
     pagecolor="#ffffff"
     bordercolor="#666666"
     borderopacity="1.0"
     inkscape:pageopacity="0.0"
     inkscape:pageshadow="2"
     inkscape:zoom="1.5"
     inkscape:cx="142.77286"
     inkscape:cy="131.86004"
     inkscape:document-units="px"
     inkscape:current-layer="layer1"
     showgrid="false"
     inkscape:window-width="1600"
     inkscape:window-height="838"
     inkscape:window-x="-8"
     inkscape:window-y="-8"
     inkscape:window-maximized="1"
     fit-margin-top="0"
     fit-margin-left="0"
     fit-margin-right="0"
     fit-margin-bottom="0"
     showguides="false" />
  <defs
     id="defs4">
    <clipPath
       id="clipPath4305"
       clipPathUnits="userSpaceOnUse">
      <path
         inkscape:connector-curvature="0"
         id="path4307"
         d="m 0,2200 3000,0 L 3000,2.5 0,2.5 0,2200 Z" />
    </clipPath>
    <clipPath
       id="clipPath4491"
       clipPathUnits="userSpaceOnUse">
      <path
         inkscape:connector-curvature="0"
         id="path4493"
         d="m 390,2035 2325.83,0 0,-1761.668 -2325.83,0 0,1761.668 z" />
    </clipPath>
    <clipPath
       id="clipPath4527"
       clipPathUnits="userSpaceOnUse">
      <path
         inkscape:connector-curvature="0"
         id="path4529"
         d="m 0,2200 3000,0 L 3000,2.5 0,2.5 0,2200 Z" />
    </clipPath>
    <clipPath
       id="clipPath4545"
       clipPathUnits="userSpaceOnUse">
      <path
         inkscape:connector-curvature="0"
         id="path4547"
         d="m 390,2035 2325.83,0 0,-1761.668 -2325.83,0 0,1761.668 z" />
    </clipPath>
    <clipPath
       id="clipPath4557"
       clipPathUnits="userSpaceOnUse">
      <path
         inkscape:connector-curvature="0"
         id="path4559"
         d="m 0,2200 3000,0 L 3000,2.5 0,2.5 0,2200 Z" />
    </clipPath>
    <clipPath
       id="clipPath4599"
       clipPathUnits="userSpaceOnUse">
      <path
         inkscape:connector-curvature="0"
         id="path4601"
         d="m 2064.17,711.668 601.66,0 0,-389.168 -601.66,0 0,389.168 z" />
    </clipPath>
    <clipPath
       id="clipPath4609"
       clipPathUnits="userSpaceOnUse">
      <path
         inkscape:connector-curvature="0"
         id="path4611"
         d="m 0,2200 3000,0 L 3000,2.5 0,2.5 0,2200 Z" />
    </clipPath>
    <clipPath
       id="clipPath4627"
       clipPathUnits="userSpaceOnUse">
      <path
         inkscape:connector-curvature="0"
         id="path4629"
         d="m 2064.17,711.668 601.66,0 0,-389.168 -601.66,0 0,389.168 z" />
    </clipPath>
  </defs>
  <metadata
     id="metadata7">
    <rdf:RDF>
      <cc:Work
         rdf:about="">
        <dc:format>image/svg+xml</dc:format>
        <dc:type
           rdf:resource="http://purl.org/dc/dcmitype/StillImage" />
        <dc:title />
      </cc:Work>
    </rdf:RDF>
  </metadata>
  <g
     inkscape:label="Layer 1"
     inkscape:groupmode="layer"
     id="layer1"
     transform="translate(-208.46442,-62.676298)">
    <g
       id="g4141"
       transform="matrix(0.29381448,0,0,0.29381448,255.4452,216.88871)">
      <g
         id="content"
         transform="matrix(1.0629921,0,0,-1.0629921,-186.02362,789.27165)"
         xml:space="preserve"
         stroke-miterlimit="10.433"
         font-style="normal"
         font-variant="normal"
         font-weight="normal"
         font-stretch="normal"
         font-size-adjust="none"
         letter-spacing="normal"
         word-spacing="normal"
         style="font-style:normal;font-variant:normal;font-weight:normal;font-stretch:normal;letter-spacing:normal;word-spacing:normal;text-anchor:start;fill:none;fill-opacity:1;fill-rule:evenodd;stroke:#000000;stroke-linecap:butt;stroke-linejoin:miter;stroke-miterlimit:10.43299961;stroke-dasharray:none;stroke-dashoffset:0;stroke-opacity:1"><path
           d="m 485.5,416.46 0,0.21 0.01,0.2 0,0.19 0.01,0.17 0.01,0.17 0.02,0.15 0.01,0.15 0.03,0.13 0.03,0.13 0.03,0.12 0.04,0.11 0.05,0.1 0.05,0.1 0.06,0.08 0.07,0.09 0.08,0.07 0.08,0.07 0.1,0.06 0.1,0.06 0.12,0.06 0.13,0.05 0.13,0.04 0.15,0.05 0.16,0.04 0.09,0.01 0.09,0.02 0.09,0.02 0.09,0.02 0.1,0.01 0.1,0.02 0.11,0.02 0.11,0.01 0.11,0.02 0.12,0.01 0.12,0.02 0.12,0.01 0.13,0.02 0.13,0.01 0.13,0.01 0.14,0.02 0,1.33 -12.65,0 0,-1.33 c 4.64,-0.31 4.87,-0.6 4.87,-2.85 l 0,-6.18 c 0,-1.61 -0.61,-2.11 -1.56,-2.47 -1.2,-0.47 -2.48,-0.69 -4.03,-0.69 -10.55,0 -12.53,9.34 -12.53,15.08 0,7.25 2.89,14.81 11.92,14.81 5.05,0 7.98,-2.3 8.95,-7.47 l 1.38,0 0,7.19 c -2.25,1.11 -6.21,1.89 -9.86,1.89 -6.88,0 -11.47,-2.25 -14.08,-5.64 -2.34,-3.08 -3.44,-6.75 -3.44,-11.52 0,-5.9 2.33,-10.64 5.69,-13.01 3.48,-2.44 7.52,-2.94 11.55,-2.94 3.22,0 7.65,1.02 10.54,1.92 z"
           id="path4144"
           inkscape:connector-curvature="0"
           style="fill:#000000;stroke-width:0" /><path
           d="m 509.58,418.26 0.09,0 0.09,0 0.09,0.01 0.08,0 0.09,0.01 0.09,0.01 0.08,0.01 0.08,0.02 0.08,0.02 0.08,0.02 0.08,0.02 0.07,0.03 0.07,0.03 0.07,0.04 0.07,0.04 0.07,0.04 0.06,0.05 0.06,0.05 0.05,0.06 0.05,0.06 0.05,0.07 0.05,0.07 0.04,0.08 0.04,0.09 0.03,0.09 0.02,0.04 0.01,0.05 0.01,0.05 0.02,0.06 0.01,0.05 0.01,0.06 0.01,0.05 0,0.06 0.01,0.06 0.01,0.07 0,0.06 0,0.07 0.01,0.07 0,0.07 c 0,2.7 -0.86,9.21 -9.25,9.21 l -0.28,-1.6 c 4.26,0 4.76,-4.35 4.76,-6.15 0,-0.87 -0.26,-1.46 -1.56,-1.46 l -8.66,0 c 0,1.89 0.69,7.61 5.46,7.61 l 0.28,1.6 c -7.16,0 -10.55,-5.09 -10.55,-11.96 0,-7.24 3.11,-11.69 10.59,-11.6 5.08,0.05 7.71,2.85 8.94,6.47 l -1.37,0.72 c -1.29,-2.66 -3.04,-4.86 -6.66,-4.86 -5.69,0 -6.83,5.52 -6.73,10.28 z"
           id="path4146"
           inkscape:connector-curvature="0"
           style="fill:#000000;stroke-width:0" /><path
           d="m 537.13,421.92 -0.01,0.43 -0.02,0.41 -0.04,0.41 -0.05,0.39 -0.06,0.39 -0.08,0.36 -0.09,0.36 -0.11,0.35 -0.12,0.33 -0.13,0.32 -0.15,0.3 -0.16,0.3 -0.17,0.28 -0.19,0.26 -0.2,0.26 -0.21,0.24 -0.22,0.22 -0.23,0.22 -0.25,0.19 -0.26,0.19 -0.27,0.17 -0.28,0.16 -0.3,0.14 -0.3,0.13 -0.32,0.11 -0.33,0.1 -0.34,0.08 -0.34,0.07 -0.36,0.06 -0.37,0.03 -0.38,0.03 -0.39,0 c -3.4,0 -5.5,-1.65 -8.35,-3.48 l -0.64,3.48 -6.83,-1.14 0,-1.15 1.74,-0.22 c 1.18,-0.19 1.46,-0.42 1.46,-2.06 l 0,-14.46 c 0,-2.32 -0.13,-2.42 -3.43,-2.65 l 0,-1.33 11.18,0 0,1.33 c -3.25,0.23 -3.43,0.33 -3.43,2.65 l 0,10.74 c 0,1.14 0.09,1.78 0.45,2.51 0.97,1.8 3.03,3.32 5.45,3.32 3.13,0 4.82,-1.75 4.82,-5.74 l 0,-10.83 c 0,-2.32 -0.13,-2.42 -3.44,-2.65 l 0,-1.33 11.19,0 0,1.33 c -3.25,0.23 -3.44,0.33 -3.44,2.65 z"
           id="path4148"
           inkscape:connector-curvature="0"
           style="fill:#000000;stroke-width:0" /><path
           d="m 561.41,418.26 0.09,0 0.09,0 0.09,0.01 0.09,0 0.09,0.01 0.08,0.01 0.09,0.01 0.08,0.02 0.08,0.02 0.08,0.02 0.07,0.02 0.08,0.03 0.07,0.03 0.07,0.04 0.07,0.04 0.06,0.04 0.06,0.05 0.06,0.05 0.06,0.06 0.05,0.06 0.05,0.07 0.04,0.07 0.04,0.08 0.04,0.09 0.04,0.09 0.01,0.04 0.02,0.05 0.01,0.05 0.01,0.06 0.01,0.05 0.01,0.06 0.01,0.05 0.01,0.06 0.01,0.06 0,0.07 0.01,0.06 0,0.07 0,0.07 0,0.07 c 0,2.7 -0.86,9.21 -9.25,9.21 l -0.28,-1.6 c 4.27,0 4.77,-4.35 4.77,-6.15 0,-0.87 -0.27,-1.46 -1.57,-1.46 l -8.65,0 c 0,1.89 0.69,7.61 5.45,7.61 l 0.28,1.6 c -7.15,0 -10.54,-5.09 -10.54,-11.96 0,-7.24 3.1,-11.69 10.59,-11.6 5.08,0.05 7.7,2.85 8.94,6.47 l -1.38,0.72 c -1.28,-2.66 -3.03,-4.86 -6.65,-4.86 -5.69,0 -6.83,5.52 -6.74,10.28 z"
           id="path4150"
           inkscape:connector-curvature="0"
           style="fill:#000000;stroke-width:0" /><path
           d="m 573.39,429.21 -6.97,-1.14 0,-1.15 1.73,-0.22 c 1.19,-0.19 1.47,-0.42 1.47,-2.06 l 0,-14.46 c 0,-2.32 -0.23,-2.42 -3.44,-2.65 l 0,-1.33 12.11,0 0,1.33 c -4.09,0.23 -4.36,0.33 -4.36,2.65 l 0,10.74 c 0,3.53 1.57,4.72 2.61,4.72 0.74,0 1.52,-0.27 2.85,-1 0.33,-0.19 0.68,-0.24 0.92,-0.24 1.09,0 2.11,1.14 2.11,2.56 0,1.02 -0.64,2.25 -2.44,2.25 -1.66,0 -3.03,-1.01 -6.05,-3.67 z"
           id="path4152"
           inkscape:connector-curvature="0"
           style="fill:#000000;stroke-width:0" /><path
           d="m 601.97,423.12 -0.01,0.51 -0.01,0.26 -0.02,0.26 -0.02,0.26 -0.04,0.26 -0.04,0.26 -0.06,0.26 -0.07,0.26 -0.08,0.26 -0.09,0.26 -0.12,0.25 -0.12,0.24 -0.14,0.24 -0.17,0.24 -0.18,0.22 -0.2,0.22 -0.22,0.21 -0.25,0.21 -0.26,0.19 -0.3,0.18 -0.15,0.08 -0.16,0.09 -0.17,0.08 -0.18,0.07 -0.18,0.08 -0.19,0.07 -0.2,0.06 -0.2,0.07 -0.21,0.05 -0.22,0.06 -0.23,0.05 -0.23,0.05 -0.25,0.04 -0.25,0.04 -0.26,0.04 -0.26,0.03 -0.28,0.02 -0.28,0.03 -0.3,0.01 -0.3,0.02 -0.31,0 -0.32,0 c -5.17,0 -9.25,-2.7 -9.25,-5.23 0,-1.45 1.69,-2.14 2.56,-2.14 0.97,0 1.24,0.5 1.47,1.28 1,3.39 2.89,4.49 4.72,4.49 1.78,0 3.89,-0.91 3.89,-4.58 l 0,-1.92 0,-1.9 0,-6.45 c 0,-3.72 -2.83,-4.69 -4.62,-4.69 -2.85,0 -4.22,2.02 -4.22,4.74 0,2.14 1.01,3.25 3.58,4.2 1.83,0.7 4.26,1.56 5.26,2.2 l 0,1.9 c -1.14,-1.21 -5.59,-2.35 -9.2,-3.49 -3.31,-1.01 -4.27,-3.31 -4.27,-5.47 0,-3.44 2.29,-6.5 6.6,-6.5 2.84,0.1 5.37,1.78 6.84,2.75 0.64,-1.7 1.38,-2.75 2.97,-2.75 1.7,0 3.67,0.5 5.41,1.38 l -0.27,1.09 c -0.64,-0.14 -1.66,-0.22 -2.34,-0.05 -0.83,0.19 -1.6,1.07 -1.6,3.96 z"
           id="path4154"
           inkscape:connector-curvature="0"
           style="fill:#000000;stroke-width:0" /><path
           d="m 619.86,408.03 -0.25,0 -0.25,0.01 -0.24,0.02 -0.24,0.03 -0.22,0.04 -0.23,0.04 -0.21,0.05 -0.22,0.06 -0.4,0.14 -0.39,0.16 -0.36,0.19 -0.34,0.21 -0.33,0.24 -0.3,0.26 -0.28,0.28 -0.27,0.29 -0.25,0.32 -0.22,0.33 -0.22,0.35 -0.19,0.36 -0.18,0.37 -0.17,0.39 -0.15,0.39 -0.13,0.41 -0.12,0.41 -0.11,0.42 -0.1,0.42 -0.08,0.43 -0.07,0.42 -0.06,0.43 -0.05,0.43 -0.04,0.43 -0.03,0.42 -0.02,0.42 -0.01,0.42 0,0.41 c 0,6.83 2.7,9.58 5.87,9.58 2.11,0 3.44,-1.52 4.34,-3.99 0.29,-0.73 0.55,-1.19 1.43,-1.19 0.92,0 2.7,0.6 2.7,2.33 0,2.11 -3.02,4.45 -7.97,4.45 -8.34,0 -11.14,-5.92 -11.14,-12.01 0,-7.66 3.75,-11.55 10.64,-11.55 3.2,0 7.52,1.69 8.8,6.6 l -1.33,0.64 c -1.42,-3.21 -3.27,-4.86 -6.61,-4.86 z"
           id="path4156"
           inkscape:connector-curvature="0"
           style="fill:#000000;stroke-width:0" /><path
           d="m 630.49,428.07 0,-1.15 1.74,-0.22 c 1.18,-0.19 1.47,-0.42 1.47,-2.06 l 0,-14.46 c 0,-2.32 -0.15,-2.42 -3.44,-2.65 l 0,-1.33 11.19,0 0,1.33 c -3.25,0.23 -3.44,0.33 -3.44,2.65 l 0,18.75 -0.33,0.28 z"
           id="path4158"
           inkscape:connector-curvature="0"
           style="fill:#000000;stroke-width:0" /><path
           d="m 635.8,438.98 -0.15,0 -0.15,-0.01 -0.15,-0.02 -0.14,-0.02 -0.14,-0.03 -0.14,-0.04 -0.13,-0.04 -0.13,-0.05 -0.13,-0.06 -0.12,-0.06 -0.12,-0.06 -0.11,-0.07 -0.11,-0.08 -0.1,-0.08 -0.1,-0.09 -0.09,-0.09 -0.09,-0.1 -0.09,-0.1 -0.08,-0.11 -0.07,-0.11 -0.07,-0.11 -0.07,-0.12 -0.06,-0.12 -0.05,-0.13 -0.04,-0.13 -0.05,-0.14 -0.03,-0.13 -0.03,-0.15 -0.02,-0.14 -0.02,-0.15 -0.01,-0.15 0,-0.15 c 0,-1.61 1.14,-2.75 2.79,-2.75 1.71,0 2.75,1.14 2.8,2.75 0,1.65 -1.09,2.84 -2.8,2.84 z"
           id="path4160"
           inkscape:connector-curvature="0"
           style="fill:#000000;stroke-width:0" /><path
           d="m 655.31,429.21 -0.68,-0.01 -0.65,-0.04 -0.63,-0.06 -0.62,-0.09 -0.59,-0.11 -0.56,-0.14 -0.55,-0.16 -0.52,-0.18 -0.51,-0.21 -0.48,-0.23 -0.46,-0.26 -0.44,-0.28 -0.41,-0.3 -0.4,-0.32 -0.37,-0.35 -0.36,-0.36 -0.33,-0.39 -0.31,-0.41 -0.28,-0.43 -0.27,-0.46 -0.25,-0.47 -0.22,-0.5 -0.2,-0.51 -0.18,-0.53 -0.16,-0.56 -0.14,-0.57 -0.12,-0.6 -0.09,-0.61 -0.08,-0.63 -0.05,-0.65 -0.03,-0.67 -0.02,-0.69 c 0,-7.42 3.63,-11.78 10.96,-11.78 l 0,1.6 c -4.17,0 -6.19,3.86 -6.19,10.18 l 0,0 c 0,6.33 2.02,10.18 6.19,10.18 4.26,0 6.23,-3.85 6.23,-10.18 0,-6.32 -1.97,-10.18 -6.23,-10.18 l 0,-1.6 c 7.42,0 11,4.36 11,11.78 0,7.43 -3.58,11.78 -11,11.78 z"
           id="path4162"
           inkscape:connector-curvature="0"
           style="fill:#000000;stroke-width:0" /><path
           d="m 692.75,421.92 0,0.43 -0.03,0.41 -0.03,0.41 -0.05,0.39 -0.07,0.39 -0.08,0.36 -0.09,0.36 -0.11,0.35 -0.11,0.33 -0.14,0.32 -0.14,0.3 -0.16,0.3 -0.18,0.28 -0.18,0.26 -0.2,0.26 -0.21,0.24 -0.22,0.22 -0.24,0.22 -0.25,0.19 -0.26,0.19 -0.27,0.17 -0.28,0.16 -0.29,0.14 -0.31,0.13 -0.31,0.11 -0.33,0.1 -0.34,0.08 -0.35,0.07 -0.36,0.06 -0.37,0.03 -0.38,0.03 -0.39,0 c -3.39,0 -5.5,-1.65 -8.34,-3.48 l -0.65,3.48 -6.82,-1.14 0,-1.15 1.73,-0.22 c 1.19,-0.19 1.47,-0.42 1.47,-2.06 l 0,-14.46 c 0,-2.32 -0.14,-2.42 -3.44,-2.65 l 0,-1.33 11.19,0 0,1.33 c -3.25,0.23 -3.44,0.33 -3.44,2.65 l 0,10.74 c 0,1.14 0.1,1.78 0.46,2.51 0.97,1.8 3.03,3.32 5.45,3.32 3.12,0 4.81,-1.75 4.81,-5.74 l 0,-10.83 c 0,-2.32 -0.12,-2.42 -3.44,-2.65 l 0,-1.33 11.19,0 0,1.33 c -3.25,0.23 -3.44,0.33 -3.44,2.65 z"
           id="path4164"
           inkscape:connector-curvature="0"
           style="fill:#000000;stroke-width:0" /><path
           d="m 717.04,418.26 0.09,0 0.09,0 0.09,0.01 0.09,0 0.08,0.01 0.09,0.01 0.08,0.01 0.08,0.02 0.08,0.02 0.08,0.02 0.08,0.02 0.07,0.03 0.08,0.03 0.06,0.04 0.07,0.04 0.07,0.04 0.06,0.05 0.06,0.05 0.05,0.06 0.05,0.06 0.05,0.07 0.05,0.07 0.04,0.08 0.04,0.09 0.03,0.09 0.02,0.04 0.01,0.05 0.01,0.05 0.02,0.06 0.01,0.05 0.01,0.06 0.01,0.05 0,0.06 0.01,0.06 0.01,0.07 0,0.06 0,0.07 0.01,0.07 0,0.07 c 0,2.7 -0.86,9.21 -9.25,9.21 l -0.28,-1.6 c 4.26,0 4.76,-4.35 4.76,-6.15 0,-0.87 -0.26,-1.46 -1.56,-1.46 l -8.66,0 c 0,1.89 0.69,7.61 5.46,7.61 l 0.28,1.6 c -7.16,0 -10.55,-5.09 -10.55,-11.96 0,-7.24 3.11,-11.69 10.59,-11.6 5.08,0.05 7.71,2.85 8.94,6.47 l -1.37,0.72 c -1.28,-2.66 -3.03,-4.86 -6.66,-4.86 -5.69,0 -6.83,5.52 -6.73,10.28 z"
           id="path4166"
           inkscape:connector-curvature="0"
           style="fill:#000000;stroke-width:0" /><path
           d="m 737.17,422.29 0,5.36 c -1.52,1.11 -3.86,1.56 -5.92,1.56 -4.96,0 -8.3,-2.34 -8.35,-6.68 0.05,-3.82 3.13,-5.52 6.92,-6.66 2.07,-0.64 4.96,-1.69 4.96,-4.81 0,-2.35 -1.83,-3.81 -4.27,-3.81 -3.7,0 -5.76,2.71 -6.69,6.61 l -1.32,0 0.45,-6 c 1.65,-1.47 4.45,-2.21 7.15,-2.21 5.46,0 8.58,2.89 8.58,6.78 0,4.03 -2.48,5.88 -7.2,7.35 -1.88,0.59 -4.91,1.54 -4.91,4.12 0.05,2.38 1.83,3.71 4.13,3.71 3.25,0 4.81,-2.52 5.14,-5.32 z"
           id="path4168"
           inkscape:connector-curvature="0"
           style="fill:#000000;stroke-width:0" /></g>    </g>
    <g
       id="g4208"
       transform="matrix(0,-0.29753657,0.29753657,0,112.85643,334.42129)">
      <g
         word-spacing="normal"
         letter-spacing="normal"
         font-size-adjust="none"
         font-stretch="normal"
         font-weight="normal"
         font-variant="normal"
         font-style="normal"
         stroke-miterlimit="10.433"
         xml:space="preserve"
         transform="matrix(1.0629921,0,0,-1.0629921,-186.02362,789.27165)"
         id="g4210"
         style="font-style:normal;font-variant:normal;font-weight:normal;font-stretch:normal;letter-spacing:normal;word-spacing:normal;text-anchor:start;fill:none;fill-opacity:1;fill-rule:evenodd;stroke:#000000;stroke-linecap:butt;stroke-linejoin:miter;stroke-miterlimit:10.43299961;stroke-dasharray:none;stroke-dashoffset:0;stroke-opacity:1"><path
           id="path4212"
           d="m 457.13,437.93 0,-1.34 c 4.03,-0.27 4.12,-0.36 4.12,-2.92 l 0,-23.21 c 0,-2.56 -0.09,-2.65 -4.12,-2.93 l 0,-1.33 13.51,0 0,1.33 c -4.71,0.28 -4.85,0.37 -4.85,2.93 l 0,10.74 6.42,0 c 3.89,0 4.08,-1.11 4.5,-4.05 l 1.37,0 0,9.81 -1.37,0 c -0.42,-2.93 -0.61,-4.03 -4.5,-4.03 l -6.42,0 0,11.74 c 0,1.51 0.18,1.65 1.7,1.65 l 4.53,0 c 5.33,0 6.37,-1.06 7.02,-5.73 l 1.37,0 0,7.34 z"
           inkscape:connector-curvature="0"
           style="fill:#000000;stroke-width:0" /><path
           id="path4214"
           d="m 508.65,406.2 0,1.33 c -3.15,0.23 -3.44,0.33 -3.44,2.65 l 0,18.75 -0.31,0.28 -7.2,-1.14 0,-1.15 1.73,-0.22 c 1.21,-0.19 1.47,-0.42 1.47,-2.06 l 0,-10.33 c 0,-1.28 -0.14,-2.28 -0.36,-2.75 -1.06,-2.11 -3.26,-3.44 -5.64,-3.44 -2.65,0 -4.62,1.66 -4.62,5.24 l 0,15.57 -0.33,0.28 -7.2,-1.14 0,-1.15 1.75,-0.22 c 1.18,-0.19 1.46,-0.42 1.46,-2.06 l 0,-12.11 c 0,-5.28 3.11,-6.88 6.5,-6.88 3.91,0 7.07,2.66 8.4,3.3 l 0.46,-2.75 z"
           inkscape:connector-curvature="0"
           style="fill:#000000;stroke-width:0" /><path
           id="path4216"
           d="m 533.53,421.92 -0.01,0.43 -0.02,0.41 -0.04,0.41 -0.05,0.39 -0.06,0.39 -0.08,0.36 -0.1,0.36 -0.1,0.35 -0.12,0.33 -0.14,0.32 -0.14,0.3 -0.16,0.3 -0.17,0.28 -0.19,0.26 -0.2,0.26 -0.21,0.24 -0.22,0.22 -0.24,0.22 -0.24,0.19 -0.26,0.19 -0.27,0.17 -0.29,0.16 -0.29,0.14 -0.3,0.13 -0.32,0.11 -0.33,0.1 -0.34,0.08 -0.35,0.07 -0.36,0.06 -0.37,0.03 -0.38,0.03 -0.39,0 c -3.39,0 -5.5,-1.65 -8.34,-3.48 l -0.64,3.48 -6.83,-1.14 0,-1.15 1.74,-0.22 c 1.18,-0.19 1.46,-0.42 1.46,-2.06 l 0,-14.46 c 0,-2.32 -0.14,-2.42 -3.43,-2.65 l 0,-1.33 11.18,0 0,1.33 c -3.25,0.23 -3.43,0.33 -3.43,2.65 l 0,10.74 c 0,1.14 0.09,1.78 0.45,2.51 0.97,1.8 3.03,3.32 5.45,3.32 3.13,0 4.82,-1.75 4.82,-5.74 l 0,-10.83 c 0,-2.32 -0.13,-2.42 -3.44,-2.65 l 0,-1.33 11.19,0 0,1.33 c -3.25,0.23 -3.44,0.33 -3.44,2.65 z"
           inkscape:connector-curvature="0"
           style="fill:#000000;stroke-width:0" /><path
           id="path4218"
           d="m 551.34,408.03 -0.25,0 -0.25,0.01 -0.24,0.02 -0.23,0.03 -0.23,0.04 -0.22,0.04 -0.22,0.05 -0.21,0.06 -0.41,0.14 -0.38,0.16 -0.37,0.19 -0.34,0.21 -0.32,0.24 -0.3,0.26 -0.29,0.28 -0.26,0.29 -0.25,0.32 -0.23,0.33 -0.21,0.35 -0.2,0.36 -0.18,0.37 -0.16,0.39 -0.15,0.39 -0.14,0.41 -0.12,0.41 -0.11,0.42 -0.09,0.42 -0.09,0.43 -0.07,0.42 -0.06,0.43 -0.05,0.43 -0.04,0.43 -0.02,0.42 -0.03,0.42 -0.01,0.42 0,0.41 c 0,6.83 2.7,9.58 5.87,9.58 2.11,0 3.44,-1.52 4.35,-3.99 0.28,-0.73 0.55,-1.19 1.42,-1.19 0.92,0 2.7,0.6 2.7,2.33 0,2.11 -3.01,4.45 -7.97,4.45 -8.34,0 -11.14,-5.92 -11.14,-12.01 0,-7.66 3.75,-11.55 10.64,-11.55 3.21,0 7.52,1.69 8.8,6.6 l -1.33,0.64 c -1.42,-3.21 -3.26,-4.86 -6.61,-4.86 z"
           inkscape:connector-curvature="0"
           style="fill:#000000;stroke-width:0" /><path
           id="path4220"
           d="m 561.98,428.07 0,-1.15 1.73,-0.22 c 1.19,-0.19 1.47,-0.42 1.47,-2.06 l 0,-14.46 c 0,-2.32 -0.14,-2.42 -3.44,-2.65 l 0,-1.33 11.19,0 0,1.33 c -3.25,0.23 -3.44,0.33 -3.44,2.65 l 0,18.75 -0.33,0.28 z"
           inkscape:connector-curvature="0"
           style="fill:#000000;stroke-width:0" /><path
           id="path4222"
           d="m 567.29,438.98 -0.15,0 -0.16,-0.01 -0.14,-0.02 -0.15,-0.02 -0.14,-0.03 -0.13,-0.04 -0.14,-0.04 -0.13,-0.05 -0.12,-0.06 -0.12,-0.06 -0.12,-0.06 -0.11,-0.07 -0.11,-0.08 -0.11,-0.08 -0.1,-0.09 -0.09,-0.09 -0.09,-0.1 -0.09,-0.1 -0.08,-0.11 -0.07,-0.11 -0.07,-0.11 -0.06,-0.12 -0.06,-0.12 -0.05,-0.13 -0.05,-0.13 -0.04,-0.14 -0.04,-0.13 -0.03,-0.15 -0.02,-0.14 -0.01,-0.15 -0.01,-0.15 -0.01,-0.15 c 0,-1.61 1.14,-2.75 2.8,-2.75 1.7,0 2.75,1.14 2.8,2.75 0,1.65 -1.1,2.84 -2.8,2.84 z"
           inkscape:connector-curvature="0"
           style="fill:#000000;stroke-width:0" /><path
           id="path4224"
           d="m 586.79,429.21 -0.67,-0.01 -0.66,-0.04 -0.63,-0.06 -0.61,-0.09 -0.59,-0.11 -0.57,-0.14 -0.55,-0.16 -0.52,-0.18 -0.5,-0.21 -0.48,-0.23 -0.46,-0.26 -0.44,-0.28 -0.42,-0.3 -0.4,-0.32 -0.37,-0.35 -0.35,-0.36 -0.33,-0.39 -0.31,-0.41 -0.29,-0.43 -0.27,-0.46 -0.24,-0.47 -0.23,-0.5 -0.2,-0.51 -0.18,-0.53 -0.16,-0.56 -0.14,-0.57 -0.11,-0.6 -0.1,-0.61 -0.07,-0.63 -0.06,-0.65 -0.03,-0.67 -0.01,-0.69 c 0,-7.42 3.63,-11.78 10.95,-11.78 l 0,1.6 c -4.17,0 -6.19,3.86 -6.19,10.18 l 0,0 c 0,6.33 2.02,10.18 6.19,10.18 4.27,0 6.24,-3.85 6.24,-10.18 0,-6.32 -1.97,-10.18 -6.24,-10.18 l 0,-1.6 c 7.43,0 11,4.36 11,11.78 0,7.43 -3.57,11.78 -11,11.78 z"
           inkscape:connector-curvature="0"
           style="fill:#000000;stroke-width:0" /><path
           id="path4226"
           d="m 583.81,431.04 6.92,3.86 c 1.37,0.74 2.58,1.52 2.58,2.47 0,0.92 -1.11,1.97 -1.8,1.97 -0.78,0 -1.54,-0.45 -2.92,-1.88 l -5.47,-5.5 z"
           inkscape:connector-curvature="0"
           style="fill:#000000;stroke-width:0" /><path
           id="path4228"
           d="m 624.24,421.92 -0.01,0.43 -0.02,0.41 -0.04,0.41 -0.05,0.39 -0.06,0.39 -0.08,0.36 -0.09,0.36 -0.11,0.35 -0.12,0.33 -0.13,0.32 -0.15,0.3 -0.16,0.3 -0.17,0.28 -0.19,0.26 -0.2,0.26 -0.21,0.24 -0.22,0.22 -0.23,0.22 -0.25,0.19 -0.26,0.19 -0.27,0.17 -0.28,0.16 -0.3,0.14 -0.3,0.13 -0.32,0.11 -0.33,0.1 -0.34,0.08 -0.35,0.07 -0.35,0.06 -0.38,0.03 -0.38,0.03 -0.39,0 c -3.39,0 -5.5,-1.65 -8.34,-3.48 l -0.64,3.48 -6.83,-1.14 0,-1.15 1.74,-0.22 c 1.18,-0.19 1.47,-0.42 1.47,-2.06 l 0,-14.46 c 0,-2.32 -0.15,-2.42 -3.44,-2.65 l 0,-1.33 11.19,0 0,1.33 c -3.25,0.23 -3.44,0.33 -3.44,2.65 l 0,10.74 c 0,1.14 0.09,1.78 0.45,2.51 0.97,1.8 3.03,3.32 5.45,3.32 3.13,0 4.82,-1.75 4.82,-5.74 l 0,-10.83 c 0,-2.32 -0.13,-2.42 -3.44,-2.65 l 0,-1.33 11.19,0 0,1.33 c -3.25,0.23 -3.44,0.33 -3.44,2.65 z"
           inkscape:connector-curvature="0"
           style="fill:#000000;stroke-width:0" /><path
           id="path4230"
           d="m 665.6,406.2 0,1.33 c -3.27,0.23 -3.44,0.33 -3.44,2.65 l 0,29.77 -0.33,0.26 -7.2,-1.14 0,-1.14 1.75,-0.18 c 1.19,-0.14 1.47,-0.38 1.47,-2.11 l 0,-7.52 c -1.28,0.69 -2.99,1.09 -5.1,1.09 l -0.04,-1.6 c 2.15,0 3.9,-1 4.72,-2.9 0.37,-0.76 0.42,-1.42 0.42,-2.65 l 0,-8.06 c 0,-1.02 -0.05,-1.8 -0.33,-2.57 -0.91,-2.39 -2.94,-3.31 -5.31,-3.31 -4.22,0 -6.33,4.13 -6.33,9.41 0,5.95 2.15,10.08 6.83,10.08 l 0.04,1.6 c -3.76,0 -6.56,-1.18 -8.48,-3.15 -1.97,-2.08 -3.16,-5.1 -3.16,-9.08 0,-6.8 3.54,-11.33 9.58,-11.33 2.47,0 4.63,1.1 7.11,3.11 l 0,-2.23 0.36,-0.33 z"
           inkscape:connector-curvature="0"
           style="fill:#000000;stroke-width:0" /><path
           id="path4232"
           d="m 686.44,418.26 0.09,0 0.09,0 0.09,0.01 0.09,0 0.08,0.01 0.09,0.01 0.08,0.01 0.09,0.02 0.08,0.02 0.07,0.02 0.08,0.02 0.08,0.03 0.07,0.03 0.07,0.04 0.06,0.04 0.07,0.04 0.06,0.05 0.06,0.05 0.05,0.06 0.06,0.06 0.05,0.07 0.04,0.07 0.04,0.08 0.04,0.09 0.03,0.09 0.02,0.04 0.01,0.05 0.02,0.05 0.01,0.06 0.01,0.05 0.01,0.06 0.01,0.05 0.01,0.06 0,0.06 0.01,0.07 0,0.06 0.01,0.07 0,0.07 0,0.07 c 0,2.7 -0.86,9.21 -9.25,9.21 l -0.28,-1.6 c 4.26,0 4.76,-4.35 4.76,-6.15 0,-0.87 -0.26,-1.46 -1.56,-1.46 l -8.66,0 c 0,1.89 0.69,7.61 5.46,7.61 l 0.28,1.6 c -7.16,0 -10.55,-5.09 -10.55,-11.96 0,-7.24 3.11,-11.69 10.6,-11.6 5.08,0.05 7.7,2.85 8.93,6.47 l -1.37,0.72 c -1.28,-2.66 -3.03,-4.86 -6.66,-4.86 -5.69,0 -6.82,5.52 -6.73,10.28 z"
           inkscape:connector-curvature="0"
           style="fill:#000000;stroke-width:0" /><path
           id="path4234"
           d="m 720.04,423.12 -0.01,0.51 -0.01,0.26 -0.02,0.26 -0.02,0.26 -0.04,0.26 -0.04,0.26 -0.06,0.26 -0.07,0.26 -0.08,0.26 -0.09,0.26 -0.11,0.25 -0.13,0.24 -0.14,0.24 -0.17,0.24 -0.18,0.22 -0.2,0.22 -0.22,0.21 -0.25,0.21 -0.26,0.19 -0.3,0.18 -0.15,0.08 -0.16,0.09 -0.17,0.08 -0.18,0.07 -0.18,0.08 -0.19,0.07 -0.2,0.06 -0.2,0.07 -0.21,0.05 -0.22,0.06 -0.23,0.05 -0.23,0.05 -0.25,0.04 -0.25,0.04 -0.26,0.04 -0.26,0.03 -0.28,0.02 -0.28,0.03 -0.3,0.01 -0.3,0.02 -0.31,0 -0.32,0 c -5.17,0 -9.25,-2.7 -9.25,-5.23 0,-1.45 1.69,-2.14 2.56,-2.14 0.97,0 1.24,0.5 1.47,1.28 1,3.39 2.89,4.49 4.72,4.49 1.78,0 3.89,-0.91 3.89,-4.58 l 0,-1.92 0,-1.9 0,-6.45 c 0,-3.72 -2.83,-4.69 -4.62,-4.69 -2.85,0 -4.22,2.02 -4.22,4.74 0,2.14 1.01,3.25 3.58,4.2 1.83,0.7 4.26,1.56 5.26,2.2 l 0,1.9 c -1.14,-1.21 -5.59,-2.35 -9.2,-3.49 -3.31,-1.01 -4.27,-3.31 -4.27,-5.47 0,-3.44 2.29,-6.5 6.6,-6.5 2.84,0.1 5.37,1.78 6.84,2.75 0.64,-1.7 1.38,-2.75 2.97,-2.75 1.7,0 3.67,0.5 5.41,1.38 l -0.27,1.09 c -0.64,-0.14 -1.66,-0.22 -2.34,-0.05 -0.83,0.19 -1.6,1.07 -1.6,3.96 z"
           inkscape:connector-curvature="0"
           style="fill:#000000;stroke-width:0" /><path
           id="path4236"
           d="m 725.55,428.07 0,-1.15 1.75,-0.22 c 1.19,-0.19 1.46,-0.42 1.46,-2.06 l 0,-25 c 0,-2.33 -0.22,-2.43 -3.44,-2.66 l 0,-1.33 11.88,0 0,1.33 c -3.85,0.23 -4.13,0.33 -4.13,2.66 l 0,7.06 c 0.97,-0.55 3.13,-1.05 5.23,-1.05 l 0.05,1.6 c -2.39,0 -4.22,1.25 -4.95,3.36 -0.28,0.82 -0.33,1.73 -0.33,2.79 l 0,7.52 c 0,1.14 0.19,1.78 0.59,2.61 1.07,2.11 3.04,3.22 5.47,3.22 1.83,0 5.91,-1.21 5.91,-9.08 0,-6.75 -2.11,-10.42 -6.69,-10.42 l -0.05,-1.6 c 6.19,0 11.5,2.85 11.5,12.28 0,3.27 -0.59,11.28 -8.93,11.28 -3.35,0 -6,-2.25 -7.8,-3.39 l -0.59,3.39 z"
           inkscape:connector-curvature="0"
           style="fill:#000000;stroke-width:0" /><path
           id="path4238"
           d="m 766.97,426.82 0,1.85 -5.92,0 0,5.78 -1.33,0 -2.79,-5.78 -3.49,0 0,-1.85 3.3,0 0,-15.95 c 0,-4.67 3.48,-5.22 5.09,-5.22 2.35,0 4.53,1.19 5.88,2.02 l -0.38,0.97 c -1.09,-0.47 -2.11,-0.61 -3.25,-0.61 -1.56,0 -3.03,1.11 -3.03,4.59 l 0,14.2 z"
           inkscape:connector-curvature="0"
           style="fill:#000000;stroke-width:0" /><path
           id="path4240"
           d="m 769.44,428.07 0,-1.15 1.74,-0.22 c 1.18,-0.19 1.47,-0.42 1.47,-2.06 l 0,-14.46 c 0,-2.32 -0.15,-2.42 -3.44,-2.65 l 0,-1.33 11.19,0 0,1.33 c -3.25,0.23 -3.44,0.33 -3.44,2.65 l 0,18.75 -0.33,0.28 z"
           inkscape:connector-curvature="0"
           style="fill:#000000;stroke-width:0" /><path
           id="path4242"
           d="m 774.75,438.98 -0.15,0 -0.15,-0.01 -0.15,-0.02 -0.14,-0.02 -0.14,-0.03 -0.14,-0.04 -0.13,-0.04 -0.13,-0.05 -0.13,-0.06 -0.12,-0.06 -0.12,-0.06 -0.11,-0.07 -0.11,-0.08 -0.1,-0.08 -0.1,-0.09 -0.1,-0.09 -0.09,-0.1 -0.08,-0.1 -0.08,-0.11 -0.07,-0.11 -0.07,-0.11 -0.07,-0.12 -0.06,-0.12 -0.05,-0.13 -0.05,-0.13 -0.04,-0.14 -0.03,-0.13 -0.03,-0.15 -0.02,-0.14 -0.02,-0.15 -0.01,-0.15 0,-0.15 c 0,-1.61 1.14,-2.75 2.79,-2.75 1.71,0 2.75,1.14 2.8,2.75 0,1.65 -1.09,2.84 -2.8,2.84 z"
           inkscape:connector-curvature="0"
           style="fill:#000000;stroke-width:0" /><path
           id="path4244"
           d="m 796.01,426.82 0,1.85 -5.92,0 0,5.78 -1.33,0 -2.8,-5.78 -3.48,0 0,-1.85 3.29,0 0,-15.95 c 0,-4.67 3.49,-5.22 5.1,-5.22 2.34,0 4.53,1.19 5.87,2.02 l -0.37,0.97 c -1.1,-0.47 -2.11,-0.61 -3.25,-0.61 -1.57,0 -3.03,1.11 -3.03,4.59 l 0,14.2 z"
           inkscape:connector-curvature="0"
           style="fill:#000000;stroke-width:0" /><path
           id="path4246"
           d="m 823.87,406.2 0,1.33 c -3.16,0.23 -3.44,0.33 -3.44,2.65 l 0,18.75 -0.31,0.28 -7.21,-1.14 0,-1.15 1.74,-0.22 c 1.2,-0.19 1.47,-0.42 1.47,-2.06 l 0,-10.33 c 0,-1.28 -0.14,-2.28 -0.36,-2.75 -1.06,-2.11 -3.27,-3.44 -5.64,-3.44 -2.66,0 -4.63,1.66 -4.63,5.24 l 0,15.57 -0.33,0.28 -7.2,-1.14 0,-1.15 1.75,-0.22 c 1.19,-0.19 1.47,-0.42 1.47,-2.06 l 0,-12.11 c 0,-5.28 3.11,-6.88 6.5,-6.88 3.91,0 7.06,2.66 8.39,3.3 l 0.47,-2.75 z"
           inkscape:connector-curvature="0"
           style="fill:#000000;stroke-width:0" /><path
           id="path4248"
           d="m 851.23,406.2 0,1.33 c -3.27,0.23 -3.44,0.33 -3.44,2.65 l 0,29.77 -0.33,0.26 -7.2,-1.14 0,-1.14 1.75,-0.18 c 1.19,-0.14 1.47,-0.38 1.47,-2.11 l 0,-7.52 c -1.28,0.69 -2.99,1.09 -5.1,1.09 l -0.04,-1.6 c 2.15,0 3.9,-1 4.71,-2.9 0.38,-0.76 0.43,-1.42 0.43,-2.65 l 0,-8.06 c 0,-1.02 -0.05,-1.8 -0.33,-2.57 -0.91,-2.39 -2.94,-3.31 -5.31,-3.31 -4.22,0 -6.33,4.13 -6.33,9.41 0,5.95 2.15,10.08 6.83,10.08 l 0.04,1.6 c -3.76,0 -6.56,-1.18 -8.48,-3.15 -1.97,-2.08 -3.16,-5.1 -3.16,-9.08 0,-6.8 3.53,-11.33 9.58,-11.33 2.47,0 4.63,1.1 7.11,3.11 l 0,-2.23 0.36,-0.33 z"
           inkscape:connector-curvature="0"
           style="fill:#000000;stroke-width:0" /></g>    </g>
    <path
       inkscape:connector-curvature="0"
       id="path4311"
       style="fill:#ffffff;fill-opacity:1;fill-rule:evenodd;stroke:none"
       d="m 246.96429,287.17604 290.625,0 0,-220.10375 -290.625,0 0,220.10375 z" />
    <path
       inkscape:connector-curvature="0"
       id="path4313"
       style="fill:none;stroke:#ffffff;stroke-width:0.625;stroke-linecap:butt;stroke-linejoin:round;stroke-miterlimit:10;stroke-dasharray:none;stroke-opacity:1"
       d="m 246.96429,287.17604 0,-220.104 290.625,0 0,220.104 -290.625,0" />
    <path
       inkscape:connector-curvature="0"
       id="path4315"
       style="fill:none;stroke:#000000;stroke-width:0.41666624;stroke-linecap:butt;stroke-linejoin:round;stroke-miterlimit:10;stroke-dasharray:0.625, 5;stroke-dashoffset:0;stroke-opacity:1"
       d="m 246.96429,287.17604 0,-220.104" />
    <path
       inkscape:connector-curvature="0"
       id="path4317"
       style="fill:none;stroke:#000000;stroke-width:0.41666624;stroke-linecap:butt;stroke-linejoin:round;stroke-miterlimit:10;stroke-dasharray:0.625, 5;stroke-dashoffset:0;stroke-opacity:1"
       d="m 246.96429,67.07204 0,0" />
    <path
       inkscape:connector-curvature="0"
       id="path4319"
       style="fill:none;stroke:#000000;stroke-width:0.41666624;stroke-linecap:butt;stroke-linejoin:round;stroke-miterlimit:10;stroke-dasharray:0.625, 5;stroke-dashoffset:0;stroke-opacity:1"
       d="m 319.56829,287.17604 0,-220.104" />
    <path
       inkscape:connector-curvature="0"
       id="path4321"
       style="fill:none;stroke:#000000;stroke-width:0.41666624;stroke-linecap:butt;stroke-linejoin:round;stroke-miterlimit:10;stroke-dasharray:0.625, 5;stroke-dashoffset:0;stroke-opacity:1"
       d="m 319.56829,67.07204 0,0" />
    <path
       inkscape:connector-curvature="0"
       id="path4323"
       style="fill:none;stroke:#000000;stroke-width:0.41666624;stroke-linecap:butt;stroke-linejoin:round;stroke-miterlimit:10;stroke-dasharray:0.625, 5;stroke-dashoffset:0;stroke-opacity:1"
       d="m 392.27679,287.17604 0,-220.104" />
    <path
       inkscape:connector-curvature="0"
       id="path4325"
       style="fill:none;stroke:#000000;stroke-width:0.41666624;stroke-linecap:butt;stroke-linejoin:round;stroke-miterlimit:10;stroke-dasharray:0.625, 5;stroke-dashoffset:0;stroke-opacity:1"
       d="m 392.27679,67.07204 0,0" />
    <path
       inkscape:connector-curvature="0"
       id="path4327"
       style="fill:none;stroke:#000000;stroke-width:0.41666624;stroke-linecap:butt;stroke-linejoin:round;stroke-miterlimit:10;stroke-dasharray:0.625, 5;stroke-dashoffset:0;stroke-opacity:1"
       d="m 464.88054,287.17604 0,-220.104" />
    <path
       inkscape:connector-curvature="0"
       id="path4329"
       style="fill:none;stroke:#000000;stroke-width:0.41666624;stroke-linecap:butt;stroke-linejoin:round;stroke-miterlimit:10;stroke-dasharray:0.625, 5;stroke-dashoffset:0;stroke-opacity:1"
       d="m 464.88054,67.07204 0,0" />
    <path
       inkscape:connector-curvature="0"
       id="path4331"
       style="fill:none;stroke:#000000;stroke-width:0.41666624;stroke-linecap:butt;stroke-linejoin:round;stroke-miterlimit:10;stroke-dasharray:0.625, 5;stroke-dashoffset:0;stroke-opacity:1"
       d="m 537.58929,287.17604 0,-220.104" />
    <path
       inkscape:connector-curvature="0"
       id="path4333"
       style="fill:none;stroke:#000000;stroke-width:0.41666624;stroke-linecap:butt;stroke-linejoin:round;stroke-miterlimit:10;stroke-dasharray:0.625, 5;stroke-dashoffset:0;stroke-opacity:1"
       d="m 537.58929,67.07204 0,0" />
    <path
       inkscape:connector-curvature="0"
       id="path4335"
       style="fill:none;stroke:#000000;stroke-width:0.41666624;stroke-linecap:butt;stroke-linejoin:round;stroke-miterlimit:10;stroke-dasharray:0.625, 5;stroke-dashoffset:0;stroke-opacity:1"
       d="m 246.96429,287.17604 290.625,0" />
    <path
       inkscape:connector-curvature="0"
       id="path4337"
       style="fill:none;stroke:#000000;stroke-width:0.41666624;stroke-linecap:butt;stroke-linejoin:round;stroke-miterlimit:10;stroke-dasharray:0.625, 5;stroke-dashoffset:0;stroke-opacity:1"
       d="m 537.58929,287.17604 0,0" />
    <path
       inkscape:connector-curvature="0"
       id="path4339"
       style="fill:none;stroke:#000000;stroke-width:0.41666624;stroke-linecap:butt;stroke-linejoin:round;stroke-miterlimit:10;stroke-dasharray:0.625, 5;stroke-dashoffset:0;stroke-opacity:1"
       d="m 246.96429,259.57204 290.625,0" />
    <path
       inkscape:connector-curvature="0"
       id="path4341"
       style="fill:none;stroke:#000000;stroke-width:0.41666624;stroke-linecap:butt;stroke-linejoin:round;stroke-miterlimit:10;stroke-dasharray:0.625, 5;stroke-dashoffset:0;stroke-opacity:1"
       d="m 537.58929,259.57204 0,0" />
    <path
       inkscape:connector-curvature="0"
       id="path4343"
       style="fill:none;stroke:#000000;stroke-width:0.41666624;stroke-linecap:butt;stroke-linejoin:round;stroke-miterlimit:10;stroke-dasharray:0.625, 5;stroke-dashoffset:0;stroke-opacity:1"
       d="m 246.96429,232.07204 290.625,0" />
    <path
       inkscape:connector-curvature="0"
       id="path4345"
       style="fill:none;stroke:#000000;stroke-width:0.41666624;stroke-linecap:butt;stroke-linejoin:round;stroke-miterlimit:10;stroke-dasharray:0.625, 5;stroke-dashoffset:0;stroke-opacity:1"
       d="m 537.58929,232.07204 0,0" />
    <path
       inkscape:connector-curvature="0"
       id="path4347"
       style="fill:none;stroke:#000000;stroke-width:0.41666624;stroke-linecap:butt;stroke-linejoin:round;stroke-miterlimit:10;stroke-dasharray:0.625, 5;stroke-dashoffset:0;stroke-opacity:1"
       d="m 246.96429,204.57204 290.625,0" />
    <path
       inkscape:connector-curvature="0"
       id="path4349"
       style="fill:none;stroke:#000000;stroke-width:0.41666624;stroke-linecap:butt;stroke-linejoin:round;stroke-miterlimit:10;stroke-dasharray:0.625, 5;stroke-dashoffset:0;stroke-opacity:1"
       d="m 537.58929,204.57204 0,0" />
    <path
       inkscape:connector-curvature="0"
       id="path4351"
       style="fill:none;stroke:#000000;stroke-width:0.41666624;stroke-linecap:butt;stroke-linejoin:round;stroke-miterlimit:10;stroke-dasharray:0.625, 5;stroke-dashoffset:0;stroke-opacity:1"
       d="m 246.96429,177.07204 290.625,0" />
    <path
       inkscape:connector-curvature="0"
       id="path4353"
       style="fill:none;stroke:#000000;stroke-width:0.41666624;stroke-linecap:butt;stroke-linejoin:round;stroke-miterlimit:10;stroke-dasharray:0.625, 5;stroke-dashoffset:0;stroke-opacity:1"
       d="m 537.58929,177.07204 0,0" />
    <path
       inkscape:connector-curvature="0"
       id="path4355"
       style="fill:none;stroke:#000000;stroke-width:0.41666624;stroke-linecap:butt;stroke-linejoin:round;stroke-miterlimit:10;stroke-dasharray:0.625, 5;stroke-dashoffset:0;stroke-opacity:1"
       d="m 246.96429,149.57204 290.625,0" />
    <path
       inkscape:connector-curvature="0"
       id="path4357"
       style="fill:none;stroke:#000000;stroke-width:0.41666624;stroke-linecap:butt;stroke-linejoin:round;stroke-miterlimit:10;stroke-dasharray:0.625, 5;stroke-dashoffset:0;stroke-opacity:1"
       d="m 537.58929,149.57204 0,0" />
    <path
       inkscape:connector-curvature="0"
       id="path4359"
       style="fill:none;stroke:#000000;stroke-width:0.41666624;stroke-linecap:butt;stroke-linejoin:round;stroke-miterlimit:10;stroke-dasharray:0.625, 5;stroke-dashoffset:0;stroke-opacity:1"
       d="m 246.96429,122.07204 290.625,0" />
    <path
       inkscape:connector-curvature="0"
       id="path4361"
       style="fill:none;stroke:#000000;stroke-width:0.41666624;stroke-linecap:butt;stroke-linejoin:round;stroke-miterlimit:10;stroke-dasharray:0.625, 5;stroke-dashoffset:0;stroke-opacity:1"
       d="m 537.58929,122.07204 0,0" />
    <path
       inkscape:connector-curvature="0"
       id="path4363"
       style="fill:none;stroke:#000000;stroke-width:0.41666624;stroke-linecap:butt;stroke-linejoin:round;stroke-miterlimit:10;stroke-dasharray:0.625, 5;stroke-dashoffset:0;stroke-opacity:1"
       d="m 246.96429,94.57204 290.625,0" />
    <path
       inkscape:connector-curvature="0"
       id="path4365"
       style="fill:none;stroke:#000000;stroke-width:0.41666624;stroke-linecap:butt;stroke-linejoin:round;stroke-miterlimit:10;stroke-dasharray:0.625, 5;stroke-dashoffset:0;stroke-opacity:1"
       d="m 537.58929,94.57204 0,0" />
    <path
       inkscape:connector-curvature="0"
       id="path4367"
       style="fill:none;stroke:#000000;stroke-width:0.41666624;stroke-linecap:butt;stroke-linejoin:round;stroke-miterlimit:10;stroke-dasharray:0.625, 5;stroke-dashoffset:0;stroke-opacity:1"
       d="m 246.96429,67.07204 290.625,0" />
    <path
       inkscape:connector-curvature="0"
       id="path4369"
       style="fill:none;stroke:#000000;stroke-width:0.41666624;stroke-linecap:butt;stroke-linejoin:round;stroke-miterlimit:10;stroke-dasharray:0.625, 5;stroke-dashoffset:0;stroke-opacity:1"
       d="m 537.58929,67.07204 0,0" />
    <path
       inkscape:connector-curvature="0"
       id="path4371"
       style="fill:none;stroke:#000000;stroke-width:0.625;stroke-linecap:butt;stroke-linejoin:round;stroke-miterlimit:10;stroke-dasharray:none;stroke-opacity:1"
       d="m 246.96429,287.17604 290.625,0" />
    <path
       inkscape:connector-curvature="0"
       id="path4373"
       style="fill:none;stroke:#000000;stroke-width:0.625;stroke-linecap:butt;stroke-linejoin:round;stroke-miterlimit:10;stroke-dasharray:none;stroke-opacity:1"
       d="m 246.96429,287.17604 0,-220.104" />
    <path
       inkscape:connector-curvature="0"
       id="path4375"
       style="fill:none;stroke:#000000;stroke-width:0.625;stroke-linecap:butt;stroke-linejoin:round;stroke-miterlimit:10;stroke-dasharray:none;stroke-opacity:1"
       d="m 246.96429,287.17604 0,-2.9165" />
    <g
       transform="matrix(1.25,0,0,-1.25,198.21429,321.44704)"
       id="g4377">
      <text
         id="text4379"
         style="font-variant:normal;font-weight:normal;font-size:11px;font-family:'Times New Roman';-inkscape-font-specification:Times-Roman;writing-mode:lr-tb;fill:#000000;fill-opacity:1;fill-rule:nonzero;stroke:none"
         transform="matrix(1,0,0,-1,36.25,14.75)">
        <tspan
           id="tspan4381"
           y="0"
           x="0">0</tspan>
      </text>
    </g>
    <path
       inkscape:connector-curvature="0"
       id="path4383"
       style="fill:none;stroke:#000000;stroke-width:0.625;stroke-linecap:butt;stroke-linejoin:round;stroke-miterlimit:10;stroke-dasharray:none;stroke-opacity:1"
       d="m 319.56829,287.17604 0,-2.9165" />
    <g
       transform="matrix(1.25,0,0,-1.25,198.21429,321.44704)"
       id="g4385">
      <text
         id="text4387"
         style="font-variant:normal;font-weight:normal;font-size:11px;font-family:'Times New Roman';-inkscape-font-specification:Times-Roman;writing-mode:lr-tb;fill:#000000;fill-opacity:1;fill-rule:nonzero;stroke:none"
         transform="matrix(1,0,0,-1,88.8332,14.75)">
        <tspan
           id="tspan4389"
           sodipodi:role="line"
           y="0"
           x="0 5.5 11">500</tspan>
      </text>
    </g>
    <path
       inkscape:connector-curvature="0"
       id="path4391"
       style="fill:none;stroke:#000000;stroke-width:0.625;stroke-linecap:butt;stroke-linejoin:round;stroke-miterlimit:10;stroke-dasharray:none;stroke-opacity:1"
       d="m 392.27679,287.17604 0,-2.9165" />
    <g
       transform="matrix(1.25,0,0,-1.25,198.21429,321.44704)"
       id="g4393">
      <text
         id="text4395"
         style="font-variant:normal;font-weight:normal;font-size:11px;font-family:'Times New Roman';-inkscape-font-specification:Times-Roman;writing-mode:lr-tb;fill:#000000;fill-opacity:1;fill-rule:nonzero;stroke:none"
         transform="matrix(1,0,0,-1,144.25,14.75)">
        <tspan
           id="tspan4397"
           sodipodi:role="line"
           y="0"
           x="0 5.5 11 16.5">1000</tspan>
      </text>
    </g>
    <path
       inkscape:connector-curvature="0"
       id="path4399"
       style="fill:none;stroke:#000000;stroke-width:0.625;stroke-linecap:butt;stroke-linejoin:round;stroke-miterlimit:10;stroke-dasharray:none;stroke-opacity:1"
       d="m 464.88054,287.17604 0,-2.9165" />
    <g
       transform="matrix(1.25,0,0,-1.25,198.21429,321.44704)"
       id="g4401">
      <text
         id="text4403"
         style="font-variant:normal;font-weight:normal;font-size:11px;font-family:'Times New Roman';-inkscape-font-specification:Times-Roman;writing-mode:lr-tb;fill:#000000;fill-opacity:1;fill-rule:nonzero;stroke:none"
         transform="matrix(1,0,0,-1,202.333,14.75)">
        <tspan
           id="tspan4405"
           sodipodi:role="line"
           y="0"
           x="0 5.5 11 16.5">1500</tspan>
      </text>
    </g>
    <path
       inkscape:connector-curvature="0"
       id="path4407"
       style="fill:none;stroke:#000000;stroke-width:0.625;stroke-linecap:butt;stroke-linejoin:round;stroke-miterlimit:10;stroke-dasharray:none;stroke-opacity:1"
       d="m 537.58929,287.17604 0,-2.9165" />
    <g
       transform="matrix(1.25,0,0,-1.25,198.21429,321.44704)"
       id="g4409">
      <text
         id="text4411"
         style="font-variant:normal;font-weight:normal;font-size:11px;font-family:'Times New Roman';-inkscape-font-specification:Times-Roman;writing-mode:lr-tb;fill:#000000;fill-opacity:1;fill-rule:nonzero;stroke:none"
         transform="matrix(1,0,0,-1,260.5,14.75)">
        <tspan
           id="tspan4413"
           sodipodi:role="line"
           y="0"
           x="0 5.5 11 16.5">2000</tspan>
      </text>
    </g>
    <path
       inkscape:connector-curvature="0"
       id="path4415"
       style="fill:none;stroke:#000000;stroke-width:0.625;stroke-linecap:butt;stroke-linejoin:round;stroke-miterlimit:10;stroke-dasharray:none;stroke-opacity:1"
       d="m 246.96429,287.17604 2.8125,0" />
    <g
       transform="matrix(1.25,0,0,-1.25,198.21429,321.44704)"
       id="g4417">
      <text
         id="text4419"
         style="font-variant:normal;font-weight:normal;font-size:11px;font-family:'Times New Roman';-inkscape-font-specification:Times-Roman;writing-mode:lr-tb;fill:#000000;fill-opacity:1;fill-rule:nonzero;stroke:none"
         transform="matrix(1,0,0,-1,30.5832,23.5)">
        <tspan
           id="tspan4421"
           y="0"
           x="0">0</tspan>
      </text>
    </g>
    <path
       inkscape:connector-curvature="0"
       id="path4423"
       style="fill:none;stroke:#000000;stroke-width:0.625;stroke-linecap:butt;stroke-linejoin:round;stroke-miterlimit:10;stroke-dasharray:none;stroke-opacity:1"
       d="m 246.96429,259.57204 2.8125,0" />
    <g
       transform="matrix(1.25,0,0,-1.25,198.21429,321.44704)"
       id="g4425">
      <text
         id="text4427"
         style="font-variant:normal;font-weight:normal;font-size:11px;font-family:'Times New Roman';-inkscape-font-specification:Times-Roman;writing-mode:lr-tb;fill:#000000;fill-opacity:1;fill-rule:nonzero;stroke:none"
         transform="matrix(1,0,0,-1,25.0832,45.5832)">
        <tspan
           id="tspan4429"
           sodipodi:role="line"
           y="0"
           x="0 5.5">10</tspan>
      </text>
    </g>
    <path
       inkscape:connector-curvature="0"
       id="path4431"
       style="fill:none;stroke:#000000;stroke-width:0.625;stroke-linecap:butt;stroke-linejoin:round;stroke-miterlimit:10;stroke-dasharray:none;stroke-opacity:1"
       d="m 246.96429,232.07204 2.8125,0" />
    <g
       transform="matrix(1.25,0,0,-1.25,198.21429,321.44704)"
       id="g4433">
      <text
         id="text4435"
         style="font-variant:normal;font-weight:normal;font-size:11px;font-family:'Times New Roman';-inkscape-font-specification:Times-Roman;writing-mode:lr-tb;fill:#000000;fill-opacity:1;fill-rule:nonzero;stroke:none"
         transform="matrix(1,0,0,-1,25.0832,67.5832)">
        <tspan
           id="tspan4437"
           sodipodi:role="line"
           y="0"
           x="0 5.5">20</tspan>
      </text>
    </g>
    <path
       inkscape:connector-curvature="0"
       id="path4439"
       style="fill:none;stroke:#000000;stroke-width:0.625;stroke-linecap:butt;stroke-linejoin:round;stroke-miterlimit:10;stroke-dasharray:none;stroke-opacity:1"
       d="m 246.96429,204.57204 2.8125,0" />
    <g
       transform="matrix(1.25,0,0,-1.25,198.21429,321.44704)"
       id="g4441">
      <text
         id="text4443"
         style="font-variant:normal;font-weight:normal;font-size:11px;font-family:'Times New Roman';-inkscape-font-specification:Times-Roman;writing-mode:lr-tb;fill:#000000;fill-opacity:1;fill-rule:nonzero;stroke:none"
         transform="matrix(1,0,0,-1,25.0832,89.5832)">
        <tspan
           id="tspan4445"
           sodipodi:role="line"
           y="0"
           x="0 5.5">30</tspan>
      </text>
    </g>
    <path
       inkscape:connector-curvature="0"
       id="path4447"
       style="fill:none;stroke:#000000;stroke-width:0.625;stroke-linecap:butt;stroke-linejoin:round;stroke-miterlimit:10;stroke-dasharray:none;stroke-opacity:1"
       d="m 246.96429,177.07204 2.8125,0" />
    <g
       transform="matrix(1.25,0,0,-1.25,198.21429,321.44704)"
       id="g4449">
      <text
         id="text4451"
         style="font-variant:normal;font-weight:normal;font-size:11px;font-family:'Times New Roman';-inkscape-font-specification:Times-Roman;writing-mode:lr-tb;fill:#000000;fill-opacity:1;fill-rule:nonzero;stroke:none"
         transform="matrix(1,0,0,-1,25.0832,111.583)">
        <tspan
           id="tspan4453"
           sodipodi:role="line"
           y="0"
           x="0 5.5">40</tspan>
      </text>
    </g>
    <path
       inkscape:connector-curvature="0"
       id="path4455"
       style="fill:none;stroke:#000000;stroke-width:0.625;stroke-linecap:butt;stroke-linejoin:round;stroke-miterlimit:10;stroke-dasharray:none;stroke-opacity:1"
       d="m 246.96429,149.57204 2.8125,0" />
    <g
       transform="matrix(1.25,0,0,-1.25,198.21429,321.44704)"
       id="g4457">
      <text
         id="text4459"
         style="font-variant:normal;font-weight:normal;font-size:11px;font-family:'Times New Roman';-inkscape-font-specification:Times-Roman;writing-mode:lr-tb;fill:#000000;fill-opacity:1;fill-rule:nonzero;stroke:none"
         transform="matrix(1,0,0,-1,25.0832,133.583)">
        <tspan
           id="tspan4461"
           sodipodi:role="line"
           y="0"
           x="0 5.5">50</tspan>
      </text>
    </g>
    <path
       inkscape:connector-curvature="0"
       id="path4463"
       style="fill:none;stroke:#000000;stroke-width:0.625;stroke-linecap:butt;stroke-linejoin:round;stroke-miterlimit:10;stroke-dasharray:none;stroke-opacity:1"
       d="m 246.96429,122.07204 2.8125,0" />
    <g
       transform="matrix(1.25,0,0,-1.25,198.21429,321.44704)"
       id="g4465">
      <text
         id="text4467"
         style="font-variant:normal;font-weight:normal;font-size:11px;font-family:'Times New Roman';-inkscape-font-specification:Times-Roman;writing-mode:lr-tb;fill:#000000;fill-opacity:1;fill-rule:nonzero;stroke:none"
         transform="matrix(1,0,0,-1,25.0832,155.583)">
        <tspan
           id="tspan4469"
           sodipodi:role="line"
           y="0"
           x="0 5.5">60</tspan>
      </text>
    </g>
    <path
       inkscape:connector-curvature="0"
       id="path4471"
       style="fill:none;stroke:#000000;stroke-width:0.625;stroke-linecap:butt;stroke-linejoin:round;stroke-miterlimit:10;stroke-dasharray:none;stroke-opacity:1"
       d="m 246.96429,94.57204 2.8125,0" />
    <g
       transform="matrix(1.25,0,0,-1.25,198.21429,321.44704)"
       id="g4473">
      <text
         id="text4475"
         style="font-variant:normal;font-weight:normal;font-size:11px;font-family:'Times New Roman';-inkscape-font-specification:Times-Roman;writing-mode:lr-tb;fill:#000000;fill-opacity:1;fill-rule:nonzero;stroke:none"
         transform="matrix(1,0,0,-1,25.0832,177.583)">
        <tspan
           id="tspan4477"
           sodipodi:role="line"
           y="0"
           x="0 5.5">70</tspan>
      </text>
    </g>
    <path
       inkscape:connector-curvature="0"
       id="path4479"
       style="fill:none;stroke:#000000;stroke-width:0.625;stroke-linecap:butt;stroke-linejoin:round;stroke-miterlimit:10;stroke-dasharray:none;stroke-opacity:1"
       d="m 246.96429,67.07204 2.8125,0" />
    <g
       transform="matrix(1.25,0,0,-1.25,198.21429,321.44704)"
       id="g4481">
      <text
         id="text4483"
         style="font-variant:normal;font-weight:normal;font-size:11px;font-family:'Times New Roman';-inkscape-font-specification:Times-Roman;writing-mode:lr-tb;fill:#000000;fill-opacity:1;fill-rule:nonzero;stroke:none"
         transform="matrix(1,0,0,-1,25.0832,199.583)">
        <tspan
           id="tspan4485"
           sodipodi:role="line"
           y="0"
           x="0 5.5">80</tspan>
      </text>
    </g>
    <g
       id="g4487"
       transform="matrix(0.125,0,0,-0.125,198.21429,321.44704)">
      <g
         clip-path="url(#clipPath4491)"
         id="g4489">
        <path
           inkscape:connector-curvature="0"
           id="path4495"
           style="fill:none;stroke:#0000ff;stroke-width:5;stroke-linecap:butt;stroke-linejoin:round;stroke-miterlimit:10;stroke-dasharray:none;stroke-opacity:1"
           d="m 2366.67,1861.67 1.66,-1218.338 0.84,1340.838 2.5,0 0.83,-15.84 1.67,15.84 0.83,-380 1.67,351.66 0.83,28.34 5,0 0.83,1.66 0.84,0 1.66,-290 0.84,291.67 2.5,0 0.83,0.83 1.67,-401.66 0.83,-398.34 0.83,-514.998 1.67,70 0.83,337.498 1.67,907.5 6.67,0 0.83,-965.83 1.67,948.33 0.83,15 1.67,-7.5 0.83,10 3.33,0 1.67,-685.83 0.83,579.17 0.84,-750.84 1.66,836.67 0.84,15 1.66,4.17 0.84,0.83 0.83,0.83 1.67,0 0.83,-35.83 1.67,35.83 3.33,0 0.83,-57.5 1.67,-86.66 0.83,-449.17 0.84,593.33 1.66,0 0.84,-12.5 0.83,12.5 1.67,0 0.83,-5.83 1.67,5.83 3.33,0 0.83,-10 1.67,10 0.83,1.67 0.84,-328.33 1.66,329.16 0.84,0.84 1.66,0.83 0.84,0.83 0.83,0.84 2.5,0 1.67,-5.84 0.83,5.84 0.83,0 1.67,0.83 8.33,0 0.84,-0.83 0.83,0.83 5.83,0 1.67,-726.67 0.83,726.67 1.67,-584.17 0.83,584.17 0.84,-11.67 1.66,-214.16 0.84,225.83 6.66,0 1.67,-307.5 0.83,307.5 9.17,0 1.67,-889.17 0.83,508.34 1.67,380.83 0.83,0 0.83,-286.67 1.67,286.67 3.33,0 0.84,-88.33 1.66,-30 0.84,118.33 1.66,0 0.84,-284.17 0.83,162.5 1.67,121.67 0.83,0 1.67,-415.83 0.83,415.83 0.83,-355.83 1.67,355.83 0.83,-388.33 0.84,-80.84 1.66,469.17 2.5,0 0.84,-0.83 0.83,0.83 1.67,0 0.83,-8.33 1.67,5.83 0.83,-525.83 0.83,-671.67 1.67,1115.83 0.83,84.17 1.67,0 0.83,-355.83 0.84,355.83 1.66,0 0.84,-134.17 1.66,134.17 1.67,0 1.67,-105.83 0.83,105.83 1.67,-333.33 0.83,333.33 3.33,0 1.67,-32.5 0.83,32.5 5.84,0 0.83,-132.5 1.67,132.5 1.66,0 1.67,-264.17 0.83,-97.5 1.67,361.67 6.67,0 0.83,-136.67 1.67,136.67 0.83,0 1.67,-147.5 0.83,147.5 5.83,0 0.84,-328.33 1.66,-197.5 0.84,274.16 1.66,243.34 0.84,-283.34 0.83,289.17 1.67,1.67 0.83,0.83 1.67,0 0.83,-71.67 0.83,71.67 2.5,0 1.67,-428.33 0.83,428.33 3.34,0 1.66,-50.83 0.84,50.83 4.16,0 1.67,-295.83 0.83,295.83 1.67,-1430.832 0.83,967.502 0.84,50.83 1.66,412.5 3.34,0 0.83,-350.83 1.67,350.83 0.83,-804.17 1.67,804.17 0.83,0 0.83,-404.17 1.67,339.17 0.83,59.17 1.67,5.83 1.67,0 1.66,-913.33 0.84,-372.502 1.66,1285.832 1.67,0 1.67,-662.5 0.83,282.5 1.67,380 0.83,-27.5 0.83,19.17 1.67,-200.84 0.83,-80 1.67,-1194.998 0.83,1484.168 0.84,-1297.5 1.66,1297.5 0.84,-385 0.83,302.5 1.67,-25.83 0.83,108.33 3.33,0 1.67,-50.83 0.83,50.83 10.84,0 0.83,-65 1.67,-1405 0.83,1470 0.83,-378.33 1.67,378.33 0.83,0 1.67,-127.5 0.83,55 0.84,68.33 1.66,-1153.33 0.84,349.17 1.66,664.16 0.84,144.17 0.83,-373.33 1.67,-280 0.83,653.33 3.33,0 1.67,-99.17 0.83,99.17 1.67,-16.67" />
        <path
           inkscape:connector-curvature="0"
           id="path4497"
           style="fill:none;stroke:#0000ff;stroke-width:5;stroke-linecap:butt;stroke-linejoin:round;stroke-miterlimit:10;stroke-dasharray:none;stroke-opacity:1"
           d="m 2019.17,1982.5 1.66,0 0.84,-572.5 0.83,497.5 1.67,75.83 11.66,0 0.84,-400 1.66,-398.33 0.84,798.33 3.33,0 1.67,-394.16 0.83,394.16 0.83,-726.66 1.67,726.66 0.83,-163.33 1.67,153.33 0.83,10 5,0 0.84,-650 0.83,559.17 1.67,90.83 5.83,0 0.83,-736.66 0.84,325.83 1.66,391.67 0.84,-1310.838 1.66,1329.998 1.67,0 1.67,-399.16 0.83,310.83 1.67,88.33 1.66,0 1.67,-185 0.83,185 8.34,0 0.83,-1342.498 1.67,1342.498 0.83,-429.16 1.67,429.16 0.83,-405 0.83,145.84 1.67,259.16 0.83,-190.83 1.67,190.83 0.83,-411.66 0.84,411.66 4.16,0 0.84,-84.16 0.83,-867.5 1.67,951.66 0.83,-15.83 0.83,15.83 2.5,0 1.67,-243.33 0.83,243.33 0.84,0 1.66,-740.83 0.84,740.83 1.66,-25 0.84,25 9.16,0 1.67,-799.16 0.83,799.16 2.5,0 0.84,-165.83 1.66,161.67 0.84,4.16 2.5,0 0.83,-302.5 1.67,302.5 1.66,0 1.67,-721.66 0.83,679.16 1.67,42.5 0.83,-36.66 0.84,36.66 2.5,0 1.66,-387.5 0.84,387.5 2.5,0 0.83,-270.83 0.83,261.67 1.67,-71.67 0.83,75 1.67,5.83 3.33,0 0.84,-360 1.66,360 0.84,-135.83 0.83,136.67 1.67,-632.5 0.83,632.5 2.5,0 0.83,-24.17 1.67,-9.17 0.83,33.34 1.67,0 0.83,-0.84 0.84,-283.33 1.66,284.17 6.67,0 1.67,-775.84 0.83,344.17 0.83,234.17 1.67,197.5 0.83,-797.5 1.67,660.83 0.83,136.67 0.84,-396.67 1.66,396.67 4.17,0 1.67,-0.84 0.83,0.84 5,0 0.83,-382.5 0.84,382.5 1.66,0 0.84,-170 1.66,170 5.84,0 0.83,-20.84 0.83,20.84 2.5,0 1.67,-669.17 0.83,-480.832 0.84,1140.002 1.66,-65.84 0.84,74.17 1.66,0.83 0.84,0.84 0.83,-101.67 1.67,101.67 0.83,-1069.17 1.67,1069.17 6.66,0 0.84,-81.67 1.66,81.67 1.67,0 1.67,-211.67 0.83,82.5 1.67,129.17 0.83,-318.34 0.83,246.67 1.67,54.17 0.83,-799.17 1.67,816.67 0.83,-83.34 0.84,83.34 2.5,0 1.66,-61.67 0.84,60 0.83,-888.33 1.67,890 0.83,-35.84 1.67,33.34 0.83,2.5 0.83,-6.67 1.67,6.67 3.33,0 0.84,-303.34 1.66,303.34 3.34,0 0.83,-1008.338 1.67,68.338 0.83,940 1.67,-221.67 0.83,221.67 2.5,0 0.83,-302.5 0.84,302.5 5,0 0.83,-1217.502 1.67,257.502 0.83,-15.84 1.67,920.84 0.83,-66.67 0.83,-271.67 1.67,393.34 0.83,-322.5 1.67,322.5 1.67,0 1.66,-4.17 0.84,4.17 1.66,-30.84 0.84,30.84 11.66,0 0.84,-510 1.66,510 3.34,0 0.83,-7.5 1.67,7.5 7.5,0 1.66,-1395.838 0.84,1308.338 1.66,0.83 0.84,72.5 0.83,12.5 1.67,1.67 3.33,0 0.83,-803.34 1.67,497.5 0.83,-1184.162 1.67,1490.002 0.83,-0.84 0.84,-121.66" />
        <path
           inkscape:connector-curvature="0"
           id="path4499"
           style="fill:none;stroke:#0000ff;stroke-width:5;stroke-linecap:butt;stroke-linejoin:round;stroke-miterlimit:10;stroke-dasharray:none;stroke-opacity:1"
           d="m 1671.67,1977.5 9.16,0 1.67,-375.83 0.83,312.5 1.67,63.33 4.17,0 1.66,-11.67 0.84,11.67 0.83,-778.33 1.67,744.16 0.83,34.17 0.83,-607.5 1.67,323.33 0.83,284.17 2.5,0 0.84,-364.17 1.66,164.17 0.84,200 2.5,0 0.83,-339.17 1.67,147.5 0.83,191.67 1.67,-176.67 0.83,-246.66 0.83,423.33 2.5,0 1.67,-386.67 0.83,386.67 2.5,0 0.84,-621.67 1.66,502.5 0.84,119.17 3.33,0 1.67,-253.33 0.83,253.33 0.83,0 1.67,-287.5 0.83,136.67 1.67,150.83 0.83,0 0.84,-270.83 1.66,-27.5 0.84,298.33 0.83,-65.83 1.67,65.83 6.66,0 1.67,-573.33 0.83,573.33 5.84,0 0.83,-925 1.67,925 0.83,-600.83 1.67,600.83 5.83,0 0.83,-234.17 0.84,-178.33 1.66,412.5 3.34,0 0.83,-194.17 1.67,194.17 8.33,0 0.83,-103.33 0.84,75.83 1.66,27.5 0.84,-121.67 0.83,-1056.662 1.67,804.162 0.83,374.17 2.5,0 0.83,-12.5 1.67,-1089.168 0.83,1102.498 1.67,-1461.662 0.83,1461.662 0.84,-128.33 1.66,128.33 0.84,0 1.66,-0.83 0.84,0.83 0.83,0 1.67,-96.66 0.83,96.66 1.67,-388.33 0.83,85.83 0.83,302.5 2.5,0 1.67,-262.5 0.83,262.5 8.34,0 0.83,-612.5 1.67,339.17 0.83,-401.67 0.83,-85.83 1.67,760.83 1.67,0 1.66,-1082.498 0.84,1082.498 1.66,0 0.84,-432.5 0.83,206.67 1.67,225.83 0.83,-241.66 1.67,241.66 0.83,0 0.83,-237.5 1.67,237.5 0.83,-788.33 1.67,788.33 0.83,-140.83 0.84,116.67 1.66,19.16 0.84,-80 1.66,-18.33 0.84,-226.67 0.83,330 11.67,0 1.66,-55.83 0.84,55.83 1.66,-97.5 0.84,97.5 2.5,0 0.83,-335.83 0.83,335.83 1.67,0 0.83,-335.83 1.67,305 0.83,30.83 5.84,0 0.83,-335.83 1.67,-349.17 0.83,129.17 1.67,544.17 0.83,-1000.002 0.83,1011.662 1.67,0 0.83,-170 1.67,170.84 0.83,0.83 0.84,-228.33 1.66,230 0.84,-1435.002 1.66,1435.002 0.84,-653.34 0.83,653.34 1.67,0.83 4.16,0 1.67,-605 0.83,605 1.67,0 0.83,-891.67 0.84,820 1.66,71.67 5.84,0 0.83,-100 0.83,100 2.5,0 1.67,-155 0.83,155 3.34,0 1.66,-150.83 0.84,150.83 0.83,0 1.67,-315 0.83,315 1.67,-942.5 0.83,942.5 0.83,0 1.67,-260 0.83,170.83 1.67,-52.5 0.83,-310 0.84,431.67 1.66,20 0.84,-159.17 1.66,87.5 0.84,55 0.83,16.67 5.83,0 1.67,-1.67 0.83,1.67 1.67,-1024.168 0.83,664.998 0.84,359.17 1.66,0 0.84,-1208.332 0.83,748.332 1.67,460 6.66,0 1.67,-1013.332 0.83,1013.332 0.84,0 1.66,-417.5 0.84,417.5 1.66,-589.17 0.84,205.84 0.83,47.5 1.67,-380 0.83,408.33 1.67,307.5 3.33,0 0.83,-13.33 1.67,13.33 0.83,-930 0.84,-481.668 1.66,1411.668 0.84,0 1.66,-13.33 0.84,-280.84 0.83,294.17 1.67,0 0.83,-357.5 1.67,357.5 0.83,-793.33 0.83,793.33 1.67,0 0.83,-237.5 1.67,49.17 0.83,188.33 0.84,0" />
        <path
           inkscape:connector-curvature="0"
           id="path4501"
           style="fill:none;stroke:#0000ff;stroke-width:5;stroke-linecap:butt;stroke-linejoin:round;stroke-miterlimit:10;stroke-dasharray:none;stroke-opacity:1"
           d="m 1324.17,1584.17 0.83,392.5 1.67,-63.34 0.83,60 1.67,3.34 0.83,0 0.83,-522.5 1.67,522.5 0.83,0 1.67,-411.67 0.83,411.67 6.67,0 1.67,-471.67 0.83,471.67 5.83,0 1.67,-120 0.83,-127.5 0.84,235 1.66,-295 0.84,307.5 2.5,0 0.83,-299.17 1.67,299.17 0.83,-12.5 1.67,12.5 0.83,-164.17 0.83,-121.67 1.67,285.84 4.17,0 1.66,-259.17 0.84,259.17 5,0 0.83,-150 0.83,150 2.5,0 1.67,-206.67 0.83,-2.5 0.84,-107.5 1.66,3.33 0.84,313.34 1.66,0 0.84,-639.17 0.83,508.33 1.67,130.84 0.83,-402.5 1.67,402.5 0.83,-809.17 0.83,809.17 1.67,0 0.83,-1421.67 1.67,1421.67 0.83,0 0.84,-404.17 1.66,-215 0.84,332.5 1.66,-93.33 0.84,380.83 0.83,0 1.67,-83.33 0.83,-236.67 0.83,320 2.5,0 1.67,-86.67 0.83,86.67 3.34,0 1.66,-1052.5 0.84,1052.5 0.83,0 1.67,-485 0.83,112.5 1.67,-39.17 0.83,411.67 2.5,0 0.83,-170.83 1.67,170.83 0.83,-205.83 0.84,92.5 1.66,113.33 0.84,0 1.66,-29.17 0.84,25.84 0.83,3.33 2.5,0 1.67,-189.17 0.83,83.34 0.83,-994.17 1.67,1100 6.67,0 1.66,-166.67 0.84,156.67 0.83,5.83 1.67,-1002.498 0.83,872.498 0.83,105 1.67,-29.16 0.83,58.33 1.67,-320 0.83,320 0.84,-697.5 1.66,697.5 2.5,0 0.84,-365 0.83,114.17 1.67,80 0.83,-103.34 1.67,-760.83 0.83,1035 5,0 0.83,-133.33 0.84,133.33 4.16,0 0.84,-908.33 0.83,908.33 1.67,-661.67 0.83,661.67 3.33,0 1.67,-350.83 0.83,350.83 1.67,-97.5 0.83,97.5 2.5,0 0.84,-440 0.83,-315.83 1.67,755.83 0.83,0 1.67,-2.5 0.83,2.5 0.83,-353.33 1.67,161.66 0.83,42.5 1.67,83.34 0.83,-65.84 0.84,131.67 5,0 0.83,-49.17 1.67,49.17 0.83,0 1.67,-1200.832 0.83,1200.832 0.83,-295 1.67,290.83 0.83,2.5 1.67,1.67 0.83,-21.67 0.84,21.67 1.66,-595.83 0.84,595.83 9.16,0 1.67,-344.17 0.83,344.17 1.67,0 0.83,-40 0.84,-254.17 1.66,294.17 0.84,-1025.832 0.83,1025.832 1.67,0 0.83,-179.17 1.67,138.34 0.83,40.83 2.5,0 0.83,-1148.332 1.67,1148.332 0.83,-295 0.84,295 5.83,0 1.67,-105.83 0.83,-1070.002 1.67,373.332 0.83,802.5 5,0 0.83,-1328.332 0.84,1328.332 1.66,0 0.84,-567.5 1.66,197.5 0.84,370 5,0 0.83,-366.67 0.83,366.67 3.34,0 1.66,-445 0.84,445 1.66,0 0.84,-6.67 0.83,6.67 2.5,0 1.67,-601.67 0.83,601.67 9.17,0 1.66,-1321.668 0.84,1321.668 2.5,0 0.83,-3.33 1.67,3.33 0.83,0 0.83,-942.5 1.67,942.5 0.83,-299.17 1.67,299.17 0.83,0 0.84,-316.67 1.66,-171.66 0.84,488.33 6.66,0 1.67,-353.33 0.83,-988.338 1.67,794.168 0.83,547.5 0.84,-281.67 1.66,281.67 2.5,0 0.84,-428.33 0.83,428.33 2.5,0 1.67,-595.83 0.83,595.83 0.83,-90.83 1.67,-257.5 0.83,348.33 1.67,0 0.83,-40.83 0.84,40.83 2.5,0" />
        <path
           inkscape:connector-curvature="0"
           id="path4503"
           style="fill:none;stroke:#0000ff;stroke-width:5;stroke-linecap:butt;stroke-linejoin:round;stroke-miterlimit:10;stroke-dasharray:none;stroke-opacity:1"
           d="M 976.668,1970 977.5,762.5 979.168,1970 980,1882.5 l 1.668,87.5 4.164,0 1.668,-516.67 0.832,516.67 12.498,0 1.67,-420 0.83,420 5,0 0.84,-387.5 0.83,387.5 2.5,0 1.67,-179.17 0.83,179.17 9.17,0 1.66,-21.67 0.84,21.67 0.83,-725.83 1.67,-553.338 0.83,1059.998 1.67,117.5 0.83,53.34 0.83,-881.67 1.67,930 7.5,0 1.67,-735.83 0.83,735.83 1.67,0 0.83,-66.67 0.83,-8.33 1.67,75 3.33,0 0.84,-1112.5 1.66,430.83 0.84,279.17 1.66,254.17 0.84,-630 0.83,778.33 7.5,0 0.83,-69.17 1.67,-705.83 0.83,775 2.5,0 0.84,-50 1.66,-342.5 0.84,392.5 0.83,0 1.67,-761.67 0.83,-214.162 1.67,975.832 0.83,-382.5 0.83,-15 1.67,334.17 0.83,-165.84 1.67,28.34 0.83,0 0.84,200.83 9.16,0 1.67,-365.83 0.83,368.33 1.67,0 0.83,0.83 2.5,0 0.84,-613.33 1.66,101.67 0.84,351.66 0.83,160.84 1.67,0 0.83,-20 1.67,20 3.33,0 0.83,-64.17 1.67,64.17 1.67,0 1.66,-5.84 0.84,-627.5 1.66,633.34 3.34,0 0.83,-375.84 1.67,375.84 1.66,0 1.67,-30.84 0.83,30.84 0.84,-397.5 1.66,397.5 3.34,0 0.83,-155.84 1.67,155.84 0.83,0 1.67,-174.17 0.83,174.17 3.33,0 1.67,-398.34 0.83,398.34 6.67,0 1.67,-805 0.83,805 10.83,0 0.84,-648.34 1.66,602.5 0.84,45.84 2.5,0 0.83,-355.84 0.83,355.84 2.5,0 1.67,-418.34 0.83,418.34 0.84,-303.34 1.66,303.34 6.67,0 1.67,-477.5 0.83,376.66 0.83,100.84 5,0 0.84,-231.67 1.66,231.67 2.5,0 0.84,-173.34 0.83,173.34 1.67,1.66 0.83,0.84 5,0 0.83,-437.5 1.67,274.16 0.83,-41.66 0.84,205 1.66,0 0.84,-212.5 1.66,212.5 0.84,0 0.83,-28.34 1.67,-370.83 0.83,29.17 0.83,370 2.5,0 1.67,-664.17 0.83,664.17 0.84,-55.84 1.66,55.84 0.84,0 1.66,-75.84 0.84,75.84 0.83,-184.17 1.67,184.17 0.83,-489.17 1.67,489.17 3.33,0 0.83,-390.84 1.67,366.67 0.83,-530 0.84,80 1.66,474.17 0.84,-402.5 1.66,402.5 0.84,-5 0.83,-45.84 1.67,50.84 3.33,0 0.83,-82.5 1.67,82.5 0.83,-249.17 1.67,249.17 0.83,-224.17 0.84,224.17 1.66,-2.5 0.84,2.5 2.5,0 0.83,-364.17 1.67,10 0.83,354.17 5,0 0.83,-1263.338 0.84,1047.498 1.66,215.84 0.84,0 1.66,-128.34 0.84,-520.83 0.83,478.33 1.67,170.84 0.83,0 1.67,-379.17 0.83,379.17 0.83,-356.67 1.67,355 0.83,-12.5 1.67,-210.83 0.83,225 5.84,0 0.83,-723.34 1.67,-427.498 0.83,844.168 1.67,306.67 7.5,0 1.66,-740.84 0.84,348.34" />
        <path
           inkscape:connector-curvature="0"
           id="path4505"
           style="fill:none;stroke:#0000ff;stroke-width:5;stroke-linecap:butt;stroke-linejoin:round;stroke-miterlimit:10;stroke-dasharray:none;stroke-opacity:1"
           d="m 629.168,1866.67 4.164,0 1.668,-599.17 0.832,599.17 1.668,-295 0.832,295 0.836,0 1.664,-225.84 0.836,-936.662 1.664,1169.162 L 644.168,833.332 645,1875 l 1.668,1.67 0.832,1.66 1.668,-205.83 0.832,206.67 0.832,-341.67 1.668,-321.67 0.832,584.17 1.668,-103.33 0.832,183.33 0.836,0.83 1.664,-637.5 0.836,-428.33 1.664,603.33 0.836,236.67 0.832,-2.5 1.668,-954.168 0.832,1108.338 1.668,75 0.832,0.83 0.832,-260 1.668,260 0.832,-0.83 0.836,0.83 1.664,-20 0.836,20 2.5,0 0.832,-82.5 1.668,82.5 4.164,0 1.668,-1.67 0.832,-96.66 1.668,85.83 0.832,7.5 0.836,-75.83 1.664,76.66 0.836,4.17 5,0 0.832,-837.5 1.668,198.33 0.832,639.17 0.832,-548.33 1.668,548.33 12.5,0 0.832,-50 1.668,50 0.832,0 1.668,-904.168 0.832,904.168 0.836,0 1.664,-72.5 0.836,72.5 5,0 0.832,-346.67 1.668,346.67 1.664,0 1.668,-750 0.832,750 3.336,0 1.664,-120 0.836,120 1.664,0 0.836,-440 0.832,460 1.668,5 0.832,5 1.668,-800 0.832,802.5 0.832,0.83 1.668,-880.83 0.832,883.33 1.668,0.84 0.832,-312.5 0.836,313.33 1.664,0.83 0.836,0 1.664,0.84 0.836,-1195.002 0.832,1195.002 1.668,-280.84 0.832,167.5 0.832,113.34 2.5,0 1.668,-543.34 0.832,449.17 0.836,-423.33 1.664,517.5 5.836,0 0.832,4.16 1.668,3.34 0.832,1.66 0.832,2.5 1.668,0.84 0.832,0.83 1.668,0 0.832,0.83 0.836,-45.83 1.664,45.83 2.5,0 0.836,-464.16 0.832,-144.17 1.668,179.17 0.832,200 1.668,229.16 0.832,0.84 5.832,0 0.836,-6.67 1.664,6.67 0.836,0 0.832,4.16 1.668,1.67 0.832,0.83 1.668,0.84 L 815,1425 l 0.832,204.17 1.668,315.83 0.832,-97.5 1.668,97.5 0.832,-414.17 0.836,-646.662 1.664,1061.662 2.5,0 0.836,-15.83 0.832,15.83 1.668,-1001.662 0.832,1001.662 1.668,-355.83 0.832,355.83 3.332,0 1.668,-414.16 0.832,108.33 0.836,-83.33 1.664,389.16 0.836,0 1.664,-589.16 0.836,357.5 0.832,231.66 2.5,0 1.668,-385.83 0.832,385.83 0.832,-4.16 1.668,10.83 0.832,2.5 1.668,-45.83 0.832,49.16 0.836,-875.83 1.664,-176.668 0.836,1057.498 0.832,0.84 1.668,2.5 0.832,0.83 1.668,0 0.832,0.83 0.832,-360.83 1.668,99.17 0.832,207.5 1.668,55 0.832,0.83 0.836,-1325 1.664,1325 0.836,-565.83 1.664,-279.17 0.836,845 3.332,0 1.668,-263.33 0.832,57.5 0.832,205.83 8.336,0 1.664,-213.33 0.836,213.33 0.832,-1.67 1.668,-221.66 0.832,223.33 3.332,0 1.668,-75 0.832,75 0.836,-0.83 1.664,0.83 2.5,0 0.836,-775 0.832,775 4.168,0 0.832,-313.33 0.832,313.33 5,0 0.836,-633.33 1.664,633.33 0.836,-552.5 1.664,552.5 0.836,-705.83 0.832,705.83 1.668,-292.5 0.832,292.5 1.668,0 0.832,-277.5 0.832,277.5 2.5,0 1.668,-231.67 0.832,231.67 2.5,0 0.836,-109.17 1.664,109.17 0.836,-300 0.832,300 1.668,0 0.832,-90.83 0.832,-405 1.668,495.83 15,0 0.832,-261.67 1.668,261.67 0.832,0 1.668,-305 0.832,305 5.836,0" />
        <path
           inkscape:connector-curvature="0"
           id="path4507"
           style="fill:none;stroke:#0000ff;stroke-width:5;stroke-linecap:butt;stroke-linejoin:round;stroke-miterlimit:10;stroke-dasharray:none;stroke-opacity:1"
           d="m 390.832,297.5 0.836,201.668 1.664,15.832 0.836,148.332 0.832,130.836 1.668,212.502 0.832,33.33 1.668,75 0.832,47.5 0.832,21.67 1.668,-149.17 0.832,43.33 1.668,137.5 0.832,6.67 0.836,30 1.664,-43.33 0.836,53.33 1.664,10 0.836,20.83 0.832,-706.662 1.668,355.832 0.832,40.832 1.668,359.168 0.832,4.17 0.832,26.66 1.668,25 0.832,5.84 1.668,-156.67 0.832,-10.83 0.836,190.83 1.664,5 0.836,-150.83 1.664,-87.5 0.836,254.16 0.832,3.34 1.668,10 0.832,5 1.668,-78.34 0.832,89.17 0.832,6.67 1.668,6.66 0.832,5 0.836,-262.5 1.664,244.17 0.836,25.83 1.664,3.34 0.836,-221.67 0.832,224.17 1.668,0 0.832,-294.17 1.668,-47.5 0.832,300 0.832,47.5 1.668,-15 0.832,17.5 1.668,0 0.832,1.67 0.836,0 1.664,0.83 0.836,0 1.664,-20.83 0.836,23.33 0.832,15 1.668,-205 0.832,220 1.668,-510 0.832,516.67 0.832,2.5 1.668,6.66 0.832,-30.83 1.668,40 0.832,4.17 0.836,5 1.664,-293.34 0.836,295 1.664,-436.66 0.836,439.16 0.832,-156.66 1.668,-423.34 0.832,414.17 0.832,168.33 1.668,-65 0.832,66.67 1.668,10.83 0.832,14.17 0.836,7.5 1.664,7.5 0.836,4.17 1.664,3.33 0.836,3.33 0.832,-694.162 1.668,555.832 0.832,-636.668 1.668,784.998 0.832,2.5 0.832,3.34 1.668,-211.67 0.832,202.5 1.668,10 0.832,1.67 0.836,0 1.664,0.83 0.836,-333.33 1.664,269.16 0.836,65 0.832,0 1.668,-220.83 0.832,221.67 5,0 0.832,-388.34 1.668,388.34 0.832,0 0.836,-550.84 1.664,550.84 3.336,0 0.832,-949.17 1.668,885.83 0.832,75 0.832,4.17 1.668,3.33 0.832,2.5 1.668,-537.5 0.832,538.34 0.836,0.83 1.664,0.83 2.5,0 0.836,0.84 0.832,0 1.668,40 0.832,9.16 1.668,9.17 0.832,-1052.5 0.832,1059.17 1.668,1.66 0.832,1.67 1.668,0.83 0.832,1.67 0.836,0.83 1.664,0.84 0.836,-71.67 1.664,72.5 0.836,0 0.832,0.83 2.5,0 1.668,-309.16 0.832,309.16 5.832,0 0.836,-1281.662 1.664,1307.502 0.836,-32.5 0.832,57.5 1.668,9.16 0.832,10 1.668,4.17 0.832,2.5 0.832,-310 1.668,315.83 0.832,1.67 1.668,3.33 0.832,-26.66 0.836,28.33 1.664,-188.33 0.836,190 1.664,0.83 0.836,0.83 3.332,0 1.668,0.84 4.164,0 1.668,-613.34 0.832,614.17 0.836,0.83 1.664,-20 0.836,20 1.664,-310 0.836,310 0.832,-56.66 1.668,56.66 0.832,0 1.668,-907.498 0.832,909.168 0.832,-2.5 1.668,4.17 0.832,0.83 1.668,-313.33 0.832,313.33 0.836,0.83 1.664,0 0.836,0.84 2.5,0" />
        <path
           inkscape:connector-curvature="0"
           id="path4509"
           style="fill:none;stroke:#ff0000;stroke-width:5;stroke-linecap:butt;stroke-linejoin:round;stroke-miterlimit:10;stroke-dasharray:none;stroke-opacity:1"
           d="m 2366.67,1984.17 13.33,0 0.83,4.16 62.5,0 1.67,6.67 270,0" />
        <path
           inkscape:connector-curvature="0"
           id="path4511"
           style="fill:none;stroke:#ff0000;stroke-width:5;stroke-linecap:butt;stroke-linejoin:round;stroke-miterlimit:10;stroke-dasharray:none;stroke-opacity:1"
           d="m 2019.17,1983.33 49.16,0 0.84,1.67 1.66,-1.67 86.67,0 1.67,0.84 207.5,0" />
        <path
           inkscape:connector-curvature="0"
           id="path4513"
           style="fill:none;stroke:#ff0000;stroke-width:5;stroke-linecap:butt;stroke-linejoin:round;stroke-miterlimit:10;stroke-dasharray:none;stroke-opacity:1"
           d="m 1671.67,1977.5 117.5,0 0.83,2.5 1.67,0 0.83,-0.83 3.33,0 1.67,-0.84 94.17,0 0.83,15 1.67,-7.5 0.83,-3.33 120.83,0 1.67,0.83 1.67,0" />
        <path
           inkscape:connector-curvature="0"
           id="path4515"
           style="fill:none;stroke:#ff0000;stroke-width:5;stroke-linecap:butt;stroke-linejoin:round;stroke-miterlimit:10;stroke-dasharray:none;stroke-opacity:1"
           d="m 1324.17,1976.67 75.83,0 0.83,0.83 270.84,0" />
        <path
           inkscape:connector-curvature="0"
           id="path4517"
           style="fill:none;stroke:#ff0000;stroke-width:5;stroke-linecap:butt;stroke-linejoin:round;stroke-miterlimit:10;stroke-dasharray:none;stroke-opacity:1"
           d="m 976.668,1970 118.332,0 1.67,4.17 110,0 1.66,2.5 115.84,0" />
        <path
           inkscape:connector-curvature="0"
           id="path4519"
           style="fill:none;stroke:#ff0000;stroke-width:5;stroke-linecap:butt;stroke-linejoin:round;stroke-miterlimit:10;stroke-dasharray:none;stroke-opacity:1"
           d="m 629.168,1866.67 5.832,0 0.832,17.5 14.168,0 0.832,3.33 2.5,0 1.668,-3.33 1.668,0 1.664,-0.84 5.836,0 0.832,-0.83 75.832,0 0.836,40 34.164,0 0.836,14.17 28.332,0 0.832,9.16 40.836,0 0.832,25.84 14.168,0 0.832,-0.84 13.332,0 0.836,-0.83 100,0" />
        <path
           inkscape:connector-curvature="0"
           id="path4521"
           style="fill:none;stroke:#ff0000;stroke-width:5;stroke-linecap:butt;stroke-linejoin:round;stroke-miterlimit:10;stroke-dasharray:none;stroke-opacity:1"
           d="m 390.832,1380 0.836,0 1.664,-51.67 7.5,0 1.668,-5 0.832,0 1.668,-3.33 0.832,155.83 5.836,0 0.832,123.34 1.668,-60 9.164,0 0.836,-32.5 4.164,0 0.836,11.66 2.5,0 0.832,3.34 5,0 0.832,1.66 0.836,20 1.664,-10 0.836,-6.66 2.5,0 0.832,4.16 2.5,0 1.668,-6.66 6.664,0 0.836,10 1.664,49.16 4.168,0 1.668,112.5 0.832,-97.5 5.832,0 1.668,0.84 4.168,0 1.664,155 0.836,-75.84 17.5,0 0.832,-6.66 1.668,-1.67 0.832,0 0.832,-0.83 1.668,0 0.832,-0.84 1.668,-0.83 10,0 1.668,-0.83 9.164,0 0.836,25 1.664,0 0.836,0.83 12.5,0 1.664,74.17 27.5,0 1.668,96.66 10.832,0 1.668,-1.66 0.832,-0.84 5,0 0.836,-0.83 7.5,0 0.832,1.67 8.332,0 0.836,5.83 15,0 1.664,-0.83 3.336,0" />
      </g>
    </g>
    <g
       id="g4541"
       transform="matrix(0.125,0,0,-0.125,198.21429,321.44704)">
      <g
         clip-path="url(#clipPath4545)"
         id="g4543">
        <path
           inkscape:connector-curvature="0"
           id="path4549"
           style="fill:none;stroke:#000000;stroke-width:20;stroke-linecap:butt;stroke-linejoin:round;stroke-miterlimit:10;stroke-dasharray:none;stroke-opacity:1"
           d="m 390,530 2325,0" />
        <path
           inkscape:connector-curvature="0"
           id="path4551"
           style="fill:none;stroke:#ff0000;stroke-width:20;stroke-linecap:butt;stroke-linejoin:round;stroke-miterlimit:10;stroke-dasharray:none;stroke-opacity:1"
           d="m 390,1995 2325,0" />
      </g>
    </g>
    <g
       id="g4553"
       transform="matrix(0.125,0,0,-0.125,198.21429,321.44704)">
      <g
         clip-path="url(#clipPath4557)"
         id="g4555">
        <path
           inkscape:connector-curvature="0"
           id="path4561"
           style="fill:#ffffff;fill-opacity:1;fill-rule:evenodd;stroke:none"
           d="m 2064.17,323.332 600.832,0 0,388.336 -600.832,0 0,-388.336 z" />
        <path
           inkscape:connector-curvature="0"
           id="path4563"
           style="fill:none;stroke:#ffffff;stroke-width:5;stroke-linecap:butt;stroke-linejoin:round;stroke-miterlimit:10;stroke-dasharray:none;stroke-opacity:1"
           d="m 2064.17,323.332 0,388.336 600.83,0 0,-388.336 -600.83,0" />
        <path
           inkscape:connector-curvature="0"
           id="path4565"
           style="fill:none;stroke:#000000;stroke-width:5;stroke-linecap:butt;stroke-linejoin:round;stroke-miterlimit:10;stroke-dasharray:none;stroke-opacity:1"
           d="m 2064.17,711.668 600.83,0" />
        <path
           inkscape:connector-curvature="0"
           id="path4567"
           style="fill:none;stroke:#000000;stroke-width:5;stroke-linecap:butt;stroke-linejoin:round;stroke-miterlimit:10;stroke-dasharray:none;stroke-opacity:1"
           d="m 2064.17,323.332 600.83,0" />
        <path
           inkscape:connector-curvature="0"
           id="path4569"
           style="fill:none;stroke:#000000;stroke-width:5;stroke-linecap:butt;stroke-linejoin:round;stroke-miterlimit:10;stroke-dasharray:none;stroke-opacity:1"
           d="m 2665,323.332 0,388.336" />
        <path
           inkscape:connector-curvature="0"
           id="path4571"
           style="fill:none;stroke:#000000;stroke-width:5;stroke-linecap:butt;stroke-linejoin:round;stroke-miterlimit:10;stroke-dasharray:none;stroke-opacity:1"
           d="m 2064.17,323.332 0,388.336" />
        <path
           inkscape:connector-curvature="0"
           id="path4573"
           style="fill:none;stroke:#000000;stroke-width:5;stroke-linecap:butt;stroke-linejoin:round;stroke-miterlimit:10;stroke-dasharray:none;stroke-opacity:1"
           d="m 2064.17,323.332 600.83,0" />
        <path
           inkscape:connector-curvature="0"
           id="path4575"
           style="fill:none;stroke:#000000;stroke-width:5;stroke-linecap:butt;stroke-linejoin:round;stroke-miterlimit:10;stroke-dasharray:none;stroke-opacity:1"
           d="m 2064.17,323.332 0,388.336" />
        <path
           inkscape:connector-curvature="0"
           id="path4577"
           style="fill:none;stroke:#000000;stroke-width:5;stroke-linecap:butt;stroke-linejoin:round;stroke-miterlimit:10;stroke-dasharray:none;stroke-opacity:1"
           d="m 2064.17,711.668 600.83,0" />
        <path
           inkscape:connector-curvature="0"
           id="path4579"
           style="fill:none;stroke:#000000;stroke-width:5;stroke-linecap:butt;stroke-linejoin:round;stroke-miterlimit:10;stroke-dasharray:none;stroke-opacity:1"
           d="m 2064.17,323.332 600.83,0" />
        <path
           inkscape:connector-curvature="0"
           id="path4581"
           style="fill:none;stroke:#000000;stroke-width:5;stroke-linecap:butt;stroke-linejoin:round;stroke-miterlimit:10;stroke-dasharray:none;stroke-opacity:1"
           d="m 2665,323.332 0,388.336" />
        <path
           inkscape:connector-curvature="0"
           id="path4583"
           style="fill:none;stroke:#000000;stroke-width:5;stroke-linecap:butt;stroke-linejoin:round;stroke-miterlimit:10;stroke-dasharray:none;stroke-opacity:1"
           d="m 2064.17,323.332 0,388.336" />
        <g
           transform="scale(10,10)"
           id="g4585">
          <text
             id="text4587"
             style="font-variant:normal;font-weight:normal;font-size:11px;font-family:'Times New Roman';-inkscape-font-specification:Times-Roman;writing-mode:lr-tb;fill:#000000;fill-opacity:1;fill-rule:nonzero;stroke:none"
             transform="matrix(1,0,0,-1,243.667,59.3332)">
            <tspan
               id="tspan4589"
               y="0"
               x="0">J</tspan>
          </text>
          <text
             id="text4591"
             style="font-variant:normal;font-weight:normal;font-size:8px;font-family:'Times New Roman';-inkscape-font-specification:Times-Roman;writing-mode:lr-tb;fill:#000000;fill-opacity:1;fill-rule:nonzero;stroke:none"
             transform="matrix(1,0,0,-1,247.917,53.8332)">
            <tspan
               id="tspan4593"
               sodipodi:role="line"
               y="0"
               x="0 6.224 8.448">min</tspan>
          </text>
        </g>
      </g>
    </g>
    <g
       id="g4595"
       transform="matrix(0.125,0,0,-0.125,198.21429,321.44704)">
      <g
         clip-path="url(#clipPath4599)"
         id="g4597">
        <path
           inkscape:connector-curvature="0"
           id="path4603"
           style="fill:none;stroke:#0000ff;stroke-width:5;stroke-linecap:butt;stroke-linejoin:round;stroke-miterlimit:10;stroke-dasharray:none;stroke-opacity:1"
           d="m 2120.83,606.668 286.67,0" />
      </g>
    </g>
    <g
       id="g4605"
       transform="matrix(0.125,0,0,-0.125,198.21429,321.44704)">
      <g
         clip-path="url(#clipPath4609)"
         id="g4607">
        <g
           transform="scale(10,10)"
           id="g4613">
          <text
             id="text4615"
             style="font-variant:normal;font-weight:normal;font-size:11px;font-family:'Times New Roman';-inkscape-font-specification:Times-Roman;writing-mode:lr-tb;fill:#000000;fill-opacity:1;fill-rule:nonzero;stroke:none"
             transform="matrix(1,0,0,-1,243.667,41.4168)">
            <tspan
               id="tspan4617"
               y="0"
               x="0">J</tspan>
          </text>
          <text
             id="text4619"
             style="font-variant:normal;font-weight:normal;font-size:8px;font-family:'Times New Roman';-inkscape-font-specification:Times-Roman;writing-mode:lr-tb;fill:#000000;fill-opacity:1;fill-rule:nonzero;stroke:none"
             transform="matrix(1,0,0,-1,247.917,35.9168)">
            <tspan
               id="tspan4621"
               sodipodi:role="line"
               y="0"
               x="0 6.224 9.776">max</tspan>
          </text>
        </g>
      </g>
    </g>
    <g
       id="g4623"
       transform="matrix(0.125,0,0,-0.125,198.21429,321.44704)">
      <g
         clip-path="url(#clipPath4627)"
         id="g4625">
        <path
           inkscape:connector-curvature="0"
           id="path4631"
           style="fill:none;stroke:#ff0000;stroke-width:5;stroke-linecap:butt;stroke-linejoin:round;stroke-miterlimit:10;stroke-dasharray:none;stroke-opacity:1"
           d="m 2120.83,429.168 286.67,0" />
      </g>
    </g>
  </g>
</svg>
