<?xml version="1.0" encoding="UTF-8" standalone="no"?>
<!-- Created with Inkscape (http://www.inkscape.org/) -->

<svg
   xmlns:dc="http://purl.org/dc/elements/1.1/"
   xmlns:cc="http://creativecommons.org/ns#"
   xmlns:rdf="http://www.w3.org/1999/02/22-rdf-syntax-ns#"
   xmlns:svg="http://www.w3.org/2000/svg"
   xmlns="http://www.w3.org/2000/svg"
   xmlns:sodipodi="http://sodipodi.sourceforge.net/DTD/sodipodi-0.dtd"
   xmlns:inkscape="http://www.inkscape.org/namespaces/inkscape"
   width="188.65172mm"
   height="43.01873mm"
   viewBox="0 0 668.45097 152.42857"
   id="svg2"
   version="1.1"
   inkscape:version="0.91 r13725"
   sodipodi:docname="blackboxmodel.svg">
  <sodipodi:namedview
     id="base"
     pagecolor="#ffffff"
     bordercolor="#666666"
     borderopacity="1.0"
     inkscape:pageopacity="0.0"
     inkscape:pageshadow="2"
     inkscape:zoom="1.4274021"
     inkscape:cx="315.7516"
     inkscape:cy="69.071396"
     inkscape:document-units="px"
     inkscape:current-layer="layer1"
     showgrid="false"
     inkscape:window-width="1600"
     inkscape:window-height="838"
     inkscape:window-x="-8"
     inkscape:window-y="-8"
     inkscape:window-maximized="1"
     fit-margin-top="0"
     fit-margin-left="0"
     fit-margin-right="0"
     fit-margin-bottom="0" />
  <defs
     id="defs4">
    <marker
       inkscape:stockid="Arrow2Lend"
       orient="auto"
       refY="0"
       refX="0"
       id="Arrow2Lend"
       style="overflow:visible"
       inkscape:isstock="true">
      <path
         id="path4248"
         style="fill:#000000;fill-opacity:1;fill-rule:evenodd;stroke:#000000;stroke-width:0.625;stroke-linejoin:round;stroke-opacity:1"
         d="M 8.7185878,4.0337352 -2.2072895,0.01601326 8.7185884,-4.0017078 c -1.7454984,2.3720609 -1.7354408,5.6174519 -6e-7,8.035443 z"
         transform="matrix(-1.1,0,0,-1.1,-1.1,0)"
         inkscape:connector-curvature="0" />
    </marker>
    <marker
       inkscape:stockid="Arrow2Lend"
       orient="auto"
       refY="0"
       refX="0"
       id="Arrow2Lend-4"
       style="overflow:visible"
       inkscape:isstock="true">
      <path
         inkscape:connector-curvature="0"
         id="path4248-8"
         style="fill:#000000;fill-opacity:1;fill-rule:evenodd;stroke:#000000;stroke-width:0.625;stroke-linejoin:round;stroke-opacity:1"
         d="M 8.7185878,4.0337352 -2.2072895,0.01601326 8.7185884,-4.0017078 c -1.7454984,2.3720609 -1.7354408,5.6174519 -6e-7,8.035443 z"
         transform="matrix(-1.1,0,0,-1.1,-1.1,0)" />
    </marker>
  </defs>
  <metadata
     id="metadata7">
    <rdf:RDF>
      <cc:Work
         rdf:about="">
        <dc:format>image/svg+xml</dc:format>
        <dc:type
           rdf:resource="http://purl.org/dc/dcmitype/StillImage" />
        <dc:title></dc:title>
      </cc:Work>
    </rdf:RDF>
  </metadata>
  <g
     id="layer1"
     inkscape:groupmode="layer"
     inkscape:label="Layer 1"
     transform="translate(-59.962682,-383.29074)">
    <rect
       y="383.79074"
       x="237.14285"
       height="151.42857"
       width="262.85715"
       id="rect4136"
       style="opacity:1;fill:#000000;fill-opacity:1;stroke:#000000;stroke-width:1;stroke-miterlimit:4;stroke-dasharray:none;stroke-dashoffset:0;stroke-opacity:1" />
    <g
       id="g4144"
       transform="translate(-237.49439,117.69633)">
      <g
         word-spacing="normal"
         letter-spacing="normal"
         font-size-adjust="none"
         font-stretch="normal"
         font-weight="normal"
         font-variant="normal"
         font-style="normal"
         stroke-miterlimit="10.433"
         xml:space="preserve"
         transform="matrix(1.0629921,0,0,-1.0629921,-186.02362,789.27165)"
         id="content"
         style="font-style:normal;font-variant:normal;font-weight:normal;font-stretch:normal;letter-spacing:normal;word-spacing:normal;text-anchor:start;fill:none;fill-opacity:1;fill-rule:evenodd;stroke:#000000;stroke-linecap:butt;stroke-linejoin:miter;stroke-miterlimit:10.43299961;stroke-dasharray:none;stroke-dashoffset:0;stroke-opacity:1"><path
           id="path4147"
           d="m 480.74,406.2 0,1.75 c -1.97,0.12 -2.7,0.55 -4.03,2.23 -2.21,2.99 -4.36,6.11 -6.52,9.27 1.74,2.34 3.44,4.22 5.05,5.87 1.09,1.1 2.06,1.55 3.94,1.6 l 0,1.75 -9.08,0 0,-1.75 1.19,-0.14 c 0.64,-0.08 0.78,-0.5 0.23,-1.28 l -2.75,-4.08 -0.09,0 -2.85,4.36 c -0.31,0.45 -0.26,0.87 0.28,0.97 l 1.05,0.17 0,1.75 -11.92,0 0,-1.75 c 2.03,-0.22 2.48,-0.46 3.4,-1.69 1.88,-2.53 3.8,-5.55 6.1,-8.62 -1.8,-2.25 -3.44,-4.41 -5.24,-6.43 -1.46,-1.64 -2.28,-1.97 -4.67,-2.23 l 0,-1.75 10.13,0 0,1.75 -1.6,0.22 c -0.73,0.09 -0.92,0.54 -0.37,1.37 l 3.17,4.96 0.09,0 3.35,-5.14 c 0.5,-0.77 0.19,-1.19 -0.6,-1.29 l -1.01,-0.12 0,-1.75 z"
           inkscape:connector-curvature="0"
           style="fill:#000000;stroke-width:0" /></g>    </g>
    <g
       id="g4165"
       transform="translate(50.441286,114.89404)"
       style="fill:#ffffff;fill-opacity:1;stroke:#791818;stroke-opacity:1">
      <g
         id="g4167"
         transform="matrix(1.0629921,0,0,-1.0629921,-186.02362,789.27165)"
         xml:space="preserve"
         stroke-miterlimit="10.433"
         font-style="normal"
         font-variant="normal"
         font-weight="normal"
         font-stretch="normal"
         font-size-adjust="none"
         letter-spacing="normal"
         word-spacing="normal"
         style="font-style:normal;font-variant:normal;font-weight:normal;font-stretch:normal;letter-spacing:normal;word-spacing:normal;text-anchor:start;fill:#ffffff;fill-opacity:1;fill-rule:evenodd;stroke:#791818;stroke-linecap:butt;stroke-linejoin:miter;stroke-miterlimit:10.43299961;stroke-dasharray:none;stroke-dashoffset:0;stroke-opacity:1"><path
           d="m 480.37,428.67 -5.97,0 1.28,5.17 c 0.88,3.48 1.75,4.78 3.03,4.78 1.24,0 2.07,-1.01 3.08,-3.22 0.22,-0.45 0.55,-0.78 1.24,-0.78 0.9,0 2.25,0.88 2.25,2.02 0,1.98 -2.49,3.57 -5.24,3.57 -2.98,0 -4.9,-1.23 -6.42,-3.15 -1.42,-1.8 -2.33,-4.27 -2.97,-6.7 l -0.47,-1.69 -3.98,0 -0.5,-1.75 4.08,0 -5.33,-27 c -0.55,-2.85 -1,-3.13 -1.45,-3.13 -0.52,0 -1.21,0.38 -2.44,2.25 -0.33,0.47 -0.64,1.02 -1.24,1.02 -1.01,0 -2.06,-1.16 -2.06,-2.3 0.05,-1.51 2.02,-2.65 4.17,-2.65 4.58,0 6.5,3.71 8.44,12.51 l 4.27,19.3 5.76,0 z"
           id="path4169"
           inkscape:connector-curvature="0"
           style="fill:#ffffff;fill-opacity:1;stroke:#791818;stroke-width:0;stroke-opacity:1" /></g>    </g>
    <g
       id="g4193"
       transform="translate(343.28097,114.89405)">
      <g
         word-spacing="normal"
         letter-spacing="normal"
         font-size-adjust="none"
         font-stretch="normal"
         font-weight="normal"
         font-variant="normal"
         font-style="normal"
         stroke-miterlimit="10.433"
         xml:space="preserve"
         transform="matrix(1.0629921,0,0,-1.0629921,-186.02362,789.27165)"
         id="g4195"
         style="font-style:normal;font-variant:normal;font-weight:normal;font-stretch:normal;letter-spacing:normal;word-spacing:normal;text-anchor:start;fill:none;fill-opacity:1;fill-rule:evenodd;stroke:#000000;stroke-linecap:butt;stroke-linejoin:miter;stroke-miterlimit:10.43299961;stroke-dasharray:none;stroke-dashoffset:0;stroke-opacity:1"><path
           id="path4197"
           d="m 480.37,428.67 -5.97,0 1.28,5.17 c 0.88,3.48 1.75,4.78 3.03,4.78 1.24,0 2.07,-1.01 3.08,-3.22 0.22,-0.45 0.55,-0.78 1.24,-0.78 0.9,0 2.25,0.88 2.25,2.02 0,1.98 -2.49,3.57 -5.24,3.57 -2.98,0 -4.9,-1.23 -6.42,-3.15 -1.42,-1.8 -2.33,-4.27 -2.97,-6.7 l -0.47,-1.69 -3.98,0 -0.5,-1.75 4.08,0 -5.33,-27 c -0.55,-2.85 -1,-3.13 -1.45,-3.13 -0.52,0 -1.21,0.38 -2.44,2.25 -0.33,0.47 -0.64,1.02 -1.24,1.02 -1.01,0 -2.06,-1.16 -2.06,-2.3 0.05,-1.51 2.02,-2.65 4.17,-2.65 4.58,0 6.5,3.71 8.44,12.51 l 4.27,19.3 5.76,0 z"
           inkscape:connector-curvature="0"
           style="fill:#000000;stroke-width:0" /><path
           id="path4199"
           d="m 494.13,419.12 0.01,0.61 0,0.59 0.02,0.59 0.02,0.57 0.05,1.09 0.08,1.05 0.1,1 0.11,0.95 0.13,0.91 0.15,0.85 0.17,0.82 0.18,0.76 0.19,0.73 0.21,0.68 0.22,0.64 0.23,0.6 0.24,0.56 0.25,0.53 0.26,0.49 0.27,0.45 0.27,0.42 0.28,0.38 0.29,0.35 0.28,0.32 0.29,0.29 0.3,0.26 0.29,0.24 0.29,0.2 0.3,0.18 0.29,0.16 0.29,0.13 0.28,0.11 0.28,0.08 0.27,0.07 0,1.15 c -8.03,-0.32 -10.09,-10.28 -10.09,-18.81 0,-8.51 2.06,-18.47 10.09,-18.8 l 0,1.16 c -2.67,0.55 -6.89,4.44 -6.89,17.64 z"
           inkscape:connector-curvature="0"
           style="fill:#000000;stroke-width:0" /><path
           id="path4201"
           d="m 527.41,406.2 0,1.75 c -1.96,0.12 -2.7,0.55 -4.03,2.23 -2.2,2.99 -4.36,6.11 -6.51,9.27 1.73,2.34 3.43,4.22 5.04,5.87 1.1,1.1 2.07,1.55 3.94,1.6 l 0,1.75 -9.08,0 0,-1.75 1.19,-0.14 c 0.64,-0.08 0.78,-0.5 0.24,-1.28 l -2.75,-4.08 -0.1,0 -2.84,4.36 c -0.31,0.45 -0.27,0.87 0.28,0.97 l 1.05,0.17 0,1.75 -11.93,0 0,-1.75 c 2.04,-0.22 2.49,-0.46 3.41,-1.69 1.88,-2.53 3.8,-5.55 6.09,-8.62 -1.79,-2.25 -3.43,-4.41 -5.23,-6.43 -1.47,-1.64 -2.28,-1.97 -4.67,-2.23 l 0,-1.75 10.12,0 0,1.75 -1.59,0.22 c -0.74,0.09 -0.92,0.54 -0.38,1.37 l 3.18,4.96 0.09,0 3.34,-5.14 c 0.5,-0.77 0.19,-1.19 -0.59,-1.29 l -1.02,-0.12 0,-1.75 z"
           inkscape:connector-curvature="0"
           style="fill:#000000;stroke-width:0" /><path
           id="path4203"
           d="m 534.09,419.12 0,-0.61 -0.01,-0.6 -0.02,-0.58 -0.02,-0.58 -0.02,-0.56 -0.04,-0.54 -0.08,-1.06 -0.1,-1 -0.12,-0.95 -0.13,-0.91 -0.16,-0.86 -0.17,-0.81 -0.19,-0.77 -0.2,-0.73 -0.21,-0.68 -0.23,-0.64 -0.23,-0.6 -0.25,-0.56 -0.26,-0.53 -0.26,-0.48 -0.27,-0.45 -0.27,-0.42 -0.29,-0.38 -0.28,-0.35 -0.29,-0.32 -0.28,-0.28 -0.29,-0.26 -0.29,-0.23 -0.29,-0.2 -0.28,-0.18 -0.28,-0.15 -0.28,-0.12 -0.27,-0.11 -0.26,-0.08 -0.25,-0.06 0,-1.16 c 8.03,0.33 10.09,10.29 10.09,18.8 0,8.53 -2.06,18.49 -10.09,18.81 l 0,-1.15 c 2.88,-0.6 6.87,-4.53 6.87,-17.66 z"
           inkscape:connector-curvature="0"
           style="fill:#000000;stroke-width:0" /></g>    </g>
    <path
       style="fill:none;fill-rule:evenodd;stroke:#000000;stroke-width:2;stroke-linecap:butt;stroke-linejoin:miter;stroke-miterlimit:4;stroke-dasharray:none;stroke-opacity:1;marker-end:url(#Arrow2Lend)"
       d="m 99.68487,462.47936 133.80952,0"
       id="path4221"
       inkscape:connector-curvature="0" />
    <path
       style="fill:none;fill-rule:evenodd;stroke:#000000;stroke-width:2;stroke-linecap:butt;stroke-linejoin:miter;stroke-miterlimit:4;stroke-dasharray:none;stroke-opacity:1;marker-end:url(#Arrow2Lend-4)"
       d="m 499.85934,459.01175 133.80952,0"
       id="path4221-8"
       inkscape:connector-curvature="0" />
  </g>
</svg>
