<?xml version="1.0" encoding="UTF-8" standalone="no"?>
<!-- Created with Inkscape (http://www.inkscape.org/) -->

<svg
   xmlns:dc="http://purl.org/dc/elements/1.1/"
   xmlns:cc="http://creativecommons.org/ns#"
   xmlns:rdf="http://www.w3.org/1999/02/22-rdf-syntax-ns#"
   xmlns:svg="http://www.w3.org/2000/svg"
   xmlns="http://www.w3.org/2000/svg"
   xmlns:sodipodi="http://sodipodi.sourceforge.net/DTD/sodipodi-0.dtd"
   xmlns:inkscape="http://www.inkscape.org/namespaces/inkscape"
   width="152.8775mm"
   height="144.10814mm"
   viewBox="0 0 541.69194 510.61939"
   id="svg5078"
   version="1.1"
   inkscape:version="0.91 r13725"
   sodipodi:docname="corrcoeff.svg">
  <sodipodi:namedview
     id="base"
     pagecolor="#ffffff"
     bordercolor="#666666"
     borderopacity="1.0"
     inkscape:pageopacity="0.0"
     inkscape:pageshadow="2"
     inkscape:zoom="0.70740181"
     inkscape:cx="210.59699"
     inkscape:cy="398.05236"
     inkscape:document-units="px"
     inkscape:current-layer="layer2"
     showgrid="false"
     inkscape:window-width="1600"
     inkscape:window-height="838"
     inkscape:window-x="-8"
     inkscape:window-y="-8"
     inkscape:window-maximized="1"
     fit-margin-top="0"
     fit-margin-left="0"
     fit-margin-right="0"
     fit-margin-bottom="0" />
  <defs
     id="defs5080" />
  <metadata
     id="metadata5083">
    <rdf:RDF>
      <cc:Work
         rdf:about="">
        <dc:format>image/svg+xml</dc:format>
        <dc:type
           rdf:resource="http://purl.org/dc/dcmitype/StillImage" />
        <dc:title></dc:title>
      </cc:Work>
    </rdf:RDF>
  </metadata>
  <g
     inkscape:groupmode="layer"
     id="layer2"
     inkscape:label="Layer 2"
     transform="translate(-94.331387,-426.32397)">
    <path
       d="m 361.68753,678.01467 0,-217.02668 -13.10735,0.24428 -13.08112,1.19828 -12.8587,1.94986 -12.83934,2.6602 -12.61942,3.63607 -12.37077,4.12464 -11.88221,5.10299 -11.88721,5.56157 -11.3974,6.56492 -10.90884,7.02849 -10.66457,7.51643 -9.93235,8.49042 -9.47128,8.95898 -8.97872,9.47128 -8.4708,9.92798 -7.75815,10.42028 -7.27252,10.93321 -6.3232,11.40178 -5.80341,11.63855 -5.10544,12.10213 -4.36597,12.37577 -3.63626,12.61442 -2.66251,12.62005 213.39754,40.4841"
       style="fill:#9393ff;fill-opacity:1;fill-rule:evenodd;stroke:none"
       id="path6097"
       inkscape:connector-curvature="0" />
    <path
       d="m 361.68753,678.01467 0,-217.02668 -13.10735,0.24428 -13.08112,1.19828 -12.8587,1.94986 -12.83934,2.6602 -12.61942,3.63607 -12.37077,4.12464 -11.88221,5.10299 -11.88721,5.56157 -11.3974,6.56492 -10.90884,7.02849 -10.66457,7.51643 -9.93235,8.49042 -9.47128,8.95898 -8.97872,9.47128 -8.4708,9.93298 -7.75815,10.41528 -7.27252,10.93321 -6.3232,11.40178 -5.80341,11.63855 -5.10544,12.10213 -4.36597,12.37577 -3.63626,12.61442 -2.66251,12.62005 213.39754,40.4841"
       style="fill:none;stroke:#000000;stroke-width:1.45497894;stroke-linecap:butt;stroke-linejoin:round;stroke-miterlimit:10;stroke-dasharray:none;stroke-opacity:1"
       id="path6099"
       inkscape:connector-curvature="0" />
    <path
       d="m 361.68753,678.01467 -213.39754,-40.4841 -2.19153,12.83871 -1.2007,13.10048 -0.48564,12.83933 0.2416,13.10736 1.2007,13.10048 1.70587,12.83934 2.66012,12.8637 3.39217,12.61442 4.12438,12.3514 4.85403,12.12649 5.83515,11.63856 6.05475,11.40177 7.02849,11.1525 7.75821,10.42091 8.2487,10.201 164.17124,-142.11235"
       style="fill:#4eff35;fill-opacity:1;fill-rule:evenodd;stroke:none"
       id="path6101"
       inkscape:connector-curvature="0" />
    <path
       d="m 361.68753,678.01467 -213.39754,-40.4841 -2.19153,12.83871 -1.2007,13.10048 -0.48564,12.83933 0.2416,13.10736 1.2007,13.10048 1.70587,12.83934 2.66012,12.8637 3.39217,12.61442 4.12438,12.3514 4.85403,12.12649 5.83515,11.63856 6.05475,11.40177 7.02849,11.1525 7.75821,10.42091 8.2487,10.201 164.17124,-142.11235"
       style="fill:none;stroke:#000000;stroke-width:1.45497894;stroke-linecap:butt;stroke-linejoin:round;stroke-miterlimit:10;stroke-dasharray:none;stroke-opacity:1"
       id="path6103"
       inkscape:connector-curvature="0" />
    <path
       d="m 361.68753,678.01467 -164.17124,142.11235 8.98341,9.6837 9.43942,9.22762 10.17663,8.7342 10.44777,7.76545 11.15062,7.27259 11.40178,6.78439 11.88221,5.80585 12.3464,5.103 12.37515,4.36841 12.8637,3.63626 12.8587,2.90411 13.08111,1.94992 13.35164,1.44231 13.07612,0.24403 13.35163,-0.24403 13.08049,-1.20072 13.10298,-1.94748 13.08049,-2.90655 12.62192,-3.39223 12.61255,-4.36597 -77.11348,-202.97721"
       style="fill:#00dfff;fill-opacity:1;fill-rule:evenodd;stroke:none"
       id="path6105"
       inkscape:connector-curvature="0" />
    <path
       d="m 361.68753,678.01467 -164.17124,142.11235 8.98341,9.6837 9.43942,9.22762 10.17663,8.7342 10.44777,7.76545 11.15062,7.27259 11.40178,6.78439 11.88221,5.80585 12.3464,5.103 12.37515,4.36841 12.8637,3.63626 12.8587,2.90411 13.08111,1.94992 13.35164,1.44231 13.07612,0.24403 13.35163,-0.24403 13.08049,-1.20072 13.10298,-1.94748 13.08049,-2.90655 12.62192,-3.39223 12.61255,-4.36597 -77.11348,-202.97721"
       style="fill:none;stroke:#000000;stroke-width:1.45497894;stroke-linecap:butt;stroke-linejoin:round;stroke-miterlimit:10;stroke-dasharray:none;stroke-opacity:1"
       id="path6107"
       inkscape:connector-curvature="0" />
    <path
       d="m 361.68753,678.01467 77.11348,202.97721 12.13399,-5.10537 11.88221,-5.80341 11.3949,-6.32321 10.90885,-7.27008 10.66456,-7.76064 10.17663,-8.4708 9.47128,-8.97823 8.95899,-9.71556 8.49041,-10.17663 7.76071,-10.42091 7.02849,-11.1525 6.5643,-11.3949 5.56219,-11.88971 5.103,-12.12649 4.124,-12.37077 3.6367,-12.83684 -210.97469,-51.18116"
       style="fill:#8fff70;fill-opacity:1;fill-rule:evenodd;stroke:none"
       id="path6109"
       inkscape:connector-curvature="0" />
    <path
       d="m 361.68753,678.01467 77.11348,202.97721 12.13399,-5.10537 11.88221,-5.80341 11.3949,-6.32321 10.90885,-7.27008 10.66456,-7.76064 10.17663,-8.4708 9.47128,-8.97823 8.95899,-9.71556 8.49041,-10.17663 7.76071,-10.42091 7.02849,-11.1525 6.5643,-11.3949 5.56219,-11.88971 5.103,-12.12649 4.124,-12.37077 3.6367,-12.83684 -210.97469,-51.18116"
       style="fill:none;stroke:#000000;stroke-width:1.45497894;stroke-linecap:butt;stroke-linejoin:round;stroke-miterlimit:10;stroke-dasharray:none;stroke-opacity:1"
       id="path6111"
       inkscape:connector-curvature="0" />
    <path
       d="m 361.68753,678.01467 210.97469,51.18116 2.65958,-12.37764 1.70621,-12.61255 1.20078,-12.62192 0.48543,-12.83183 -0.24178,-12.61943 -1.20015,-12.8587 -215.58476,24.74091"
       style="fill:#ffcf00;fill-opacity:1;fill-rule:evenodd;stroke:none"
       id="path6113"
       inkscape:connector-curvature="0" />
    <path
       d="m 361.68753,678.01467 210.97469,51.18116 2.65958,-12.37764 1.70621,-12.61255 1.20078,-12.62192 0.48543,-12.83183 -0.24178,-12.61943 -1.20015,-12.8587 -215.58476,24.74091"
       style="fill:none;stroke:#000000;stroke-width:1.45497894;stroke-linecap:butt;stroke-linejoin:round;stroke-miterlimit:10;stroke-dasharray:none;stroke-opacity:1"
       id="path6115"
       inkscape:connector-curvature="0" />
    <path
       d="m 361.68753,678.01467 215.58476,-24.74091 -1.95049,-13.08111 -2.65958,-13.10736 -3.6367,-13.08361 -4.36828,-12.61193 -5.103,-12.37826 -5.80335,-12.12649 -6.56742,-11.63856 -7.51642,-11.40178 -7.9825,-10.66456 -8.49041,-10.17163 -9.47128,-9.71306 -9.6837,-9.20327 -10.44778,-8.48979 -131.90385,172.41232"
       style="fill:#ff2000;fill-opacity:1;fill-rule:evenodd;stroke:none"
       id="path6117"
       inkscape:connector-curvature="0" />
    <path
       d="m 361.68753,678.01467 215.58476,-24.74091 -1.95049,-13.08111 -2.65958,-13.10736 -3.6367,-13.08361 -4.36828,-12.61193 -5.103,-12.37826 -5.80335,-12.12649 -6.56742,-11.63856 -7.51642,-11.40178 -7.9825,-10.66456 -8.49041,-10.17163 -9.47128,-9.71306 -9.6837,-9.20327 -10.44778,-8.48979 -131.90385,172.41232"
       style="fill:none;stroke:#000000;stroke-width:1.45497894;stroke-linecap:butt;stroke-linejoin:round;stroke-miterlimit:10;stroke-dasharray:none;stroke-opacity:1"
       id="path6119"
       inkscape:connector-curvature="0" />
    <path
       d="m 361.68753,678.01467 131.90385,-172.41232 -10.42091,-7.51705 -10.90634,-6.78421 -11.39678,-6.29878 -11.64543,-5.59093 -11.88283,-4.85434 -12.12649,-4.12401 -12.59506,-3.39242 -12.61942,-2.6602 -12.61505,-1.94986 -12.83684,-1.19828 -13.10735,-0.24428 0.24865,217.02668"
       style="fill:#bf0000;fill-opacity:1;fill-rule:evenodd;stroke:none"
       id="path6121"
       inkscape:connector-curvature="0" />
    <path
       d="m 361.68753,678.01467 131.90385,-172.41232 -10.42091,-7.51705 -10.90634,-6.78421 -11.39678,-6.29878 -11.64543,-5.59093 -11.88283,-4.85434 -12.12649,-4.12401 -12.59506,-3.39242 -12.61942,-2.6602 -12.61505,-1.94986 -12.83684,-1.19828 -13.10735,-0.24428 0.24865,217.02668"
       style="fill:none;stroke:#000000;stroke-width:1.45497894;stroke-linecap:butt;stroke-linejoin:round;stroke-miterlimit:10;stroke-dasharray:none;stroke-opacity:1"
       id="path6123"
       inkscape:connector-curvature="0" />
  </g>
  <g
     inkscape:label="Layer 1"
     inkscape:groupmode="layer"
     id="layer1"
     transform="translate(-94.331387,-426.32397)">
    <g
       transform="translate(-82.430056,212.10335)"
       id="g5631"
       style="opacity:1;fill:#000000;fill-opacity:1;stroke:none;stroke-width:1.10000002;stroke-miterlimit:4;stroke-dasharray:none;stroke-opacity:0">
      <g
         style="font-style:normal;font-variant:normal;font-weight:normal;font-stretch:normal;letter-spacing:normal;word-spacing:normal;text-anchor:start;fill:#000000;fill-opacity:1;fill-rule:evenodd;stroke:none;stroke-width:1.03481483;stroke-linecap:butt;stroke-linejoin:miter;stroke-miterlimit:4;stroke-dasharray:none;stroke-dashoffset:0;stroke-opacity:0"
         id="content"
         transform="matrix(1.0629921,0,0,-1.0629921,-186.02362,789.27165)"
         xml:space="preserve"
         stroke-miterlimit="10.433"
         font-style="normal"
         font-variant="normal"
         font-weight="normal"
         font-stretch="normal"
         font-size-adjust="none"
         letter-spacing="normal"
         word-spacing="normal"><path
           style="fill:#000000;fill-opacity:1;stroke:none;stroke-width:1.03481483;stroke-miterlimit:4;stroke-dasharray:none;stroke-opacity:0"
           inkscape:connector-curvature="0"
           d="m 477.75,412.25 -1.28,0.23 c -0.97,-2.47 -1.87,-2.8 -3.72,-2.8 l -11.73,0 c 0.73,2.39 3.44,5.64 7.7,8.72 4.41,3.21 7.8,5.27 7.8,10.41 0,6.36 -4.22,8.56 -9.03,8.56 -6.28,0 -9.53,-3.8 -9.53,-6.19 0,-1.56 1.73,-2.29 2.51,-2.29 0.83,0 1.14,0.47 1.33,1.25 0.74,3.11 2.52,5.64 5.36,5.64 3.53,0 4.55,-2.99 4.55,-6.33 0,-4.91 -2.49,-7.66 -6.47,-11.19 -5.64,-4.9 -7.61,-8.03 -8.49,-11.61 l 0.47,-0.45 18.97,0 z"
           id="path5634" /><path
           style="fill:#000000;fill-opacity:1;stroke:none;stroke-width:1.03481483;stroke-miterlimit:4;stroke-dasharray:none;stroke-opacity:0"
           inkscape:connector-curvature="0"
           d="m 501.99,412.25 -1.28,0.23 c -0.97,-2.47 -1.87,-2.8 -3.72,-2.8 l -11.73,0 c 0.73,2.39 3.44,5.64 7.7,8.72 4.41,3.21 7.8,5.27 7.8,10.41 0,6.36 -4.22,8.56 -9.03,8.56 -6.28,0 -9.53,-3.8 -9.53,-6.19 0,-1.56 1.73,-2.29 2.51,-2.29 0.83,0 1.14,0.47 1.33,1.25 0.73,3.11 2.51,5.64 5.36,5.64 3.53,0 4.55,-2.99 4.55,-6.33 0,-4.91 -2.49,-7.66 -6.47,-11.19 -5.64,-4.9 -7.61,-8.03 -8.49,-11.61 l 0.47,-0.45 18.97,0 z"
           id="path5636" /><path
           style="fill:#000000;fill-opacity:1;stroke:none;stroke-width:1.03481483;stroke-miterlimit:4;stroke-dasharray:none;stroke-opacity:0"
           inkscape:connector-curvature="0"
           d="m 532.89,405.65 0,1.47 c -2.39,0 -3.82,2.52 -3.82,6.92 0,4.77 1.52,6.92 3.82,6.92 l 0,0 c 2.33,0 3.84,-2.15 3.84,-6.92 0,-4.4 -1.42,-6.92 -3.84,-6.92 l 0,-1.47 c 4.9,0 7.23,3.11 7.23,8.39 0,5.27 -2.33,8.39 -7.23,8.39 -4.86,0 -7.21,-3.12 -7.21,-8.39 0,-5.28 2.35,-8.39 7.21,-8.39 z"
           id="path5638" /><path
           style="fill:#000000;fill-opacity:1;stroke:none;stroke-width:1.03481483;stroke-miterlimit:4;stroke-dasharray:none;stroke-opacity:0"
           inkscape:connector-curvature="0"
           d="m 534.22,437.32 -1.57,0.97 -1.11,-1.56 c -0.81,-1.14 -1.69,-1.42 -3.25,-1.52 l -7.75,0 c -1.04,0 -1.28,0.15 -1.97,0.61 -1.23,0.91 -2.75,1.55 -5.09,1.55 l 0,-1.47 c 2.34,0 3.86,-2.15 3.86,-6.92 0,-4.39 -1.42,-6.92 -3.86,-6.92 -2.37,0 -3.8,2.53 -3.8,6.92 0,4.77 1.52,6.92 3.8,6.92 l 0,0 0,1.47 c -4.86,0 -7.19,-3.11 -7.19,-8.39 0,-5.27 2.33,-8.39 7.19,-8.39 4.91,0 7.25,3.12 7.25,8.39 0,2.39 -0.28,3.91 -0.59,4.77 l 9.39,0 -17.14,-27.46 1.65,-1.23 z"
           id="path5640" /></g>    </g>
    <g
       id="g5662"
       transform="translate(64.569729,174.72133)"
       style="opacity:1;fill:#000000;fill-opacity:1;stroke:none;stroke-width:1.10000002;stroke-miterlimit:4;stroke-dasharray:none;stroke-opacity:0">
      <g
         word-spacing="normal"
         letter-spacing="normal"
         font-size-adjust="none"
         font-stretch="normal"
         font-weight="normal"
         font-variant="normal"
         font-style="normal"
         stroke-miterlimit="10.433"
         xml:space="preserve"
         transform="matrix(1.0629921,0,0,-1.0629921,-186.02362,789.27165)"
         id="g5664"
         style="font-style:normal;font-variant:normal;font-weight:normal;font-stretch:normal;letter-spacing:normal;word-spacing:normal;text-anchor:start;fill:#000000;fill-opacity:1;fill-rule:evenodd;stroke:none;stroke-width:1.03481483;stroke-linecap:butt;stroke-linejoin:miter;stroke-miterlimit:4;stroke-dasharray:none;stroke-dashoffset:0;stroke-opacity:0"><polygon
           id="polygon5666"
           points="470.14,416.11 470.14,419.31 458.91,419.31 458.91,416.11 "
           style="fill:#000000;fill-opacity:1;stroke:none;stroke-width:1.03481483;stroke-miterlimit:4;stroke-dasharray:none;stroke-opacity:0" /><path
           id="path5668"
           d="m 493.55,406.2 0,1.33 -3.84,0.33 c -0.97,0.09 -1.52,0.45 -1.52,2.23 l 0,27.02 -0.23,0.26 -9.44,-1.59 0,-1.16 4.27,-0.5 c 0.78,-0.09 1.09,-0.45 1.09,-1.78 l 0,-22.25 c 0,-0.86 -0.14,-1.42 -0.41,-1.73 -0.23,-0.33 -0.59,-0.46 -1.11,-0.5 l -3.84,-0.33 0,-1.33 z"
           inkscape:connector-curvature="0"
           style="fill:#000000;fill-opacity:1;stroke:none;stroke-width:1.03481483;stroke-miterlimit:4;stroke-dasharray:none;stroke-opacity:0" /><path
           id="path5670"
           d="m 509.91,437.37 0,-1.59 c 4.35,0 5.6,-6.8 5.6,-14.27 0,-7.47 -1.25,-14.26 -5.6,-14.26 -4.36,0 -5.59,6.79 -5.59,14.26 0,7.47 1.23,14.27 5.59,14.27 l 0,0 0,1.59 c -7.57,0 -10.28,-6.69 -10.28,-15.86 0,-9.17 2.71,-15.86 10.28,-15.86 7.57,0 10.27,6.69 10.27,15.86 0,9.17 -2.7,15.86 -10.27,15.86 z"
           inkscape:connector-curvature="0"
           style="fill:#000000;fill-opacity:1;stroke:none;stroke-width:1.03481483;stroke-miterlimit:4;stroke-dasharray:none;stroke-opacity:0" /><path
           id="path5672"
           d="m 550.89,405.65 0,1.47 c -2.39,0 -3.82,2.52 -3.82,6.92 0,4.77 1.52,6.92 3.82,6.92 l 0,0 c 2.33,0 3.84,-2.15 3.84,-6.92 0,-4.4 -1.42,-6.92 -3.84,-6.92 l 0,-1.47 c 4.9,0 7.23,3.11 7.23,8.39 0,5.27 -2.33,8.39 -7.23,8.39 -4.86,0 -7.21,-3.12 -7.21,-8.39 0,-5.28 2.35,-8.39 7.21,-8.39 z"
           inkscape:connector-curvature="0"
           style="fill:#000000;fill-opacity:1;stroke:none;stroke-width:1.03481483;stroke-miterlimit:4;stroke-dasharray:none;stroke-opacity:0" /><path
           id="path5674"
           d="m 552.22,437.32 -1.57,0.97 -1.11,-1.56 c -0.81,-1.14 -1.69,-1.42 -3.25,-1.52 l -7.75,0 c -1.04,0 -1.28,0.15 -1.97,0.61 -1.23,0.91 -2.75,1.55 -5.09,1.55 l 0,-1.47 c 2.34,0 3.86,-2.15 3.86,-6.92 0,-4.39 -1.42,-6.92 -3.86,-6.92 -2.38,0 -3.8,2.53 -3.8,6.92 0,4.77 1.52,6.92 3.8,6.92 l 0,0 0,1.47 c -4.86,0 -7.19,-3.11 -7.19,-8.39 0,-5.27 2.33,-8.39 7.19,-8.39 4.91,0 7.25,3.12 7.25,8.39 0,2.39 -0.28,3.91 -0.59,4.77 l 9.39,0 -17.14,-27.46 1.65,-1.23 z"
           inkscape:connector-curvature="0"
           style="fill:#000000;fill-opacity:1;stroke:none;stroke-width:1.03481483;stroke-miterlimit:4;stroke-dasharray:none;stroke-opacity:0" /></g>    </g>
    <g
       transform="translate(141.58446,263.77108)"
       id="g5710"
       style="opacity:1;fill:#000000;fill-opacity:1;stroke:none;stroke-width:1.10000002;stroke-miterlimit:4;stroke-dasharray:none;stroke-opacity:0">
      <g
         style="font-style:normal;font-variant:normal;font-weight:normal;font-stretch:normal;letter-spacing:normal;word-spacing:normal;text-anchor:start;fill:#000000;fill-opacity:1;fill-rule:evenodd;stroke:none;stroke-width:1.03481483;stroke-linecap:butt;stroke-linejoin:miter;stroke-miterlimit:4;stroke-dasharray:none;stroke-dashoffset:0;stroke-opacity:0"
         id="g5712"
         transform="matrix(1.0629921,0,0,-1.0629921,-186.02362,789.27165)"
         xml:space="preserve"
         stroke-miterlimit="10.433"
         font-style="normal"
         font-variant="normal"
         font-weight="normal"
         font-stretch="normal"
         font-size-adjust="none"
         letter-spacing="normal"
         word-spacing="normal"><polygon
           style="fill:#000000;fill-opacity:1;stroke:none;stroke-width:1.03481483;stroke-miterlimit:4;stroke-dasharray:none;stroke-opacity:0"
           points="458.91,419.31 458.91,416.11 470.14,416.11 470.14,419.31 "
           id="polygon5714" /><path
           style="fill:#000000;fill-opacity:1;stroke:none;stroke-width:1.03481483;stroke-miterlimit:4;stroke-dasharray:none;stroke-opacity:0"
           inkscape:connector-curvature="0"
           d="m 493.55,406.2 0,1.33 -3.84,0.33 c -0.97,0.09 -1.52,0.45 -1.52,2.23 l 0,27.02 -0.23,0.26 -9.44,-1.59 0,-1.16 4.27,-0.5 c 0.78,-0.09 1.09,-0.45 1.09,-1.78 l 0,-22.25 c 0,-0.86 -0.14,-1.42 -0.41,-1.73 -0.23,-0.33 -0.59,-0.46 -1.11,-0.5 l -3.84,-0.33 0,-1.33 z"
           id="path5716" /><path
           style="fill:#000000;fill-opacity:1;stroke:none;stroke-width:1.03481483;stroke-miterlimit:4;stroke-dasharray:none;stroke-opacity:0"
           inkscape:connector-curvature="0"
           d="m 503.71,422.98 0,-0.07 0,-0.07 0.01,-0.07 0,-0.07 0.01,-0.06 0.01,-0.07 0.01,-0.06 0.01,-0.06 0.01,-0.06 0.01,-0.05 0.02,-0.06 0.02,-0.05 0.02,-0.05 0.02,-0.05 0.02,-0.04 0.02,-0.04 0.03,-0.04 0.03,-0.04 0.02,-0.04 0.04,-0.03 0.03,-0.03 0.03,-0.03 0.04,-0.03 0.04,-0.02 0.04,-0.02 0.04,-0.02 0.05,-0.02 0.04,-0.01 0.05,-0.01 0.05,-0.01 0.05,0 0.06,0 c 0.55,0 1.8,0.45 4,0.45 3.89,0 6.09,-3.53 6.09,-7.51 0,-5.46 -2.7,-7.39 -5.97,-7.39 -3.01,0 -4.98,2.29 -5.86,4.87 -0.28,0.86 -0.73,1.28 -1.37,1.28 -0.83,0 -2.44,-0.87 -2.44,-2.53 0,-1.97 3.17,-5.22 9.63,-5.22 6.65,0 10.83,3.35 10.83,9.22 0,6.14 -5.29,7.97 -7.8,8.2 l 0,0.19 c 2.48,0.41 6.47,2.24 6.47,6.78 0,5.1 -3.99,7.33 -8.89,7.33 -6.07,0 -9.03,-3.48 -9.03,-5.45 0,-1.42 1.59,-2.21 2.23,-2.21 0.59,0 0.97,0.33 1.16,0.93 1,3.11 2.75,5.14 5.31,5.14 3.62,0 4.5,-3.22 4.5,-5.78 0,-2.75 -0.97,-6.19 -4.86,-6.19 -2.2,0 -3.45,0.45 -4,0.45 -0.59,0 -0.83,-0.45 -0.83,-1.28 z"
           id="path5718" /><path
           style="fill:#000000;fill-opacity:1;stroke:none;stroke-width:1.03481483;stroke-miterlimit:4;stroke-dasharray:none;stroke-opacity:0"
           inkscape:connector-curvature="0"
           d="m 550.89,405.65 0,1.47 c -2.39,0 -3.82,2.52 -3.82,6.92 0,4.77 1.52,6.92 3.82,6.92 l 0,0 c 2.33,0 3.84,-2.15 3.84,-6.92 0,-4.4 -1.42,-6.92 -3.84,-6.92 l 0,-1.47 c 4.9,0 7.23,3.11 7.23,8.39 0,5.27 -2.33,8.39 -7.23,8.39 -4.86,0 -7.21,-3.12 -7.21,-8.39 0,-5.28 2.35,-8.39 7.21,-8.39 z"
           id="path5720" /><path
           style="fill:#000000;fill-opacity:1;stroke:none;stroke-width:1.03481483;stroke-miterlimit:4;stroke-dasharray:none;stroke-opacity:0"
           inkscape:connector-curvature="0"
           d="m 552.22,437.32 -1.57,0.97 -1.11,-1.56 c -0.81,-1.14 -1.69,-1.42 -3.25,-1.52 l -7.75,0 c -1.04,0 -1.28,0.15 -1.97,0.61 -1.23,0.91 -2.75,1.55 -5.09,1.55 l 0,-1.47 c 2.34,0 3.86,-2.15 3.86,-6.92 0,-4.39 -1.42,-6.92 -3.86,-6.92 -2.38,0 -3.8,2.53 -3.8,6.92 0,4.77 1.52,6.92 3.8,6.92 l 0,0 0,1.47 c -4.86,0 -7.19,-3.11 -7.19,-8.39 0,-5.27 2.33,-8.39 7.19,-8.39 4.91,0 7.25,3.12 7.25,8.39 0,2.39 -0.28,3.91 -0.59,4.77 l 9.39,0 -17.14,-27.46 1.65,-1.23 z"
           id="path5722" /></g>    </g>
    <g
       transform="translate(204.11275,348.69956)"
       id="g5772"
       style="opacity:1;fill:#000000;fill-opacity:1;stroke:none;stroke-width:1.10000002;stroke-miterlimit:4;stroke-dasharray:none;stroke-opacity:0">
      <g
         style="font-style:normal;font-variant:normal;font-weight:normal;font-stretch:normal;letter-spacing:normal;word-spacing:normal;text-anchor:start;fill:#000000;fill-opacity:1;fill-rule:evenodd;stroke:none;stroke-width:1.03481483;stroke-linecap:butt;stroke-linejoin:miter;stroke-miterlimit:4;stroke-dasharray:none;stroke-dashoffset:0;stroke-opacity:0"
         word-spacing="normal"
         letter-spacing="normal"
         font-size-adjust="none"
         font-stretch="normal"
         font-weight="normal"
         font-variant="normal"
         font-style="normal"
         stroke-miterlimit="10.433"
         xml:space="preserve"
         transform="matrix(1.0629921,0,0,-1.0629921,-186.02362,789.27165)"
         id="g5774"><path
           style="fill:#000000;fill-opacity:1;stroke:none;stroke-width:1.03481483;stroke-miterlimit:4;stroke-dasharray:none;stroke-opacity:0"
           inkscape:connector-curvature="0"
           id="path5776"
           d="m 467.99,405.65 0.09,1.6 c -3.98,0 -5.92,4.26 -5.92,9.76 0,2.8 2.08,6.2 5.92,6.2 l 0,0 c 2.89,0 5.74,-2.62 5.74,-7.89 0,-4.81 -1.89,-8.07 -5.74,-8.07 l -0.09,-1.6 c 6.78,0 10.4,4.13 10.4,10.36 0,6.19 -3.98,9.63 -8.75,9.53 -3.48,0.1 -6.23,-2.42 -7.48,-3.93 l -0.08,0 c 0.05,10.07 2.92,14.17 7.05,14.17 2.11,0 3.58,-1.8 4.26,-4.41 0.15,-0.55 0.52,-0.97 1.21,-0.97 1,0 2.42,0.78 2.42,2.06 0,1.85 -2.25,4.91 -7.75,4.91 -3.63,0 -6.19,-1.37 -8.11,-3.58 -2.06,-2.37 -3.62,-6.78 -3.62,-13.42 0,-9.91 3.57,-14.72 10.45,-14.72 z" /><path
           style="fill:#000000;fill-opacity:1;stroke:none;stroke-width:1.03481483;stroke-miterlimit:4;stroke-dasharray:none;stroke-opacity:0"
           inkscape:connector-curvature="0"
           id="path5778"
           d="m 508.65,405.65 0,1.47 c -2.39,0 -3.81,2.52 -3.81,6.92 0,4.77 1.51,6.92 3.81,6.92 l 0,0 c 2.33,0 3.84,-2.15 3.84,-6.92 0,-4.4 -1.42,-6.92 -3.84,-6.92 l 0,-1.47 c 4.9,0 7.23,3.11 7.23,8.39 0,5.27 -2.33,8.39 -7.23,8.39 -4.86,0 -7.2,-3.12 -7.2,-8.39 0,-5.28 2.34,-8.39 7.2,-8.39 z" /><path
           style="fill:#000000;fill-opacity:1;stroke:none;stroke-width:1.03481483;stroke-miterlimit:4;stroke-dasharray:none;stroke-opacity:0"
           inkscape:connector-curvature="0"
           id="path5780"
           d="m 509.98,437.32 -1.57,0.97 -1.11,-1.56 c -0.81,-1.14 -1.68,-1.42 -3.25,-1.52 l -7.75,0 c -1.04,0 -1.28,0.15 -1.96,0.61 -1.24,0.91 -2.75,1.55 -5.1,1.55 l 0,-1.47 c 2.35,0 3.86,-2.15 3.86,-6.92 0,-4.39 -1.42,-6.92 -3.86,-6.92 -2.37,0 -3.79,2.53 -3.79,6.92 0,4.77 1.51,6.92 3.79,6.92 l 0,0 0,1.47 c -4.86,0 -7.19,-3.11 -7.19,-8.39 0,-5.27 2.33,-8.39 7.19,-8.39 4.91,0 7.25,3.12 7.25,8.39 0,2.39 -0.28,3.91 -0.59,4.77 l 9.39,0 -17.14,-27.46 1.65,-1.23 z" /></g>    </g>
    <g
       transform="translate(141.22572,443.82233)"
       id="g5840"
       style="opacity:1;fill:#000000;fill-opacity:1;stroke:none;stroke-width:1.10000002;stroke-miterlimit:4;stroke-dasharray:none;stroke-opacity:0">
      <g
         style="font-style:normal;font-variant:normal;font-weight:normal;font-stretch:normal;letter-spacing:normal;word-spacing:normal;text-anchor:start;fill:#000000;fill-opacity:1;fill-rule:evenodd;stroke:none;stroke-width:1.03481483;stroke-linecap:butt;stroke-linejoin:miter;stroke-miterlimit:4;stroke-dasharray:none;stroke-dashoffset:0;stroke-opacity:0"
         id="g5842"
         transform="matrix(1.0629921,0,0,-1.0629921,-186.02362,789.27165)"
         xml:space="preserve"
         stroke-miterlimit="10.433"
         font-style="normal"
         font-variant="normal"
         font-weight="normal"
         font-stretch="normal"
         font-size-adjust="none"
         letter-spacing="normal"
         word-spacing="normal"><path
           style="fill:#000000;fill-opacity:1;stroke:none;stroke-width:1.03481483;stroke-miterlimit:4;stroke-dasharray:none;stroke-opacity:0"
           inkscape:connector-curvature="0"
           d="m 475.55,406.2 0,1.33 -3.84,0.33 c -0.97,0.09 -1.52,0.45 -1.52,2.23 l 0,27.02 -0.23,0.26 -9.44,-1.59 0,-1.16 4.27,-0.5 c 0.78,-0.09 1.09,-0.45 1.09,-1.78 l 0,-22.25 c 0,-0.86 -0.14,-1.42 -0.41,-1.73 -0.23,-0.33 -0.59,-0.46 -1.11,-0.5 l -3.84,-0.33 0,-1.33 z"
           id="path5844" /><path
           style="fill:#000000;fill-opacity:1;stroke:none;stroke-width:1.03481483;stroke-miterlimit:4;stroke-dasharray:none;stroke-opacity:0"
           inkscape:connector-curvature="0"
           d="m 499.29,433.34 1.09,3.12 -0.22,0.36 -15.31,0 -0.47,-0.4 -0.9,-15.36 1.09,-0.56 c 1.92,2.2 3.81,3.26 6.28,3.26 2.94,0 6.14,-2.15 6.14,-8.2 0,-4.74 -1.92,-8.31 -5.9,-8.31 -3.22,0 -4.86,2.34 -5.79,4.95 -0.23,0.69 -0.64,1.11 -1.28,1.11 -0.92,0 -2.43,-0.92 -2.43,-2.44 0,-2.11 3.21,-5.22 9.17,-5.22 7.56,0 11,4.58 11,10.41 0,6.42 -4.03,9.72 -9.49,9.72 -2.51,0 -5.22,-1.1 -6.68,-2.44 l -0.1,0.09 1.05,8.58 c 0.14,1.14 0.47,1.33 1.33,1.33 z"
           id="path5846" /><path
           style="fill:#000000;fill-opacity:1;stroke:none;stroke-width:1.03481483;stroke-miterlimit:4;stroke-dasharray:none;stroke-opacity:0"
           inkscape:connector-curvature="0"
           d="m 532.89,405.65 0,1.47 c -2.39,0 -3.82,2.52 -3.82,6.92 0,4.77 1.52,6.92 3.82,6.92 l 0,0 c 2.33,0 3.84,-2.15 3.84,-6.92 0,-4.4 -1.42,-6.92 -3.84,-6.92 l 0,-1.47 c 4.9,0 7.23,3.11 7.23,8.39 0,5.27 -2.33,8.39 -7.23,8.39 -4.86,0 -7.21,-3.12 -7.21,-8.39 0,-5.28 2.35,-8.39 7.21,-8.39 z"
           id="path5848" /><path
           style="fill:#000000;fill-opacity:1;stroke:none;stroke-width:1.03481483;stroke-miterlimit:4;stroke-dasharray:none;stroke-opacity:0"
           inkscape:connector-curvature="0"
           d="m 534.22,437.32 -1.57,0.97 -1.11,-1.56 c -0.81,-1.14 -1.69,-1.42 -3.25,-1.52 l -7.75,0 c -1.04,0 -1.28,0.15 -1.97,0.61 -1.23,0.91 -2.75,1.55 -5.09,1.55 l 0,-1.47 c 2.34,0 3.86,-2.15 3.86,-6.92 0,-4.39 -1.42,-6.92 -3.86,-6.92 -2.37,0 -3.8,2.53 -3.8,6.92 0,4.77 1.52,6.92 3.8,6.92 l 0,0 0,1.47 c -4.86,0 -7.19,-3.11 -7.19,-8.39 0,-5.27 2.33,-8.39 7.19,-8.39 4.91,0 7.25,3.12 7.25,8.39 0,2.39 -0.28,3.91 -0.59,4.77 l 9.39,0 -17.14,-27.46 1.65,-1.23 z"
           id="path5850" /></g>    </g>
    <g
       transform="translate(-22.857143,498.25752)"
       id="g5922"
       style="opacity:1;fill:#000000;fill-opacity:1;stroke:none;stroke-width:1.10000002;stroke-miterlimit:4;stroke-dasharray:none;stroke-opacity:0">
      <g
         style="font-style:normal;font-variant:normal;font-weight:normal;font-stretch:normal;letter-spacing:normal;word-spacing:normal;text-anchor:start;fill:#000000;fill-opacity:1;fill-rule:evenodd;stroke:none;stroke-width:1.03481483;stroke-linecap:butt;stroke-linejoin:miter;stroke-miterlimit:4;stroke-dasharray:none;stroke-dashoffset:0;stroke-opacity:0"
         word-spacing="normal"
         letter-spacing="normal"
         font-size-adjust="none"
         font-stretch="normal"
         font-weight="normal"
         font-variant="normal"
         font-style="normal"
         stroke-miterlimit="10.433"
         xml:space="preserve"
         transform="matrix(1.0629921,0,0,-1.0629921,-186.02362,789.27165)"
         id="g5924"><path
           style="fill:#000000;fill-opacity:1;stroke:none;stroke-width:1.03481483;stroke-miterlimit:4;stroke-dasharray:none;stroke-opacity:0"
           inkscape:connector-curvature="0"
           id="path5926"
           d="m 475.55,406.2 0,1.33 -3.84,0.33 c -0.97,0.09 -1.52,0.45 -1.52,2.23 l 0,27.02 -0.23,0.26 -9.44,-1.59 0,-1.16 4.27,-0.5 c 0.78,-0.09 1.09,-0.45 1.09,-1.78 l 0,-22.25 c 0,-0.86 -0.14,-1.42 -0.41,-1.73 -0.23,-0.33 -0.59,-0.46 -1.11,-0.5 l -3.84,-0.33 0,-1.33 z" /><path
           style="fill:#000000;fill-opacity:1;stroke:none;stroke-width:1.03481483;stroke-miterlimit:4;stroke-dasharray:none;stroke-opacity:0"
           inkscape:connector-curvature="0"
           id="path5928"
           d="m 490.26,418.48 0.26,0 0.27,0.02 0.26,0.02 0.25,0.03 0.26,0.04 0.25,0.05 0.24,0.06 0.25,0.07 0.24,0.07 0.24,0.08 0.23,0.09 0.23,0.1 0.23,0.1 0.22,0.11 0.22,0.12 0.22,0.13 0.21,0.13 0.21,0.14 0.21,0.14 0.2,0.15 0.19,0.16 0.2,0.16 0.19,0.17 0.18,0.17 0.18,0.18 0.18,0.18 0.17,0.19 0.17,0.19 0.16,0.19 0.16,0.21 0.15,0.2 0.15,0.21 0.09,0 c 0,-2.89 -0.23,-6.61 -1.04,-9.77 -0.83,-3.03 -2.44,-5.32 -5.38,-5.32 -3.11,0 -4.26,2.43 -4.95,4.59 -0.17,0.59 -0.5,0.97 -1.28,0.97 -0.88,0 -2.16,-0.92 -2.16,-2.35 0,-2.01 2.44,-4.81 7.98,-4.81 3.72,0 6.55,1.38 8.3,3.8 1.88,2.62 3.03,6.66 3.03,13.3 0,5.68 -1.15,9.4 -2.93,11.56 -1.75,2.06 -4.27,3.06 -7.21,3.06 l -0.04,-1.59 c 3.67,0 5.45,-4.36 5.45,-8.82 0,-0.78 -0.05,-1.68 -0.31,-2.42 -0.74,-2.15 -2.54,-3.62 -4.96,-3.62 l 0,0 c -3.58,0 -5.64,3.11 -5.64,7.51 0,4.22 1.88,7.35 5.46,7.35 l 0.04,1.59 c -5.86,0 -10.08,-3.89 -10.08,-10.22 0,-5.73 4.13,-8.67 8.85,-8.67 z" /><path
           style="fill:#000000;fill-opacity:1;stroke:none;stroke-width:1.03481483;stroke-miterlimit:4;stroke-dasharray:none;stroke-opacity:0"
           inkscape:connector-curvature="0"
           id="path5930"
           d="m 532.89,405.65 0,1.47 c -2.39,0 -3.82,2.52 -3.82,6.92 0,4.77 1.52,6.92 3.82,6.92 l 0,0 c 2.33,0 3.84,-2.15 3.84,-6.92 0,-4.4 -1.42,-6.92 -3.84,-6.92 l 0,-1.47 c 4.9,0 7.23,3.11 7.23,8.39 0,5.27 -2.33,8.39 -7.23,8.39 -4.86,0 -7.21,-3.12 -7.21,-8.39 0,-5.28 2.35,-8.39 7.21,-8.39 z" /><path
           style="fill:#000000;fill-opacity:1;stroke:none;stroke-width:1.03481483;stroke-miterlimit:4;stroke-dasharray:none;stroke-opacity:0"
           inkscape:connector-curvature="0"
           id="path5932"
           d="m 534.22,437.32 -1.57,0.97 -1.11,-1.56 c -0.81,-1.14 -1.69,-1.42 -3.25,-1.52 l -7.75,0 c -1.04,0 -1.28,0.15 -1.97,0.61 -1.23,0.91 -2.75,1.55 -5.09,1.55 l 0,-1.47 c 2.34,0 3.86,-2.15 3.86,-6.92 0,-4.39 -1.42,-6.92 -3.86,-6.92 -2.37,0 -3.8,2.53 -3.8,6.92 0,4.77 1.52,6.92 3.8,6.92 l 0,0 0,1.47 c -4.86,0 -7.19,-3.11 -7.19,-8.39 0,-5.27 2.33,-8.39 7.19,-8.39 4.91,0 7.25,3.12 7.25,8.39 0,2.39 -0.28,3.91 -0.59,4.77 l 9.39,0 -17.14,-27.46 1.65,-1.23 z" /></g>    </g>
    <g
       transform="translate(-131.47981,384.369)"
       id="g6016"
       style="opacity:1;fill:#000000;fill-opacity:1;stroke:none;stroke-width:1.10000002;stroke-miterlimit:4;stroke-dasharray:none;stroke-opacity:0">
      <g
         style="font-style:normal;font-variant:normal;font-weight:normal;font-stretch:normal;letter-spacing:normal;word-spacing:normal;text-anchor:start;fill:#000000;fill-opacity:1;fill-rule:evenodd;stroke:none;stroke-width:1.03481483;stroke-linecap:butt;stroke-linejoin:miter;stroke-miterlimit:4;stroke-dasharray:none;stroke-dashoffset:0;stroke-opacity:0"
         id="g6018"
         transform="matrix(1.0629921,0,0,-1.0629921,-186.02362,789.27165)"
         xml:space="preserve"
         stroke-miterlimit="10.433"
         font-style="normal"
         font-variant="normal"
         font-weight="normal"
         font-stretch="normal"
         font-size-adjust="none"
         letter-spacing="normal"
         word-spacing="normal"><polygon
           style="fill:#000000;fill-opacity:1;stroke:none;stroke-width:1.03481483;stroke-miterlimit:4;stroke-dasharray:none;stroke-opacity:0"
           points="458.91,416.11 470.14,416.11 470.14,419.31 458.91,419.31 "
           id="polygon6020" /><path
           style="fill:#000000;fill-opacity:1;stroke:none;stroke-width:1.03481483;stroke-miterlimit:4;stroke-dasharray:none;stroke-opacity:0"
           inkscape:connector-curvature="0"
           d="m 493.55,406.2 0,1.33 -3.84,0.33 c -0.97,0.09 -1.52,0.45 -1.52,2.23 l 0,27.02 -0.23,0.26 -9.44,-1.59 0,-1.16 4.27,-0.5 c 0.78,-0.09 1.09,-0.45 1.09,-1.78 l 0,-22.25 c 0,-0.86 -0.14,-1.42 -0.41,-1.73 -0.23,-0.33 -0.59,-0.46 -1.11,-0.5 l -3.84,-0.33 0,-1.33 z"
           id="path6022" /><path
           style="fill:#000000;fill-opacity:1;stroke:none;stroke-width:1.03481483;stroke-miterlimit:4;stroke-dasharray:none;stroke-opacity:0"
           inkscape:connector-curvature="0"
           d="m 511.51,414.4 0,2.16 -9.58,0 c 2.75,5 5.95,10.26 9.48,15.81 l 0.1,0 0,-15.81 0,-2.16 0,-4.67 c 0,-1.56 -0.5,-1.83 -1.6,-1.92 l -2.93,-0.28 0,-1.33 12.09,0 0,1.33 -2.06,0.23 c -1.05,0.14 -1.38,0.41 -1.38,1.97 l 0,4.67 4.74,0 0,2.16 -4.74,0 0,20.26 -3.34,0 c -4.31,-6.32 -9.44,-14.29 -13.66,-21.45 l 0.41,-0.97 z"
           id="path6024" /><path
           style="fill:#000000;fill-opacity:1;stroke:none;stroke-width:1.03481483;stroke-miterlimit:4;stroke-dasharray:none;stroke-opacity:0"
           inkscape:connector-curvature="0"
           d="m 550.89,405.65 0,1.47 c -2.39,0 -3.82,2.52 -3.82,6.92 0,4.77 1.52,6.92 3.82,6.92 l 0,0 c 2.33,0 3.84,-2.15 3.84,-6.92 0,-4.4 -1.42,-6.92 -3.84,-6.92 l 0,-1.47 c 4.9,0 7.23,3.11 7.23,8.39 0,5.27 -2.33,8.39 -7.23,8.39 -4.86,0 -7.21,-3.12 -7.21,-8.39 0,-5.28 2.35,-8.39 7.21,-8.39 z"
           id="path6026" /><path
           style="fill:#000000;fill-opacity:1;stroke:none;stroke-width:1.03481483;stroke-miterlimit:4;stroke-dasharray:none;stroke-opacity:0"
           inkscape:connector-curvature="0"
           d="m 552.22,437.32 -1.57,0.97 -1.11,-1.56 c -0.81,-1.14 -1.69,-1.42 -3.25,-1.52 l -7.75,0 c -1.04,0 -1.28,0.15 -1.97,0.61 -1.23,0.91 -2.75,1.55 -5.09,1.55 l 0,-1.47 c 2.34,0 3.86,-2.15 3.86,-6.92 0,-4.39 -1.42,-6.92 -3.86,-6.92 -2.38,0 -3.8,2.53 -3.8,6.92 0,4.77 1.52,6.92 3.8,6.92 l 0,0 0,1.47 c -4.86,0 -7.19,-3.11 -7.19,-8.39 0,-5.27 2.33,-8.39 7.19,-8.39 4.91,0 7.25,3.12 7.25,8.39 0,2.39 -0.28,3.91 -0.59,4.77 l 9.39,0 -17.14,-27.46 1.65,-1.23 z"
           id="path6028" /></g>    </g>
    <g
       id="g6214"
       transform="translate(-135.70788,134.29425)">
      <g
         word-spacing="normal"
         letter-spacing="normal"
         font-size-adjust="none"
         font-stretch="normal"
         font-weight="normal"
         font-variant="normal"
         font-style="normal"
         stroke-miterlimit="10.433"
         xml:space="preserve"
         transform="matrix(1.0629921,0,0,-1.0629921,-186.02362,789.27165)"
         id="g6216"
         style="font-style:normal;font-variant:normal;font-weight:normal;font-stretch:normal;letter-spacing:normal;word-spacing:normal;text-anchor:start;fill:none;fill-opacity:1;fill-rule:evenodd;stroke:#000000;stroke-linecap:butt;stroke-linejoin:miter;stroke-miterlimit:10.43299961;stroke-dasharray:none;stroke-dashoffset:0;stroke-opacity:1"><path
           id="path6218"
           d="m 479.73,412.53 -0.21,-0.39 -0.21,-0.4 -0.22,-0.39 -0.21,-0.4 -0.22,-0.38 -0.23,-0.37 -0.11,-0.18 -0.11,-0.18 -0.11,-0.17 -0.12,-0.17 -0.11,-0.16 -0.12,-0.15 -0.11,-0.14 -0.12,-0.14 -0.11,-0.13 -0.12,-0.12 -0.12,-0.12 -0.11,-0.1 -0.12,-0.09 -0.12,-0.08 -0.12,-0.08 -0.12,-0.05 -0.12,-0.05 -0.12,-0.04 -0.11,-0.02 -0.12,0 c -0.88,0 -1.24,1.06 -2.25,5.14 l -1.47,6 c 1.65,2.94 3.98,6.61 5.32,6.61 0.41,0 0.77,-0.1 1.29,-0.38 0.45,-0.17 0.9,-0.36 1.46,-0.36 1,0 1.97,0.97 1.97,2.21 0,1.42 -1.06,1.96 -2.34,1.96 -2.42,0 -4.48,-2.2 -6.09,-4.76 l -2.02,-3.13 -0.09,0 -1.83,7.71 -0.28,0.18 -7.57,-2.29 0.15,-1.1 3.43,0.24 c 0.82,0.03 1.14,-0.19 1.64,-2.3 l 1.66,-6.65 -1.28,-2.19 c -1.97,-3.36 -3.67,-5.74 -4.77,-5.74 -0.47,0 -0.92,0.18 -1.33,0.41 -0.46,0.23 -1.06,0.69 -1.84,0.69 -1.19,0 -1.97,-1.19 -1.97,-2.3 0,-1.33 1.1,-2.33 2.94,-2.33 3.11,0 4.91,3.11 6.78,6.19 l 1.83,3.03 0.09,0 0.83,-3.58 c 0.88,-3.67 1.75,-5.64 4.08,-5.64 3.34,0 5.09,3.44 6.47,6.24 z"
           inkscape:connector-curvature="0"
           style="fill:#000000;stroke-width:0" /><path
           id="path6220"
           d="m 496.79,398.76 0,1.02 -2.93,0.23 c -0.74,0.08 -1.15,0.36 -1.15,1.72 l 0,20.52 -0.18,0.2 -7.17,-1.22 0,-0.86 3.23,-0.39 c 0.59,-0.06 0.84,-0.34 0.84,-1.36 l 0,-16.89 c 0,-0.67 -0.11,-1.09 -0.31,-1.33 -0.17,-0.25 -0.45,-0.34 -0.84,-0.39 l -2.92,-0.23 0,-1.02 z"
           inkscape:connector-curvature="0"
           style="fill:#000000;stroke-width:0" /></g>    </g>
    <g
       id="g6366"
       transform="translate(-206.38907,394.40102)">
      <g
         id="g6368"
         transform="matrix(1.0629921,0,0,-1.0629921,-186.02362,789.27165)"
         xml:space="preserve"
         stroke-miterlimit="10.433"
         font-style="normal"
         font-variant="normal"
         font-weight="normal"
         font-stretch="normal"
         font-size-adjust="none"
         letter-spacing="normal"
         word-spacing="normal"
         style="font-style:normal;font-variant:normal;font-weight:normal;font-stretch:normal;letter-spacing:normal;word-spacing:normal;text-anchor:start;fill:none;fill-opacity:1;fill-rule:evenodd;stroke:#000000;stroke-linecap:butt;stroke-linejoin:miter;stroke-miterlimit:10.43299961;stroke-dasharray:none;stroke-dashoffset:0;stroke-opacity:1"><path
           d="m 479.73,412.53 -0.21,-0.39 -0.21,-0.4 -0.22,-0.39 -0.21,-0.4 -0.22,-0.38 -0.23,-0.37 -0.11,-0.18 -0.11,-0.18 -0.11,-0.17 -0.12,-0.17 -0.11,-0.16 -0.12,-0.15 -0.11,-0.14 -0.12,-0.14 -0.11,-0.13 -0.12,-0.12 -0.12,-0.12 -0.11,-0.1 -0.12,-0.09 -0.12,-0.08 -0.12,-0.08 -0.12,-0.05 -0.12,-0.05 -0.12,-0.04 -0.11,-0.02 -0.12,0 c -0.88,0 -1.24,1.06 -2.25,5.14 l -1.47,6 c 1.65,2.94 3.98,6.61 5.32,6.61 0.41,0 0.77,-0.1 1.29,-0.38 0.45,-0.17 0.9,-0.36 1.46,-0.36 1,0 1.97,0.97 1.97,2.21 0,1.42 -1.06,1.96 -2.34,1.96 -2.42,0 -4.48,-2.2 -6.09,-4.76 l -2.02,-3.13 -0.09,0 -1.83,7.71 -0.28,0.18 -7.57,-2.29 0.15,-1.1 3.43,0.24 c 0.82,0.03 1.14,-0.19 1.64,-2.3 l 1.66,-6.65 -1.28,-2.19 c -1.97,-3.36 -3.67,-5.74 -4.77,-5.74 -0.47,0 -0.92,0.18 -1.33,0.41 -0.46,0.23 -1.06,0.69 -1.84,0.69 -1.19,0 -1.97,-1.19 -1.97,-2.3 0,-1.33 1.1,-2.33 2.94,-2.33 3.11,0 4.91,3.11 6.78,6.19 l 1.83,3.03 0.09,0 0.83,-3.58 c 0.88,-3.67 1.75,-5.64 4.08,-5.64 3.34,0 5.09,3.44 6.47,6.24 z"
           id="path6370"
           inkscape:connector-curvature="0"
           style="fill:#000000;stroke-width:0" /><path
           d="m 498.46,403.36 -0.98,0.18 c -0.73,-1.89 -1.42,-2.14 -2.83,-2.14 l -8.9,0 c 0.54,1.81 2.61,4.3 5.84,6.63 3.34,2.43 5.92,4.01 5.92,7.9 0,4.85 -3.2,6.52 -6.86,6.52 -4.76,0 -7.25,-2.89 -7.25,-4.7 0,-1.18 1.33,-1.74 1.92,-1.74 0.63,0 0.88,0.35 1.02,0.94 0.55,2.37 1.91,4.28 4.06,4.28 2.69,0 3.46,-2.27 3.46,-4.8 0,-3.73 -1.88,-5.82 -4.91,-8.5 -4.3,-3.73 -5.78,-6.11 -6.45,-8.82 l 0.36,-0.35 14.42,0 z"
           id="path6372"
           inkscape:connector-curvature="0"
           style="fill:#000000;stroke-width:0" /></g>    </g>
    <g
       id="g6526"
       transform="translate(-29.686099,571.10399)">
      <g
         word-spacing="normal"
         letter-spacing="normal"
         font-size-adjust="none"
         font-stretch="normal"
         font-weight="normal"
         font-variant="normal"
         font-style="normal"
         stroke-miterlimit="10.433"
         xml:space="preserve"
         transform="matrix(1.0629921,0,0,-1.0629921,-186.02362,789.27165)"
         id="g6528"
         style="font-style:normal;font-variant:normal;font-weight:normal;font-stretch:normal;letter-spacing:normal;word-spacing:normal;text-anchor:start;fill:none;fill-opacity:1;fill-rule:evenodd;stroke:#000000;stroke-linecap:butt;stroke-linejoin:miter;stroke-miterlimit:10.43299961;stroke-dasharray:none;stroke-dashoffset:0;stroke-opacity:1"><path
           id="path6530"
           d="m 479.73,412.53 -0.21,-0.39 -0.21,-0.4 -0.22,-0.39 -0.21,-0.4 -0.22,-0.38 -0.23,-0.37 -0.11,-0.18 -0.11,-0.18 -0.11,-0.17 -0.12,-0.17 -0.11,-0.16 -0.12,-0.15 -0.11,-0.14 -0.12,-0.14 -0.11,-0.13 -0.12,-0.12 -0.12,-0.12 -0.11,-0.1 -0.12,-0.09 -0.12,-0.08 -0.12,-0.08 -0.12,-0.05 -0.12,-0.05 -0.12,-0.04 -0.11,-0.02 -0.12,0 c -0.88,0 -1.24,1.06 -2.25,5.14 l -1.47,6 c 1.65,2.94 3.98,6.61 5.32,6.61 0.41,0 0.77,-0.1 1.29,-0.38 0.45,-0.17 0.9,-0.36 1.46,-0.36 1,0 1.97,0.97 1.97,2.21 0,1.42 -1.06,1.96 -2.34,1.96 -2.42,0 -4.48,-2.2 -6.09,-4.76 l -2.02,-3.13 -0.09,0 -1.83,7.71 -0.28,0.18 -7.57,-2.29 0.15,-1.1 3.43,0.24 c 0.82,0.03 1.14,-0.19 1.64,-2.3 l 1.66,-6.65 -1.28,-2.19 c -1.97,-3.36 -3.67,-5.74 -4.77,-5.74 -0.47,0 -0.92,0.18 -1.33,0.41 -0.46,0.23 -1.06,0.69 -1.84,0.69 -1.19,0 -1.97,-1.19 -1.97,-2.3 0,-1.33 1.1,-2.33 2.94,-2.33 3.11,0 4.91,3.11 6.78,6.19 l 1.83,3.03 0.09,0 0.83,-3.58 c 0.88,-3.67 1.75,-5.64 4.08,-5.64 3.34,0 5.09,3.44 6.47,6.24 z"
           inkscape:connector-curvature="0"
           style="fill:#000000;stroke-width:0" /><path
           id="path6532"
           d="m 486.09,411.51 0,-0.05 0,-0.06 0,-0.05 0.01,-0.05 0,-0.05 0.01,-0.05 0.01,-0.04 0,-0.05 0.01,-0.04 0.01,-0.05 0.02,-0.04 0.01,-0.04 0.01,-0.03 0.02,-0.04 0.01,-0.03 0.02,-0.04 0.02,-0.03 0.02,-0.02 0.02,-0.03 0.03,-0.03 0.02,-0.02 0.03,-0.02 0.03,-0.02 0.03,-0.02 0.03,-0.01 0.03,-0.02 0.03,-0.01 0.04,-0.01 0.03,-0.01 0.04,0 0.04,-0.01 0.04,0 c 0.43,0 1.36,0.35 3.04,0.35 2.96,0 4.64,-2.69 4.64,-5.72 0,-4.14 -2.07,-5.61 -4.53,-5.61 -2.3,0 -3.8,1.75 -4.47,3.7 -0.21,0.66 -0.55,0.97 -1.05,0.97 -0.63,0 -1.84,-0.66 -1.84,-1.92 0,-1.49 2.4,-3.97 7.32,-3.97 5.05,0 8.22,2.55 8.22,7 0,4.67 -4.01,6.08 -5.92,6.25 l 0,0.14 c 1.88,0.31 4.91,1.7 4.91,5.16 0,3.86 -3.03,5.56 -6.75,5.56 -4.61,0 -6.88,-2.64 -6.88,-4.14 0,-1.08 1.22,-1.67 1.71,-1.67 0.45,0 0.73,0.25 0.87,0.7 0.77,2.36 2.09,3.89 4.05,3.89 2.75,0 3.4,-2.44 3.4,-4.39 0,-2.08 -0.72,-4.7 -3.68,-4.7 -1.68,0 -2.61,0.36 -3.04,0.36 -0.45,0 -0.62,-0.36 -0.62,-0.99 z"
           inkscape:connector-curvature="0"
           style="fill:#000000;stroke-width:0" /></g>    </g>
    <g
       id="g6694"
       transform="translate(234.42067,494.52744)">
      <g
         id="g6696"
         transform="matrix(1.0629921,0,0,-1.0629921,-186.02362,789.27165)"
         xml:space="preserve"
         stroke-miterlimit="10.433"
         font-style="normal"
         font-variant="normal"
         font-weight="normal"
         font-stretch="normal"
         font-size-adjust="none"
         letter-spacing="normal"
         word-spacing="normal"
         style="font-style:normal;font-variant:normal;font-weight:normal;font-stretch:normal;letter-spacing:normal;word-spacing:normal;text-anchor:start;fill:none;fill-opacity:1;fill-rule:evenodd;stroke:#000000;stroke-linecap:butt;stroke-linejoin:miter;stroke-miterlimit:10.43299961;stroke-dasharray:none;stroke-dashoffset:0;stroke-opacity:1"><path
           d="m 479.73,412.53 -0.21,-0.39 -0.21,-0.4 -0.22,-0.39 -0.21,-0.4 -0.22,-0.38 -0.23,-0.37 -0.11,-0.18 -0.11,-0.18 -0.11,-0.17 -0.12,-0.17 -0.11,-0.16 -0.12,-0.15 -0.11,-0.14 -0.12,-0.14 -0.11,-0.13 -0.12,-0.12 -0.12,-0.12 -0.11,-0.1 -0.12,-0.09 -0.12,-0.08 -0.12,-0.08 -0.12,-0.05 -0.12,-0.05 -0.12,-0.04 -0.11,-0.02 -0.12,0 c -0.88,0 -1.24,1.06 -2.25,5.14 l -1.47,6 c 1.65,2.94 3.98,6.61 5.32,6.61 0.41,0 0.77,-0.1 1.29,-0.38 0.45,-0.17 0.9,-0.36 1.46,-0.36 1,0 1.97,0.97 1.97,2.21 0,1.42 -1.06,1.96 -2.34,1.96 -2.42,0 -4.48,-2.2 -6.09,-4.76 l -2.02,-3.13 -0.09,0 -1.83,7.71 -0.28,0.18 -7.57,-2.29 0.15,-1.1 3.43,0.24 c 0.82,0.03 1.14,-0.19 1.64,-2.3 l 1.66,-6.65 -1.28,-2.19 c -1.97,-3.36 -3.67,-5.74 -4.77,-5.74 -0.47,0 -0.92,0.18 -1.33,0.41 -0.46,0.23 -1.06,0.69 -1.84,0.69 -1.19,0 -1.97,-1.19 -1.97,-2.3 0,-1.33 1.1,-2.33 2.94,-2.33 3.11,0 4.91,3.11 6.78,6.19 l 1.83,3.03 0.09,0 0.83,-3.58 c 0.88,-3.67 1.75,-5.64 4.08,-5.64 3.34,0 5.09,3.44 6.47,6.24 z"
           id="path6698"
           inkscape:connector-curvature="0"
           style="fill:#000000;stroke-width:0" /><path
           d="m 492.01,405 0,1.64 -7.28,0 c 2.09,3.79 4.53,7.81 7.22,12.01 l 0.06,0 0,-12.01 0,-1.64 0,-3.55 c 0,-1.19 -0.39,-1.39 -1.22,-1.47 l -2.23,-0.2 0,-1.02 9.2,0 0,1.02 -1.56,0.17 c -0.81,0.11 -1.05,0.31 -1.05,1.5 l 0,3.55 3.58,0 0,1.64 -3.58,0 0,15.4 -2.54,0 c -3.29,-4.81 -7.18,-10.87 -10.4,-16.31 l 0.32,-0.73 z"
           id="path6700"
           inkscape:connector-curvature="0"
           style="fill:#000000;stroke-width:0" /></g>    </g>
    <g
       id="g6870"
       transform="translate(292.37924,350.57869)">
      <g
         word-spacing="normal"
         letter-spacing="normal"
         font-size-adjust="none"
         font-stretch="normal"
         font-weight="normal"
         font-variant="normal"
         font-style="normal"
         stroke-miterlimit="10.433"
         xml:space="preserve"
         transform="matrix(1.0629921,0,0,-1.0629921,-186.02362,789.27165)"
         id="g6872"
         style="font-style:normal;font-variant:normal;font-weight:normal;font-stretch:normal;letter-spacing:normal;word-spacing:normal;text-anchor:start;fill:none;fill-opacity:1;fill-rule:evenodd;stroke:#000000;stroke-linecap:butt;stroke-linejoin:miter;stroke-miterlimit:10.43299961;stroke-dasharray:none;stroke-dashoffset:0;stroke-opacity:1"><path
           id="path6874"
           d="m 479.73,412.53 -0.21,-0.39 -0.21,-0.4 -0.22,-0.39 -0.21,-0.4 -0.22,-0.38 -0.23,-0.37 -0.11,-0.18 -0.11,-0.18 -0.11,-0.17 -0.12,-0.17 -0.11,-0.16 -0.12,-0.15 -0.11,-0.14 -0.12,-0.14 -0.11,-0.13 -0.12,-0.12 -0.12,-0.12 -0.11,-0.1 -0.12,-0.09 -0.12,-0.08 -0.12,-0.08 -0.12,-0.05 -0.12,-0.05 -0.12,-0.04 -0.11,-0.02 -0.12,0 c -0.88,0 -1.24,1.06 -2.25,5.14 l -1.47,6 c 1.65,2.94 3.98,6.61 5.32,6.61 0.41,0 0.77,-0.1 1.29,-0.38 0.45,-0.17 0.9,-0.36 1.46,-0.36 1,0 1.97,0.97 1.97,2.21 0,1.42 -1.06,1.96 -2.34,1.96 -2.42,0 -4.48,-2.2 -6.09,-4.76 l -2.02,-3.13 -0.09,0 -1.83,7.71 -0.28,0.18 -7.57,-2.29 0.15,-1.1 3.43,0.24 c 0.82,0.03 1.14,-0.19 1.64,-2.3 l 1.66,-6.65 -1.28,-2.19 c -1.97,-3.36 -3.67,-5.74 -4.77,-5.74 -0.47,0 -0.92,0.18 -1.33,0.41 -0.46,0.23 -1.06,0.69 -1.84,0.69 -1.19,0 -1.97,-1.19 -1.97,-2.3 0,-1.33 1.1,-2.33 2.94,-2.33 3.11,0 4.91,3.11 6.78,6.19 l 1.83,3.03 0.09,0 0.83,-3.58 c 0.88,-3.67 1.75,-5.64 4.08,-5.64 3.34,0 5.09,3.44 6.47,6.24 z"
           inkscape:connector-curvature="0"
           style="fill:#000000;stroke-width:0" /><path
           id="path6876"
           d="m 496.4,419.39 0.85,2.37 -0.19,0.28 -11.63,0 -0.36,-0.31 -0.68,-11.67 0.82,-0.42 c 1.47,1.67 2.9,2.47 4.79,2.47 2.21,0 4.65,-1.65 4.65,-6.24 0,-3.59 -1.45,-6.31 -4.48,-6.31 -2.44,0 -3.71,1.78 -4.39,3.76 -0.17,0.54 -0.49,0.85 -0.99,0.85 -0.68,0 -1.84,-0.71 -1.84,-1.86 0,-1.6 2.44,-3.97 6.97,-3.97 5.75,0 8.36,3.48 8.36,7.91 0,4.89 -3.07,7.39 -7.21,7.39 -1.92,0 -3.96,-0.83 -5.09,-1.85 l -0.06,0.07 0.79,6.53 c 0.11,0.86 0.35,1 1.02,1 z"
           inkscape:connector-curvature="0"
           style="fill:#000000;stroke-width:0" /></g>    </g>
    <g
       id="g7054"
       transform="translate(264.69315,210.62994)">
      <g
         id="g7056"
         transform="matrix(1.0629921,0,0,-1.0629921,-186.02362,789.27165)"
         xml:space="preserve"
         stroke-miterlimit="10.433"
         font-style="normal"
         font-variant="normal"
         font-weight="normal"
         font-stretch="normal"
         font-size-adjust="none"
         letter-spacing="normal"
         word-spacing="normal"
         style="font-style:normal;font-variant:normal;font-weight:normal;font-stretch:normal;letter-spacing:normal;word-spacing:normal;text-anchor:start;fill:none;fill-opacity:1;fill-rule:evenodd;stroke:#000000;stroke-linecap:butt;stroke-linejoin:miter;stroke-miterlimit:10.43299961;stroke-dasharray:none;stroke-dashoffset:0;stroke-opacity:1"><path
           d="m 479.73,412.53 -0.21,-0.39 -0.21,-0.4 -0.22,-0.39 -0.21,-0.4 -0.22,-0.38 -0.23,-0.37 -0.11,-0.18 -0.11,-0.18 -0.11,-0.17 -0.12,-0.17 -0.11,-0.16 -0.12,-0.15 -0.11,-0.14 -0.12,-0.14 -0.11,-0.13 -0.12,-0.12 -0.12,-0.12 -0.11,-0.1 -0.12,-0.09 -0.12,-0.08 -0.12,-0.08 -0.12,-0.05 -0.12,-0.05 -0.12,-0.04 -0.11,-0.02 -0.12,0 c -0.88,0 -1.24,1.06 -2.25,5.14 l -1.47,6 c 1.65,2.94 3.98,6.61 5.32,6.61 0.41,0 0.77,-0.1 1.29,-0.38 0.45,-0.17 0.9,-0.36 1.46,-0.36 1,0 1.97,0.97 1.97,2.21 0,1.42 -1.06,1.96 -2.34,1.96 -2.42,0 -4.48,-2.2 -6.09,-4.76 l -2.02,-3.13 -0.09,0 -1.83,7.71 -0.28,0.18 -7.57,-2.29 0.15,-1.1 3.43,0.24 c 0.82,0.03 1.14,-0.19 1.64,-2.3 l 1.66,-6.65 -1.28,-2.19 c -1.97,-3.36 -3.67,-5.74 -4.77,-5.74 -0.47,0 -0.92,0.18 -1.33,0.41 -0.46,0.23 -1.06,0.69 -1.84,0.69 -1.19,0 -1.97,-1.19 -1.97,-2.3 0,-1.33 1.1,-2.33 2.94,-2.33 3.11,0 4.91,3.11 6.78,6.19 l 1.83,3.03 0.09,0 0.83,-3.58 c 0.88,-3.67 1.75,-5.64 4.08,-5.64 3.34,0 5.09,3.44 6.47,6.24 z"
           id="path7058"
           inkscape:connector-curvature="0"
           style="fill:#000000;stroke-width:0" /><path
           d="m 491.04,398.34 0.07,1.22 c -3.04,0 -4.5,3.25 -4.5,7.42 0,2.13 1.57,4.7 4.5,4.7 l 0,0 c 2.2,0 4.35,-1.98 4.35,-5.98 0,-3.66 -1.43,-6.14 -4.35,-6.14 l -0.07,-1.22 c 5.16,0 7.91,3.14 7.91,7.87 0,4.71 -3.03,7.33 -6.66,7.25 -2.65,0.08 -4.73,-1.84 -5.68,-3 l -0.07,0 c 0.03,7.68 2.24,10.77 5.36,10.77 1.61,0 2.72,-1.36 3.25,-3.34 0.1,-0.41 0.38,-0.74 0.91,-0.74 0.76,0 1.84,0.6 1.84,1.58 0,1.39 -1.7,3.72 -5.89,3.72 -2.75,0 -4.7,-1.03 -6.17,-2.72 -1.56,-1.8 -2.75,-5.16 -2.75,-10.2 0,-7.53 2.72,-11.19 7.95,-11.19 z"
           id="path7060"
           inkscape:connector-curvature="0"
           style="fill:#000000;stroke-width:0" /></g>    </g>
    <g
       id="g7246"
       transform="translate(114.50352,93.299167)">
      <g
         word-spacing="normal"
         letter-spacing="normal"
         font-size-adjust="none"
         font-stretch="normal"
         font-weight="normal"
         font-variant="normal"
         font-style="normal"
         stroke-miterlimit="10.433"
         xml:space="preserve"
         transform="matrix(1.0629921,0,0,-1.0629921,-186.02362,789.27165)"
         id="g7248"
         style="font-style:normal;font-variant:normal;font-weight:normal;font-stretch:normal;letter-spacing:normal;word-spacing:normal;text-anchor:start;fill:none;fill-opacity:1;fill-rule:evenodd;stroke:#000000;stroke-linecap:butt;stroke-linejoin:miter;stroke-miterlimit:10.43299961;stroke-dasharray:none;stroke-dashoffset:0;stroke-opacity:1"><path
           id="path7250"
           d="m 479.73,412.53 -0.21,-0.39 -0.21,-0.4 -0.22,-0.39 -0.21,-0.4 -0.22,-0.38 -0.23,-0.37 -0.11,-0.18 -0.11,-0.18 -0.11,-0.17 -0.12,-0.17 -0.11,-0.16 -0.12,-0.15 -0.11,-0.14 -0.12,-0.14 -0.11,-0.13 -0.12,-0.12 -0.12,-0.12 -0.11,-0.1 -0.12,-0.09 -0.12,-0.08 -0.12,-0.08 -0.12,-0.05 -0.12,-0.05 -0.12,-0.04 -0.11,-0.02 -0.12,0 c -0.88,0 -1.24,1.06 -2.25,5.14 l -1.47,6 c 1.65,2.94 3.98,6.61 5.32,6.61 0.41,0 0.77,-0.1 1.29,-0.38 0.45,-0.17 0.9,-0.36 1.46,-0.36 1,0 1.97,0.97 1.97,2.21 0,1.42 -1.06,1.96 -2.34,1.96 -2.42,0 -4.48,-2.2 -6.09,-4.76 l -2.02,-3.13 -0.09,0 -1.83,7.71 -0.28,0.18 -7.57,-2.29 0.15,-1.1 3.43,0.24 c 0.82,0.03 1.14,-0.19 1.64,-2.3 l 1.66,-6.65 -1.28,-2.19 c -1.97,-3.36 -3.67,-5.74 -4.77,-5.74 -0.47,0 -0.92,0.18 -1.33,0.41 -0.46,0.23 -1.06,0.69 -1.84,0.69 -1.19,0 -1.97,-1.19 -1.97,-2.3 0,-1.33 1.1,-2.33 2.94,-2.33 3.11,0 4.91,3.11 6.78,6.19 l 1.83,3.03 0.09,0 0.83,-3.58 c 0.88,-3.67 1.75,-5.64 4.08,-5.64 3.34,0 5.09,3.44 6.47,6.24 z"
           inkscape:connector-curvature="0"
           style="fill:#000000;stroke-width:0" /><path
           id="path7252"
           d="m 484.07,422.04 -1.09,-4.89 0.95,0 0.35,0.74 c 0.45,0.98 0.9,1.5 2.47,1.5 l 9.4,0 c -0.34,-1.25 -0.97,-3.27 -3.79,-7.32 -2.99,-4.28 -4.99,-8.18 -4.99,-12.29 0,-1.16 0.81,-1.44 1.89,-1.44 1.02,0 1.74,0.31 1.7,1.33 -0.17,4.59 0.77,8.29 2.61,11.53 2.24,3.91 4.08,6.06 5.3,10.45 l -0.31,0.39 z"
           inkscape:connector-curvature="0"
           style="fill:#000000;stroke-width:0" /></g>    </g>
  </g>
</svg>
