<?xml version="1.0" encoding="UTF-8" standalone="no"?>
<!-- Created with Inkscape (http://www.inkscape.org/) -->

<svg
   xmlns:dc="http://purl.org/dc/elements/1.1/"
   xmlns:cc="http://creativecommons.org/ns#"
   xmlns:rdf="http://www.w3.org/1999/02/22-rdf-syntax-ns#"
   xmlns:svg="http://www.w3.org/2000/svg"
   xmlns="http://www.w3.org/2000/svg"
   xmlns:sodipodi="http://sodipodi.sourceforge.net/DTD/sodipodi-0.dtd"
   xmlns:inkscape="http://www.inkscape.org/namespaces/inkscape"
   width="91.411316mm"
   height="70.484772mm"
   viewBox="0 0 323.89837 249.74919"
   id="svg2"
   version="1.1"
   inkscape:version="0.91 r13725"
   sodipodi:docname="corrcoeff2.svg">
  <sodipodi:namedview
     id="base"
     pagecolor="#ffffff"
     bordercolor="#666666"
     borderopacity="1.0"
     inkscape:pageopacity="0.0"
     inkscape:pageshadow="2"
     inkscape:zoom="2.2003679"
     inkscape:cx="163.7672"
     inkscape:cy="119.84647"
     inkscape:document-units="px"
     inkscape:current-layer="layer1"
     showgrid="false"
     inkscape:window-width="1600"
     inkscape:window-height="838"
     inkscape:window-x="-8"
     inkscape:window-y="-8"
     inkscape:window-maximized="1"
     fit-margin-top="0"
     fit-margin-left="0"
     fit-margin-right="0"
     fit-margin-bottom="0">
    <inkscape:grid
       originy="-451.12212"
       originx="-177.55965"
       id="grid6800"
       type="xygrid" />
  </sodipodi:namedview>
  <defs
     id="defs4">
    <clipPath
       clipPathUnits="userSpaceOnUse"
       id="clipPath4387">
      <path
         d="m 390,2035 2325.83,0 0,-1791.668 -2325.83,0 0,1791.668 z"
         id="path4389"
         inkscape:connector-curvature="0" />
    </clipPath>
  </defs>
  <metadata
     id="metadata7">
    <rdf:RDF>
      <cc:Work
         rdf:about="">
        <dc:format>image/svg+xml</dc:format>
        <dc:type
           rdf:resource="http://purl.org/dc/dcmitype/StillImage" />
        <dc:title></dc:title>
      </cc:Work>
    </rdf:RDF>
  </metadata>
  <g
     transform="translate(-177.55965,-351.49091)"
     inkscape:label="Layer 1"
     inkscape:groupmode="layer"
     id="layer1">
    <g
       transform="matrix(0.29489744,0,0,0.29489744,149.18472,488.16151)"
       id="g4141">
      <g
         style="font-style:normal;font-variant:normal;font-weight:normal;font-stretch:normal;letter-spacing:normal;word-spacing:normal;text-anchor:start;fill:none;fill-opacity:1;fill-rule:evenodd;stroke:#000000;stroke-linecap:butt;stroke-linejoin:miter;stroke-miterlimit:10.43299961;stroke-dasharray:none;stroke-dashoffset:0;stroke-opacity:1"
         id="content"
         transform="matrix(1.0629921,0,0,-1.0629921,-186.02362,789.27165)"
         xml:space="preserve"
         stroke-miterlimit="10.433"
         font-style="normal"
         font-variant="normal"
         font-weight="normal"
         font-stretch="normal"
         font-size-adjust="none"
         letter-spacing="normal"
         word-spacing="normal"><path
           style="fill:#000000;stroke-width:0"
           inkscape:connector-curvature="0"
           d="m 479.73,412.53 -0.21,-0.39 -0.21,-0.4 -0.22,-0.39 -0.21,-0.4 -0.22,-0.38 -0.23,-0.37 -0.11,-0.18 -0.11,-0.18 -0.11,-0.17 -0.12,-0.17 -0.11,-0.16 -0.12,-0.15 -0.11,-0.14 -0.12,-0.14 -0.11,-0.13 -0.12,-0.12 -0.12,-0.12 -0.11,-0.1 -0.12,-0.09 -0.12,-0.08 -0.12,-0.08 -0.12,-0.05 -0.12,-0.05 -0.12,-0.04 -0.11,-0.02 -0.12,0 c -0.88,0 -1.24,1.06 -2.25,5.14 l -1.47,6 c 1.65,2.94 3.98,6.61 5.32,6.61 0.41,0 0.77,-0.1 1.29,-0.38 0.45,-0.17 0.9,-0.36 1.46,-0.36 1,0 1.97,0.97 1.97,2.21 0,1.42 -1.06,1.96 -2.34,1.96 -2.42,0 -4.48,-2.2 -6.09,-4.76 l -2.02,-3.13 -0.09,0 -1.83,7.71 -0.28,0.18 -7.57,-2.29 0.15,-1.1 3.43,0.24 c 0.82,0.03 1.14,-0.19 1.64,-2.3 l 1.66,-6.65 -1.28,-2.19 c -1.97,-3.36 -3.67,-5.74 -4.77,-5.74 -0.47,0 -0.92,0.18 -1.33,0.41 -0.46,0.23 -1.06,0.69 -1.84,0.69 -1.19,0 -1.97,-1.19 -1.97,-2.3 0,-1.33 1.1,-2.33 2.94,-2.33 3.11,0 4.91,3.11 6.78,6.19 l 1.83,3.03 0.09,0 0.83,-3.58 c 0.88,-3.67 1.75,-5.64 4.08,-5.64 3.34,0 5.09,3.44 6.47,6.24 z"
           id="path4144" /><path
           style="fill:#000000;stroke-width:0"
           inkscape:connector-curvature="0"
           d="m 496.79,398.76 0,1.02 -2.93,0.23 c -0.74,0.08 -1.15,0.36 -1.15,1.72 l 0,20.52 -0.18,0.2 -7.17,-1.22 0,-0.86 3.23,-0.39 c 0.59,-0.06 0.84,-0.34 0.84,-1.36 l 0,-16.89 c 0,-0.67 -0.11,-1.09 -0.31,-1.33 -0.17,-0.25 -0.45,-0.34 -0.84,-0.39 l -2.92,-0.23 0,-1.02 z"
           id="path4146" /></g>    </g>
    <path
       d="m 210.52052,579.74065 290.625,0 0,-223.85375 -290.625,0 0,223.85375 z"
       style="fill:#ffffff;fill-opacity:1;fill-rule:evenodd;stroke:none"
       id="path4177"
       inkscape:connector-curvature="0" />
    <path
       d="m 210.52052,579.74065 0,-223.854 290.625,0 0,223.854 -290.625,0"
       style="fill:none;stroke:#ffffff;stroke-width:0.625;stroke-linecap:butt;stroke-linejoin:round;stroke-miterlimit:10;stroke-dasharray:none;stroke-opacity:1"
       id="path4179"
       inkscape:connector-curvature="0" />
    <path
       d="m 246.77052,579.74065 0,-223.854"
       style="fill:none;stroke:#000000;stroke-width:0.41666624;stroke-linecap:butt;stroke-linejoin:round;stroke-miterlimit:10;stroke-dasharray:0.625, 5;stroke-dashoffset:0;stroke-opacity:1"
       id="path4181"
       inkscape:connector-curvature="0" />
    <path
       d="m 246.77052,355.88665 0,0"
       style="fill:none;stroke:#000000;stroke-width:0.41666624;stroke-linecap:butt;stroke-linejoin:round;stroke-miterlimit:10;stroke-dasharray:0.625, 5;stroke-dashoffset:0;stroke-opacity:1"
       id="path4183"
       inkscape:connector-curvature="0" />
    <path
       d="m 283.12452,579.74065 0,-223.854"
       style="fill:none;stroke:#000000;stroke-width:0.41666624;stroke-linecap:butt;stroke-linejoin:round;stroke-miterlimit:10;stroke-dasharray:0.625, 5;stroke-dashoffset:0;stroke-opacity:1"
       id="path4185"
       inkscape:connector-curvature="0" />
    <path
       d="m 283.12452,355.88665 0,0"
       style="fill:none;stroke:#000000;stroke-width:0.41666624;stroke-linecap:butt;stroke-linejoin:round;stroke-miterlimit:10;stroke-dasharray:0.625, 5;stroke-dashoffset:0;stroke-opacity:1"
       id="path4187"
       inkscape:connector-curvature="0" />
    <path
       d="m 319.47927,579.74065 0,-223.854"
       style="fill:none;stroke:#000000;stroke-width:0.41666624;stroke-linecap:butt;stroke-linejoin:round;stroke-miterlimit:10;stroke-dasharray:0.625, 5;stroke-dashoffset:0;stroke-opacity:1"
       id="path4189"
       inkscape:connector-curvature="0" />
    <path
       d="m 319.47927,355.88665 0,0"
       style="fill:none;stroke:#000000;stroke-width:0.41666624;stroke-linecap:butt;stroke-linejoin:round;stroke-miterlimit:10;stroke-dasharray:0.625, 5;stroke-dashoffset:0;stroke-opacity:1"
       id="path4191"
       inkscape:connector-curvature="0" />
    <path
       d="m 355.83302,579.74065 0,-223.854"
       style="fill:none;stroke:#000000;stroke-width:0.41666624;stroke-linecap:butt;stroke-linejoin:round;stroke-miterlimit:10;stroke-dasharray:0.625, 5;stroke-dashoffset:0;stroke-opacity:1"
       id="path4193"
       inkscape:connector-curvature="0" />
    <path
       d="m 355.83302,355.88665 0,0"
       style="fill:none;stroke:#000000;stroke-width:0.41666624;stroke-linecap:butt;stroke-linejoin:round;stroke-miterlimit:10;stroke-dasharray:0.625, 5;stroke-dashoffset:0;stroke-opacity:1"
       id="path4195"
       inkscape:connector-curvature="0" />
    <path
       d="m 392.08302,579.74065 0,-223.854"
       style="fill:none;stroke:#000000;stroke-width:0.41666624;stroke-linecap:butt;stroke-linejoin:round;stroke-miterlimit:10;stroke-dasharray:0.625, 5;stroke-dashoffset:0;stroke-opacity:1"
       id="path4197"
       inkscape:connector-curvature="0" />
    <path
       d="m 392.08302,355.88665 0,0"
       style="fill:none;stroke:#000000;stroke-width:0.41666624;stroke-linecap:butt;stroke-linejoin:round;stroke-miterlimit:10;stroke-dasharray:0.625, 5;stroke-dashoffset:0;stroke-opacity:1"
       id="path4199"
       inkscape:connector-curvature="0" />
    <path
       d="m 428.43677,579.74065 0,-223.854"
       style="fill:none;stroke:#000000;stroke-width:0.41666624;stroke-linecap:butt;stroke-linejoin:round;stroke-miterlimit:10;stroke-dasharray:0.625, 5;stroke-dashoffset:0;stroke-opacity:1"
       id="path4201"
       inkscape:connector-curvature="0" />
    <path
       d="m 428.43677,355.88665 0,0"
       style="fill:none;stroke:#000000;stroke-width:0.41666624;stroke-linecap:butt;stroke-linejoin:round;stroke-miterlimit:10;stroke-dasharray:0.625, 5;stroke-dashoffset:0;stroke-opacity:1"
       id="path4203"
       inkscape:connector-curvature="0" />
    <path
       d="m 464.79177,579.74065 0,-223.854"
       style="fill:none;stroke:#000000;stroke-width:0.41666624;stroke-linecap:butt;stroke-linejoin:round;stroke-miterlimit:10;stroke-dasharray:0.625, 5;stroke-dashoffset:0;stroke-opacity:1"
       id="path4205"
       inkscape:connector-curvature="0" />
    <path
       d="m 464.79177,355.88665 0,0"
       style="fill:none;stroke:#000000;stroke-width:0.41666624;stroke-linecap:butt;stroke-linejoin:round;stroke-miterlimit:10;stroke-dasharray:0.625, 5;stroke-dashoffset:0;stroke-opacity:1"
       id="path4207"
       inkscape:connector-curvature="0" />
    <path
       d="m 210.52052,579.74065 290.625,0"
       style="fill:none;stroke:#000000;stroke-width:0.41666624;stroke-linecap:butt;stroke-linejoin:round;stroke-miterlimit:10;stroke-dasharray:0.625, 5;stroke-dashoffset:0;stroke-opacity:1"
       id="path4209"
       inkscape:connector-curvature="0" />
    <path
       d="m 501.14552,579.74065 0,0"
       style="fill:none;stroke:#000000;stroke-width:0.41666624;stroke-linecap:butt;stroke-linejoin:round;stroke-miterlimit:10;stroke-dasharray:0.625, 5;stroke-dashoffset:0;stroke-opacity:1"
       id="path4211"
       inkscape:connector-curvature="0" />
    <path
       d="m 210.52052,534.94915 290.625,0"
       style="fill:none;stroke:#000000;stroke-width:0.41666624;stroke-linecap:butt;stroke-linejoin:round;stroke-miterlimit:10;stroke-dasharray:0.625, 5;stroke-dashoffset:0;stroke-opacity:1"
       id="path4213"
       inkscape:connector-curvature="0" />
    <path
       d="m 501.14552,534.94915 0,0"
       style="fill:none;stroke:#000000;stroke-width:0.41666624;stroke-linecap:butt;stroke-linejoin:round;stroke-miterlimit:10;stroke-dasharray:0.625, 5;stroke-dashoffset:0;stroke-opacity:1"
       id="path4215"
       inkscape:connector-curvature="0" />
    <path
       d="m 210.52052,490.15765 290.625,0"
       style="fill:none;stroke:#000000;stroke-width:0.41666624;stroke-linecap:butt;stroke-linejoin:round;stroke-miterlimit:10;stroke-dasharray:0.625, 5;stroke-dashoffset:0;stroke-opacity:1"
       id="path4217"
       inkscape:connector-curvature="0" />
    <path
       d="m 501.14552,490.15765 0,0"
       style="fill:none;stroke:#000000;stroke-width:0.41666624;stroke-linecap:butt;stroke-linejoin:round;stroke-miterlimit:10;stroke-dasharray:0.625, 5;stroke-dashoffset:0;stroke-opacity:1"
       id="path4219"
       inkscape:connector-curvature="0" />
    <path
       d="m 210.52052,445.3654 290.625,0"
       style="fill:none;stroke:#000000;stroke-width:0.41666624;stroke-linecap:butt;stroke-linejoin:round;stroke-miterlimit:10;stroke-dasharray:0.625, 5;stroke-dashoffset:0;stroke-opacity:1"
       id="path4221"
       inkscape:connector-curvature="0" />
    <path
       d="m 501.14552,445.3654 0,0"
       style="fill:none;stroke:#000000;stroke-width:0.41666624;stroke-linecap:butt;stroke-linejoin:round;stroke-miterlimit:10;stroke-dasharray:0.625, 5;stroke-dashoffset:0;stroke-opacity:1"
       id="path4223"
       inkscape:connector-curvature="0" />
    <path
       d="m 210.52052,400.57415 290.625,0"
       style="fill:none;stroke:#000000;stroke-width:0.41666624;stroke-linecap:butt;stroke-linejoin:round;stroke-miterlimit:10;stroke-dasharray:0.625, 5;stroke-dashoffset:0;stroke-opacity:1"
       id="path4225"
       inkscape:connector-curvature="0" />
    <path
       d="m 501.14552,400.57415 0,0"
       style="fill:none;stroke:#000000;stroke-width:0.41666624;stroke-linecap:butt;stroke-linejoin:round;stroke-miterlimit:10;stroke-dasharray:0.625, 5;stroke-dashoffset:0;stroke-opacity:1"
       id="path4227"
       inkscape:connector-curvature="0" />
    <path
       d="m 210.52052,355.88665 290.625,0"
       style="fill:none;stroke:#000000;stroke-width:0.41666624;stroke-linecap:butt;stroke-linejoin:round;stroke-miterlimit:10;stroke-dasharray:0.625, 5;stroke-dashoffset:0;stroke-opacity:1"
       id="path4229"
       inkscape:connector-curvature="0" />
    <path
       d="m 501.14552,355.88665 0,0"
       style="fill:none;stroke:#000000;stroke-width:0.41666624;stroke-linecap:butt;stroke-linejoin:round;stroke-miterlimit:10;stroke-dasharray:0.625, 5;stroke-dashoffset:0;stroke-opacity:1"
       id="path4231"
       inkscape:connector-curvature="0" />
    <path
       d="m 210.52052,355.88665 290.625,0"
       style="fill:none;stroke:#000000;stroke-width:0.625;stroke-linecap:butt;stroke-linejoin:round;stroke-miterlimit:10;stroke-dasharray:none;stroke-opacity:1"
       id="path4233"
       inkscape:connector-curvature="0" />
    <path
       d="m 210.52052,579.74065 290.625,0"
       style="fill:none;stroke:#000000;stroke-width:0.625;stroke-linecap:butt;stroke-linejoin:round;stroke-miterlimit:10;stroke-dasharray:none;stroke-opacity:1"
       id="path4235"
       inkscape:connector-curvature="0" />
    <path
       d="m 501.14552,579.74065 0,-223.854"
       style="fill:none;stroke:#000000;stroke-width:0.625;stroke-linecap:butt;stroke-linejoin:round;stroke-miterlimit:10;stroke-dasharray:none;stroke-opacity:1"
       id="path4237"
       inkscape:connector-curvature="0" />
    <path
       d="m 210.52052,579.74065 0,-223.854"
       style="fill:none;stroke:#000000;stroke-width:0.625;stroke-linecap:butt;stroke-linejoin:round;stroke-miterlimit:10;stroke-dasharray:none;stroke-opacity:1"
       id="path4239"
       inkscape:connector-curvature="0" />
    <path
       d="m 210.52052,579.74065 290.625,0"
       style="fill:none;stroke:#000000;stroke-width:0.625;stroke-linecap:butt;stroke-linejoin:round;stroke-miterlimit:10;stroke-dasharray:none;stroke-opacity:1"
       id="path4241"
       inkscape:connector-curvature="0" />
    <path
       d="m 210.52052,579.74065 0,-223.854"
       style="fill:none;stroke:#000000;stroke-width:0.625;stroke-linecap:butt;stroke-linejoin:round;stroke-miterlimit:10;stroke-dasharray:none;stroke-opacity:1"
       id="path4243"
       inkscape:connector-curvature="0" />
    <path
       d="m 246.77052,579.74065 0,-2.9165"
       style="fill:none;stroke:#000000;stroke-width:0.625;stroke-linecap:butt;stroke-linejoin:round;stroke-miterlimit:10;stroke-dasharray:none;stroke-opacity:1"
       id="path4245"
       inkscape:connector-curvature="0" />
    <path
       d="m 246.77052,355.88665 0,2.8125"
       style="fill:none;stroke:#000000;stroke-width:0.625;stroke-linecap:butt;stroke-linejoin:round;stroke-miterlimit:10;stroke-dasharray:none;stroke-opacity:1"
       id="path4247"
       inkscape:connector-curvature="0" />
    <path
       d="m 283.12452,579.74065 0,-2.9165"
       style="fill:none;stroke:#000000;stroke-width:0.625;stroke-linecap:butt;stroke-linejoin:round;stroke-miterlimit:10;stroke-dasharray:none;stroke-opacity:1"
       id="path4255"
       inkscape:connector-curvature="0" />
    <path
       d="m 283.12452,355.88665 0,2.8125"
       style="fill:none;stroke:#000000;stroke-width:0.625;stroke-linecap:butt;stroke-linejoin:round;stroke-miterlimit:10;stroke-dasharray:none;stroke-opacity:1"
       id="path4257"
       inkscape:connector-curvature="0" />
    <path
       d="m 319.47927,579.74065 0,-2.9165"
       style="fill:none;stroke:#000000;stroke-width:0.625;stroke-linecap:butt;stroke-linejoin:round;stroke-miterlimit:10;stroke-dasharray:none;stroke-opacity:1"
       id="path4265"
       inkscape:connector-curvature="0" />
    <path
       d="m 319.47927,355.88665 0,2.8125"
       style="fill:none;stroke:#000000;stroke-width:0.625;stroke-linecap:butt;stroke-linejoin:round;stroke-miterlimit:10;stroke-dasharray:none;stroke-opacity:1"
       id="path4267"
       inkscape:connector-curvature="0" />
    <path
       d="m 355.83302,579.74065 0,-2.9165"
       style="fill:none;stroke:#000000;stroke-width:0.625;stroke-linecap:butt;stroke-linejoin:round;stroke-miterlimit:10;stroke-dasharray:none;stroke-opacity:1"
       id="path4275"
       inkscape:connector-curvature="0" />
    <path
       d="m 355.83302,355.88665 0,2.8125"
       style="fill:none;stroke:#000000;stroke-width:0.625;stroke-linecap:butt;stroke-linejoin:round;stroke-miterlimit:10;stroke-dasharray:none;stroke-opacity:1"
       id="path4277"
       inkscape:connector-curvature="0" />
    <path
       d="m 392.08302,579.74065 0,-2.9165"
       style="fill:none;stroke:#000000;stroke-width:0.625;stroke-linecap:butt;stroke-linejoin:round;stroke-miterlimit:10;stroke-dasharray:none;stroke-opacity:1"
       id="path4285"
       inkscape:connector-curvature="0" />
    <path
       d="m 392.08302,355.88665 0,2.8125"
       style="fill:none;stroke:#000000;stroke-width:0.625;stroke-linecap:butt;stroke-linejoin:round;stroke-miterlimit:10;stroke-dasharray:none;stroke-opacity:1"
       id="path4287"
       inkscape:connector-curvature="0" />
    <path
       d="m 428.43677,579.74065 0,-2.9165"
       style="fill:none;stroke:#000000;stroke-width:0.625;stroke-linecap:butt;stroke-linejoin:round;stroke-miterlimit:10;stroke-dasharray:none;stroke-opacity:1"
       id="path4295"
       inkscape:connector-curvature="0" />
    <path
       d="m 428.43677,355.88665 0,2.8125"
       style="fill:none;stroke:#000000;stroke-width:0.625;stroke-linecap:butt;stroke-linejoin:round;stroke-miterlimit:10;stroke-dasharray:none;stroke-opacity:1"
       id="path4297"
       inkscape:connector-curvature="0" />
    <path
       d="m 464.79177,579.74065 0,-2.9165"
       style="fill:none;stroke:#000000;stroke-width:0.625;stroke-linecap:butt;stroke-linejoin:round;stroke-miterlimit:10;stroke-dasharray:none;stroke-opacity:1"
       id="path4305"
       inkscape:connector-curvature="0" />
    <path
       d="m 464.79177,355.88665 0,2.8125"
       style="fill:none;stroke:#000000;stroke-width:0.625;stroke-linecap:butt;stroke-linejoin:round;stroke-miterlimit:10;stroke-dasharray:none;stroke-opacity:1"
       id="path4307"
       inkscape:connector-curvature="0" />
    <path
       d="m 210.52052,579.74065 2.8125,0"
       style="fill:none;stroke:#000000;stroke-width:0.625;stroke-linecap:butt;stroke-linejoin:round;stroke-miterlimit:10;stroke-dasharray:none;stroke-opacity:1"
       id="path4315"
       inkscape:connector-curvature="0" />
    <path
       d="m 501.14552,579.74065 -2.91625,0"
       style="fill:none;stroke:#000000;stroke-width:0.625;stroke-linecap:butt;stroke-linejoin:round;stroke-miterlimit:10;stroke-dasharray:none;stroke-opacity:1"
       id="path4317"
       inkscape:connector-curvature="0" />
    <g
       id="g4319"
       transform="matrix(1.25,0,0,-1.25,161.77052,610.26165)">
      <text
         transform="matrix(1,0,0,-1,30.5832,20.5)"
         style="font-variant:normal;font-weight:normal;font-size:11px;font-family:'Times New Roman';-inkscape-font-specification:Times-Roman;writing-mode:lr-tb;fill:#000000;fill-opacity:1;fill-rule:nonzero;stroke:none"
         id="text4321">
        <tspan
           x="0"
           y="0"
           id="tspan4323">0</tspan>
      </text>
    </g>
    <path
       d="m 210.52052,534.94915 2.8125,0"
       style="fill:none;stroke:#000000;stroke-width:0.625;stroke-linecap:butt;stroke-linejoin:round;stroke-miterlimit:10;stroke-dasharray:none;stroke-opacity:1"
       id="path4325"
       inkscape:connector-curvature="0" />
    <path
       d="m 501.14552,534.94915 -2.91625,0"
       style="fill:none;stroke:#000000;stroke-width:0.625;stroke-linecap:butt;stroke-linejoin:round;stroke-miterlimit:10;stroke-dasharray:none;stroke-opacity:1"
       id="path4327"
       inkscape:connector-curvature="0" />
    <g
       id="g4329"
       transform="matrix(1.25,0,0,-1.25,161.77052,610.26165)">
      <text
         transform="matrix(1,0,0,-1,30.5832,56.3332)"
         style="font-variant:normal;font-weight:normal;font-size:11px;font-family:'Times New Roman';-inkscape-font-specification:Times-Roman;writing-mode:lr-tb;fill:#000000;fill-opacity:1;fill-rule:nonzero;stroke:none"
         id="text4331">
        <tspan
           x="0"
           y="0"
           id="tspan4333">5</tspan>
      </text>
    </g>
    <path
       d="m 210.52052,490.15765 2.8125,0"
       style="fill:none;stroke:#000000;stroke-width:0.625;stroke-linecap:butt;stroke-linejoin:round;stroke-miterlimit:10;stroke-dasharray:none;stroke-opacity:1"
       id="path4335"
       inkscape:connector-curvature="0" />
    <path
       d="m 501.14552,490.15765 -2.91625,0"
       style="fill:none;stroke:#000000;stroke-width:0.625;stroke-linecap:butt;stroke-linejoin:round;stroke-miterlimit:10;stroke-dasharray:none;stroke-opacity:1"
       id="path4337"
       inkscape:connector-curvature="0" />
    <g
       id="g4339"
       transform="matrix(1.25,0,0,-1.25,161.77052,610.26165)">
      <text
         transform="matrix(1,0,0,-1,25.0832,92.1668)"
         style="font-variant:normal;font-weight:normal;font-size:11px;font-family:'Times New Roman';-inkscape-font-specification:Times-Roman;writing-mode:lr-tb;fill:#000000;fill-opacity:1;fill-rule:nonzero;stroke:none"
         id="text4341">
        <tspan
           x="0 5.5"
           y="0"
           sodipodi:role="line"
           id="tspan4343">10</tspan>
      </text>
    </g>
    <path
       d="m 210.52052,445.3654 2.8125,0"
       style="fill:none;stroke:#000000;stroke-width:0.625;stroke-linecap:butt;stroke-linejoin:round;stroke-miterlimit:10;stroke-dasharray:none;stroke-opacity:1"
       id="path4345"
       inkscape:connector-curvature="0" />
    <path
       d="m 501.14552,445.3654 -2.91625,0"
       style="fill:none;stroke:#000000;stroke-width:0.625;stroke-linecap:butt;stroke-linejoin:round;stroke-miterlimit:10;stroke-dasharray:none;stroke-opacity:1"
       id="path4347"
       inkscape:connector-curvature="0" />
    <g
       id="g4349"
       transform="matrix(1.25,0,0,-1.25,161.77052,610.26165)">
      <text
         transform="matrix(1,0,0,-1,25.0832,128)"
         style="font-variant:normal;font-weight:normal;font-size:11px;font-family:'Times New Roman';-inkscape-font-specification:Times-Roman;writing-mode:lr-tb;fill:#000000;fill-opacity:1;fill-rule:nonzero;stroke:none"
         id="text4351">
        <tspan
           x="0 5.5"
           y="0"
           sodipodi:role="line"
           id="tspan4353">15</tspan>
      </text>
    </g>
    <path
       d="m 210.52052,400.57415 2.8125,0"
       style="fill:none;stroke:#000000;stroke-width:0.625;stroke-linecap:butt;stroke-linejoin:round;stroke-miterlimit:10;stroke-dasharray:none;stroke-opacity:1"
       id="path4355"
       inkscape:connector-curvature="0" />
    <path
       d="m 501.14552,400.57415 -2.91625,0"
       style="fill:none;stroke:#000000;stroke-width:0.625;stroke-linecap:butt;stroke-linejoin:round;stroke-miterlimit:10;stroke-dasharray:none;stroke-opacity:1"
       id="path4357"
       inkscape:connector-curvature="0" />
    <g
       id="g4359"
       transform="matrix(1.25,0,0,-1.25,161.77052,610.26165)">
      <text
         transform="matrix(1,0,0,-1,25.0832,163.833)"
         style="font-variant:normal;font-weight:normal;font-size:11px;font-family:'Times New Roman';-inkscape-font-specification:Times-Roman;writing-mode:lr-tb;fill:#000000;fill-opacity:1;fill-rule:nonzero;stroke:none"
         id="text4361">
        <tspan
           x="0 5.5"
           y="0"
           sodipodi:role="line"
           id="tspan4363">20</tspan>
      </text>
    </g>
    <path
       d="m 210.52052,355.88665 2.8125,0"
       style="fill:none;stroke:#000000;stroke-width:0.625;stroke-linecap:butt;stroke-linejoin:round;stroke-miterlimit:10;stroke-dasharray:none;stroke-opacity:1"
       id="path4365"
       inkscape:connector-curvature="0" />
    <path
       d="m 501.14552,355.88665 -2.91625,0"
       style="fill:none;stroke:#000000;stroke-width:0.625;stroke-linecap:butt;stroke-linejoin:round;stroke-miterlimit:10;stroke-dasharray:none;stroke-opacity:1"
       id="path4367"
       inkscape:connector-curvature="0" />
    <g
       id="g4369"
       transform="matrix(1.25,0,0,-1.25,161.77052,610.26165)">
      <text
         transform="matrix(1,0,0,-1,25.0832,199.583)"
         style="font-variant:normal;font-weight:normal;font-size:11px;font-family:'Times New Roman';-inkscape-font-specification:Times-Roman;writing-mode:lr-tb;fill:#000000;fill-opacity:1;fill-rule:nonzero;stroke:none"
         id="text4371">
        <tspan
           x="0 5.5"
           y="0"
           sodipodi:role="line"
           id="tspan4373">25</tspan>
      </text>
    </g>
    <path
       d="m 210.52052,355.88665 290.625,0"
       style="fill:none;stroke:#000000;stroke-width:0.625;stroke-linecap:butt;stroke-linejoin:round;stroke-miterlimit:10;stroke-dasharray:none;stroke-opacity:1"
       id="path4375"
       inkscape:connector-curvature="0" />
    <path
       d="m 210.52052,579.74065 290.625,0"
       style="fill:none;stroke:#000000;stroke-width:0.625;stroke-linecap:butt;stroke-linejoin:round;stroke-miterlimit:10;stroke-dasharray:none;stroke-opacity:1"
       id="path4377"
       inkscape:connector-curvature="0" />
    <path
       d="m 501.14552,579.74065 0,-223.854"
       style="fill:none;stroke:#000000;stroke-width:0.625;stroke-linecap:butt;stroke-linejoin:round;stroke-miterlimit:10;stroke-dasharray:none;stroke-opacity:1"
       id="path4379"
       inkscape:connector-curvature="0" />
    <path
       d="m 210.52052,579.74065 0,-223.854"
       style="fill:none;stroke:#000000;stroke-width:0.625;stroke-linecap:butt;stroke-linejoin:round;stroke-miterlimit:10;stroke-dasharray:none;stroke-opacity:1"
       id="path4381"
       inkscape:connector-curvature="0" />
    <g
       transform="matrix(0.125,0,0,-0.125,161.77052,610.26165)"
       id="g4383">
      <g
         id="g4385"
         clip-path="url(#clipPath4387)">
        <path
           d="m 564.168,244.168 232.5,0 0,1576.66 -232.5,0 0,-1576.66 z"
           style="fill:#00008f;fill-opacity:1;fill-rule:evenodd;stroke:none"
           id="path4391"
           inkscape:connector-curvature="0" />
        <path
           d="m 564.168,244.168 0,1576.662 232.5,0 0,-1576.662 -232.5,0"
           style="fill:none;stroke:#000000;stroke-width:5;stroke-linecap:butt;stroke-linejoin:round;stroke-miterlimit:10;stroke-dasharray:none;stroke-opacity:1"
           id="path4393"
           inkscape:connector-curvature="0" />
        <path
           d="m 855,244.168 232.5,0 0,1003.33 -232.5,0 0,-1003.33 z"
           style="fill:#00008f;fill-opacity:1;fill-rule:evenodd;stroke:none"
           id="path4395"
           inkscape:connector-curvature="0" />
        <path
           d="m 855,244.168 0,1003.332 232.5,0 0,-1003.332 -232.5,0"
           style="fill:none;stroke:#000000;stroke-width:5;stroke-linecap:butt;stroke-linejoin:round;stroke-miterlimit:10;stroke-dasharray:none;stroke-opacity:1"
           id="path4397"
           inkscape:connector-curvature="0" />
        <path
           d="m 1145,244.168 232.5,0 0,1361.66 -232.5,0 0,-1361.66 z"
           style="fill:#00008f;fill-opacity:1;fill-rule:evenodd;stroke:none"
           id="path4399"
           inkscape:connector-curvature="0" />
        <path
           d="m 1145,244.168 0,1361.662 232.5,0 0,-1361.662 -232.5,0"
           style="fill:none;stroke:#000000;stroke-width:5;stroke-linecap:butt;stroke-linejoin:round;stroke-miterlimit:10;stroke-dasharray:none;stroke-opacity:1"
           id="path4401"
           inkscape:connector-curvature="0" />
        <path
           d="m 1435.83,244.168 232.5,0 0,1075 -232.5,0 0,-1075 z"
           style="fill:#00008f;fill-opacity:1;fill-rule:evenodd;stroke:none"
           id="path4403"
           inkscape:connector-curvature="0" />
        <path
           d="m 1435.83,244.168 0,1075.002 232.5,0 0,-1075.002 -232.5,0"
           style="fill:none;stroke:#000000;stroke-width:5;stroke-linecap:butt;stroke-linejoin:round;stroke-miterlimit:10;stroke-dasharray:none;stroke-opacity:1"
           id="path4405"
           inkscape:connector-curvature="0" />
        <path
           d="m 1726.67,244.168 232.5,0 0,430 -232.5,0 0,-430 z"
           style="fill:#00008f;fill-opacity:1;fill-rule:evenodd;stroke:none"
           id="path4407"
           inkscape:connector-curvature="0" />
        <path
           d="m 1726.67,244.168 0,430 232.5,0 0,-430 -232.5,0"
           style="fill:none;stroke:#000000;stroke-width:5;stroke-linecap:butt;stroke-linejoin:round;stroke-miterlimit:10;stroke-dasharray:none;stroke-opacity:1"
           id="path4409"
           inkscape:connector-curvature="0" />
        <path
           d="m 2017.5,244.168 232.5,0 0,931.664 -232.5,0 0,-931.664 z"
           style="fill:#00008f;fill-opacity:1;fill-rule:evenodd;stroke:none"
           id="path4411"
           inkscape:connector-curvature="0" />
        <path
           d="m 2017.5,244.168 0,931.662 232.5,0 0,-931.662 -232.5,0"
           style="fill:none;stroke:#000000;stroke-width:5;stroke-linecap:butt;stroke-linejoin:round;stroke-miterlimit:10;stroke-dasharray:none;stroke-opacity:1"
           id="path4413"
           inkscape:connector-curvature="0" />
        <path
           d="m 2307.5,244.168 232.5,0 0,716.664 -232.5,0 0,-716.664 z"
           style="fill:#00008f;fill-opacity:1;fill-rule:evenodd;stroke:none"
           id="path4415"
           inkscape:connector-curvature="0" />
        <path
           d="m 2307.5,244.168 0,716.664 232.5,0 0,-716.664 -232.5,0"
           style="fill:none;stroke:#000000;stroke-width:5;stroke-linecap:butt;stroke-linejoin:round;stroke-miterlimit:10;stroke-dasharray:none;stroke-opacity:1"
           id="path4417"
           inkscape:connector-curvature="0" />
        <path
           d="m 390,244.168 2325,0"
           style="fill:none;stroke:#000000;stroke-width:5;stroke-linecap:butt;stroke-linejoin:round;stroke-miterlimit:10;stroke-dasharray:none;stroke-opacity:1"
           id="path4419"
           inkscape:connector-curvature="0" />
      </g>
    </g>
    <g
       transform="matrix(0.29489744,0,0,0.29489744,185.62245,488.16151)"
       id="g4688">
      <g
         style="font-style:normal;font-variant:normal;font-weight:normal;font-stretch:normal;letter-spacing:normal;word-spacing:normal;text-anchor:start;fill:none;fill-opacity:1;fill-rule:evenodd;stroke:#000000;stroke-linecap:butt;stroke-linejoin:miter;stroke-miterlimit:10.43299961;stroke-dasharray:none;stroke-dashoffset:0;stroke-opacity:1"
         word-spacing="normal"
         letter-spacing="normal"
         font-size-adjust="none"
         font-stretch="normal"
         font-weight="normal"
         font-variant="normal"
         font-style="normal"
         stroke-miterlimit="10.433"
         xml:space="preserve"
         transform="matrix(1.0629921,0,0,-1.0629921,-186.02362,789.27165)"
         id="g4690"><path
           style="fill:#000000;stroke-width:0"
           inkscape:connector-curvature="0"
           id="path4692"
           d="m 479.73,412.53 -0.21,-0.39 -0.21,-0.4 -0.22,-0.39 -0.21,-0.4 -0.22,-0.38 -0.23,-0.37 -0.11,-0.18 -0.11,-0.18 -0.11,-0.17 -0.12,-0.17 -0.11,-0.16 -0.12,-0.15 -0.11,-0.14 -0.12,-0.14 -0.11,-0.13 -0.12,-0.12 -0.12,-0.12 -0.11,-0.1 -0.12,-0.09 -0.12,-0.08 -0.12,-0.08 -0.12,-0.05 -0.12,-0.05 -0.12,-0.04 -0.11,-0.02 -0.12,0 c -0.88,0 -1.24,1.06 -2.25,5.14 l -1.47,6 c 1.65,2.94 3.98,6.61 5.32,6.61 0.41,0 0.77,-0.1 1.29,-0.38 0.45,-0.17 0.9,-0.36 1.46,-0.36 1,0 1.97,0.97 1.97,2.21 0,1.42 -1.06,1.96 -2.34,1.96 -2.42,0 -4.48,-2.2 -6.09,-4.76 l -2.02,-3.13 -0.09,0 -1.83,7.71 -0.28,0.18 -7.57,-2.29 0.15,-1.1 3.43,0.24 c 0.82,0.03 1.14,-0.19 1.64,-2.3 l 1.66,-6.65 -1.28,-2.19 c -1.97,-3.36 -3.67,-5.74 -4.77,-5.74 -0.47,0 -0.92,0.18 -1.33,0.41 -0.46,0.23 -1.06,0.69 -1.84,0.69 -1.19,0 -1.97,-1.19 -1.97,-2.3 0,-1.33 1.1,-2.33 2.94,-2.33 3.11,0 4.91,3.11 6.78,6.19 l 1.83,3.03 0.09,0 0.83,-3.58 c 0.88,-3.67 1.75,-5.64 4.08,-5.64 3.34,0 5.09,3.44 6.47,6.24 z" /><path
           style="fill:#000000;stroke-width:0"
           inkscape:connector-curvature="0"
           id="path4694"
           d="m 498.46,403.36 -0.98,0.18 c -0.73,-1.89 -1.42,-2.14 -2.83,-2.14 l -8.9,0 c 0.54,1.81 2.61,4.3 5.84,6.63 3.34,2.43 5.92,4.01 5.92,7.9 0,4.85 -3.2,6.52 -6.86,6.52 -4.76,0 -7.25,-2.89 -7.25,-4.7 0,-1.18 1.33,-1.74 1.92,-1.74 0.63,0 0.88,0.35 1.02,0.94 0.55,2.37 1.91,4.28 4.06,4.28 2.69,0 3.46,-2.27 3.46,-4.8 0,-3.73 -1.88,-5.82 -4.91,-8.5 -4.3,-3.73 -5.78,-6.11 -6.45,-8.82 l 0.36,-0.35 14.42,0 z" /></g>    </g>
    <g
       transform="matrix(0.29489744,0,0,0.29489744,221.65428,488.09568)"
       id="g4978">
      <g
         style="font-style:normal;font-variant:normal;font-weight:normal;font-stretch:normal;letter-spacing:normal;word-spacing:normal;text-anchor:start;fill:none;fill-opacity:1;fill-rule:evenodd;stroke:#000000;stroke-linecap:butt;stroke-linejoin:miter;stroke-miterlimit:10.43299961;stroke-dasharray:none;stroke-dashoffset:0;stroke-opacity:1"
         id="g4980"
         transform="matrix(1.0629921,0,0,-1.0629921,-186.02362,789.27165)"
         xml:space="preserve"
         stroke-miterlimit="10.433"
         font-style="normal"
         font-variant="normal"
         font-weight="normal"
         font-stretch="normal"
         font-size-adjust="none"
         letter-spacing="normal"
         word-spacing="normal"><path
           style="fill:#000000;stroke-width:0"
           inkscape:connector-curvature="0"
           d="m 479.73,412.53 -0.21,-0.39 -0.21,-0.4 -0.22,-0.39 -0.21,-0.4 -0.22,-0.38 -0.23,-0.37 -0.11,-0.18 -0.11,-0.18 -0.11,-0.17 -0.12,-0.17 -0.11,-0.16 -0.12,-0.15 -0.11,-0.14 -0.12,-0.14 -0.11,-0.13 -0.12,-0.12 -0.12,-0.12 -0.11,-0.1 -0.12,-0.09 -0.12,-0.08 -0.12,-0.08 -0.12,-0.05 -0.12,-0.05 -0.12,-0.04 -0.11,-0.02 -0.12,0 c -0.88,0 -1.24,1.06 -2.25,5.14 l -1.47,6 c 1.65,2.94 3.98,6.61 5.32,6.61 0.41,0 0.77,-0.1 1.29,-0.38 0.45,-0.17 0.9,-0.36 1.46,-0.36 1,0 1.97,0.97 1.97,2.21 0,1.42 -1.06,1.96 -2.34,1.96 -2.42,0 -4.48,-2.2 -6.09,-4.76 l -2.02,-3.13 -0.09,0 -1.83,7.71 -0.28,0.18 -7.57,-2.29 0.15,-1.1 3.43,0.24 c 0.82,0.03 1.14,-0.19 1.64,-2.3 l 1.66,-6.65 -1.28,-2.19 c -1.97,-3.36 -3.67,-5.74 -4.77,-5.74 -0.47,0 -0.92,0.18 -1.33,0.41 -0.46,0.23 -1.06,0.69 -1.84,0.69 -1.19,0 -1.97,-1.19 -1.97,-2.3 0,-1.33 1.1,-2.33 2.94,-2.33 3.11,0 4.91,3.11 6.78,6.19 l 1.83,3.03 0.09,0 0.83,-3.58 c 0.88,-3.67 1.75,-5.64 4.08,-5.64 3.34,0 5.09,3.44 6.47,6.24 z"
           id="path4982" /><path
           style="fill:#000000;stroke-width:0"
           inkscape:connector-curvature="0"
           d="m 486.09,411.51 0,-0.05 0,-0.06 0,-0.05 0.01,-0.05 0,-0.05 0.01,-0.05 0.01,-0.04 0,-0.05 0.01,-0.04 0.01,-0.05 0.02,-0.04 0.01,-0.04 0.01,-0.03 0.02,-0.04 0.01,-0.03 0.02,-0.04 0.02,-0.03 0.02,-0.02 0.02,-0.03 0.03,-0.03 0.02,-0.02 0.03,-0.02 0.03,-0.02 0.03,-0.02 0.03,-0.01 0.03,-0.02 0.03,-0.01 0.04,-0.01 0.03,-0.01 0.04,0 0.04,-0.01 0.04,0 c 0.43,0 1.36,0.35 3.04,0.35 2.96,0 4.64,-2.69 4.64,-5.72 0,-4.14 -2.07,-5.61 -4.53,-5.61 -2.3,0 -3.8,1.75 -4.47,3.7 -0.21,0.66 -0.55,0.97 -1.05,0.97 -0.63,0 -1.84,-0.66 -1.84,-1.92 0,-1.49 2.4,-3.97 7.32,-3.97 5.05,0 8.22,2.55 8.22,7 0,4.67 -4.01,6.08 -5.92,6.25 l 0,0.14 c 1.88,0.31 4.91,1.7 4.91,5.16 0,3.86 -3.03,5.56 -6.75,5.56 -4.61,0 -6.88,-2.64 -6.88,-4.14 0,-1.08 1.22,-1.67 1.71,-1.67 0.45,0 0.73,0.25 0.87,0.7 0.77,2.36 2.09,3.89 4.05,3.89 2.75,0 3.4,-2.44 3.4,-4.39 0,-2.08 -0.72,-4.7 -3.68,-4.7 -1.68,0 -2.61,0.36 -3.04,0.36 -0.45,0 -0.62,-0.36 -0.62,-0.99 z"
           id="path4984" /></g>    </g>
    <g
       transform="matrix(0.29489744,0,0,0.29489744,258.98478,488.16151)"
       id="g5276">
      <g
         style="font-style:normal;font-variant:normal;font-weight:normal;font-stretch:normal;letter-spacing:normal;word-spacing:normal;text-anchor:start;fill:none;fill-opacity:1;fill-rule:evenodd;stroke:#000000;stroke-linecap:butt;stroke-linejoin:miter;stroke-miterlimit:10.43299961;stroke-dasharray:none;stroke-dashoffset:0;stroke-opacity:1"
         word-spacing="normal"
         letter-spacing="normal"
         font-size-adjust="none"
         font-stretch="normal"
         font-weight="normal"
         font-variant="normal"
         font-style="normal"
         stroke-miterlimit="10.433"
         xml:space="preserve"
         transform="matrix(1.0629921,0,0,-1.0629921,-186.02362,789.27165)"
         id="g5278"><path
           style="fill:#000000;stroke-width:0"
           inkscape:connector-curvature="0"
           id="path5280"
           d="m 479.73,412.53 -0.21,-0.39 -0.21,-0.4 -0.22,-0.39 -0.21,-0.4 -0.22,-0.38 -0.23,-0.37 -0.11,-0.18 -0.11,-0.18 -0.11,-0.17 -0.12,-0.17 -0.11,-0.16 -0.12,-0.15 -0.11,-0.14 -0.12,-0.14 -0.11,-0.13 -0.12,-0.12 -0.12,-0.12 -0.11,-0.1 -0.12,-0.09 -0.12,-0.08 -0.12,-0.08 -0.12,-0.05 -0.12,-0.05 -0.12,-0.04 -0.11,-0.02 -0.12,0 c -0.88,0 -1.24,1.06 -2.25,5.14 l -1.47,6 c 1.65,2.94 3.98,6.61 5.32,6.61 0.41,0 0.77,-0.1 1.29,-0.38 0.45,-0.17 0.9,-0.36 1.46,-0.36 1,0 1.97,0.97 1.97,2.21 0,1.42 -1.06,1.96 -2.34,1.96 -2.42,0 -4.48,-2.2 -6.09,-4.76 l -2.02,-3.13 -0.09,0 -1.83,7.71 -0.28,0.18 -7.57,-2.29 0.15,-1.1 3.43,0.24 c 0.82,0.03 1.14,-0.19 1.64,-2.3 l 1.66,-6.65 -1.28,-2.19 c -1.97,-3.36 -3.67,-5.74 -4.77,-5.74 -0.47,0 -0.92,0.18 -1.33,0.41 -0.46,0.23 -1.06,0.69 -1.84,0.69 -1.19,0 -1.97,-1.19 -1.97,-2.3 0,-1.33 1.1,-2.33 2.94,-2.33 3.11,0 4.91,3.11 6.78,6.19 l 1.83,3.03 0.09,0 0.83,-3.58 c 0.88,-3.67 1.75,-5.64 4.08,-5.64 3.34,0 5.09,3.44 6.47,6.24 z" /><path
           style="fill:#000000;stroke-width:0"
           inkscape:connector-curvature="0"
           id="path5282"
           d="m 492.01,405 0,1.64 -7.28,0 c 2.09,3.79 4.53,7.81 7.22,12.01 l 0.06,0 0,-12.01 0,-1.64 0,-3.55 c 0,-1.19 -0.39,-1.39 -1.22,-1.47 l -2.23,-0.2 0,-1.02 9.2,0 0,1.02 -1.56,0.17 c -0.81,0.11 -1.05,0.31 -1.05,1.5 l 0,3.55 3.58,0 0,1.64 -3.58,0 0,15.4 -2.54,0 c -3.29,-4.81 -7.18,-10.87 -10.4,-16.31 l 0.32,-0.73 z" /></g>    </g>
    <g
       transform="matrix(0.29489744,0,0,0.29489744,296.64493,488.09568)"
       id="g5582">
      <g
         style="font-style:normal;font-variant:normal;font-weight:normal;font-stretch:normal;letter-spacing:normal;word-spacing:normal;text-anchor:start;fill:none;fill-opacity:1;fill-rule:evenodd;stroke:#000000;stroke-linecap:butt;stroke-linejoin:miter;stroke-miterlimit:10.43299961;stroke-dasharray:none;stroke-dashoffset:0;stroke-opacity:1"
         id="g5584"
         transform="matrix(1.0629921,0,0,-1.0629921,-186.02362,789.27165)"
         xml:space="preserve"
         stroke-miterlimit="10.433"
         font-style="normal"
         font-variant="normal"
         font-weight="normal"
         font-stretch="normal"
         font-size-adjust="none"
         letter-spacing="normal"
         word-spacing="normal"><path
           style="fill:#000000;stroke-width:0"
           inkscape:connector-curvature="0"
           d="m 479.73,412.53 -0.21,-0.39 -0.21,-0.4 -0.22,-0.39 -0.21,-0.4 -0.22,-0.38 -0.23,-0.37 -0.11,-0.18 -0.11,-0.18 -0.11,-0.17 -0.12,-0.17 -0.11,-0.16 -0.12,-0.15 -0.11,-0.14 -0.12,-0.14 -0.11,-0.13 -0.12,-0.12 -0.12,-0.12 -0.11,-0.1 -0.12,-0.09 -0.12,-0.08 -0.12,-0.08 -0.12,-0.05 -0.12,-0.05 -0.12,-0.04 -0.11,-0.02 -0.12,0 c -0.88,0 -1.24,1.06 -2.25,5.14 l -1.47,6 c 1.65,2.94 3.98,6.61 5.32,6.61 0.41,0 0.77,-0.1 1.29,-0.38 0.45,-0.17 0.9,-0.36 1.46,-0.36 1,0 1.97,0.97 1.97,2.21 0,1.42 -1.06,1.96 -2.34,1.96 -2.42,0 -4.48,-2.2 -6.09,-4.76 l -2.02,-3.13 -0.09,0 -1.83,7.71 -0.28,0.18 -7.57,-2.29 0.15,-1.1 3.43,0.24 c 0.82,0.03 1.14,-0.19 1.64,-2.3 l 1.66,-6.65 -1.28,-2.19 c -1.97,-3.36 -3.67,-5.74 -4.77,-5.74 -0.47,0 -0.92,0.18 -1.33,0.41 -0.46,0.23 -1.06,0.69 -1.84,0.69 -1.19,0 -1.97,-1.19 -1.97,-2.3 0,-1.33 1.1,-2.33 2.94,-2.33 3.11,0 4.91,3.11 6.78,6.19 l 1.83,3.03 0.09,0 0.83,-3.58 c 0.88,-3.67 1.75,-5.64 4.08,-5.64 3.34,0 5.09,3.44 6.47,6.24 z"
           id="path5586" /><path
           style="fill:#000000;stroke-width:0"
           inkscape:connector-curvature="0"
           d="m 496.4,419.39 0.85,2.37 -0.19,0.28 -11.63,0 -0.36,-0.31 -0.68,-11.67 0.82,-0.42 c 1.47,1.67 2.9,2.47 4.79,2.47 2.21,0 4.65,-1.65 4.65,-6.24 0,-3.59 -1.45,-6.31 -4.48,-6.31 -2.44,0 -3.71,1.78 -4.39,3.76 -0.17,0.54 -0.49,0.85 -0.99,0.85 -0.68,0 -1.84,-0.71 -1.84,-1.86 0,-1.6 2.44,-3.97 6.97,-3.97 5.75,0 8.36,3.48 8.36,7.91 0,4.89 -3.07,7.39 -7.21,7.39 -1.92,0 -3.96,-0.83 -5.09,-1.85 l -0.06,0.07 0.79,6.53 c 0.11,0.86 0.35,1 1.02,1 z"
           id="path5588" /></g>    </g>
    <g
       transform="matrix(0.29489744,0,0,0.29489744,332.61679,488.09568)"
       id="g5896">
      <g
         style="font-style:normal;font-variant:normal;font-weight:normal;font-stretch:normal;letter-spacing:normal;word-spacing:normal;text-anchor:start;fill:none;fill-opacity:1;fill-rule:evenodd;stroke:#000000;stroke-linecap:butt;stroke-linejoin:miter;stroke-miterlimit:10.43299961;stroke-dasharray:none;stroke-dashoffset:0;stroke-opacity:1"
         word-spacing="normal"
         letter-spacing="normal"
         font-size-adjust="none"
         font-stretch="normal"
         font-weight="normal"
         font-variant="normal"
         font-style="normal"
         stroke-miterlimit="10.433"
         xml:space="preserve"
         transform="matrix(1.0629921,0,0,-1.0629921,-186.02362,789.27165)"
         id="g5898"><path
           style="fill:#000000;stroke-width:0"
           inkscape:connector-curvature="0"
           id="path5900"
           d="m 479.73,412.53 -0.21,-0.39 -0.21,-0.4 -0.22,-0.39 -0.21,-0.4 -0.22,-0.38 -0.23,-0.37 -0.11,-0.18 -0.11,-0.18 -0.11,-0.17 -0.12,-0.17 -0.11,-0.16 -0.12,-0.15 -0.11,-0.14 -0.12,-0.14 -0.11,-0.13 -0.12,-0.12 -0.12,-0.12 -0.11,-0.1 -0.12,-0.09 -0.12,-0.08 -0.12,-0.08 -0.12,-0.05 -0.12,-0.05 -0.12,-0.04 -0.11,-0.02 -0.12,0 c -0.88,0 -1.24,1.06 -2.25,5.14 l -1.47,6 c 1.65,2.94 3.98,6.61 5.32,6.61 0.41,0 0.77,-0.1 1.29,-0.38 0.45,-0.17 0.9,-0.36 1.46,-0.36 1,0 1.97,0.97 1.97,2.21 0,1.42 -1.06,1.96 -2.34,1.96 -2.42,0 -4.48,-2.2 -6.09,-4.76 l -2.02,-3.13 -0.09,0 -1.83,7.71 -0.28,0.18 -7.57,-2.29 0.15,-1.1 3.43,0.24 c 0.82,0.03 1.14,-0.19 1.64,-2.3 l 1.66,-6.65 -1.28,-2.19 c -1.97,-3.36 -3.67,-5.74 -4.77,-5.74 -0.47,0 -0.92,0.18 -1.33,0.41 -0.46,0.23 -1.06,0.69 -1.84,0.69 -1.19,0 -1.97,-1.19 -1.97,-2.3 0,-1.33 1.1,-2.33 2.94,-2.33 3.11,0 4.91,3.11 6.78,6.19 l 1.83,3.03 0.09,0 0.83,-3.58 c 0.88,-3.67 1.75,-5.64 4.08,-5.64 3.34,0 5.09,3.44 6.47,6.24 z" /><path
           style="fill:#000000;stroke-width:0"
           inkscape:connector-curvature="0"
           id="path5902"
           d="m 491.04,398.34 0.07,1.22 c -3.04,0 -4.5,3.25 -4.5,7.42 0,2.13 1.57,4.7 4.5,4.7 l 0,0 c 2.2,0 4.35,-1.98 4.35,-5.98 0,-3.66 -1.43,-6.14 -4.35,-6.14 l -0.07,-1.22 c 5.16,0 7.91,3.14 7.91,7.87 0,4.71 -3.03,7.33 -6.66,7.25 -2.65,0.08 -4.73,-1.84 -5.68,-3 l -0.07,0 c 0.03,7.68 2.24,10.77 5.36,10.77 1.61,0 2.72,-1.36 3.25,-3.34 0.1,-0.41 0.38,-0.74 0.91,-0.74 0.76,0 1.84,0.6 1.84,1.58 0,1.39 -1.7,3.72 -5.89,3.72 -2.75,0 -4.7,-1.03 -6.17,-2.72 -1.56,-1.8 -2.75,-5.16 -2.75,-10.2 0,-7.53 2.72,-11.19 7.95,-11.19 z" /></g>    </g>
    <g
       transform="matrix(0.29489744,0,0,0.29489744,368.81063,488.09568)"
       id="g6218">
      <g
         style="font-style:normal;font-variant:normal;font-weight:normal;font-stretch:normal;letter-spacing:normal;word-spacing:normal;text-anchor:start;fill:none;fill-opacity:1;fill-rule:evenodd;stroke:#000000;stroke-linecap:butt;stroke-linejoin:miter;stroke-miterlimit:10.43299961;stroke-dasharray:none;stroke-dashoffset:0;stroke-opacity:1"
         id="g6220"
         transform="matrix(1.0629921,0,0,-1.0629921,-186.02362,789.27165)"
         xml:space="preserve"
         stroke-miterlimit="10.433"
         font-style="normal"
         font-variant="normal"
         font-weight="normal"
         font-stretch="normal"
         font-size-adjust="none"
         letter-spacing="normal"
         word-spacing="normal"><path
           style="fill:#000000;stroke-width:0"
           inkscape:connector-curvature="0"
           d="m 479.73,412.53 -0.21,-0.39 -0.21,-0.4 -0.22,-0.39 -0.21,-0.4 -0.22,-0.38 -0.23,-0.37 -0.11,-0.18 -0.11,-0.18 -0.11,-0.17 -0.12,-0.17 -0.11,-0.16 -0.12,-0.15 -0.11,-0.14 -0.12,-0.14 -0.11,-0.13 -0.12,-0.12 -0.12,-0.12 -0.11,-0.1 -0.12,-0.09 -0.12,-0.08 -0.12,-0.08 -0.12,-0.05 -0.12,-0.05 -0.12,-0.04 -0.11,-0.02 -0.12,0 c -0.88,0 -1.24,1.06 -2.25,5.14 l -1.47,6 c 1.65,2.94 3.98,6.61 5.32,6.61 0.41,0 0.77,-0.1 1.29,-0.38 0.45,-0.17 0.9,-0.36 1.46,-0.36 1,0 1.97,0.97 1.97,2.21 0,1.42 -1.06,1.96 -2.34,1.96 -2.42,0 -4.48,-2.2 -6.09,-4.76 l -2.02,-3.13 -0.09,0 -1.83,7.71 -0.28,0.18 -7.57,-2.29 0.15,-1.1 3.43,0.24 c 0.82,0.03 1.14,-0.19 1.64,-2.3 l 1.66,-6.65 -1.28,-2.19 c -1.97,-3.36 -3.67,-5.74 -4.77,-5.74 -0.47,0 -0.92,0.18 -1.33,0.41 -0.46,0.23 -1.06,0.69 -1.84,0.69 -1.19,0 -1.97,-1.19 -1.97,-2.3 0,-1.33 1.1,-2.33 2.94,-2.33 3.11,0 4.91,3.11 6.78,6.19 l 1.83,3.03 0.09,0 0.83,-3.58 c 0.88,-3.67 1.75,-5.64 4.08,-5.64 3.34,0 5.09,3.44 6.47,6.24 z"
           id="path6222" /><path
           style="fill:#000000;stroke-width:0"
           inkscape:connector-curvature="0"
           d="m 484.07,422.04 -1.09,-4.89 0.95,0 0.35,0.74 c 0.45,0.98 0.9,1.5 2.47,1.5 l 9.4,0 c -0.34,-1.25 -0.97,-3.27 -3.79,-7.32 -2.99,-4.28 -4.99,-8.18 -4.99,-12.29 0,-1.16 0.81,-1.44 1.89,-1.44 1.02,0 1.74,0.31 1.7,1.33 -0.17,4.59 0.77,8.29 2.61,11.53 2.24,3.91 4.08,6.06 5.3,10.45 l -0.31,0.39 z"
           id="path6224" /></g>    </g>
    <g
       id="g6937"
       transform="matrix(0.88700841,0,0,0.84666965,89.418763,400.32822)">
      <g
         word-spacing="normal"
         letter-spacing="normal"
         font-size-adjust="none"
         font-stretch="normal"
         font-weight="normal"
         font-variant="normal"
         font-style="normal"
         stroke-miterlimit="10.433"
         xml:space="preserve"
         transform="matrix(0.35678456,0,0,-0.35678456,-62.437298,231.02857)"
         id="g6939"
         style="font-style:normal;font-variant:normal;font-weight:normal;font-stretch:normal;letter-spacing:normal;word-spacing:normal;text-anchor:start;fill:none;fill-opacity:1;fill-rule:evenodd;stroke:#000000;stroke-linecap:butt;stroke-linejoin:miter;stroke-miterlimit:10.43299961;stroke-dasharray:none;stroke-dashoffset:0;stroke-opacity:1"><path
           id="path6941"
           d="m 484.41,405.65 0,1.47 c -2.39,0 -3.81,2.52 -3.81,6.92 0,4.77 1.51,6.92 3.81,6.92 l 0,0 c 2.33,0 3.84,-2.15 3.84,-6.92 0,-4.4 -1.42,-6.92 -3.84,-6.92 l 0,-1.47 c 4.91,0 7.23,3.11 7.23,8.39 0,5.27 -2.32,8.39 -7.23,8.39 -4.86,0 -7.2,-3.12 -7.2,-8.39 0,-5.28 2.34,-8.39 7.2,-8.39 z"
           inkscape:connector-curvature="0"
           style="fill:#000000;stroke-width:0" /><path
           id="path6943"
           d="m 485.74,437.32 -1.56,0.97 -1.11,-1.56 c -0.82,-1.14 -1.69,-1.42 -3.25,-1.52 l -7.75,0 c -1.05,0 -1.28,0.15 -1.97,0.61 -1.24,0.91 -2.75,1.55 -5.1,1.55 l 0,-1.47 c 2.35,0 3.86,-2.15 3.86,-6.92 0,-4.39 -1.42,-6.92 -3.86,-6.92 -2.37,0 -3.79,2.53 -3.79,6.92 0,4.77 1.51,6.92 3.79,6.92 l 0,0 0,1.47 c -4.86,0 -7.18,-3.11 -7.18,-8.39 0,-5.27 2.32,-8.39 7.18,-8.39 4.91,0 7.25,3.12 7.25,8.39 0,2.39 -0.28,3.91 -0.59,4.77 l 9.39,0 -17.14,-27.46 1.66,-1.23 z"
           inkscape:connector-curvature="0"
           style="fill:#000000;stroke-width:0" /></g>    </g>
  </g>
</svg>
